<svg xmlns="http://www.w3.org/2000/svg" xmlns:xlink="http://www.w3.org/1999/xlink" version="1.1" width="608.3" height="763.6" viewBox="69.9 136.9 608.3 763.6"><defs><marker orient="auto" overflow="visible" markerUnits="userSpaceOnUse"><path stroke="#333333" fill="#333333" d="M 8 -4 0 0 8 4 z"/></marker><marker orient="auto" overflow="visible" markerUnits="userSpaceOnUse"><path stroke="#333333" fill="#333333" transform="rotate(180)" d="M 8 -4 0 0 8 4 z"/></marker><marker orient="auto" overflow="visible" markerUnits="userSpaceOnUse"><path stroke="#333333" fill="#333333" d="M 0 0 0 0"/></marker></defs><g><g data-type="tp.Element" transform="translate(370.2,377.5)"><g><g>
<path d="M238,0H0v287h238V0L238,0z" fill="#FFFFFF" stroke="#000000"/>
<rect x="10.4" y="13.1" width="217.2" height="260.8" fill="none"/>
<circle fill="none" cx="119" cy="0" r="0.1"/>
<circle fill="none" cx="178" cy="0" r="0.1"/>
<circle fill="none" cx="238" cy="72.4" r="0.1"/>
<circle fill="none" cx="238" cy="143.5" r="0.1"/>
<circle fill="none" cx="238" cy="214.6" r="0.1"/>
<circle fill="none" cx="178" cy="287" r="0.1"/>
<circle fill="none" cx="119" cy="287" r="0.1"/>
<circle fill="none" cx="60" cy="287" r="0.1"/>
<circle fill="none" cx="0" cy="214.6" r="0.1"/>
<circle fill="none" cx="0" cy="143.5" r="0.1"/>
<circle fill="none" cx="0" cy="72.4" r="0.1"/>
<circle fill="none" cx="60" cy="0" r="0.1"/>
</g></g><g><rect stroke="none" fill="#ffffff" width="0" height="0"/><path stroke="#000000" fill="none" d=""/><text font-size="18.7" xml:space="preserve" display="none" font-family="OpenSansCondensedLight" fill="black" text-anchor="middle"><tspan dy="0.3em" style="fill-opacity: 0; stroke-opacity: 0;">-</tspan></text></g><text font-size="18.7" xml:space="preserve" font-family="OpenSansCondensedLight" line-height="21" fill="black" text-anchor="middle" text-vertical-anchor="top" transform="matrix(1,0,0,1,119,13.1)"><tspan dy="14.9">NAVIGATION BOARD</tspan><tspan dy="21" x="0"><tspan text-decoration="underline">1028</tspan></tspan></text></g><g data-type="tp.Element" transform="translate(218,294)"><g><g>
<path d="M102,0H0v208h102V0L102,0z" fill="#FFFFFF" stroke="#000000"/>
<rect x="4.5" y="9.5" width="93.1" height="189" fill="none"/>
<circle fill="none" cx="51" cy="0" r="0.1"/>
<circle fill="none" cx="76.3" cy="0" r="0.1"/>
<circle fill="none" cx="102" cy="52.5" r="0.1"/>
<circle fill="none" cx="102" cy="104" r="0.1"/>
<circle fill="none" cx="102" cy="155.5" r="0.1"/>
<circle fill="none" cx="76.3" cy="208" r="0.1"/>
<circle fill="none" cx="51" cy="208" r="0.1"/>
<circle fill="none" cx="25.7" cy="208" r="0.1"/>
<circle fill="none" cx="0" cy="155.5" r="0.1"/>
<circle fill="none" cx="0" cy="104" r="0.1"/>
<circle fill="none" cx="0" cy="52.5" r="0.1"/>
<circle fill="none" cx="25.7" cy="0" r="0.1"/>
</g></g><g><rect stroke="none" fill="#ffffff" width="0" height="0"/><path stroke="#000000" fill="none" d=""/><text font-size="18.7" xml:space="preserve" display="none" font-family="OpenSansCondensedLight" fill="black" text-anchor="middle"><tspan dy="0.3em" style="fill-opacity: 0; stroke-opacity: 0;">-</tspan></text></g><text font-size="18.7" xml:space="preserve" font-family="OpenSansCondensedLight" line-height="21" fill="black" text-anchor="middle" text-vertical-anchor="middle" transform="matrix(1,0,0,1,51,104)"><tspan dy="-14.5">MAIN</tspan><tspan dy="21" x="0">CONTROLLER</tspan><tspan dy="21" x="0"><tspan text-decoration="underline">1006</tspan></tspan></text></g><g data-type="tp.Element" transform="translate(442,561)"><g><g>
<path d="M94.5,0H0v94.5h94.5V0L94.5,0z" fill="#FFFFFF" stroke="#000000"/>
<rect x="4.1" y="4.3" width="86.2" height="85.9" fill="none"/>
<circle fill="none" cx="47.2" cy="0" r="0.1"/>
<circle fill="none" cx="70.7" cy="0" r="0.1"/>
<circle fill="none" cx="94.5" cy="23.8" r="0.1"/>
<circle fill="none" cx="94.5" cy="47.2" r="0.1"/>
<circle fill="none" cx="94.5" cy="70.7" r="0.1"/>
<circle fill="none" cx="70.7" cy="94.5" r="0.1"/>
<circle fill="none" cx="47.2" cy="94.5" r="0.1"/>
<circle fill="none" cx="23.8" cy="94.5" r="0.1"/>
<circle fill="none" cx="0" cy="70.7" r="0.1"/>
<circle fill="none" cx="0" cy="47.2" r="0.1"/>
<circle fill="none" cx="0" cy="23.8" r="0.1"/>
<circle fill="none" cx="23.8" cy="0" r="0.1"/>
</g></g><g><rect stroke="none" fill="#ffffff" width="0" height="0"/><path stroke="#000000" fill="none" d=""/><text font-size="18.7" xml:space="preserve" display="none" font-family="OpenSansCondensedLight" fill="black" text-anchor="middle"><tspan dy="0.3em" style="fill-opacity: 0; stroke-opacity: 0;">-</tspan></text></g><text font-size="18.7" xml:space="preserve" font-family="OpenSansCondensedLight" line-height="21" fill="black" text-anchor="middle" text-vertical-anchor="middle" transform="matrix(1,0,0,1,47.2,47.2)"><tspan dy="-14.5">MOTOR</tspan><tspan dy="21" x="0">CONTROL</tspan><tspan dy="21" x="0"><tspan text-decoration="underline">1014</tspan></tspan></text></g><g data-type="tp.Element" transform="translate(70,294)"><g><g>
<path d="M103,0H0v64h103V0L103,0z" fill="#FFFFFF" stroke="#000000"/>
<rect x="4.5" y="2.9" width="94" height="58.2" fill="none"/>
<circle fill="none" cx="51.5" cy="0" r="0.1"/>
<circle fill="none" cx="77" cy="0" r="0.1"/>
<circle fill="none" cx="103" cy="16.1" r="0.1"/>
<circle fill="none" cx="103" cy="32" r="0.1"/>
<circle fill="none" cx="103" cy="47.9" r="0.1"/>
<circle fill="none" cx="77" cy="64" r="0.1"/>
<circle fill="none" cx="51.5" cy="64" r="0.1"/>
<circle fill="none" cx="26" cy="64" r="0.1"/>
<circle fill="none" cx="0" cy="47.9" r="0.1"/>
<circle fill="none" cx="0" cy="32" r="0.1"/>
<circle fill="none" cx="0" cy="16.1" r="0.1"/>
<circle fill="none" cx="26" cy="0" r="0.1"/>
</g></g><g><rect stroke="none" fill="#ffffff" width="0" height="0"/><path stroke="#000000" fill="none" d=""/><text font-size="18.7" xml:space="preserve" display="none" font-family="OpenSansCondensedLight" fill="black" text-anchor="middle"><tspan dy="0.3em" style="fill-opacity: 0; stroke-opacity: 0;">-</tspan></text></g><text font-size="18.7" xml:space="preserve" font-family="OpenSansCondensedLight" line-height="21" fill="black" text-anchor="middle" text-vertical-anchor="middle" transform="matrix(1,0,0,1,51.5,32)"><tspan dy="-4">MEMORY</tspan><tspan dy="21" x="0"><tspan text-decoration="underline">1016</tspan></tspan></text></g><g data-type="tp.Element" transform="translate(402.5,210)"><g><g>
<path d="M155,0H0v65h155V0L155,0z" fill="#FFFFFF" stroke="#000000"/>
<rect x="6.8" y="3" width="141.5" height="59.1" fill="none"/>
<circle fill="none" cx="77.5" cy="0" r="0.1"/>
<circle fill="none" cx="115.9" cy="0" r="0.1"/>
<circle fill="none" cx="155" cy="16.4" r="0.1"/>
<circle fill="none" cx="155" cy="32.5" r="0.1"/>
<circle fill="none" cx="155" cy="48.6" r="0.1"/>
<circle fill="none" cx="115.9" cy="65" r="0.1"/>
<circle fill="none" cx="77.5" cy="65" r="0.1"/>
<circle fill="none" cx="39.1" cy="65" r="0.1"/>
<circle fill="none" cx="0" cy="48.6" r="0.1"/>
<circle fill="none" cx="0" cy="32.5" r="0.1"/>
<circle fill="none" cx="0" cy="16.4" r="0.1"/>
<circle fill="none" cx="39.1" cy="0" r="0.1"/>
</g></g><g><rect stroke="none" fill="#ffffff" width="0" height="0"/><path stroke="#000000" fill="none" d=""/><text font-size="18.7" xml:space="preserve" display="none" font-family="OpenSansCondensedLight" fill="black" text-anchor="middle"><tspan dy="0.3em" style="fill-opacity: 0; stroke-opacity: 0;">-</tspan></text></g><text font-size="18.7" xml:space="preserve" font-family="OpenSansCondensedLight" line-height="21" fill="black" text-anchor="middle" text-vertical-anchor="middle" transform="matrix(1,0,0,1,77.5,32.5)"><tspan dy="-4">POWER</tspan><tspan dy="21" x="0">MANAGER <tspan text-decoration="underline">1018</tspan></tspan></text></g><g data-type="tp.Element" transform="translate(412.2,423)"><g><g>
<path d="M154,0H0v51h154V0L154,0z" fill="#FFFFFF" stroke="#000000"/>
<rect x="6.7" y="2.3" width="140.5" height="46.3" fill="none"/>
<circle fill="none" cx="77" cy="0" r="0.1"/>
<circle fill="none" cx="115.2" cy="0" r="0.1"/>
<circle fill="none" cx="154" cy="12.9" r="0.1"/>
<circle fill="none" cx="154" cy="25.5" r="0.1"/>
<circle fill="none" cx="154" cy="38.1" r="0.1"/>
<circle fill="none" cx="115.2" cy="51" r="0.1"/>
<circle fill="none" cx="77" cy="51" r="0.1"/>
<circle fill="none" cx="38.9" cy="51" r="0.1"/>
<circle fill="none" cx="0" cy="38.1" r="0.1"/>
<circle fill="none" cx="0" cy="25.5" r="0.1"/>
<circle fill="none" cx="0" cy="12.9" r="0.1"/>
<circle fill="none" cx="38.9" cy="0" r="0.1"/>
</g></g><g><rect stroke="none" fill="#ffffff" width="0" height="0"/><path stroke="#000000" fill="none" d=""/><text font-size="18.7" xml:space="preserve" display="none" font-family="OpenSansCondensedLight" fill="black" text-anchor="middle"><tspan dy="0.3em" style="fill-opacity: 0; stroke-opacity: 0;">-</tspan></text></g><text font-size="18.7" xml:space="preserve" font-family="OpenSansCondensedLight" line-height="21" fill="black" text-anchor="middle" text-vertical-anchor="middle" transform="matrix(1,0,0,1,77,25.5)"><tspan dy="6.5">MEMORY <tspan text-decoration="underline">1004</tspan></tspan></text></g><g data-type="tp.Element" transform="translate(507,309)"><g><g>
<path d="M94,0H0v57h94V0L94,0z" fill="#FFFFFF" stroke="#000000"/>
<rect x="4.1" y="2.6" width="85.8" height="51.8" fill="none"/>
<circle fill="none" cx="47" cy="0" r="0.1"/>
<circle fill="none" cx="70.3" cy="0" r="0.1"/>
<circle fill="none" cx="94" cy="14.4" r="0.1"/>
<circle fill="none" cx="94" cy="28.5" r="0.1"/>
<circle fill="none" cx="94" cy="42.6" r="0.1"/>
<circle fill="none" cx="70.3" cy="57" r="0.1"/>
<circle fill="none" cx="47" cy="57" r="0.1"/>
<circle fill="none" cx="23.7" cy="57" r="0.1"/>
<circle fill="none" cx="0" cy="42.6" r="0.1"/>
<circle fill="none" cx="0" cy="28.5" r="0.1"/>
<circle fill="none" cx="0" cy="14.4" r="0.1"/>
<circle fill="none" cx="23.7" cy="0" r="0.1"/>
</g></g><g><rect stroke="none" fill="#ffffff" width="0" height="0"/><path stroke="#000000" fill="none" d=""/><text font-size="18.7" xml:space="preserve" display="none" font-family="OpenSansCondensedLight" fill="black" text-anchor="middle"><tspan dy="0.3em" style="fill-opacity: 0; stroke-opacity: 0;">-</tspan></text></g><text font-size="18.7" xml:space="preserve" font-family="OpenSansCondensedLight" line-height="21" fill="black" text-anchor="middle" text-vertical-anchor="middle" transform="matrix(1,0,0,1,47,28.5)"><tspan dy="-4">BATTERY</tspan><tspan dy="21" x="0"><tspan text-decoration="underline">1020</tspan></tspan></text></g><g data-type="tp.Link"><path fill="none" pointer-events="none" joint-selector="line" stroke-width="1" stroke="#333333" stroke-linejoin="round" marker-start="url(#v-4376-190246168)" marker-end="url(#v-43761588573873)" d="M 506.9 335.2 L 501 335 L 443 335 L 443 275"/><g><g label-idx="0" cursor="default" transform="translate(445, 335)"><rect joint-selector="rect" fill="#ffffff" rx="3" ry="3" width="8" height="0" transform="matrix(1,0,0,1,-4,0)"/><text joint-selector="text" font-size="18.7" xml:space="preserve" display="none" y="0.8em" fill="#000000" text-anchor="middle" pointer-events="none" font-family="OpenSansCondensedLight"><tspan dy="0" style="fill-opacity: 0; stroke-opacity: 0;">-</tspan></text></g></g></g><g data-type="tp.Element" transform="translate(217.8,669)"><g><g>
<path d="M94.5,0H0v94.5h94.5V0L94.5,0z" fill="#FFFFFF" stroke="#000000"/>
<rect x="4.1" y="4.3" width="86.2" height="85.9" fill="none"/>
<circle fill="none" cx="47.2" cy="0" r="0.1"/>
<circle fill="none" cx="70.7" cy="0" r="0.1"/>
<circle fill="none" cx="94.5" cy="23.8" r="0.1"/>
<circle fill="none" cx="94.5" cy="47.2" r="0.1"/>
<circle fill="none" cx="94.5" cy="70.7" r="0.1"/>
<circle fill="none" cx="70.7" cy="94.5" r="0.1"/>
<circle fill="none" cx="47.2" cy="94.5" r="0.1"/>
<circle fill="none" cx="23.8" cy="94.5" r="0.1"/>
<circle fill="none" cx="0" cy="70.7" r="0.1"/>
<circle fill="none" cx="0" cy="47.2" r="0.1"/>
<circle fill="none" cx="0" cy="23.8" r="0.1"/>
<circle fill="none" cx="23.8" cy="0" r="0.1"/>
</g></g><g><rect stroke="none" fill="#ffffff" width="0" height="0"/><path stroke="#000000" fill="none" d=""/><text font-size="18.7" xml:space="preserve" display="none" font-family="OpenSansCondensedLight" fill="black" text-anchor="middle"><tspan dy="0.3em" style="fill-opacity: 0; stroke-opacity: 0;">-</tspan></text></g><text font-size="18.7" xml:space="preserve" font-family="OpenSansCondensedLight" line-height="21" fill="black" text-anchor="middle" text-vertical-anchor="middle" transform="matrix(1,0,0,1,47.2,47.2)"><tspan dy="-4">CAMERA</tspan><tspan dy="21" x="0"><tspan text-decoration="underline">1022</tspan></tspan></text></g><g data-type="tp.Element" transform="translate(217.8,544)"><g><g>
<path d="M94.5,0H0v94.5h94.5V0L94.5,0z" fill="#FFFFFF" stroke="#000000"/>
<rect x="4.1" y="4.3" width="86.2" height="85.9" fill="none"/>
<circle fill="none" cx="47.2" cy="0" r="0.1"/>
<circle fill="none" cx="70.7" cy="0" r="0.1"/>
<circle fill="none" cx="94.5" cy="23.8" r="0.1"/>
<circle fill="none" cx="94.5" cy="47.2" r="0.1"/>
<circle fill="none" cx="94.5" cy="70.7" r="0.1"/>
<circle fill="none" cx="70.7" cy="94.5" r="0.1"/>
<circle fill="none" cx="47.2" cy="94.5" r="0.1"/>
<circle fill="none" cx="23.8" cy="94.5" r="0.1"/>
<circle fill="none" cx="0" cy="70.7" r="0.1"/>
<circle fill="none" cx="0" cy="47.2" r="0.1"/>
<circle fill="none" cx="0" cy="23.8" r="0.1"/>
<circle fill="none" cx="23.8" cy="0" r="0.1"/>
</g></g><g><rect stroke="none" fill="#ffffff" width="0" height="0"/><path stroke="#000000" fill="none" d=""/><text font-size="18.7" xml:space="preserve" display="none" font-family="OpenSansCondensedLight" fill="black" text-anchor="middle"><tspan dy="0.3em" style="fill-opacity: 0; stroke-opacity: 0;">-</tspan></text></g><text font-size="18.7" xml:space="preserve" font-family="OpenSansCondensedLight" line-height="21" fill="black" text-anchor="middle" text-vertical-anchor="middle" transform="matrix(1,0,0,1,47.2,47.2)"><tspan dy="-14.5">IMAGE</tspan><tspan dy="21" x="0">PROCESSING</tspan><tspan dy="21" x="0"><tspan text-decoration="underline">1024</tspan></tspan></text></g><g data-type="tp.Link"><path fill="none" pointer-events="none" joint-selector="line" stroke-width="1" stroke="#333333" stroke-linejoin="round" marker-start="url(#v-43762000855011)" marker-end="url(#v-43761588573873)" d="M 264.9 502.1 L 265 544"/><g><g label-idx="0" cursor="default" transform="translate(265, 523.1)"><rect joint-selector="rect" fill="#ffffff" rx="3" ry="3" width="8" height="0" transform="matrix(1,0,0,1,-4,0)"/><text joint-selector="text" font-size="18.7" xml:space="preserve" display="none" y="0.8em" fill="#000000" text-anchor="middle" pointer-events="none" font-family="OpenSansCondensedLight"><tspan dy="0" style="fill-opacity: 0; stroke-opacity: 0;">-</tspan></text></g></g></g><g data-type="tp.Element" transform="translate(134.8,137)"><g><g>
<path d="M94.5,0H0v94.5h94.5V0L94.5,0z" fill="#FFFFFF" stroke="#000000"/>
<rect x="4.1" y="4.3" width="86.2" height="85.9" fill="none"/>
<circle fill="none" cx="47.2" cy="0" r="0.1"/>
<circle fill="none" cx="70.7" cy="0" r="0.1"/>
<circle fill="none" cx="94.5" cy="23.8" r="0.1"/>
<circle fill="none" cx="94.5" cy="47.2" r="0.1"/>
<circle fill="none" cx="94.5" cy="70.7" r="0.1"/>
<circle fill="none" cx="70.7" cy="94.5" r="0.1"/>
<circle fill="none" cx="47.2" cy="94.5" r="0.1"/>
<circle fill="none" cx="23.8" cy="94.5" r="0.1"/>
<circle fill="none" cx="0" cy="70.7" r="0.1"/>
<circle fill="none" cx="0" cy="47.2" r="0.1"/>
<circle fill="none" cx="0" cy="23.8" r="0.1"/>
<circle fill="none" cx="23.8" cy="0" r="0.1"/>
</g></g><g><rect stroke="none" fill="#ffffff" width="0" height="0"/><path stroke="#000000" fill="none" d=""/><text font-size="18.7" xml:space="preserve" display="none" font-family="OpenSansCondensedLight" fill="black" text-anchor="middle"><tspan dy="0.3em" style="fill-opacity: 0; stroke-opacity: 0;">-</tspan></text></g><text font-size="18.7" xml:space="preserve" font-family="OpenSansCondensedLight" line-height="21" fill="black" text-anchor="middle" text-vertical-anchor="middle" transform="matrix(1,0,0,1,47.2,47.2)"><tspan dy="-14.5">WIRELESS</tspan><tspan dy="21" x="0">COMM</tspan><tspan dy="21" x="0"><tspan text-decoration="underline">1026</tspan></tspan></text></g><g data-type="tp.Link"><path fill="none" pointer-events="none" joint-selector="line" stroke-width="1" stroke="#333333" stroke-linejoin="round" marker-start="url(#v-4376-190246168)" marker-end="url(#v-43761588573873)" d="M 320.1 450.1 L 370.2 449.9"/><g><g label-idx="0" cursor="default" transform="translate(345.2, 450)"><rect joint-selector="rect" fill="#ffffff" rx="3" ry="3" width="8" height="0" transform="matrix(1,0,0,1,-4,0)"/><text joint-selector="text" font-size="18.7" xml:space="preserve" display="none" y="0.8em" fill="#000000" text-anchor="middle" pointer-events="none" font-family="OpenSansCondensedLight"><tspan dy="0" style="fill-opacity: 0; stroke-opacity: 0;">-</tspan></text></g></g></g><g data-type="tp.Element" transform="translate(75.5,544)"><g><g>
<path d="M94.5,0H0v94.5h94.5V0L94.5,0z" fill="#FFFFFF" stroke="#000000"/>
<rect x="4.1" y="4.3" width="86.2" height="85.9" fill="none"/>
<circle fill="none" cx="47.2" cy="0" r="0.1"/>
<circle fill="none" cx="70.7" cy="0" r="0.1"/>
<circle fill="none" cx="94.5" cy="23.8" r="0.1"/>
<circle fill="none" cx="94.5" cy="47.2" r="0.1"/>
<circle fill="none" cx="94.5" cy="70.7" r="0.1"/>
<circle fill="none" cx="70.7" cy="94.5" r="0.1"/>
<circle fill="none" cx="47.2" cy="94.5" r="0.1"/>
<circle fill="none" cx="23.8" cy="94.5" r="0.1"/>
<circle fill="none" cx="0" cy="70.7" r="0.1"/>
<circle fill="none" cx="0" cy="47.2" r="0.1"/>
<circle fill="none" cx="0" cy="23.8" r="0.1"/>
<circle fill="none" cx="23.8" cy="0" r="0.1"/>
</g></g><g><rect stroke="none" fill="#ffffff" width="0" height="0"/><path stroke="#000000" fill="none" d=""/><text font-size="18.7" xml:space="preserve" display="none" font-family="OpenSansCondensedLight" fill="black" text-anchor="middle"><tspan dy="0.3em" style="fill-opacity: 0; stroke-opacity: 0;">-</tspan></text></g><text font-size="18.7" xml:space="preserve" font-family="OpenSansCondensedLight" line-height="21" fill="black" text-anchor="middle" text-vertical-anchor="middle" transform="matrix(1,0,0,1,47.2,47.2)"><tspan dy="6.5">GPU <tspan text-decoration="underline">1030</tspan></tspan></text></g><g data-type="tp.Element" transform="translate(267.2,137.2)"><g><g>
<path d="M103,0H0v94h103V0L103,0z" fill="#FFFFFF" stroke="#000000"/>
<rect x="4.5" y="4.3" width="94" height="85.4" fill="none"/>
<circle fill="none" cx="51.5" cy="0" r="0.1"/>
<circle fill="none" cx="77" cy="0" r="0.1"/>
<circle fill="none" cx="103" cy="23.7" r="0.1"/>
<circle fill="none" cx="103" cy="47" r="0.1"/>
<circle fill="none" cx="103" cy="70.3" r="0.1"/>
<circle fill="none" cx="77" cy="94" r="0.1"/>
<circle fill="none" cx="51.5" cy="94" r="0.1"/>
<circle fill="none" cx="26" cy="94" r="0.1"/>
<circle fill="none" cx="0" cy="70.3" r="0.1"/>
<circle fill="none" cx="0" cy="47" r="0.1"/>
<circle fill="none" cx="0" cy="23.7" r="0.1"/>
<circle fill="none" cx="26" cy="0" r="0.1"/>
</g></g><g><rect stroke="none" fill="#ffffff" width="0" height="0"/><path stroke="#000000" fill="none" d=""/><text font-size="18.7" xml:space="preserve" display="none" font-family="OpenSansCondensedLight" fill="black" text-anchor="middle"><tspan dy="0.3em" style="fill-opacity: 0; stroke-opacity: 0;">-</tspan></text></g><text font-size="18.7" xml:space="preserve" font-family="OpenSansCondensedLight" line-height="21" fill="black" text-anchor="middle" text-vertical-anchor="middle" transform="matrix(1,0,0,1,51.5,47)"><tspan dy="-14.5">OTHER</tspan><tspan dy="21" x="0">TRANSDUCERS</tspan><tspan dy="21" x="0"><tspan text-decoration="underline">1008</tspan></tspan></text></g><g data-type="tp.Element" transform="translate(75.5,401.3)"><g><g>
<path d="M94.5,0H0v94.5h94.5V0L94.5,0z" fill="#FFFFFF" stroke="#000000"/>
<rect x="4.1" y="4.3" width="86.2" height="85.9" fill="none"/>
<circle fill="none" cx="47.2" cy="0" r="0.1"/>
<circle fill="none" cx="70.7" cy="0" r="0.1"/>
<circle fill="none" cx="94.5" cy="23.8" r="0.1"/>
<circle fill="none" cx="94.5" cy="47.2" r="0.1"/>
<circle fill="none" cx="94.5" cy="70.7" r="0.1"/>
<circle fill="none" cx="70.7" cy="94.5" r="0.1"/>
<circle fill="none" cx="47.2" cy="94.5" r="0.1"/>
<circle fill="none" cx="23.8" cy="94.5" r="0.1"/>
<circle fill="none" cx="0" cy="70.7" r="0.1"/>
<circle fill="none" cx="0" cy="47.2" r="0.1"/>
<circle fill="none" cx="0" cy="23.8" r="0.1"/>
<circle fill="none" cx="23.8" cy="0" r="0.1"/>
</g></g><g><rect stroke="none" fill="#ffffff" width="0" height="0"/><path stroke="#000000" fill="none" d=""/><text font-size="18.7" xml:space="preserve" display="none" font-family="OpenSansCondensedLight" fill="black" text-anchor="middle"><tspan dy="0.3em" style="fill-opacity: 0; stroke-opacity: 0;">-</tspan></text></g><text font-size="18.7" xml:space="preserve" font-family="OpenSansCondensedLight" line-height="21" fill="black" text-anchor="middle" text-vertical-anchor="middle" transform="matrix(1,0,0,1,47.2,47.2)"><tspan dy="6.5">DSP <tspan text-decoration="underline">1010</tspan></tspan></text></g><g data-type="tp.Link"><path fill="none" pointer-events="none" joint-selector="line" stroke-width="1" stroke="#333333" stroke-linejoin="round" marker-start="url(#v-4376-190246168)" marker-end="url(#v-43761588573873)" d="M 170.1 591.2 L 217.8 591.2"/><g><g label-idx="0" cursor="default" transform="translate(193.9, 591.2)"><rect joint-selector="rect" fill="#ffffff" rx="3" ry="3" width="8" height="0" transform="matrix(1,0,0,1,-4,0)"/><text joint-selector="text" font-size="18.7" xml:space="preserve" display="none" y="0.8em" fill="#000000" text-anchor="middle" pointer-events="none" font-family="OpenSansCondensedLight"><tspan dy="0" style="fill-opacity: 0; stroke-opacity: 0;">-</tspan></text></g></g></g><g data-type="tp.Link"><path fill="none" pointer-events="none" joint-selector="line" stroke-width="1" stroke="#333333" stroke-linejoin="round" marker-start="url(#v-43762000855011)" marker-end="url(#v-43761588573873)" d="M 265 668.9 L 265 638.5"/><g><g label-idx="0" cursor="default" transform="translate(265, 653.7)"><rect joint-selector="rect" fill="#ffffff" rx="3" ry="3" width="8" height="0" transform="matrix(1,0,0,1,-4,0)"/><text joint-selector="text" font-size="18.7" xml:space="preserve" display="none" y="0.8em" fill="#000000" text-anchor="middle" pointer-events="none" font-family="OpenSansCondensedLight"><tspan dy="0" style="fill-opacity: 0; stroke-opacity: 0;">-</tspan></text></g></g></g><g data-type="tp.Element" transform="translate(382,490)"><g><g>
<path d="M94,0H0v54h94V0L94,0z" fill="#FFFFFF" stroke="#000000"/>
<rect x="4.1" y="2.5" width="85.8" height="49.1" fill="none"/>
<circle fill="none" cx="47" cy="0" r="0.1"/>
<circle fill="none" cx="70.3" cy="0" r="0.1"/>
<circle fill="none" cx="94" cy="13.6" r="0.1"/>
<circle fill="none" cx="94" cy="27" r="0.1"/>
<circle fill="none" cx="94" cy="40.4" r="0.1"/>
<circle fill="none" cx="70.3" cy="54" r="0.1"/>
<circle fill="none" cx="47" cy="54" r="0.1"/>
<circle fill="none" cx="23.7" cy="54" r="0.1"/>
<circle fill="none" cx="0" cy="40.4" r="0.1"/>
<circle fill="none" cx="0" cy="27" r="0.1"/>
<circle fill="none" cx="0" cy="13.6" r="0.1"/>
<circle fill="none" cx="23.7" cy="0" r="0.1"/>
</g></g><g><rect stroke="none" fill="#ffffff" width="0" height="0"/><path stroke="#000000" fill="none" d=""/><text font-size="18.7" xml:space="preserve" display="none" font-family="OpenSansCondensedLight" fill="black" text-anchor="middle"><tspan dy="0.3em" style="fill-opacity: 0; stroke-opacity: 0;">-</tspan></text></g><text font-size="18.7" xml:space="preserve" font-family="OpenSansCondensedLight" line-height="21" fill="black" text-anchor="middle" text-vertical-anchor="middle" transform="matrix(1,0,0,1,47,27)"><tspan dy="-4">ALTIMETER</tspan><tspan dy="21" x="0"><tspan text-decoration="underline">1012</tspan></tspan></text></g><g data-type="tp.Element" transform="translate(492,491)"><g><g>
<path d="M94,0H0v54h94V0L94,0z" fill="#FFFFFF" stroke="#000000"/>
<rect x="4.1" y="2.5" width="85.8" height="49.1" fill="none"/>
<circle fill="none" cx="47" cy="0" r="0.1"/>
<circle fill="none" cx="70.3" cy="0" r="0.1"/>
<circle fill="none" cx="94" cy="13.6" r="0.1"/>
<circle fill="none" cx="94" cy="27" r="0.1"/>
<circle fill="none" cx="94" cy="40.4" r="0.1"/>
<circle fill="none" cx="70.3" cy="54" r="0.1"/>
<circle fill="none" cx="47" cy="54" r="0.1"/>
<circle fill="none" cx="23.7" cy="54" r="0.1"/>
<circle fill="none" cx="0" cy="40.4" r="0.1"/>
<circle fill="none" cx="0" cy="27" r="0.1"/>
<circle fill="none" cx="0" cy="13.6" r="0.1"/>
<circle fill="none" cx="23.7" cy="0" r="0.1"/>
</g></g><g><rect stroke="none" fill="#ffffff" width="0" height="0"/><path stroke="#000000" fill="none" d=""/><text font-size="18.7" xml:space="preserve" display="none" font-family="OpenSansCondensedLight" fill="black" text-anchor="middle"><tspan dy="0.3em" style="fill-opacity: 0; stroke-opacity: 0;">-</tspan></text></g><text font-size="18.7" xml:space="preserve" font-family="OpenSansCondensedLight" line-height="21" fill="black" text-anchor="middle" text-vertical-anchor="middle" transform="matrix(1,0,0,1,47,27)"><tspan dy="-4">GYROSCOPE</tspan><tspan dy="21" x="0"><tspan text-decoration="underline">1002</tspan></tspan></text></g><g data-type="tp.Link"><path fill="none" pointer-events="none" joint-selector="line" stroke-width="1" stroke="#333333" stroke-linejoin="round" marker-start="url(#v-4376-190246168)" marker-end="url(#v-43761588573873)" d="M 173.1 346.5 L 218 346.5"/><g><g label-idx="0" cursor="default" transform="translate(195.6, 346.5)"><rect joint-selector="rect" fill="#ffffff" rx="3" ry="3" width="8" height="0" transform="matrix(1,0,0,1,-4,0)"/><text joint-selector="text" font-size="18.7" xml:space="preserve" display="none" y="0.8em" fill="#000000" text-anchor="middle" pointer-events="none" font-family="OpenSansCondensedLight"><tspan dy="0" style="fill-opacity: 0; stroke-opacity: 0;">-</tspan></text></g></g></g><g data-type="tp.Link"><path fill="none" pointer-events="none" joint-selector="line" stroke-width="1" stroke="#333333" stroke-linejoin="round" marker-start="url(#v-4376-190246168)" marker-end="url(#v-43761588573873)" d="M 184.8 231.6 L 185 252 L 242 252 L 242 294"/><g><g label-idx="0" cursor="default" transform="translate(224.3, 252)"><rect joint-selector="rect" fill="#ffffff" rx="3" ry="3" width="8" height="0" transform="matrix(1,0,0,1,-4,0)"/><text joint-selector="text" font-size="18.7" xml:space="preserve" display="none" y="0.8em" fill="#000000" text-anchor="middle" pointer-events="none" font-family="OpenSansCondensedLight"><tspan dy="0" style="fill-opacity: 0; stroke-opacity: 0;">-</tspan></text></g></g></g><g data-type="tp.Link"><path fill="none" pointer-events="none" joint-selector="line" stroke-width="1" stroke="#333333" stroke-linejoin="round" marker-start="url(#v-4376-190246168)" marker-end="url(#v-43761588573873)" d="M 294 231.3 L 294.3 294"/><g><g label-idx="0" cursor="default" transform="translate(294.1, 262.7)"><rect joint-selector="rect" fill="#ffffff" rx="3" ry="3" width="8" height="0" transform="matrix(1,0,0,1,-4,0)"/><text joint-selector="text" font-size="18.7" xml:space="preserve" display="none" y="0.8em" fill="#000000" text-anchor="middle" pointer-events="none" font-family="OpenSansCondensedLight"><tspan dy="0" style="fill-opacity: 0; stroke-opacity: 0;">-</tspan></text></g></g></g><g data-type="tp.Link"><path fill="none" pointer-events="none" joint-selector="line" stroke-width="1" stroke="#333333" stroke-linejoin="round" marker-start="url(#v-4376-190246168)" marker-end="url(#v-43761588573873)" d="M 170.1 449.5 L 218 449.6"/><g><g label-idx="0" cursor="default" transform="translate(194.1, 449.5)"><rect joint-selector="rect" fill="#ffffff" rx="3" ry="3" width="8" height="0" transform="matrix(1,0,0,1,-4,0)"/><text joint-selector="text" font-size="18.7" xml:space="preserve" display="none" y="0.8em" fill="#000000" text-anchor="middle" pointer-events="none" font-family="OpenSansCondensedLight"><tspan dy="0" style="fill-opacity: 0; stroke-opacity: 0;">-</tspan></text></g></g></g></g></svg>