<svg xmlns="http://www.w3.org/2000/svg" xmlns:xlink="http://www.w3.org/1999/xlink" version="1.1" width="867" height="636" viewBox="0 10.3 867 636"><defs><marker orient="auto" overflow="visible" markerUnits="userSpaceOnUse"><path stroke="#333333" fill="#333333" d="M 0 0 0 0"/></marker><marker orient="auto" overflow="visible" markerUnits="userSpaceOnUse"><path stroke="#333333" fill="#333333" transform="rotate(180)" d="M 0 0 0 0"/></marker></defs><g><g data-type="tp.Element" transform="translate(55,165)"><g><g>
<g fill="#FFFFFF">
    <path d="M108.4,70.2h-5.4c0.1,-0.1,-0,5.3,-0,5.3H0.1V10.4c0,0,5.5,-0.2,5.4,-0.1V5.1h5.1V0h102.8v65.1h-5.1"/>
</g>
<g stroke="#000000">
    <path fill="none" d="M10.6,5.1V0h102.8v65.1h-5.1"/>
    <path fill="none" d="M5.5,10.3V5.1h102.8v65.1h-5.4"/>
    <path fill="none" d="M0.1,10.4h102.8v65.1H0.1V10.4z"/>
</g>
<rect x="3.4" y="13.7" fill="none" width="96.3" height="58.3"/>
<circle fill="none" cx="58.5" cy="0.1" r="0.1"/>
<circle fill="none" cx="93.2" cy="0.1" r="0.1"/>
<circle fill="none" cx="113.4" cy="6.1" r="0.1"/>
<circle fill="none" cx="113.4" cy="29.2" r="0.1"/>
<circle fill="none" cx="113.4" cy="60.8" r="0.1"/>
<circle fill="none" cx="89.2" cy="75.6" r="0.1"/>
<circle fill="none" cx="48.3" cy="75.4" r="0.1"/>
<circle fill="none" cx="12.3" cy="75.4" r="0.1"/>
<circle fill="none" cx="0.3" cy="65.9" r="0.1"/>
<circle fill="none" cx="0.3" cy="41.2" r="0.1"/>
<circle fill="none" cx="0.1" cy="21.4" r="0.1"/>
<circle fill="none" cx="24.2" cy="0.1" r="0.1"/>
</g></g><g><rect stroke="none" fill="#ffffff" width="0" height="0"/><path stroke="#000000" fill="none" d=""/><text font-size="18.7" xml:space="preserve" display="none" font-family="OpenSansCondensedLight" fill="black" text-anchor="middle"><tspan dy="0.3em" style="fill-opacity: 0; stroke-opacity: 0;">-</tspan></text></g><text font-size="18.7" xml:space="preserve" font-family="OpenSansCondensedLight" line-height="21" fill="black" text-anchor="middle" text-vertical-anchor="middle" transform="matrix(1,0,0,1,51.6,42.8)"><tspan dy="6.5">CPU <tspan text-decoration="underline">1202</tspan></tspan></text></g><g data-type="tp.Element" transform="translate(39,316)"><g><g>
<g fill="#FFFFFF" stroke="#000000">
    <path d="M724.6,37.3V49.7L828,24.9L724.6,0v12.4H103.6V0L0,24.9L103.6,49.7v-12.4H724.6z"/>
</g>
<rect x="29.3" y="5.3" fill="none" width="769.5" height="39.2"/>
<circle fill="none" cx="421.7" cy="12.3" r="0.1"/>
<circle fill="none" cx="621" cy="12.3" r="0.1"/>
<circle fill="none" cx="726.9" cy="0.1" r="0.1"/>
<circle fill="none" cx="827.3" cy="25" r="0.1"/>
<circle fill="none" cx="725.5" cy="49.7" r="0.1"/>
<circle fill="none" cx="632.2" cy="37.3" r="0.1"/>
<circle fill="none" cx="430" cy="37.3" r="0.1"/>
<circle fill="none" cx="234.9" cy="37.3" r="0.1"/>
<circle fill="none" cx="102.5" cy="50" r="0.1"/>
<circle fill="none" cx="2.1" cy="24.5" r="0.1"/>
<circle fill="none" cx="103.8" cy="0.1" r="0.1"/>
<circle fill="none" cx="232.1" cy="12.3" r="0.1"/>
</g></g><g><rect stroke="none" fill="#ffffff" width="0" height="0"/><path stroke="#000000" fill="none" d=""/><text font-size="18.7" xml:space="preserve" display="none" font-family="OpenSansCondensedLight" fill="black" text-anchor="middle"><tspan dy="0.3em" style="fill-opacity: 0; stroke-opacity: 0;">-</tspan></text></g><text font-size="18.7" xml:space="preserve" font-family="OpenSansCondensedLight" line-height="21" fill="black" text-anchor="middle" text-vertical-anchor="middle" transform="matrix(1,0,0,1,414,24.9)"><tspan dy="6.5">BUS <tspan text-decoration="underline">1204</tspan></tspan></text></g><g data-type="tp.Element" transform="translate(222,165)"><g><g>
<g fill="#FFFFFF">
    <path d="M108.4,70.2h-5.4c0.1,-0.1,-0,5.3,-0,5.3H0.1V10.4c0,0,5.5,-0.2,5.4,-0.1V5.1h5.1V0h102.8v65.1h-5.1"/>
</g>
<g stroke="#000000">
    <path fill="none" d="M10.6,5.1V0h102.8v65.1h-5.1"/>
    <path fill="none" d="M5.5,10.3V5.1h102.8v65.1h-5.4"/>
    <path fill="none" d="M0.1,10.4h102.8v65.1H0.1V10.4z"/>
</g>
<rect x="3.4" y="13.7" fill="none" width="96.3" height="58.3"/>
<circle fill="none" cx="58.5" cy="0.1" r="0.1"/>
<circle fill="none" cx="93.2" cy="0.1" r="0.1"/>
<circle fill="none" cx="113.4" cy="6.1" r="0.1"/>
<circle fill="none" cx="113.4" cy="29.2" r="0.1"/>
<circle fill="none" cx="113.4" cy="60.8" r="0.1"/>
<circle fill="none" cx="89.2" cy="75.6" r="0.1"/>
<circle fill="none" cx="48.3" cy="75.4" r="0.1"/>
<circle fill="none" cx="12.3" cy="75.4" r="0.1"/>
<circle fill="none" cx="0.3" cy="65.9" r="0.1"/>
<circle fill="none" cx="0.3" cy="41.2" r="0.1"/>
<circle fill="none" cx="0.1" cy="21.4" r="0.1"/>
<circle fill="none" cx="24.2" cy="0.1" r="0.1"/>
</g></g><g><rect stroke="none" fill="#ffffff" width="0" height="0"/><path stroke="#000000" fill="none" d=""/><text font-size="18.7" xml:space="preserve" display="none" font-family="OpenSansCondensedLight" fill="black" text-anchor="middle"><tspan dy="0.3em" style="fill-opacity: 0; stroke-opacity: 0;">-</tspan></text></g><text font-size="18.7" xml:space="preserve" font-family="OpenSansCondensedLight" line-height="21" fill="black" text-anchor="middle" text-vertical-anchor="middle" transform="matrix(1,0,0,1,51.6,42.8)"><tspan dy="6.5">ROM <tspan text-decoration="underline">1206</tspan></tspan></text></g><g data-type="tp.Element" transform="translate(367,165)"><g><g>
<g fill="#FFFFFF">
    <path d="M108.4,70.2h-5.4c0.1,-0.1,-0,5.3,-0,5.3H0.1V10.4c0,0,5.5,-0.2,5.4,-0.1V5.1h5.1V0h102.8v65.1h-5.1"/>
</g>
<g stroke="#000000">
    <path fill="none" d="M10.6,5.1V0h102.8v65.1h-5.1"/>
    <path fill="none" d="M5.5,10.3V5.1h102.8v65.1h-5.4"/>
    <path fill="none" d="M0.1,10.4h102.8v65.1H0.1V10.4z"/>
</g>
<rect x="3.4" y="13.7" fill="none" width="96.3" height="58.3"/>
<circle fill="none" cx="58.5" cy="0.1" r="0.1"/>
<circle fill="none" cx="93.2" cy="0.1" r="0.1"/>
<circle fill="none" cx="113.4" cy="6.1" r="0.1"/>
<circle fill="none" cx="113.4" cy="29.2" r="0.1"/>
<circle fill="none" cx="113.4" cy="60.8" r="0.1"/>
<circle fill="none" cx="89.2" cy="75.6" r="0.1"/>
<circle fill="none" cx="48.3" cy="75.4" r="0.1"/>
<circle fill="none" cx="12.3" cy="75.4" r="0.1"/>
<circle fill="none" cx="0.3" cy="65.9" r="0.1"/>
<circle fill="none" cx="0.3" cy="41.2" r="0.1"/>
<circle fill="none" cx="0.1" cy="21.4" r="0.1"/>
<circle fill="none" cx="24.2" cy="0.1" r="0.1"/>
</g></g><g><rect stroke="none" fill="#ffffff" width="0" height="0"/><path stroke="#000000" fill="none" d=""/><text font-size="18.7" xml:space="preserve" display="none" font-family="OpenSansCondensedLight" fill="black" text-anchor="middle"><tspan dy="0.3em" style="fill-opacity: 0; stroke-opacity: 0;">-</tspan></text></g><text font-size="18.7" xml:space="preserve" font-family="OpenSansCondensedLight" line-height="21" fill="black" text-anchor="middle" text-vertical-anchor="middle" transform="matrix(1,0,0,1,51.6,42.8)"><tspan dy="6.5">RAM <tspan text-decoration="underline">1208</tspan></tspan></text></g><g data-type="tp.Element" transform="translate(513,162)"><g><g>
<g fill="#FFFFFF">
    <path d="M108.4,70.2h-5.4c0.1,-0.1,-0,5.3,-0,5.3H0.1V10.4c0,0,5.5,-0.2,5.4,-0.1V5.1h5.1V0h102.8v65.1h-5.1"/>
</g>
<g stroke="#000000">
    <path fill="none" d="M10.6,5.1V0h102.8v65.1h-5.1"/>
    <path fill="none" d="M5.5,10.3V5.1h102.8v65.1h-5.4"/>
    <path fill="none" d="M0.1,10.4h102.8v65.1H0.1V10.4z"/>
</g>
<rect x="3.4" y="13.7" fill="none" width="96.3" height="58.3"/>
<circle fill="none" cx="58.5" cy="0.1" r="0.1"/>
<circle fill="none" cx="93.2" cy="0.1" r="0.1"/>
<circle fill="none" cx="113.4" cy="6.1" r="0.1"/>
<circle fill="none" cx="113.4" cy="29.2" r="0.1"/>
<circle fill="none" cx="113.4" cy="60.8" r="0.1"/>
<circle fill="none" cx="89.2" cy="75.6" r="0.1"/>
<circle fill="none" cx="48.3" cy="75.4" r="0.1"/>
<circle fill="none" cx="12.3" cy="75.4" r="0.1"/>
<circle fill="none" cx="0.3" cy="65.9" r="0.1"/>
<circle fill="none" cx="0.3" cy="41.2" r="0.1"/>
<circle fill="none" cx="0.1" cy="21.4" r="0.1"/>
<circle fill="none" cx="24.2" cy="0.1" r="0.1"/>
</g></g><g><rect stroke="none" fill="#ffffff" width="0" height="0"/><path stroke="#000000" fill="none" d=""/><text font-size="18.7" xml:space="preserve" display="none" font-family="OpenSansCondensedLight" fill="black" text-anchor="middle"><tspan dy="0.3em" style="fill-opacity: 0; stroke-opacity: 0;">-</tspan></text></g><text font-size="18.7" xml:space="preserve" font-family="OpenSansCondensedLight" line-height="21" fill="black" text-anchor="middle" text-vertical-anchor="middle" transform="matrix(1,0,0,1,51.6,42.8)"><tspan dy="-14.5">I/O</tspan><tspan dy="21" x="0">ADAPTER</tspan><tspan dy="21" x="0"><tspan text-decoration="underline">1210</tspan></tspan></text></g><g data-type="tp.Element" transform="translate(354.7,52)"><g><g>
<g fill="#FFFFFF" stroke="#000000">
    <path d="M133.7,14.6H0v59.7c0,8,30,14.6,67,14.6s67,-6.6,67,-14.6v-59.7L133.7,14.6L133.7,14.6z"/>
    <path d="M67,0C30,0,0,6.6,0,14.6s30,14.6,67,14.6s67,-6.6,67,-14.6C133.7,6.6,103.7,0,67,0L67,0z"/>
</g>
<rect x="7.1" y="32.6" width="119.5" height="42.2" fill="none"/>
<circle fill="none" cx="67" cy="0" r="0.1"/>
<circle fill="none" cx="102.2" cy="2.2" r="0.1"/>
<circle fill="none" cx="134" cy="14.6" r="0.1"/>
<circle fill="none" cx="134" cy="44.5" r="0.1"/>
<circle fill="none" cx="134" cy="74.4" r="0.1"/>
<circle fill="none" cx="103.9" cy="86.5" r="0.1"/>
<circle fill="none" cx="67" cy="89" r="0.1"/>
<circle fill="none" cx="28.1" cy="86.2" r="0.1"/>
<circle fill="none" cx="0" cy="74.4" r="0.1"/>
<circle fill="none" cx="0" cy="44.5" r="0.1"/>
<circle fill="none" cx="0" cy="14.6" r="0.1"/>
<circle fill="none" cx="31.6" cy="2.2" r="0.1"/>
</g></g><g><rect stroke="none" fill="#ffffff" width="0" height="0"/><path stroke="#000000" fill="none" d=""/><text font-size="18.7" xml:space="preserve" display="none" font-family="OpenSansCondensedLight" fill="black" text-anchor="middle"><tspan dy="0.3em" style="fill-opacity: 0; stroke-opacity: 0;">-</tspan></text></g><text font-size="18.7" xml:space="preserve" font-family="OpenSansCondensedLight" line-height="21" fill="black" text-anchor="middle" text-vertical-anchor="middle" transform="matrix(1,0,0,1,66.9,53.7)"><tspan dy="-14.5">MEMORY</tspan><tspan dy="21" x="0">STRUCTURE</tspan><tspan dy="21" x="0"><tspan text-decoration="underline">1212</tspan></tspan></text></g><g data-type="tp.Element" transform="translate(705,159)"><g><g>
<g fill="#FFFFFF">
    <path d="M126.2,72.4h-6.3c0.2,-0.1,-0,5.5,-0,5.5H0.1V10.7c0,0,6.5,-0.2,6.3,-0.1V5.3h5.9V0h119.7v67.1h-6"/>
</g>
<g stroke="#000000">
    <path fill="none" d="M12.4,5.3V0h119.7v67.1h-6"/>
    <path fill="none" d="M6.4,10.7V5.3h119.7v67.1h-6.3"/>
    <path fill="none" d="M0.1,10.7h119.7v67.1H0.1V10.7z"/>
</g>
<rect x="4" y="14.1" fill="none" width="112.1" height="60.2"/>
<circle fill="none" cx="68.1" cy="0.1" r="0.1"/>
<circle fill="none" cx="108.5" cy="0.1" r="0.1"/>
<circle fill="none" cx="132.1" cy="6.3" r="0.1"/>
<circle fill="none" cx="132.1" cy="30.1" r="0.1"/>
<circle fill="none" cx="132.1" cy="62.8" r="0.1"/>
<circle fill="none" cx="103.8" cy="78" r="0.1"/>
<circle fill="none" cx="56.3" cy="77.8" r="0.1"/>
<circle fill="none" cx="14.4" cy="77.8" r="0.1"/>
<circle fill="none" cx="0.3" cy="68" r="0.1"/>
<circle fill="none" cx="0.3" cy="42.5" r="0.1"/>
<circle fill="none" cx="0.1" cy="22.1" r="0.1"/>
<circle fill="none" cx="28.1" cy="0.1" r="0.1"/>
</g></g><g><rect stroke="none" fill="#ffffff" width="0" height="0"/><path stroke="#000000" fill="none" d=""/><text font-size="18.7" xml:space="preserve" display="none" font-family="OpenSansCondensedLight" fill="black" text-anchor="middle"><tspan dy="0.3em" style="fill-opacity: 0; stroke-opacity: 0;">-</tspan></text></g><text font-size="18.7" xml:space="preserve" font-family="OpenSansCondensedLight" line-height="21" fill="black" text-anchor="middle" text-vertical-anchor="middle" transform="matrix(1,0,0,1,60,44.2)"><tspan dy="-14.5">COMMUNICATION</tspan><tspan dy="21" x="0">ADAPTER</tspan><tspan dy="21" x="0"><tspan text-decoration="underline">1214</tspan></tspan></text></g><g data-type="tp.Element" transform="translate(749,62)"><g><g>
<g fill="#FFFFFF" stroke="#000000">
    <g>
        <path d="M46,0L5.3,56.8l13.9,8.4L0,116l38.9,-57.2l-12.2,-9L46,0z"/>
    </g>
</g>
<rect x="2.6" y="20.1" fill="none" width="39.5" height="66"/>
<circle fill="none" cx="23.4" cy="31.5" r="0.1"/>
<circle fill="none" cx="33" cy="18.3" r="0.1"/>
<circle fill="none" cx="33.1" cy="33.5" r="0.1"/>
<circle fill="none" cx="26.7" cy="49.8" r="0.1"/>
<circle fill="none" cx="38.9" cy="58.8" r="0.1"/>
<circle fill="none" cx="29.3" cy="72.9" r="0.1"/>
<circle fill="none" cx="20.4" cy="86" r="0.1"/>
<circle fill="none" cx="8" cy="104.3" r="0.1"/>
<circle fill="none" cx="12.4" cy="83.3" r="0.1"/>
<circle fill="none" cx="19.2" cy="65.4" r="0.1"/>
<circle fill="none" cx="5.3" cy="56.8" r="0.1"/>
<circle fill="none" cx="14" cy="44.8" r="0.1"/>
</g></g><g><rect stroke="none" fill="#ffffff" width="0" height="0"/><path stroke="#000000" fill="none" d=""/><text font-size="18.7" xml:space="preserve" display="none" font-family="OpenSansCondensedLight" fill="black" text-anchor="middle"><tspan dy="0.3em" style="fill-opacity: 0; stroke-opacity: 0;">-</tspan></text></g><text font-size="18.7" xml:space="preserve" font-family="OpenSansCondensedLight" line-height="21" fill="black" text-anchor="middle" text-vertical-anchor="bottom" transform="matrix(1,0,0,1,23,-10)"><tspan dy="-25.7">COMMUNICATION</tspan><tspan dy="21" x="0"><tspan text-decoration="underline">1216</tspan></tspan></text></g><g data-type="tp.Link"><path fill="none" pointer-events="none" joint-selector="line" stroke-width="1" stroke="#333333" stroke-linejoin="round" marker-start="url(#v-50122000855011)" marker-end="url(#v-50121454029882)" d="M 146.7 328.5 L 147 240.7"/><g><g label-idx="0" cursor="default" transform="translate(146.8, 284.6)"><rect joint-selector="rect" fill="#ffffff" rx="3" ry="3" width="8" height="0" transform="matrix(1,0,0,1,-4,0)"/><text joint-selector="text" font-size="18.7" xml:space="preserve" display="none" y="0.8em" fill="#000000" text-anchor="middle" pointer-events="none" font-family="OpenSansCondensedLight"><tspan dy="0" style="fill-opacity: 0; stroke-opacity: 0;">-</tspan></text></g></g></g><g data-type="tp.Link"><path fill="none" pointer-events="none" joint-selector="line" stroke-width="1" stroke="#333333" stroke-linejoin="round" marker-start="url(#v-50122000855011)" marker-end="url(#v-50121454029882)" d="M 270.8 328.5 L 270.4 240.5"/><g><g label-idx="0" cursor="default" transform="translate(270.6, 284.5)"><rect joint-selector="rect" fill="#ffffff" rx="3" ry="3" width="8" height="0" transform="matrix(1,0,0,1,-4,0)"/><text joint-selector="text" font-size="18.7" xml:space="preserve" display="none" y="0.8em" fill="#000000" text-anchor="middle" pointer-events="none" font-family="OpenSansCondensedLight"><tspan dy="0" style="fill-opacity: 0; stroke-opacity: 0;">-</tspan></text></g></g></g><g data-type="tp.Link"><path fill="none" pointer-events="none" joint-selector="line" stroke-width="1" stroke="#333333" stroke-linejoin="round" marker-start="url(#v-50122000855011)" marker-end="url(#v-50121454029882)" d="M 759.4 328.5 L 759.2 237.1"/><g><g label-idx="0" cursor="default" transform="translate(759.3, 282.8)"><rect joint-selector="rect" fill="#ffffff" rx="3" ry="3" width="8" height="0" transform="matrix(1,0,0,1,-4,0)"/><text joint-selector="text" font-size="18.7" xml:space="preserve" display="none" y="0.8em" fill="#000000" text-anchor="middle" pointer-events="none" font-family="OpenSansCondensedLight"><tspan dy="0" style="fill-opacity: 0; stroke-opacity: 0;">-</tspan></text></g></g></g><g data-type="tp.Link"><path fill="none" pointer-events="none" joint-selector="line" stroke-width="1" stroke="#333333" stroke-linejoin="round" marker-start="url(#v-50122000855011)" marker-end="url(#v-50121454029882)" d="M 453 328.5 L 453.3 240.7"/><g><g label-idx="0" cursor="default" transform="translate(453.1, 284.6)"><rect joint-selector="rect" fill="#ffffff" rx="3" ry="3" width="8" height="0" transform="matrix(1,0,0,1,-4,0)"/><text joint-selector="text" font-size="18.7" xml:space="preserve" display="none" y="0.8em" fill="#000000" text-anchor="middle" pointer-events="none" font-family="OpenSansCondensedLight"><tspan dy="0" style="fill-opacity: 0; stroke-opacity: 0;">-</tspan></text></g></g></g><g data-type="tp.Link"><path fill="none" pointer-events="none" joint-selector="line" stroke-width="1" stroke="#333333" stroke-linejoin="round" marker-start="url(#v-50122000855011)" marker-end="url(#v-50121454029882)" d="M 660 328.5 L 659 279 L 565 278 L 565 237.5"/><g><g label-idx="0" cursor="default" transform="translate(616.5, 278.5)"><rect joint-selector="rect" fill="#ffffff" rx="3" ry="3" width="8" height="0" transform="matrix(1,0,0,1,-4,0)"/><text joint-selector="text" font-size="18.7" xml:space="preserve" display="none" y="0.8em" fill="#000000" text-anchor="middle" pointer-events="none" font-family="OpenSansCondensedLight"><tspan dy="0" style="fill-opacity: 0; stroke-opacity: 0;">-</tspan></text></g></g></g><g data-type="tp.Element" transform="translate(25,423)"><g><g>
<g fill="#FFFFFF" stroke="#000000">
    <path d="M108.7,55.1h-104C2.1,55.1,0,52.9,0,50.3V4.7C0,2.1,2.1,0,4.7,0h104c2.6,0,4.7,2.1,4.7,4.7v45.6C113.4,52.9,111.3,55.1,108.7,55.1z"/>
    <path d="M33.6,36.3h-5.7c-0.2,0,-0.5,-0.2,-0.5,-0.5V29.9c0,-0.2,0.2,-0.5,0.5,-0.5h5.7c0.2,0,0.5,0.2,0.5,0.5v5.9C34.2,35.9,34,36.3,33.6,36.3z"/>
    <path d="M43.9,36.3h-5.7c-0.2,0,-0.5,-0.2,-0.5,-0.5V29.9c0,-0.2,0.2,-0.5,0.5,-0.5h5.7c0.2,0,0.5,0.2,0.5,0.5v5.9C44.6,35.9,44.3,36.3,43.9,36.3z"/>
    <path d="M54.3,36.3H48.6c-0.2,0,-0.5,-0.2,-0.5,-0.5V29.9c0,-0.2,0.2,-0.5,0.5,-0.5h5.7c0.2,0,0.5,0.2,0.5,0.5v5.9C54.9,35.9,54.7,36.3,54.3,36.3z"/>
    <path d="M64.6,36.3h-5.7c-0.2,0,-0.5,-0.2,-0.5,-0.5V29.9c0,-0.2,0.2,-0.5,0.5,-0.5H64.6c0.2,0,0.5,0.2,0.5,0.5v5.9C65.2,35.9,65,36.3,64.6,36.3z"/>
    <path d="M75,36.3h-5.7c-0.2,0,-0.5,-0.2,-0.5,-0.5V29.9c0,-0.2,0.2,-0.5,0.5,-0.5h5.7c0.2,0,0.5,0.2,0.5,0.5v5.9C75.6,35.9,75.3,36.3,75,36.3z"/>
    <path d="M85.3,36.3h-5.7c-0.2,0,-0.5,-0.2,-0.5,-0.5V29.9c0,-0.2,0.2,-0.5,0.5,-0.5h5.7c0.2,0,0.5,0.2,0.5,0.5v5.9C85.8,35.9,85.6,36.3,85.3,36.3z"/>
    <path d="M29.1,25.8H23.4c-0.2,0,-0.5,-0.2,-0.5,-0.5v-5.9c0,-0.2,0.2,-0.5,0.5,-0.5h5.7c0.2,0,0.5,0.2,0.5,0.5v5.9C29.7,25.5,29.4,25.8,29.1,25.8z"/>
    <path d="M39.4,25.8h-5.7c-0.2,0,-0.5,-0.2,-0.5,-0.5v-5.9c0,-0.2,0.2,-0.5,0.5,-0.5H39.4c0.2,0,0.5,0.2,0.5,0.5v5.9C39.9,25.5,39.6,25.8,39.4,25.8z"/>
    <path d="M49.7,25.8h-5.7c-0.2,0,-0.5,-0.2,-0.5,-0.5v-5.9c0,-0.2,0.2,-0.5,0.5,-0.5h5.7c0.2,0,0.5,0.2,0.5,0.5v5.9C50.2,25.5,50,25.8,49.7,25.8z"/>
    <path d="M60.1,25.8h-5.7c-0.2,0,-0.5,-0.2,-0.5,-0.5v-5.9c0,-0.2,0.2,-0.5,0.5,-0.5h5.7c0.2,0,0.5,0.2,0.5,0.5v5.9C60.6,25.5,60.3,25.8,60.1,25.8z"/>
    <path d="M70.4,25.8h-5.7c-0.2,0,-0.5,-0.2,-0.5,-0.5v-5.9c0,-0.2,0.2,-0.5,0.5,-0.5h5.7c0.2,0,0.5,0.2,0.5,0.5v5.9C70.9,25.5,70.7,25.8,70.4,25.8z"/>
    <path d="M80.8,25.8h-5.8c-0.2,0,-0.5,-0.2,-0.5,-0.5v-5.9c0,-0.2,0.2,-0.5,0.5,-0.5H80.6c0.2,0,0.5,0.2,0.5,0.5v5.9C81.3,25.5,81,25.8,80.8,25.8z"/>
    <path d="M91.1,25.8h-5.7c-0.2,0,-0.5,-0.2,-0.5,-0.5v-5.9c0,-0.2,0.2,-0.5,0.5,-0.5H91.1c0.2,0,0.5,0.2,0.5,0.5v5.9C91.6,25.5,91.3,25.8,91.1,25.8z"/>
    <path d="M14.2,15.3H8.5c-0.2,0,-0.5,-0.2,-0.5,-0.5V9c0,-0.2,0.2,-0.5,0.5,-0.5H14.2c0.2,0,0.5,0.2,0.5,0.5v5.9C14.6,15.1,14.4,15.3,14.2,15.3z"/>
    <path d="M24.1,15.3H18.5c-0.2,0,-0.5,-0.2,-0.5,-0.5V9c0,-0.2,0.2,-0.5,0.5,-0.5h5.7c0.2,0,0.5,0.2,0.5,0.5v5.9C24.7,15.1,24.5,15.3,24.1,15.3z"/>
    <path d="M34.2,15.3h-5.7c-0.2,0,-0.5,-0.2,-0.5,-0.5V9c0,-0.2,0.2,-0.5,0.5,-0.5h5.7c0.2,0,0.5,0.2,0.5,0.5v5.9C34.8,15.1,34.6,15.3,34.2,15.3z"/>
    <path d="M44.3,15.3h-5.7c-0.2,0,-0.5,-0.2,-0.5,-0.5V9c0,-0.2,0.2,-0.5,0.5,-0.5H44.3c0.2,0,0.5,0.2,0.5,0.5v5.9C44.8,15.1,44.6,15.3,44.3,15.3z"/>
    <path d="M54.3,15.3H48.6c-0.2,0,-0.5,-0.2,-0.5,-0.5V9c0,-0.2,0.2,-0.5,0.5,-0.5h5.7c0.2,0,0.5,0.2,0.5,0.5v5.9C54.9,15.1,54.7,15.3,54.3,15.3z"/>
    <path d="M64.4,15.3h-5.7c-0.2,0,-0.5,-0.2,-0.5,-0.5V9c0,-0.2,0.2,-0.5,0.5,-0.5h5.7c0.2,0,0.5,0.2,0.5,0.5v5.9C65,15.1,64.8,15.3,64.4,15.3z"/>
    <path d="M74.5,15.3h-5.7c-0.2,0,-0.5,-0.2,-0.5,-0.5V9c0,-0.2,0.2,-0.5,0.5,-0.5H74.5c0.2,0,0.5,0.2,0.5,0.5v5.9C75,15.1,74.7,15.3,74.5,15.3z"/>
    <path d="M84.5,15.3H78.8c-0.2,0,-0.5,-0.2,-0.5,-0.5V9c0,-0.2,0.2,-0.5,0.5,-0.5h5.7c0.2,0,0.5,0.2,0.5,0.5v5.9C85.1,15.1,84.8,15.3,84.5,15.3z"/>
    <path d="M94.5,15.3h-5.7c-0.2,0,-0.5,-0.2,-0.5,-0.5V9c0,-0.2,0.2,-0.5,0.5,-0.5h5.7c0.2,0,0.5,0.2,0.5,0.5v5.9C95,15.1,94.8,15.3,94.5,15.3z"/>
    <path d="M104.6,15.3h-5.7c-0.2,0,-0.5,-0.2,-0.5,-0.5V9c0,-0.2,0.2,-0.5,0.5,-0.5H104.6c0.2,0,0.5,0.2,0.5,0.5v5.9C105.1,15.1,104.9,15.3,104.6,15.3z"/>
    <path d="M27.8,46.6h57.5c0.4,0,0.6,-0.2,0.6,-0.6v-5.7c0,-0.4,-0.2,-0.6,-0.6,-0.6H27.8c-0.4,0,-0.6,0.2,-0.6,0.6v5.7C27.2,46.3,27.5,46.6,27.8,46.6z"/>
    <path d="M8.5,46.6h14.8c0.4,0,0.6,-0.2,0.6,-0.6v-5.7c0,-0.4,-0.2,-0.6,-0.6,-0.6h-14.8c-0.4,0,-0.6,0.2,-0.6,0.6v5.7C7.9,46.3,8.1,46.6,8.5,46.6z"/>
    <path d="M90,46.6h14.9c0.4,0,0.6,-0.2,0.6,-0.6v-5.7c0,-0.4,-0.2,-0.6,-0.6,-0.6h-14.9c-0.4,0,-0.6,0.2,-0.6,0.6v5.7C89.4,46.3,89.6,46.6,90,46.6z"/>
    <path d="M90,36.3h14.9c0.4,0,0.6,-0.2,0.6,-0.6V29.9c0,-0.4,-0.2,-0.6,-0.6,-0.6h-14.9c-0.4,0,-0.6,0.2,-0.6,0.6v5.7C89.4,35.9,89.6,36.3,90,36.3z"/>
    <path d="M8.5,36.3h14.8c0.4,0,0.6,-0.2,0.6,-0.6V29.9c0,-0.4,-0.2,-0.6,-0.6,-0.6h-14.8c-0.4,0,-0.6,0.2,-0.6,0.6v5.7C7.9,35.9,8.1,36.3,8.5,36.3z"/>
    <path d="M8.5,25.8h10.2c0.4,0,0.6,-0.2,0.6,-0.6v-5.7c0,-0.4,-0.2,-0.6,-0.6,-0.6H8.5c-0.4,0,-0.6,0.2,-0.6,0.6v5.7C7.9,25.5,8.1,25.8,8.5,25.8z"/>
    <path d="M95.7,25.8h9.2c0.4,0,0.6,-0.2,0.6,-0.6v-5.7c0,-0.4,-0.2,-0.6,-0.6,-0.6h-9.2c-0.4,0,-0.6,0.2,-0.6,0.6v5.7C95,25.5,95.4,25.8,95.7,25.8z"/>
</g>
<rect x="4.1" y="2.9" fill="none" width="105.3" height="49.5"/>
<circle fill="none" cx="56.6" cy="0" r="0.1"/>
<circle fill="none" cx="88.1" cy="0" r="0.1"/>
<circle fill="none" cx="113.4" cy="7" r="0.1"/>
<circle fill="none" cx="113.4" cy="27.7" r="0.1"/>
<circle fill="none" cx="113.4" cy="48.2" r="0.1"/>
<circle fill="none" cx="88.1" cy="55.1" r="0.1"/>
<circle fill="none" cx="56.5" cy="55.1" r="0.1"/>
<circle fill="none" cx="19.3" cy="55.1" r="0.1"/>
<circle fill="none" cx="0" cy="48.3" r="0.1"/>
<circle fill="none" cx="0" cy="27.8" r="0.1"/>
<circle fill="none" cx="0" cy="6.9" r="0.1"/>
<circle fill="none" cx="19.4" cy="0.1" r="0.1"/>
</g></g><g><rect stroke="none" fill="#ffffff" width="0" height="0"/><path stroke="#000000" fill="none" d=""/><text font-size="18.7" xml:space="preserve" display="none" font-family="OpenSansCondensedLight" fill="black" text-anchor="middle"><tspan dy="0.3em" style="fill-opacity: 0; stroke-opacity: 0;">-</tspan></text></g><text font-size="18.7" xml:space="preserve" font-family="OpenSansCondensedLight" line-height="21" fill="black" text-anchor="middle" text-vertical-anchor="top" transform="matrix(1,0,0,1,56.7,65.2)"><tspan dy="14.9">INTERFACE DEVICE <tspan text-decoration="underline">1218</tspan></tspan></text></g><g data-type="tp.Element" transform="translate(206,407)"><g><g>
<g fill="#FFFFFF">
    <path d="M122.5,79.3h-6.1c0.2,-0.2,-0,6,-0,6H0.1V11.8c0,0,6.3,-0.2,6.1,-0.1V5.8h5.8V0h116.2v73.5h-5.8"/>
</g>
<g stroke="#000000">
    <path fill="none" d="M12,5.8V0h116.2v73.5h-5.8"/>
    <path fill="none" d="M6.2,11.7V5.8h116.2v73.5h-6.1"/>
    <path fill="none" d="M0.1,11.8h116.2v73.5H0.1V11.8z"/>
</g>
<rect x="3.8" y="15.4" fill="none" width="108.9" height="65.9"/>
<circle fill="none" cx="66.1" cy="0.1" r="0.1"/>
<circle fill="none" cx="105.4" cy="0.1" r="0.1"/>
<circle fill="none" cx="128.2" cy="6.9" r="0.1"/>
<circle fill="none" cx="128.2" cy="33" r="0.1"/>
<circle fill="none" cx="128.2" cy="68.7" r="0.1"/>
<circle fill="none" cx="100.8" cy="85.4" r="0.1"/>
<circle fill="none" cx="54.6" cy="85.2" r="0.1"/>
<circle fill="none" cx="13.9" cy="85.2" r="0.1"/>
<circle fill="none" cx="0.3" cy="74.4" r="0.1"/>
<circle fill="none" cx="0.3" cy="46.5" r="0.1"/>
<circle fill="none" cx="0.1" cy="24.2" r="0.1"/>
<circle fill="none" cx="27.3" cy="0.1" r="0.1"/>
</g></g><g><rect stroke="none" fill="#ffffff" width="0" height="0"/><path stroke="#000000" fill="none" d=""/><text font-size="18.7" xml:space="preserve" display="none" font-family="OpenSansCondensedLight" fill="black" text-anchor="middle"><tspan dy="0.3em" style="fill-opacity: 0; stroke-opacity: 0;">-</tspan></text></g><text font-size="18.7" xml:space="preserve" font-family="OpenSansCondensedLight" line-height="21" fill="black" text-anchor="middle" text-vertical-anchor="middle" transform="matrix(1,0,0,1,58.3,48.4)"><tspan dy="-25">USER</tspan><tspan dy="21" x="0">INTERFACE</tspan><tspan dy="21" x="0">ADAPTER</tspan><tspan dy="21" x="0"><tspan text-decoration="underline">1220</tspan></tspan></text></g><g data-type="tp.Link"><path fill="none" pointer-events="none" joint-selector="line" stroke-width="1" stroke="#333333" stroke-linejoin="round" marker-start="url(#v-50122000855011)" marker-end="url(#v-50121454029882)" d="M 274 407 L 273.9 353.3"/><g><g label-idx="0" cursor="default" transform="translate(273.9, 380.2)"><rect joint-selector="rect" fill="#ffffff" rx="3" ry="3" width="8" height="0" transform="matrix(1,0,0,1,-4,0)"/><text joint-selector="text" font-size="18.7" xml:space="preserve" display="none" y="0.8em" fill="#000000" text-anchor="middle" pointer-events="none" font-family="OpenSansCondensedLight"><tspan dy="0" style="fill-opacity: 0; stroke-opacity: 0;">-</tspan></text></g></g></g><g data-type="tp.Link"><path fill="none" pointer-events="none" joint-selector="line" stroke-width="1" stroke="#333333" stroke-linejoin="round" marker-start="url(#v-50122000855011)" marker-end="url(#v-50121454029882)" d="M 138.5 453.3 L 206.1 453.5"/><g><g label-idx="0" cursor="default" transform="translate(172.3, 453.4)"><rect joint-selector="rect" fill="#ffffff" rx="3" ry="3" width="8" height="0" transform="matrix(1,0,0,1,-4,0)"/><text joint-selector="text" font-size="18.7" xml:space="preserve" display="none" y="0.8em" fill="#000000" text-anchor="middle" pointer-events="none" font-family="OpenSansCondensedLight"><tspan dy="0" style="fill-opacity: 0; stroke-opacity: 0;">-</tspan></text></g></g></g><g data-type="tp.Element" transform="translate(206,520)"><g><g>
<g fill="#FFFFFF" stroke="#000000">
    <g>
        <path d="M28,29.3V19.5c0,-0.5,-0.4,-0.8,-0.9,-0.8s-0.9,0.3,-0.9,0.8v9.8c0,5.8,-5.4,10.5,-12.1,10.5S1.9,35.1,1.9,29.3V19.5c0,-0.5,-0.4,-0.8,-0.9,-0.8S0,19,0,19.5v9.8C0,35.7,5.8,41,13.1,41.4v4.9H4.6c-0.6,0,-0.9,0.3,-0.9,0.8s0.4,0.8,0.9,0.8h18.7c0.6,0,0.9,-0.3,0.9,-0.8s-0.4,-0.8,-0.9,-0.8H14.9v-4.9C22.3,41,28,35.7,28,29.3L28,29.3z"/>
    </g>
    <path d="M6.8,6.3C6.8,2.8,10,0,14,0S21.2,2.8,21.2,6.3v23.4c0,3.5,-3.2,6.3,-7.2,6.3S6.8,33.2,6.8,29.7V6.3z"/>
    <line x1="6.8" y1="6.3" x2="13.5" y2="6.3"/>
    <line x1="6.8" y1="8.9" x2="13.5" y2="8.9"/>
    <line x1="6.8" y1="11.4" x2="13.5" y2="11.4"/>
    <line x1="6.8" y1="14" x2="13.5" y2="14"/>
</g>
<rect x="2.8" y="4.7" fill="none" width="22.4" height="31.7"/>
<circle fill="none" cx="14" cy="0" r="0.1"/>
<circle fill="none" cx="21.2" cy="6.3" r="0.1"/>
<circle fill="none" cx="21.3" cy="14" r="0.1"/>
<circle fill="none" cx="28" cy="21.2" r="0.1"/>
<circle fill="none" cx="26.8" cy="34.2" r="0.1"/>
<circle fill="none" cx="24.3" cy="47.2" r="0.1"/>
<circle fill="none" cx="13.9" cy="48" r="0.1"/>
<circle fill="none" cx="3.7" cy="47.1" r="0.1"/>
<circle fill="none" cx="1.2" cy="34.2" r="0.1"/>
<circle fill="none" cx="0" cy="21.2" r="0.1"/>
<circle fill="none" cx="6.8" cy="14.1" r="0.1"/>
<circle fill="none" cx="6.7" cy="6.2" r="0.1"/>
</g></g><g><rect stroke="none" fill="#ffffff" width="0" height="0"/><path stroke="#000000" fill="none" d=""/><text font-size="18.7" xml:space="preserve" display="none" font-family="OpenSansCondensedLight" fill="black" text-anchor="middle"><tspan dy="0.3em" style="fill-opacity: 0; stroke-opacity: 0;">-</tspan></text></g><text font-size="18.7" xml:space="preserve" font-family="OpenSansCondensedLight" line-height="21" fill="black" text-anchor="middle" text-vertical-anchor="top" transform="matrix(1,0,0,1,14,58.1)"><tspan dy="14.9">INTERFACE</tspan><tspan dy="21" x="0">DEVICE</tspan><tspan dy="21" x="0"><tspan text-decoration="underline">1222</tspan></tspan></text></g><g data-type="tp.Element" transform="translate(297,523)"><g><g>
<g fill="#FFFFFF" stroke="#000000">
    <path d="M14,44h-1.1C5.8,44,0,38.4,0,31.4V12.6C0,5.6,5.8,0,13,0h1.1c7.1,0,13,5.6,13,12.6v18.9C27,38.4,21.2,44,14,44z"/>
    <path d="M13.5,12.1L13.5,12.1c-0.9,0,-1.6,-0.7,-1.6,-1.6v-5.5c0,-0.8,0.8,-1.6,1.6,-1.6l0,0c0.9,0,1.6,0.7,1.6,1.6v5.5C15.1,11.4,14.4,12.1,13.5,12.1z"/>
</g>
<rect x="1.5" y="13.1" fill="none" width="24.1" height="17.8"/>
<circle fill="none" cx="13.5" cy="0" r="0.1"/>
<circle fill="none" cx="21.6" cy="2.4" r="0.1"/>
<circle fill="none" cx="26.8" cy="10.7" r="0.1"/>
<circle fill="none" cx="27" cy="21.9" r="0.1"/>
<circle fill="none" cx="26.9" cy="33" r="0.1"/>
<circle fill="none" cx="21.5" cy="41.7" r="0.1"/>
<circle fill="none" cx="13.5" cy="44" r="0.1"/>
<circle fill="none" cx="5.4" cy="41.7" r="0.1"/>
<circle fill="none" cx="0.1" cy="33.2" r="0.1"/>
<circle fill="none" cx="0" cy="22" r="0.1"/>
<circle fill="none" cx="0.2" cy="10.7" r="0.1"/>
<circle fill="none" cx="5.4" cy="2.4" r="0.1"/>
</g></g><g><rect stroke="none" fill="#ffffff" width="0" height="0"/><path stroke="#000000" fill="none" d=""/><text font-size="18.7" xml:space="preserve" display="none" font-family="OpenSansCondensedLight" fill="black" text-anchor="middle"><tspan dy="0.3em" style="fill-opacity: 0; stroke-opacity: 0;">-</tspan></text></g><text font-size="18.7" xml:space="preserve" font-family="OpenSansCondensedLight" line-height="21" fill="black" text-anchor="middle" text-vertical-anchor="top" transform="matrix(1,0,0,1,13.5,54.1)"><tspan dy="14.9">INTERFACE</tspan><tspan dy="21" x="0">DEVICE</tspan><tspan dy="21" x="0"><tspan text-decoration="underline">1224</tspan></tspan></text></g><g data-type="tp.Link"><path fill="none" pointer-events="none" joint-selector="line" stroke-width="1" stroke="#333333" stroke-linejoin="round" marker-start="url(#v-50122000855011)" marker-end="url(#v-50121454029882)" d="M 306.7 522.9 L 306.8 492.4"/><g><g label-idx="0" cursor="default" transform="translate(306.8, 507.7)"><rect joint-selector="rect" fill="#ffffff" rx="3" ry="3" width="8" height="0" transform="matrix(1,0,0,1,-4,0)"/><text joint-selector="text" font-size="18.7" xml:space="preserve" display="none" y="0.8em" fill="#000000" text-anchor="middle" pointer-events="none" font-family="OpenSansCondensedLight"><tspan dy="0" style="fill-opacity: 0; stroke-opacity: 0;">-</tspan></text></g></g></g><g data-type="tp.Link"><path fill="none" pointer-events="none" joint-selector="line" stroke-width="1" stroke="#333333" stroke-linejoin="round" marker-start="url(#v-50122000855011)" marker-end="url(#v-50121454029882)" d="M 220 519.9 L 220 492.3"/><g><g label-idx="0" cursor="default" transform="translate(220, 506.1)"><rect joint-selector="rect" fill="#ffffff" rx="3" ry="3" width="8" height="0" transform="matrix(1,0,0,1,-4,0)"/><text joint-selector="text" font-size="18.7" xml:space="preserve" display="none" y="0.8em" fill="#000000" text-anchor="middle" pointer-events="none" font-family="OpenSansCondensedLight"><tspan dy="0" style="fill-opacity: 0; stroke-opacity: 0;">-</tspan></text></g></g></g><g data-type="tp.Element" transform="translate(385,527)"><g><g>
<g fill="#FFFFFF" stroke="#000000">
    <g>
        <path d="M5.9,12.5H0v18.1h5.9L16.9,42c0,0,2,2.4,2,-0.1V0.8c0,-1.9,-1.8,0,-1.8,0L5.9,12.5z"/>
    </g>
    <path d="M25.2,9c-0.6,-0.8,-1.5,-0.8,-2.1,0s-0.6,2.1,0,2.9c2,2.7,2.9,6.1,2.9,9.6s-1,7,-2.9,9.6c-0.6,0.8,-0.6,2.1,0,2.9c0.3,0.4,0.7,0.6,1.1,0.6c0.4,0,0.8,-0.2,1.1,-0.6c2.5,-3.4,3.8,-8,3.8,-12.6C29,17,27.8,12.4,25.2,9L25.2,9z"/>
    <path d="M29.3,2.5c-0.6,-0.8,-1.5,-0.8,-2.1,0s-0.6,2.1,0,2.9c3.2,4.5,4.8,10.3,4.8,16.1S30.4,33.3,27.2,37.8c-0.6,0.8,-0.6,2.1,0,2.9c0.3,0.4,0.7,0.6,1.1,0.6s0.8,-0.2,1.1,-0.6c3.8,-5.3,5.7,-12.2,5.7,-19.2C35,14.7,33.1,7.7,29.3,2.5L29.3,2.5z"/>
</g>
<rect x="2.3" y="7.5" fill="none" width="30.5" height="28.4"/>
<circle fill="none" cx="18.6" cy="0" r="0.1"/>
<circle fill="none" cx="28.2" cy="1.9" r="0.1"/>
<circle fill="none" cx="33.6" cy="11.3" r="0.1"/>
<circle fill="none" cx="35" cy="21.6" r="0.1"/>
<circle fill="none" cx="33.7" cy="31.7" r="0.1"/>
<circle fill="none" cx="28" cy="41.3" r="0.1"/>
<circle fill="none" cx="18.4" cy="43" r="0.1"/>
<circle fill="none" cx="12.8" cy="37.8" r="0.1"/>
<circle fill="none" cx="5.9" cy="30.6" r="0.1"/>
<circle fill="none" cx="0" cy="21.5" r="0.1"/>
<circle fill="none" cx="5.8" cy="12.5" r="0.1"/>
<circle fill="none" cx="12.9" cy="5.2" r="0.1"/>
</g></g><g><rect stroke="none" fill="#ffffff" width="0" height="0"/><path stroke="#000000" fill="none" d=""/><text font-size="18.7" xml:space="preserve" display="none" font-family="OpenSansCondensedLight" fill="black" text-anchor="middle"><tspan dy="0.3em" style="fill-opacity: 0; stroke-opacity: 0;">-</tspan></text></g><text font-size="18.7" xml:space="preserve" font-family="OpenSansCondensedLight" line-height="21" fill="black" text-anchor="middle" text-vertical-anchor="top" transform="matrix(1,0,0,1,17.5,53.1)"><tspan dy="14.9">INTERFACE</tspan><tspan dy="21" x="0">DEVICE</tspan><tspan dy="21" x="0"><tspan text-decoration="underline">1226</tspan></tspan></text></g><g data-type="tp.Link"><path fill="none" pointer-events="none" joint-selector="line" stroke-width="1" stroke="#333333" stroke-linejoin="round" marker-start="url(#v-50122000855011)" marker-end="url(#v-50121454029882)" d="M 406 526.9 L 406 471 L 334.2 471"/><g><g label-idx="0" cursor="default" transform="translate(398.1, 471)"><rect joint-selector="rect" fill="#ffffff" rx="3" ry="3" width="8" height="0" transform="matrix(1,0,0,1,-4,0)"/><text joint-selector="text" font-size="18.7" xml:space="preserve" display="none" y="0.8em" fill="#000000" text-anchor="middle" pointer-events="none" font-family="OpenSansCondensedLight"><tspan dy="0" style="fill-opacity: 0; stroke-opacity: 0;">-</tspan></text></g></g></g><g data-type="tp.Element" transform="translate(571,405)"><g><g>
<g fill="#FFFFFF">
    <path d="M116.4,75.4h-5.8c0.1,-0.1,-0,5.7,-0,5.7H0.1V11.2c0,0,6,-0.2,5.8,-0.1V5.5h5.5V0h110.5v69.9h-5.5"/>
</g>
<g stroke="#000000">
    <path fill="none" d="M11.4,5.5V0h110.5v69.9h-5.5"/>
    <path fill="none" d="M5.9,11.1V5.5h110.5v69.9h-5.8"/>
    <path fill="none" d="M0.1,11.2h110.5v69.9H0.1V11.2z"/>
</g>
<rect x="3.7" y="14.7" fill="none" width="103.5" height="62.6"/>
<circle fill="none" cx="62.8" cy="0.1" r="0.1"/>
<circle fill="none" cx="100.2" cy="0.1" r="0.1"/>
<circle fill="none" cx="121.8" cy="6.6" r="0.1"/>
<circle fill="none" cx="121.8" cy="31.4" r="0.1"/>
<circle fill="none" cx="121.8" cy="65.3" r="0.1"/>
<circle fill="none" cx="95.8" cy="81.2" r="0.1"/>
<circle fill="none" cx="51.9" cy="81" r="0.1"/>
<circle fill="none" cx="13.3" cy="81" r="0.1"/>
<circle fill="none" cx="0.3" cy="70.7" r="0.1"/>
<circle fill="none" cx="0.3" cy="44.2" r="0.1"/>
<circle fill="none" cx="0.1" cy="23" r="0.1"/>
<circle fill="none" cx="25.9" cy="0.1" r="0.1"/>
</g></g><g><rect stroke="none" fill="#ffffff" width="0" height="0"/><path stroke="#000000" fill="none" d=""/><text font-size="18.7" xml:space="preserve" display="none" font-family="OpenSansCondensedLight" fill="black" text-anchor="middle"><tspan dy="0.3em" style="fill-opacity: 0; stroke-opacity: 0;">-</tspan></text></g><text font-size="18.7" xml:space="preserve" font-family="OpenSansCondensedLight" line-height="21" fill="black" text-anchor="middle" text-vertical-anchor="middle" transform="matrix(1,0,0,1,55.4,46)"><tspan dy="-14.5">DISPLAY</tspan><tspan dy="21" x="0">ADAPTER</tspan><tspan dy="21" x="0"><tspan text-decoration="underline">1228</tspan></tspan></text></g><g data-type="tp.Link"><path fill="none" pointer-events="none" joint-selector="line" stroke-width="1" stroke="#333333" stroke-linejoin="round" marker-start="url(#v-50122000855011)" marker-end="url(#v-50121454029882)" d="M 421.5 165 L 421.7 141"/><g><g label-idx="0" cursor="default" transform="translate(421.6, 153)"><rect joint-selector="rect" fill="#ffffff" rx="3" ry="3" width="8" height="0" transform="matrix(1,0,0,1,-4,0)"/><text joint-selector="text" font-size="18.7" xml:space="preserve" display="none" y="0.8em" fill="#000000" text-anchor="middle" pointer-events="none" font-family="OpenSansCondensedLight"><tspan dy="0" style="fill-opacity: 0; stroke-opacity: 0;">-</tspan></text></g></g></g><g data-type="tp.Element" transform="translate(646,526)"><g><g>
<g fill="#FFFFFF" stroke="#000000">
    <path d="M110.9,0H2.5C1.1,0,0,1.1,0,2.6V66.8c0,1.4,1.1,2.6,2.5,2.6h43.6L43.1,80.9l-10,0.4v2.8h47.8v-2.8l-8.8,-0.6l-3,-11.5h41.6c1.4,0,2.5,-1.1,2.5,-2.6V2.6C113.4,1.1,112.3,0,110.9,0z"/>
    <path d="M109.9,4.4v60H3.5V4.4H109.9z"/>
</g>
<rect x="3.5" y="4.4" fill="none" width="106.3" height="60"/>
<circle fill="none" cx="56.7" cy="0" r="0.1"/>
<circle fill="none" cx="90.9" cy="0" r="0.1"/>
<circle fill="none" cx="113.3" cy="16.1" r="0.1"/>
<circle fill="none" cx="113.3" cy="34.4" r="0.1"/>
<circle fill="none" cx="113.3" cy="55.4" r="0.1"/>
<circle fill="none" cx="91.1" cy="69.2" r="0.1"/>
<circle fill="none" cx="56.8" cy="84.2" r="0.1"/>
<circle fill="none" cx="22.6" cy="69.4" r="0.1"/>
<circle fill="none" cx="0" cy="55.5" r="0.1"/>
<circle fill="none" cx="-0.1" cy="34.3" r="0.1"/>
<circle fill="none" cx="-0.1" cy="15.6" r="0.1"/>
<circle fill="none" cx="22.5" cy="0.1" r="0.1"/>
</g></g><g><rect stroke="none" fill="#ffffff" width="0" height="0"/><path stroke="#000000" fill="none" d=""/><text font-size="18.7" xml:space="preserve" display="none" font-family="OpenSansCondensedLight" fill="black" text-anchor="middle"><tspan dy="0.3em" style="fill-opacity: 0; stroke-opacity: 0;">-</tspan></text></g><text font-size="18.7" xml:space="preserve" font-family="OpenSansCondensedLight" line-height="21" fill="black" text-anchor="middle" text-vertical-anchor="middle" transform="matrix(1,0,0,1,56.7,34.4)"><tspan dy="-14.5">DISPLAY</tspan><tspan dy="21" x="0">DEVICE</tspan><tspan dy="21" x="0"><tspan text-decoration="underline">1230</tspan></tspan></text></g><g data-type="tp.Link"><path fill="none" pointer-events="none" joint-selector="line" stroke-width="1" stroke="#333333" stroke-linejoin="round" marker-start="url(#v-50122000855011)" marker-end="url(#v-50121454029882)" d="M 666.3 525.9 L 666.8 486.2"/><g><g label-idx="0" cursor="default" transform="translate(666.5, 506)"><rect joint-selector="rect" fill="#ffffff" rx="3" ry="3" width="8" height="0" transform="matrix(1,0,0,1,-4,0)"/><text joint-selector="text" font-size="18.7" xml:space="preserve" display="none" y="0.8em" fill="#000000" text-anchor="middle" pointer-events="none" font-family="OpenSansCondensedLight"><tspan dy="0" style="fill-opacity: 0; stroke-opacity: 0;">-</tspan></text></g></g></g><g data-type="tp.Link"><path fill="none" pointer-events="none" joint-selector="line" stroke-width="1" stroke="#333333" stroke-linejoin="round" marker-start="url(#v-50122000855011)" marker-end="url(#v-50121454029882)" d="M 671 405 L 671.2 353.3"/><g><g label-idx="0" cursor="default" transform="translate(671.1, 379.2)"><rect joint-selector="rect" fill="#ffffff" rx="3" ry="3" width="8" height="0" transform="matrix(1,0,0,1,-4,0)"/><text joint-selector="text" font-size="18.7" xml:space="preserve" display="none" y="0.8em" fill="#000000" text-anchor="middle" pointer-events="none" font-family="OpenSansCondensedLight"><tspan dy="0" style="fill-opacity: 0; stroke-opacity: 0;">-</tspan></text></g></g></g><g data-type="tp.Link"><path fill="none" pointer-events="none" joint-selector="line" stroke-width="1" stroke="#333333" stroke-linejoin="round" marker-start="url(#v-50122000855011)" marker-end="url(#v-50121454029882)" d="M 735.5 525.9 L 735 437 L 692.9 437"/><g><g label-idx="0" cursor="default" transform="translate(735.1, 460.4)"><rect joint-selector="rect" fill="#ffffff" rx="3" ry="3" width="8" height="0" transform="matrix(1,0,0,1,-4,0)"/><text joint-selector="text" font-size="18.7" xml:space="preserve" display="none" y="0.8em" fill="#000000" text-anchor="middle" pointer-events="none" font-family="OpenSansCondensedLight"><tspan dy="0" style="fill-opacity: 0; stroke-opacity: 0;">-</tspan></text></g></g></g></g></svg>