<svg xmlns="http://www.w3.org/2000/svg" xmlns:xlink="http://www.w3.org/1999/xlink" version="1.1" width="597.1" height="599.1" viewBox="59.9 121.9 597.1 599.1"><defs/><g><g data-type="tp.Element" transform="translate(60,122)"><g><g>
<path d="M537,0H0v477h537V0L537,0z" fill="#FFFFFF" stroke="#000000"/>
<rect x="23.5" y="21.7" width="490.1" height="433.5" fill="none"/>
<circle fill="none" cx="268.5" cy="0" r="0.1"/>
<circle fill="none" cx="401.6" cy="0" r="0.1"/>
<circle fill="none" cx="537" cy="120.3" r="0.1"/>
<circle fill="none" cx="537" cy="238.5" r="0.1"/>
<circle fill="none" cx="537" cy="356.7" r="0.1"/>
<circle fill="none" cx="401.6" cy="477" r="0.1"/>
<circle fill="none" cx="268.5" cy="477" r="0.1"/>
<circle fill="none" cx="135.5" cy="477" r="0.1"/>
<circle fill="none" cx="0" cy="356.7" r="0.1"/>
<circle fill="none" cx="0" cy="238.5" r="0.1"/>
<circle fill="none" cx="0" cy="120.3" r="0.1"/>
<circle fill="none" cx="135.5" cy="0" r="0.1"/>
</g></g><g><rect stroke="none" fill="#ffffff" width="0" height="0"/><path stroke="#000000" fill="none" d=""/><text font-size="18.7" xml:space="preserve" display="none" font-family="OpenSansCondensedLight" fill="black" text-anchor="middle"><tspan dy="0.3em" style="fill-opacity: 0; stroke-opacity: 0;">-</tspan></text></g><text font-size="18.7" xml:space="preserve" font-family="OpenSansCondensedLight" line-height="21" fill="black" text-anchor="middle" text-vertical-anchor="top" transform="matrix(1,0,0,1,268.5,21.7)"><tspan dy="14.9">HOST OE <tspan text-decoration="underline">1302</tspan></tspan></text></g><g data-type="tp.Element" transform="translate(148,213)"><g><g>
<path d="M94.5,0H0v94.5h94.5V0L94.5,0z" fill="#FFFFFF" stroke="#000000"/>
<rect x="4.1" y="4.3" width="86.2" height="85.9" fill="none"/>
<circle fill="none" cx="47.2" cy="0" r="0.1"/>
<circle fill="none" cx="70.7" cy="0" r="0.1"/>
<circle fill="none" cx="94.5" cy="23.8" r="0.1"/>
<circle fill="none" cx="94.5" cy="47.2" r="0.1"/>
<circle fill="none" cx="94.5" cy="70.7" r="0.1"/>
<circle fill="none" cx="70.7" cy="94.5" r="0.1"/>
<circle fill="none" cx="47.2" cy="94.5" r="0.1"/>
<circle fill="none" cx="23.8" cy="94.5" r="0.1"/>
<circle fill="none" cx="0" cy="70.7" r="0.1"/>
<circle fill="none" cx="0" cy="47.2" r="0.1"/>
<circle fill="none" cx="0" cy="23.8" r="0.1"/>
<circle fill="none" cx="23.8" cy="0" r="0.1"/>
</g></g><g><rect stroke="none" fill="#ffffff" width="0" height="0"/><path stroke="#000000" fill="none" d=""/><text font-size="18.7" xml:space="preserve" display="none" font-family="OpenSansCondensedLight" fill="black" text-anchor="middle"><tspan dy="0.3em" style="fill-opacity: 0; stroke-opacity: 0;">-</tspan></text></g><text font-size="18.7" xml:space="preserve" font-family="OpenSansCondensedLight" line-height="21" fill="black" text-anchor="middle" text-vertical-anchor="middle" transform="matrix(1,0,0,1,47.2,47.2)"><tspan dy="-4">VOE A</tspan><tspan dy="21" x="0"><tspan text-decoration="underline">1304</tspan></tspan></text></g><g data-type="tp.Element" transform="translate(434,222)"><g><g>
<path d="M94.5,0H0v94.5h94.5V0L94.5,0z" fill="#FFFFFF" stroke="#000000"/>
<rect x="4.1" y="4.3" width="86.2" height="85.9" fill="none"/>
<circle fill="none" cx="47.2" cy="0" r="0.1"/>
<circle fill="none" cx="70.7" cy="0" r="0.1"/>
<circle fill="none" cx="94.5" cy="23.8" r="0.1"/>
<circle fill="none" cx="94.5" cy="47.2" r="0.1"/>
<circle fill="none" cx="94.5" cy="70.7" r="0.1"/>
<circle fill="none" cx="70.7" cy="94.5" r="0.1"/>
<circle fill="none" cx="47.2" cy="94.5" r="0.1"/>
<circle fill="none" cx="23.8" cy="94.5" r="0.1"/>
<circle fill="none" cx="0" cy="70.7" r="0.1"/>
<circle fill="none" cx="0" cy="47.2" r="0.1"/>
<circle fill="none" cx="0" cy="23.8" r="0.1"/>
<circle fill="none" cx="23.8" cy="0" r="0.1"/>
</g></g><g><rect stroke="none" fill="#ffffff" width="0" height="0"/><path stroke="#000000" fill="none" d=""/><text font-size="18.7" xml:space="preserve" display="none" font-family="OpenSansCondensedLight" fill="black" text-anchor="middle"><tspan dy="0.3em" style="fill-opacity: 0; stroke-opacity: 0;">-</tspan></text></g><text font-size="18.7" xml:space="preserve" font-family="OpenSansCondensedLight" line-height="21" fill="black" text-anchor="middle" text-vertical-anchor="middle" transform="matrix(1,0,0,1,47.2,47.2)"><tspan dy="-4">VOE B</tspan><tspan dy="21" x="0"><tspan text-decoration="underline">1306</tspan></tspan></text></g><g data-type="tp.Element" transform="translate(270,424)"><g><g>
<path d="M94.5,0H0v94.5h94.5V0L94.5,0z" fill="#FFFFFF" stroke="#000000"/>
<rect x="4.1" y="4.3" width="86.2" height="85.9" fill="none"/>
<circle fill="none" cx="47.2" cy="0" r="0.1"/>
<circle fill="none" cx="70.7" cy="0" r="0.1"/>
<circle fill="none" cx="94.5" cy="23.8" r="0.1"/>
<circle fill="none" cx="94.5" cy="47.2" r="0.1"/>
<circle fill="none" cx="94.5" cy="70.7" r="0.1"/>
<circle fill="none" cx="70.7" cy="94.5" r="0.1"/>
<circle fill="none" cx="47.2" cy="94.5" r="0.1"/>
<circle fill="none" cx="23.8" cy="94.5" r="0.1"/>
<circle fill="none" cx="0" cy="70.7" r="0.1"/>
<circle fill="none" cx="0" cy="47.2" r="0.1"/>
<circle fill="none" cx="0" cy="23.8" r="0.1"/>
<circle fill="none" cx="23.8" cy="0" r="0.1"/>
</g></g><g><rect stroke="none" fill="#ffffff" width="0" height="0"/><path stroke="#000000" fill="none" d=""/><text font-size="18.7" xml:space="preserve" display="none" font-family="OpenSansCondensedLight" fill="black" text-anchor="middle"><tspan dy="0.3em" style="fill-opacity: 0; stroke-opacity: 0;">-</tspan></text></g><text font-size="18.7" xml:space="preserve" font-family="OpenSansCondensedLight" line-height="21" fill="black" text-anchor="middle" text-vertical-anchor="middle" transform="matrix(1,0,0,1,47.2,47.2)"><tspan dy="-4">VOE C</tspan><tspan dy="21" x="0"><tspan text-decoration="underline">1308</tspan></tspan></text></g></g></svg>