<svg xmlns="http://www.w3.org/2000/svg" xmlns:xlink="http://www.w3.org/1999/xlink" version="1.1" width="600.1" height="682.6" viewBox="63.9 123.4 600.1 682.6"><defs><marker orient="auto" overflow="visible" markerUnits="userSpaceOnUse"><path stroke="#333333" fill="#333333" d="M 8 -4 0 0 8 4 z"/></marker><marker orient="auto" overflow="visible" markerUnits="userSpaceOnUse"><path stroke="#333333" fill="#333333" transform="rotate(180)" d="M 8 -4 0 0 8 4 z"/></marker></defs><g><g data-type="tp.Element" transform="translate(64,123.5)"><g><g>
<path d="M536,0H0v230h536V0L536,0z" fill="#FFFFFF" stroke="#000000"/>
<rect x="23.4" y="10.5" width="489.2" height="209" fill="none"/>
<circle fill="none" cx="268" cy="0" r="0.1"/>
<circle fill="none" cx="400.8" cy="0" r="0.1"/>
<circle fill="none" cx="536" cy="58" r="0.1"/>
<circle fill="none" cx="536" cy="115" r="0.1"/>
<circle fill="none" cx="536" cy="172" r="0.1"/>
<circle fill="none" cx="400.8" cy="230" r="0.1"/>
<circle fill="none" cx="268" cy="230" r="0.1"/>
<circle fill="none" cx="135.2" cy="230" r="0.1"/>
<circle fill="none" cx="0" cy="172" r="0.1"/>
<circle fill="none" cx="0" cy="115" r="0.1"/>
<circle fill="none" cx="0" cy="58" r="0.1"/>
<circle fill="none" cx="135.2" cy="0" r="0.1"/>
</g></g><g><rect stroke="none" fill="#ffffff" width="0" height="0"/><path stroke="#000000" fill="none" d=""/><text font-size="18.7" xml:space="preserve" display="none" font-family="OpenSansCondensedLight" fill="black" text-anchor="middle"><tspan dy="0.3em" style="fill-opacity: 0; stroke-opacity: 0;">-</tspan></text></g><text font-size="18.7" xml:space="preserve" font-family="OpenSansCondensedLight" line-height="21" fill="black" text-anchor="middle" text-vertical-anchor="top" transform="matrix(1,0,0,1,268,10.5)"><tspan dy="14.9">HOST OE <tspan text-decoration="underline">1402</tspan></tspan></text></g><g data-type="tp.Element" transform="translate(80,588)"><g><g>
<path d="M94.5,0H0v94.5h94.5V0L94.5,0z" fill="#FFFFFF" stroke="#000000"/>
<rect x="4.1" y="4.3" width="86.2" height="85.9" fill="none"/>
<circle fill="none" cx="47.2" cy="0" r="0.1"/>
<circle fill="none" cx="70.7" cy="0" r="0.1"/>
<circle fill="none" cx="94.5" cy="23.8" r="0.1"/>
<circle fill="none" cx="94.5" cy="47.2" r="0.1"/>
<circle fill="none" cx="94.5" cy="70.7" r="0.1"/>
<circle fill="none" cx="70.7" cy="94.5" r="0.1"/>
<circle fill="none" cx="47.2" cy="94.5" r="0.1"/>
<circle fill="none" cx="23.8" cy="94.5" r="0.1"/>
<circle fill="none" cx="0" cy="70.7" r="0.1"/>
<circle fill="none" cx="0" cy="47.2" r="0.1"/>
<circle fill="none" cx="0" cy="23.8" r="0.1"/>
<circle fill="none" cx="23.8" cy="0" r="0.1"/>
</g></g><g><rect stroke="none" fill="#ffffff" width="0" height="0"/><path stroke="#000000" fill="none" d=""/><text font-size="18.7" xml:space="preserve" display="none" font-family="OpenSansCondensedLight" fill="black" text-anchor="middle"><tspan dy="0.3em" style="fill-opacity: 0; stroke-opacity: 0;">-</tspan></text></g><text font-size="18.7" xml:space="preserve" font-family="OpenSansCondensedLight" line-height="21" fill="black" text-anchor="middle" text-vertical-anchor="middle" transform="matrix(1,0,0,1,47.2,47.2)"><tspan dy="6.5">OE D <tspan text-decoration="underline">1404</tspan></tspan></text></g><g data-type="tp.Element" transform="translate(220,434)"><g><g>
<path d="M47.1,0c-10.2,0,-18.8,6,-21.9,14.4C11.1,16,0,27.1,0,40.8c0,14.6,12.7,26.5,28.2,26.5c0.8,0,1.6,0,2.4,-0.2c2.7,8.7,11.1,15,21.4,15c8.4,0,15.8,-4.4,19.4,-10.9c3.9,3.8,9.4,6.2,15.5,6.2c9.6,0,17.8,-5.8,20.7,-13.9c0.2,0,0.2,0,0.4,0c12.9,0,23.3,-9.8,23.3,-21.9s-10.4,-22,-23.4,-22c-2.5,0,-4.7,0.4,-6.7,1c-2.1,-8.3,-10,-14.4,-19.4,-14.4c-5.5,0,-10.4,2.1,-14.1,5.6C63.9,4.8,56.1,0,47.1,0L47.1,0z" fill="#FFFFFF" stroke="#000000"/>
<rect x="11.9" y="25.5" width="105.4" height="31.1" fill="none"/>
<circle fill="none" cx="67.7" cy="11.7" r="0.1"/>
<circle fill="none" cx="86.3" cy="6.6" r="0.1"/>
<circle fill="none" cx="101.4" cy="20.5" r="0.1"/>
<circle fill="none" cx="131.4" cy="40.8" r="0.1"/>
<circle fill="none" cx="107.7" cy="63.5" r="0.1"/>
<circle fill="none" cx="88.6" cy="77.2" r="0.1"/>
<circle fill="none" cx="71.5" cy="71.2" r="0.1"/>
<circle fill="none" cx="51.4" cy="82.1" r="0.1"/>
<circle fill="none" cx="0" cy="40.8" r="0.1"/>
<circle fill="none" cx="30.7" cy="67.1" r="0.1"/>
<circle fill="none" cx="25.2" cy="14.4" r="0.1"/>
<circle fill="none" cx="47" cy="0" r="0.1"/>
</g></g><g><rect stroke="none" fill="#ffffff" width="0" height="0"/><path stroke="#000000" fill="none" d=""/><text font-size="18.7" xml:space="preserve" display="none" font-family="OpenSansCondensedLight" fill="black" text-anchor="middle"><tspan dy="0.3em" style="fill-opacity: 0; stroke-opacity: 0;">-</tspan></text></g><text font-size="18.7" xml:space="preserve" font-family="OpenSansCondensedLight" line-height="21" fill="black" text-anchor="middle" text-vertical-anchor="middle" transform="matrix(1,0,0,1,64.7,41.1)"><tspan dy="-4">NETWORK</tspan><tspan dy="21" x="0"><tspan text-decoration="underline">1406</tspan></tspan></text></g><g data-type="tp.Element" transform="translate(130,193)"><g><g>
<path d="M94.5,0H0v94.5h94.5V0L94.5,0z" fill="#FFFFFF" stroke="#000000"/>
<rect x="4.1" y="4.3" width="86.2" height="85.9" fill="none"/>
<circle fill="none" cx="47.2" cy="0" r="0.1"/>
<circle fill="none" cx="70.7" cy="0" r="0.1"/>
<circle fill="none" cx="94.5" cy="23.8" r="0.1"/>
<circle fill="none" cx="94.5" cy="47.2" r="0.1"/>
<circle fill="none" cx="94.5" cy="70.7" r="0.1"/>
<circle fill="none" cx="70.7" cy="94.5" r="0.1"/>
<circle fill="none" cx="47.2" cy="94.5" r="0.1"/>
<circle fill="none" cx="23.8" cy="94.5" r="0.1"/>
<circle fill="none" cx="0" cy="70.7" r="0.1"/>
<circle fill="none" cx="0" cy="47.2" r="0.1"/>
<circle fill="none" cx="0" cy="23.8" r="0.1"/>
<circle fill="none" cx="23.8" cy="0" r="0.1"/>
</g></g><g><rect stroke="none" fill="#ffffff" width="0" height="0"/><path stroke="#000000" fill="none" d=""/><text font-size="18.7" xml:space="preserve" display="none" font-family="OpenSansCondensedLight" fill="black" text-anchor="middle"><tspan dy="0.3em" style="fill-opacity: 0; stroke-opacity: 0;">-</tspan></text></g><text font-size="18.7" xml:space="preserve" font-family="OpenSansCondensedLight" line-height="21" fill="black" text-anchor="middle" text-vertical-anchor="middle" transform="matrix(1,0,0,1,47.2,47.2)"><tspan dy="6.5">OE B <tspan text-decoration="underline">1408</tspan></tspan></text></g><g data-type="tp.Link"><path fill="none" pointer-events="none" joint-selector="line" stroke-width="1" stroke="#333333" stroke-linejoin="round" marker-start="url(#v-5396-190246168)" marker-end="url(#v-53961588573873)" d="M 250.2 501.4 L 150.7 588"/><g><g label-idx="0" cursor="default" transform="translate(200.4, 544.7)"><rect joint-selector="rect" fill="#ffffff" rx="3" ry="3" width="8" height="0" transform="matrix(1,0,0,1,-4,0)"/><text joint-selector="text" font-size="18.7" xml:space="preserve" display="none" y="0.8em" fill="#000000" text-anchor="middle" pointer-events="none" font-family="OpenSansCondensedLight"><tspan dy="0" style="fill-opacity: 0; stroke-opacity: 0;">-</tspan></text></g></g></g><g data-type="tp.Element" transform="translate(418,195)"><g><g>
<path d="M94.5,0H0v94.5h94.5V0L94.5,0z" fill="#FFFFFF" stroke="#000000"/>
<rect x="4.1" y="4.3" width="86.2" height="85.9" fill="none"/>
<circle fill="none" cx="47.2" cy="0" r="0.1"/>
<circle fill="none" cx="70.7" cy="0" r="0.1"/>
<circle fill="none" cx="94.5" cy="23.8" r="0.1"/>
<circle fill="none" cx="94.5" cy="47.2" r="0.1"/>
<circle fill="none" cx="94.5" cy="70.7" r="0.1"/>
<circle fill="none" cx="70.7" cy="94.5" r="0.1"/>
<circle fill="none" cx="47.2" cy="94.5" r="0.1"/>
<circle fill="none" cx="23.8" cy="94.5" r="0.1"/>
<circle fill="none" cx="0" cy="70.7" r="0.1"/>
<circle fill="none" cx="0" cy="47.2" r="0.1"/>
<circle fill="none" cx="0" cy="23.8" r="0.1"/>
<circle fill="none" cx="23.8" cy="0" r="0.1"/>
</g></g><g><rect stroke="none" fill="#ffffff" width="0" height="0"/><path stroke="#000000" fill="none" d=""/><text font-size="18.7" xml:space="preserve" display="none" font-family="OpenSansCondensedLight" fill="black" text-anchor="middle"><tspan dy="0.3em" style="fill-opacity: 0; stroke-opacity: 0;">-</tspan></text></g><text font-size="18.7" xml:space="preserve" font-family="OpenSansCondensedLight" line-height="21" fill="black" text-anchor="middle" text-vertical-anchor="middle" transform="matrix(1,0,0,1,47.2,47.2)"><tspan dy="6.5">OE C <tspan text-decoration="underline">1410</tspan></tspan></text></g><g data-type="tp.Link"><path fill="none" pointer-events="none" joint-selector="line" stroke-width="1" stroke="#333333" stroke-linejoin="round" marker-start="url(#v-5396-190246168)" marker-end="url(#v-53961588573873)" d="M 306.8 440.5 L 332 353.5"/><g><g label-idx="0" cursor="default" transform="translate(319.4, 397)"><rect joint-selector="rect" fill="#ffffff" rx="3" ry="3" width="8" height="0" transform="matrix(1,0,0,1,-4,0)"/><text joint-selector="text" font-size="18.7" xml:space="preserve" display="none" y="0.8em" fill="#000000" text-anchor="middle" pointer-events="none" font-family="OpenSansCondensedLight"><tspan dy="0" style="fill-opacity: 0; stroke-opacity: 0;">-</tspan></text></g></g></g></g></svg>