<svg xmlns="http://www.w3.org/2000/svg" xmlns:xlink="http://www.w3.org/1999/xlink" version="1.1" width="596.1" height="642.6" viewBox="92.9 9.9 596.1 642.6"><defs><marker orient="auto" overflow="visible" markerUnits="userSpaceOnUse"><path stroke="#333333" fill="#333333" d="M 8 -4 0 0 8 4 z"/></marker><marker orient="auto" overflow="visible" markerUnits="userSpaceOnUse"><path stroke="#333333" fill="#333333" transform="rotate(180)" d="M 8 -4 0 0 8 4 z"/></marker></defs><g><g data-type="tp.Element" transform="translate(93,10)"><g><g>
<path d="M180.3,0c-39,0,-72,17.1,-83.9,41.3C42.3,45.7,0,77.5,0,116.7c0,41.8,48.5,75.9,108,75.9c3,0,6.3,0,9.3,-0.5c10.4,24.8,42.5,42.9,81.8,42.9c32.1,0,60.4,-12.7,74.4,-31.3c14.9,10.9,36,17.6,59.5,17.6c36.7,0,68.1,-16.5,79.2,-39.6c0.7,0,0.7,0,1.6,0c49.3,0,89.2,-28.1,89.2,-62.7s-40,-62.8,-89.4,-62.8c-9.5,0,-18.1,1.1,-25.8,2.8c-7.9,-23.7,-38.3,-41.3,-74.4,-41.3c-21.1,0,-40,6,-54.1,16C244.4,13.7,214.7,0,180.3,0L180.3,0z" fill="#FFFFFF" stroke="#000000" stroke-dasharray="5,5"/>
<rect x="45.7" y="73.1" width="403.5" height="89.1" fill="none"/>
<circle fill="none" cx="259.3" cy="33.5" r="0.1"/>
<circle fill="none" cx="330.4" cy="18.9" r="0.1"/>
<circle fill="none" cx="387.9" cy="58.8" r="0.1"/>
<circle fill="none" cx="503" cy="116.9" r="0.1"/>
<circle fill="none" cx="412.2" cy="181.7" r="0.1"/>
<circle fill="none" cx="339.2" cy="221.1" r="0.1"/>
<circle fill="none" cx="273.5" cy="203.7" r="0.1"/>
<circle fill="none" cx="196.5" cy="235" r="0.1"/>
<circle fill="none" cx="0" cy="116.7" r="0.1"/>
<circle fill="none" cx="117.3" cy="192.1" r="0.1"/>
<circle fill="none" cx="96.4" cy="41.3" r="0.1"/>
<circle fill="none" cx="180" cy="0" r="0.1"/>
</g></g><g><rect stroke="none" fill="#ffffff" width="0" height="0"/><path stroke="#000000" fill="none" d=""/><text font-size="18.7" xml:space="preserve" display="none" font-family="OpenSansCondensedLight" fill="black" text-anchor="middle"><tspan dy="0.3em" style="fill-opacity: 0; stroke-opacity: 0;">-</tspan></text></g><text font-size="18.7" xml:space="preserve" font-family="OpenSansCondensedLight" line-height="21" fill="black" text-anchor="middle" text-vertical-anchor="middle" transform="matrix(1,0,0,1,247.4,117.7)"><tspan dy="6.5">CLOUD <tspan text-decoration="underline">1512</tspan></tspan></text></g><g data-type="tp.Element" transform="translate(287,243)"><g><g>
<path d="M113,0H0v57h113V0L113,0z" fill="#FFFFFF" stroke="#000000"/>
<rect x="4.9" y="2.6" width="103.1" height="51.8" fill="none"/>
<circle fill="none" cx="56.5" cy="0" r="0.1"/>
<circle fill="none" cx="84.5" cy="0" r="0.1"/>
<circle fill="none" cx="113" cy="14.4" r="0.1"/>
<circle fill="none" cx="113" cy="28.5" r="0.1"/>
<circle fill="none" cx="113" cy="42.6" r="0.1"/>
<circle fill="none" cx="84.5" cy="57" r="0.1"/>
<circle fill="none" cx="56.5" cy="57" r="0.1"/>
<circle fill="none" cx="28.5" cy="57" r="0.1"/>
<circle fill="none" cx="0" cy="42.6" r="0.1"/>
<circle fill="none" cx="0" cy="28.5" r="0.1"/>
<circle fill="none" cx="0" cy="14.4" r="0.1"/>
<circle fill="none" cx="28.5" cy="0" r="0.1"/>
</g></g><g><rect stroke="none" fill="#ffffff" width="0" height="0"/><path stroke="#000000" fill="none" d=""/><text font-size="18.7" xml:space="preserve" display="none" font-family="OpenSansCondensedLight" fill="black" text-anchor="middle"><tspan dy="0.3em" style="fill-opacity: 0; stroke-opacity: 0;">-</tspan></text></g><text font-size="18.7" xml:space="preserve" font-family="OpenSansCondensedLight" line-height="21" fill="black" text-anchor="middle" text-vertical-anchor="middle" transform="matrix(1,0,0,1,56.5,28.5)"><tspan dy="-4">GATEWAY</tspan><tspan dy="21" x="0"><tspan text-decoration="underline">1502</tspan></tspan></text></g><g data-type="tp.Element" transform="translate(207,548)"><g><g>
<path d="M94.5,0H0v94.5h94.5V0L94.5,0z" fill="#FFFFFF" stroke="#000000"/>
<rect x="4.1" y="4.3" width="86.2" height="85.9" fill="none"/>
<circle fill="none" cx="47.2" cy="0" r="0.1"/>
<circle fill="none" cx="70.7" cy="0" r="0.1"/>
<circle fill="none" cx="94.5" cy="23.8" r="0.1"/>
<circle fill="none" cx="94.5" cy="47.2" r="0.1"/>
<circle fill="none" cx="94.5" cy="70.7" r="0.1"/>
<circle fill="none" cx="70.7" cy="94.5" r="0.1"/>
<circle fill="none" cx="47.2" cy="94.5" r="0.1"/>
<circle fill="none" cx="23.8" cy="94.5" r="0.1"/>
<circle fill="none" cx="0" cy="70.7" r="0.1"/>
<circle fill="none" cx="0" cy="47.2" r="0.1"/>
<circle fill="none" cx="0" cy="23.8" r="0.1"/>
<circle fill="none" cx="23.8" cy="0" r="0.1"/>
</g></g><g><rect stroke="none" fill="#ffffff" width="0" height="0"/><path stroke="#000000" fill="none" d=""/><text font-size="18.7" xml:space="preserve" display="none" font-family="OpenSansCondensedLight" fill="black" text-anchor="middle"><tspan dy="0.3em" style="fill-opacity: 0; stroke-opacity: 0;">-</tspan></text></g><text font-size="18.7" xml:space="preserve" font-family="OpenSansCondensedLight" line-height="21" fill="black" text-anchor="middle" text-vertical-anchor="middle" transform="matrix(1,0,0,1,47.2,47.2)"><tspan dy="6.5">OE A <tspan text-decoration="underline">1504</tspan></tspan></text></g><g data-type="tp.Element" transform="translate(298,385)"><g><g>
<path d="M47.1,0c-10.2,0,-18.8,6,-21.9,14.4C11.1,16,0,27.1,0,40.8c0,14.6,12.7,26.5,28.2,26.5c0.8,0,1.6,0,2.4,-0.2c2.7,8.7,11.1,15,21.4,15c8.4,0,15.8,-4.4,19.4,-10.9c3.9,3.8,9.4,6.2,15.5,6.2c9.6,0,17.8,-5.8,20.7,-13.9c0.2,0,0.2,0,0.4,0c12.9,0,23.3,-9.8,23.3,-21.9s-10.4,-22,-23.4,-22c-2.5,0,-4.7,0.4,-6.7,1c-2.1,-8.3,-10,-14.4,-19.4,-14.4c-5.5,0,-10.4,2.1,-14.1,5.6C63.9,4.8,56.1,0,47.1,0L47.1,0z" fill="#FFFFFF" stroke="#000000"/>
<rect x="11.9" y="25.5" width="105.4" height="31.1" fill="none"/>
<circle fill="none" cx="67.7" cy="11.7" r="0.1"/>
<circle fill="none" cx="86.3" cy="6.6" r="0.1"/>
<circle fill="none" cx="101.4" cy="20.5" r="0.1"/>
<circle fill="none" cx="131.4" cy="40.8" r="0.1"/>
<circle fill="none" cx="107.7" cy="63.5" r="0.1"/>
<circle fill="none" cx="88.6" cy="77.2" r="0.1"/>
<circle fill="none" cx="71.5" cy="71.2" r="0.1"/>
<circle fill="none" cx="51.4" cy="82.1" r="0.1"/>
<circle fill="none" cx="0" cy="40.8" r="0.1"/>
<circle fill="none" cx="30.7" cy="67.1" r="0.1"/>
<circle fill="none" cx="25.2" cy="14.4" r="0.1"/>
<circle fill="none" cx="47" cy="0" r="0.1"/>
</g></g><g><rect stroke="none" fill="#ffffff" width="0" height="0"/><path stroke="#000000" fill="none" d=""/><text font-size="18.7" xml:space="preserve" display="none" font-family="OpenSansCondensedLight" fill="black" text-anchor="middle"><tspan dy="0.3em" style="fill-opacity: 0; stroke-opacity: 0;">-</tspan></text></g><text font-size="18.7" xml:space="preserve" font-family="OpenSansCondensedLight" line-height="21" fill="black" text-anchor="middle" text-vertical-anchor="middle" transform="matrix(1,0,0,1,64.7,41.1)"><tspan dy="-4">NETWORK</tspan><tspan dy="21" x="0"><tspan text-decoration="underline">1506</tspan></tspan></text></g><g data-type="tp.Element" transform="translate(414,84)"><g><g>
<path d="M94.5,0H0v94.5h94.5V0L94.5,0z" fill="#FFFFFF" stroke="#000000"/>
<rect x="4.1" y="4.3" width="86.2" height="85.9" fill="none"/>
<circle fill="none" cx="47.2" cy="0" r="0.1"/>
<circle fill="none" cx="70.7" cy="0" r="0.1"/>
<circle fill="none" cx="94.5" cy="23.8" r="0.1"/>
<circle fill="none" cx="94.5" cy="47.2" r="0.1"/>
<circle fill="none" cx="94.5" cy="70.7" r="0.1"/>
<circle fill="none" cx="70.7" cy="94.5" r="0.1"/>
<circle fill="none" cx="47.2" cy="94.5" r="0.1"/>
<circle fill="none" cx="23.8" cy="94.5" r="0.1"/>
<circle fill="none" cx="0" cy="70.7" r="0.1"/>
<circle fill="none" cx="0" cy="47.2" r="0.1"/>
<circle fill="none" cx="0" cy="23.8" r="0.1"/>
<circle fill="none" cx="23.8" cy="0" r="0.1"/>
</g></g><g><rect stroke="none" fill="#ffffff" width="0" height="0"/><path stroke="#000000" fill="none" d=""/><text font-size="18.7" xml:space="preserve" display="none" font-family="OpenSansCondensedLight" fill="black" text-anchor="middle"><tspan dy="0.3em" style="fill-opacity: 0; stroke-opacity: 0;">-</tspan></text></g><text font-size="18.7" xml:space="preserve" font-family="OpenSansCondensedLight" line-height="21" fill="black" text-anchor="middle" text-vertical-anchor="middle" transform="matrix(1,0,0,1,47.2,47.2)"><tspan dy="6.5">OE B <tspan text-decoration="underline">1508</tspan></tspan></text></g><g data-type="tp.Link"><path fill="none" pointer-events="none" joint-selector="line" stroke-width="1" stroke="#333333" stroke-linejoin="round" marker-start="url(#v-5536-190246168)" marker-end="url(#v-55361588573873)" d="M 277.9 547.9 L 349.4 467.1"/><g><g label-idx="0" cursor="default" transform="translate(313.6, 507.5)"><rect joint-selector="rect" fill="#ffffff" rx="3" ry="3" width="8" height="0" transform="matrix(1,0,0,1,-4,0)"/><text joint-selector="text" font-size="18.7" xml:space="preserve" display="none" y="0.8em" fill="#000000" text-anchor="middle" pointer-events="none" font-family="OpenSansCondensedLight"><tspan dy="0" style="fill-opacity: 0; stroke-opacity: 0;">-</tspan></text></g></g></g><g data-type="tp.Element" transform="translate(166,68)"><g><g>
<path d="M94.5,0H0v94.5h94.5V0L94.5,0z" fill="#FFFFFF" stroke="#000000"/>
<rect x="4.1" y="4.3" width="86.2" height="85.9" fill="none"/>
<circle fill="none" cx="47.2" cy="0" r="0.1"/>
<circle fill="none" cx="70.7" cy="0" r="0.1"/>
<circle fill="none" cx="94.5" cy="23.8" r="0.1"/>
<circle fill="none" cx="94.5" cy="47.2" r="0.1"/>
<circle fill="none" cx="94.5" cy="70.7" r="0.1"/>
<circle fill="none" cx="70.7" cy="94.5" r="0.1"/>
<circle fill="none" cx="47.2" cy="94.5" r="0.1"/>
<circle fill="none" cx="23.8" cy="94.5" r="0.1"/>
<circle fill="none" cx="0" cy="70.7" r="0.1"/>
<circle fill="none" cx="0" cy="47.2" r="0.1"/>
<circle fill="none" cx="0" cy="23.8" r="0.1"/>
<circle fill="none" cx="23.8" cy="0" r="0.1"/>
</g></g><g><rect stroke="none" fill="#ffffff" width="0" height="0"/><path stroke="#000000" fill="none" d=""/><text font-size="18.7" xml:space="preserve" display="none" font-family="OpenSansCondensedLight" fill="black" text-anchor="middle"><tspan dy="0.3em" style="fill-opacity: 0; stroke-opacity: 0;">-</tspan></text></g><text font-size="18.7" xml:space="preserve" font-family="OpenSansCondensedLight" line-height="21" fill="black" text-anchor="middle" text-vertical-anchor="middle" transform="matrix(1,0,0,1,47.2,47.2)"><tspan dy="6.5">OE C <tspan text-decoration="underline">1510</tspan></tspan></text></g><g data-type="tp.Link"><path fill="none" pointer-events="none" joint-selector="line" stroke-width="1" stroke="#333333" stroke-linejoin="round" marker-start="url(#v-5536-190246168)" marker-end="url(#v-55361588573873)" d="M 344 384.9 L 343.5 300"/><g><g label-idx="0" cursor="default" transform="translate(343.7, 342.5)"><rect joint-selector="rect" fill="#ffffff" rx="3" ry="3" width="8" height="0" transform="matrix(1,0,0,1,-4,0)"/><text joint-selector="text" font-size="18.7" xml:space="preserve" display="none" y="0.8em" fill="#000000" text-anchor="middle" pointer-events="none" font-family="OpenSansCondensedLight"><tspan dy="0" style="fill-opacity: 0; stroke-opacity: 0;">-</tspan></text></g></g></g></g></svg>