<svg xmlns="http://www.w3.org/2000/svg" xmlns:xlink="http://www.w3.org/1999/xlink" version="1.1" width="895" height="614.1" viewBox="39.9 25.9 895 614.1"><defs><marker orient="auto" overflow="visible" markerUnits="userSpaceOnUse"><path stroke="#333333" fill="#333333" d="M 0 0 0 0"/></marker><marker orient="auto" overflow="visible" markerUnits="userSpaceOnUse"><path stroke="#333333" fill="#333333" transform="rotate(180)" d="M 0 0 0 0"/></marker></defs><g><g data-type="tp.Element" transform="translate(40,26)"><g><g>
<path d="M741,0H0v588h741V0L741,0z" fill="#FFFFFF" stroke="#000000"/>
<rect x="32.4" y="26.8" width="676.2" height="534.4" fill="none"/>
<circle fill="none" cx="370.5" cy="0" r="0.1"/>
<circle fill="none" cx="554.1" cy="0" r="0.1"/>
<circle fill="none" cx="741" cy="148.3" r="0.1"/>
<circle fill="none" cx="741" cy="294" r="0.1"/>
<circle fill="none" cx="741" cy="439.7" r="0.1"/>
<circle fill="none" cx="554.1" cy="588" r="0.1"/>
<circle fill="none" cx="370.5" cy="588" r="0.1"/>
<circle fill="none" cx="186.9" cy="588" r="0.1"/>
<circle fill="none" cx="0" cy="439.7" r="0.1"/>
<circle fill="none" cx="0" cy="294" r="0.1"/>
<circle fill="none" cx="0" cy="148.3" r="0.1"/>
<circle fill="none" cx="186.9" cy="0" r="0.1"/>
</g></g><g><rect stroke="none" fill="#ffffff" width="0" height="0"/><path stroke="#000000" fill="none" d=""/><text font-size="18.7" xml:space="preserve" display="none" font-family="OpenSansCondensedLight" fill="black" text-anchor="middle"><tspan dy="0.3em" style="fill-opacity: 0; stroke-opacity: 0;">-</tspan></text></g><text font-size="18.7" xml:space="preserve" font-family="OpenSansCondensedLight" line-height="21" fill="black" text-anchor="middle" text-vertical-anchor="top" transform="matrix(1,0,0,1,370.5,26.8)" display="none"><tspan dy="0.8em" style="fill-opacity: 0; stroke-opacity: 0;">-</tspan></text></g><g data-type="tp.Element" transform="translate(45,32)"><g><g>
<path d="M200,0H0v31h200V0L200,0z" fill="#FFFFFF"/>
<rect x="8.7" y="1.4" width="182.5" height="28.2" fill="none"/>
<circle fill="none" cx="100" cy="0" r="0.1"/>
<circle fill="none" cx="149.6" cy="0" r="0.1"/>
<circle fill="none" cx="200" cy="7.8" r="0.1"/>
<circle fill="none" cx="200" cy="15.5" r="0.1"/>
<circle fill="none" cx="200" cy="23.2" r="0.1"/>
<circle fill="none" cx="149.6" cy="31" r="0.1"/>
<circle fill="none" cx="100" cy="31" r="0.1"/>
<circle fill="none" cx="50.5" cy="31" r="0.1"/>
<circle fill="none" cx="0" cy="23.2" r="0.1"/>
<circle fill="none" cx="0" cy="15.5" r="0.1"/>
<circle fill="none" cx="0" cy="7.8" r="0.1"/>
<circle fill="none" cx="50.5" cy="0" r="0.1"/>
</g></g><g><rect stroke="none" fill="#ffffff" width="0" height="0"/><path stroke="#000000" fill="none" d=""/><text font-size="18.7" xml:space="preserve" display="none" font-family="OpenSansCondensedLight" fill="black" text-anchor="middle"><tspan dy="0.3em" style="fill-opacity: 0; stroke-opacity: 0;">-</tspan></text></g><text font-size="18.7" xml:space="preserve" font-family="OpenSansCondensedLight" line-height="21" fill="black" text-anchor="middle" text-vertical-anchor="middle" transform="matrix(1,0,0,1,100,15.5)"><tspan dy="-0.3em">COMPUTING</tspan><tspan dy="21" x="0">ENVIRONMENT</tspan></text></g><g data-type="tp.Element" transform="translate(53,65)"><g><g>
<path d="M715,0H0v539h715V0L715,0z" fill="#FFFFFF" stroke="#000000"/>
<rect x="31.3" y="24.6" width="652.5" height="489.8" fill="none"/>
<circle fill="none" cx="357.5" cy="0" r="0.1"/>
<circle fill="none" cx="534.7" cy="0" r="0.1"/>
<circle fill="none" cx="715" cy="135.9" r="0.1"/>
<circle fill="none" cx="715" cy="269.5" r="0.1"/>
<circle fill="none" cx="715" cy="403.1" r="0.1"/>
<circle fill="none" cx="534.7" cy="539" r="0.1"/>
<circle fill="none" cx="357.5" cy="539" r="0.1"/>
<circle fill="none" cx="180.4" cy="539" r="0.1"/>
<circle fill="none" cx="0" cy="403.1" r="0.1"/>
<circle fill="none" cx="0" cy="269.5" r="0.1"/>
<circle fill="none" cx="0" cy="135.9" r="0.1"/>
<circle fill="none" cx="180.4" cy="0" r="0.1"/>
</g></g><g><rect stroke="none" fill="#ffffff" width="0" height="0"/><path stroke="#000000" fill="none" d=""/><text font-size="18.7" xml:space="preserve" display="none" font-family="OpenSansCondensedLight" fill="black" text-anchor="middle"><tspan dy="0.3em" style="fill-opacity: 0; stroke-opacity: 0;">-</tspan></text></g><text font-size="18.7" xml:space="preserve" font-family="OpenSansCondensedLight" line-height="21" fill="black" text-anchor="middle" text-vertical-anchor="middle" transform="matrix(1,0,0,1,357.5,269.5)" display="none"><tspan dy="0.3em" style="fill-opacity: 0; stroke-opacity: 0;">-</tspan></text></g><g data-type="tp.Element" transform="translate(823,424)"><g><g>
<path d="M57,0H0v31h57V0L57,0z" fill="#FFFFFF"/>
<rect x="2.5" y="1.4" width="52" height="28.2" fill="none"/>
<circle fill="none" cx="28.5" cy="0" r="0.1"/>
<circle fill="none" cx="42.6" cy="0" r="0.1"/>
<circle fill="none" cx="57" cy="7.8" r="0.1"/>
<circle fill="none" cx="57" cy="15.5" r="0.1"/>
<circle fill="none" cx="57" cy="23.2" r="0.1"/>
<circle fill="none" cx="42.6" cy="31" r="0.1"/>
<circle fill="none" cx="28.5" cy="31" r="0.1"/>
<circle fill="none" cx="14.4" cy="31" r="0.1"/>
<circle fill="none" cx="0" cy="23.2" r="0.1"/>
<circle fill="none" cx="0" cy="15.5" r="0.1"/>
<circle fill="none" cx="0" cy="7.8" r="0.1"/>
<circle fill="none" cx="14.4" cy="0" r="0.1"/>
</g></g><g><rect stroke="none" fill="#ffffff" width="0" height="0"/><path stroke="#000000" fill="none" d=""/><text font-size="18.7" xml:space="preserve" display="none" font-family="OpenSansCondensedLight" fill="black" text-anchor="middle"><tspan dy="0.3em" style="fill-opacity: 0; stroke-opacity: 0;">-</tspan></text></g><text font-size="18.7" xml:space="preserve" font-family="OpenSansCondensedLight" line-height="21" fill="black" text-anchor="middle" text-vertical-anchor="middle" transform="matrix(1,0,0,1,28.5,15.5)"><tspan dy="-0.3em">TO/FROM</tspan><tspan dy="21" x="0">NETWORK</tspan></text></g><g data-type="tp.Element" transform="translate(56,72)"><g><g>
<path d="M94,0H0v31h94V0L94,0z" fill="#FFFFFF"/>
<rect x="4.1" y="1.4" width="85.8" height="28.2" fill="none"/>
<circle fill="none" cx="47" cy="0" r="0.1"/>
<circle fill="none" cx="70.3" cy="0" r="0.1"/>
<circle fill="none" cx="94" cy="7.8" r="0.1"/>
<circle fill="none" cx="94" cy="15.5" r="0.1"/>
<circle fill="none" cx="94" cy="23.2" r="0.1"/>
<circle fill="none" cx="70.3" cy="31" r="0.1"/>
<circle fill="none" cx="47" cy="31" r="0.1"/>
<circle fill="none" cx="23.7" cy="31" r="0.1"/>
<circle fill="none" cx="0" cy="23.2" r="0.1"/>
<circle fill="none" cx="0" cy="15.5" r="0.1"/>
<circle fill="none" cx="0" cy="7.8" r="0.1"/>
<circle fill="none" cx="23.7" cy="0" r="0.1"/>
</g></g><g><rect stroke="none" fill="#ffffff" width="0" height="0"/><path stroke="#000000" fill="none" d=""/><text font-size="18.7" xml:space="preserve" display="none" font-family="OpenSansCondensedLight" fill="black" text-anchor="middle"><tspan dy="0.3em" style="fill-opacity: 0; stroke-opacity: 0;">-</tspan></text></g><text font-size="18.7" xml:space="preserve" font-family="OpenSansCondensedLight" line-height="21" fill="black" text-anchor="middle" text-vertical-anchor="middle" transform="matrix(1,0,0,1,47,15.5)"><tspan dy="-4">DEVICE</tspan><tspan dy="21" x="0"><tspan text-decoration="underline">1602</tspan></tspan></text></g><g data-type="tp.Element" transform="translate(65,127.5)"><g><g>
<path d="M259,0H0v438h259V0L259,0z" fill="#FFFFFF" stroke="#000000" stroke-dasharray="5,5"/>
<rect x="11.3" y="20" width="236.4" height="398.1" fill="none"/>
<circle fill="none" cx="129.5" cy="0" r="0.1"/>
<circle fill="none" cx="193.7" cy="0" r="0.1"/>
<circle fill="none" cx="259" cy="110.4" r="0.1"/>
<circle fill="none" cx="259" cy="219" r="0.1"/>
<circle fill="none" cx="259" cy="327.5" r="0.1"/>
<circle fill="none" cx="193.7" cy="438" r="0.1"/>
<circle fill="none" cx="129.5" cy="438" r="0.1"/>
<circle fill="none" cx="65.3" cy="438" r="0.1"/>
<circle fill="none" cx="0" cy="327.5" r="0.1"/>
<circle fill="none" cx="0" cy="219" r="0.1"/>
<circle fill="none" cx="0" cy="110.4" r="0.1"/>
<circle fill="none" cx="65.3" cy="0" r="0.1"/>
</g></g><g><rect stroke="none" fill="#ffffff" width="0" height="0"/><path stroke="#000000" fill="none" d=""/><text font-size="18.7" xml:space="preserve" display="none" font-family="OpenSansCondensedLight" fill="black" text-anchor="middle"><tspan dy="0.3em" style="fill-opacity: 0; stroke-opacity: 0;">-</tspan></text></g><text font-size="18.7" xml:space="preserve" font-family="OpenSansCondensedLight" line-height="21" fill="black" text-anchor="middle" text-vertical-anchor="top" transform="matrix(1,0,0,1,129.5,20)"><tspan dy="14.9">VIRTUAL PROCESSOR</tspan><tspan dy="21" x="0">MEMORY <tspan text-decoration="underline">1618</tspan></tspan></text></g><g data-type="tp.Element" transform="translate(348,180)"><g><g>
<path d="M94,0H0v69h94V0L94,0z" fill="#FFFFFF" stroke="#000000"/>
<rect x="4.1" y="3.1" width="85.8" height="62.7" fill="none"/>
<circle fill="none" cx="47" cy="0" r="0.1"/>
<circle fill="none" cx="70.3" cy="0" r="0.1"/>
<circle fill="none" cx="94" cy="17.4" r="0.1"/>
<circle fill="none" cx="94" cy="34.5" r="0.1"/>
<circle fill="none" cx="94" cy="51.6" r="0.1"/>
<circle fill="none" cx="70.3" cy="69" r="0.1"/>
<circle fill="none" cx="47" cy="69" r="0.1"/>
<circle fill="none" cx="23.7" cy="69" r="0.1"/>
<circle fill="none" cx="0" cy="51.6" r="0.1"/>
<circle fill="none" cx="0" cy="34.5" r="0.1"/>
<circle fill="none" cx="0" cy="17.4" r="0.1"/>
<circle fill="none" cx="23.7" cy="0" r="0.1"/>
</g></g><g><rect stroke="none" fill="#ffffff" width="0" height="0"/><path stroke="#000000" fill="none" d=""/><text font-size="18.7" xml:space="preserve" display="none" font-family="OpenSansCondensedLight" fill="black" text-anchor="middle"><tspan dy="0.3em" style="fill-opacity: 0; stroke-opacity: 0;">-</tspan></text></g><text font-size="18.7" xml:space="preserve" font-family="OpenSansCondensedLight" line-height="21" fill="black" text-anchor="middle" text-vertical-anchor="middle" transform="matrix(1,0,0,1,47,34.5)"><tspan dy="-4">PROCESSOR</tspan><tspan dy="21" x="0"><tspan text-decoration="underline">1604</tspan></tspan></text></g><g data-type="tp.Element" transform="translate(151,184)"><g><g>
<path d="M160,0H0v64h160V0L160,0z" fill="#FFFFFF" stroke="#000000"/>
<rect x="7" y="2.9" width="146" height="58.2" fill="none"/>
<circle fill="none" cx="80" cy="0" r="0.1"/>
<circle fill="none" cx="119.7" cy="0" r="0.1"/>
<circle fill="none" cx="160" cy="16.1" r="0.1"/>
<circle fill="none" cx="160" cy="32" r="0.1"/>
<circle fill="none" cx="160" cy="47.9" r="0.1"/>
<circle fill="none" cx="119.7" cy="64" r="0.1"/>
<circle fill="none" cx="80" cy="64" r="0.1"/>
<circle fill="none" cx="40.4" cy="64" r="0.1"/>
<circle fill="none" cx="0" cy="47.9" r="0.1"/>
<circle fill="none" cx="0" cy="32" r="0.1"/>
<circle fill="none" cx="0" cy="16.1" r="0.1"/>
<circle fill="none" cx="40.4" cy="0" r="0.1"/>
</g></g><g><rect stroke="none" fill="#ffffff" width="0" height="0"/><path stroke="#000000" fill="none" d=""/><text font-size="18.7" xml:space="preserve" display="none" font-family="OpenSansCondensedLight" fill="black" text-anchor="middle"><tspan dy="0.3em" style="fill-opacity: 0; stroke-opacity: 0;">-</tspan></text></g><text font-size="18.7" xml:space="preserve" font-family="OpenSansCondensedLight" line-height="21" fill="black" text-anchor="middle" text-vertical-anchor="middle" transform="matrix(1,0,0,1,80,32)"><tspan dy="-14.5">PHYSICAL</tspan><tspan dy="21" x="0">PROCESSOR</tspan><tspan dy="21" x="0">MEMORY <tspan text-decoration="underline">1606</tspan></tspan></text></g><g data-type="tp.Element" transform="translate(82,477)"><g><g>
<path d="M98.8,0H0v72.5h98.8V0L98.8,0z" fill="#FFFFFF" stroke="#000000"/>
<rect x="4.3" y="3.3" width="90.2" height="65.9" fill="none"/>
<circle fill="none" cx="49.4" cy="0" r="0.1"/>
<circle fill="none" cx="73.9" cy="0" r="0.1"/>
<circle fill="none" cx="98.8" cy="18.3" r="0.1"/>
<circle fill="none" cx="98.8" cy="36.3" r="0.1"/>
<circle fill="none" cx="98.8" cy="54.3" r="0.1"/>
<circle fill="none" cx="73.9" cy="72.5" r="0.1"/>
<circle fill="none" cx="49.4" cy="72.5" r="0.1"/>
<circle fill="none" cx="24.9" cy="72.5" r="0.1"/>
<circle fill="none" cx="0" cy="54.3" r="0.1"/>
<circle fill="none" cx="0" cy="36.3" r="0.1"/>
<circle fill="none" cx="0" cy="18.3" r="0.1"/>
<circle fill="none" cx="24.9" cy="0" r="0.1"/>
</g></g><g><rect stroke="none" fill="#ffffff" width="0" height="0"/><path stroke="#000000" fill="none" d=""/><text font-size="18.7" xml:space="preserve" display="none" font-family="OpenSansCondensedLight" fill="black" text-anchor="middle"><tspan dy="0.3em" style="fill-opacity: 0; stroke-opacity: 0;">-</tspan></text></g><text font-size="18.7" xml:space="preserve" font-family="OpenSansCondensedLight" line-height="21" fill="black" text-anchor="middle" text-vertical-anchor="middle" transform="matrix(1,0,0,1,49.4,36.3)"><tspan dy="-14.5">OPERATING</tspan><tspan dy="21" x="0">SYSTEM</tspan><tspan dy="21" x="0"><tspan text-decoration="underline">1620</tspan></tspan></text></g><g data-type="tp.Element" transform="translate(280,367)"><g><g>
<path d="M181.1,0H0v72.5h181.1V0L181.1,0z" fill="#FFFFFF" stroke="#000000"/>
<rect x="7.9" y="3.3" width="165.3" height="65.9" fill="none"/>
<circle fill="none" cx="90.6" cy="0" r="0.1"/>
<circle fill="none" cx="135.5" cy="0" r="0.1"/>
<circle fill="none" cx="181.1" cy="18.3" r="0.1"/>
<circle fill="none" cx="181.1" cy="36.2" r="0.1"/>
<circle fill="none" cx="181.1" cy="54.2" r="0.1"/>
<circle fill="none" cx="135.5" cy="72.5" r="0.1"/>
<circle fill="none" cx="90.6" cy="72.5" r="0.1"/>
<circle fill="none" cx="45.7" cy="72.5" r="0.1"/>
<circle fill="none" cx="0" cy="54.2" r="0.1"/>
<circle fill="none" cx="0" cy="36.2" r="0.1"/>
<circle fill="none" cx="0" cy="18.3" r="0.1"/>
<circle fill="none" cx="45.7" cy="0" r="0.1"/>
</g></g><g><rect stroke="none" fill="#ffffff" width="0" height="0"/><path stroke="#000000" fill="none" d=""/><text font-size="18.7" xml:space="preserve" display="none" font-family="OpenSansCondensedLight" fill="black" text-anchor="middle"><tspan dy="0.3em" style="fill-opacity: 0; stroke-opacity: 0;">-</tspan></text></g><text font-size="18.7" xml:space="preserve" font-family="OpenSansCondensedLight" line-height="21" fill="black" text-anchor="middle" text-vertical-anchor="middle" transform="matrix(1,0,0,1,90.6,36.2)"><tspan dy="-14.5">PERSISTENT</tspan><tspan dy="21" x="0">SECONDARY</tspan><tspan dy="21" x="0">STORAGE <tspan text-decoration="underline">1608</tspan></tspan></text></g><g data-type="tp.Element" transform="translate(202,473)"><g><g>
<path d="M98.8,0H0v72.5h98.8V0L98.8,0z" fill="#FFFFFF" stroke="#000000"/>
<rect x="4.3" y="3.3" width="90.2" height="65.9" fill="none"/>
<circle fill="none" cx="49.4" cy="0" r="0.1"/>
<circle fill="none" cx="73.9" cy="0" r="0.1"/>
<circle fill="none" cx="98.8" cy="18.3" r="0.1"/>
<circle fill="none" cx="98.8" cy="36.3" r="0.1"/>
<circle fill="none" cx="98.8" cy="54.3" r="0.1"/>
<circle fill="none" cx="73.9" cy="72.5" r="0.1"/>
<circle fill="none" cx="49.4" cy="72.5" r="0.1"/>
<circle fill="none" cx="24.9" cy="72.5" r="0.1"/>
<circle fill="none" cx="0" cy="54.3" r="0.1"/>
<circle fill="none" cx="0" cy="36.3" r="0.1"/>
<circle fill="none" cx="0" cy="18.3" r="0.1"/>
<circle fill="none" cx="24.9" cy="0" r="0.1"/>
</g></g><g><rect stroke="none" fill="#ffffff" width="0" height="0"/><path stroke="#000000" fill="none" d=""/><text font-size="18.7" xml:space="preserve" display="none" font-family="OpenSansCondensedLight" fill="black" text-anchor="middle"><tspan dy="0.3em" style="fill-opacity: 0; stroke-opacity: 0;">-</tspan></text></g><text font-size="18.7" xml:space="preserve" font-family="OpenSansCondensedLight" line-height="21" fill="black" text-anchor="middle" text-vertical-anchor="middle" transform="matrix(1,0,0,1,49.4,36.3)"><tspan dy="6.5">OCE <tspan text-decoration="underline">1622</tspan></tspan></text></g><g data-type="tp.Element" transform="translate(627,176)"><g><g>
<path d="M117,0H0v72h117V0L117,0z" fill="#FFFFFF" stroke="#000000"/>
<rect x="5.1" y="3.3" width="106.8" height="65.4" fill="none"/>
<circle fill="none" cx="58.5" cy="0" r="0.1"/>
<circle fill="none" cx="87.5" cy="0" r="0.1"/>
<circle fill="none" cx="117" cy="18.2" r="0.1"/>
<circle fill="none" cx="117" cy="36" r="0.1"/>
<circle fill="none" cx="117" cy="53.8" r="0.1"/>
<circle fill="none" cx="87.5" cy="72" r="0.1"/>
<circle fill="none" cx="58.5" cy="72" r="0.1"/>
<circle fill="none" cx="29.5" cy="72" r="0.1"/>
<circle fill="none" cx="0" cy="53.8" r="0.1"/>
<circle fill="none" cx="0" cy="36" r="0.1"/>
<circle fill="none" cx="0" cy="18.2" r="0.1"/>
<circle fill="none" cx="29.5" cy="0" r="0.1"/>
</g></g><g><rect stroke="none" fill="#ffffff" width="0" height="0"/><path stroke="#000000" fill="none" d=""/><text font-size="18.7" xml:space="preserve" display="none" font-family="OpenSansCondensedLight" fill="black" text-anchor="middle"><tspan dy="0.3em" style="fill-opacity: 0; stroke-opacity: 0;">-</tspan></text></g><text font-size="18.7" xml:space="preserve" font-family="OpenSansCondensedLight" line-height="21" fill="black" text-anchor="middle" text-vertical-anchor="middle" transform="matrix(1,0,0,1,58.5,36)"><tspan dy="-25">INPUT</tspan><tspan dy="21" x="0">DEVICE</tspan><tspan dy="21" x="0">ADAPTER</tspan><tspan dy="21" x="0"><tspan text-decoration="underline">1610</tspan></tspan></text></g><g data-type="tp.Element" transform="translate(80,327)"><g><g>
<path d="M150,0H0v45h150V0L150,0z" fill="#FFFFFF" stroke="#000000"/>
<rect x="6.6" y="2.1" width="136.9" height="40.9" fill="none"/>
<circle fill="none" cx="75" cy="0" r="0.1"/>
<circle fill="none" cx="112.2" cy="0" r="0.1"/>
<circle fill="none" cx="150" cy="11.3" r="0.1"/>
<circle fill="none" cx="150" cy="22.5" r="0.1"/>
<circle fill="none" cx="150" cy="33.7" r="0.1"/>
<circle fill="none" cx="112.2" cy="45" r="0.1"/>
<circle fill="none" cx="75" cy="45" r="0.1"/>
<circle fill="none" cx="37.8" cy="45" r="0.1"/>
<circle fill="none" cx="0" cy="33.7" r="0.1"/>
<circle fill="none" cx="0" cy="22.5" r="0.1"/>
<circle fill="none" cx="0" cy="11.3" r="0.1"/>
<circle fill="none" cx="37.8" cy="0" r="0.1"/>
</g></g><g><rect stroke="none" fill="#ffffff" width="0" height="0"/><path stroke="#000000" fill="none" d=""/><text font-size="18.7" xml:space="preserve" display="none" font-family="OpenSansCondensedLight" fill="black" text-anchor="middle"><tspan dy="0.3em" style="fill-opacity: 0; stroke-opacity: 0;">-</tspan></text></g><text font-size="18.7" xml:space="preserve" font-family="OpenSansCondensedLight" line-height="21" fill="black" text-anchor="middle" text-vertical-anchor="middle" transform="matrix(1,0,0,1,75,22.5)"><tspan dy="-4">APPLICATIONS</tspan><tspan dy="21" x="0"><tspan text-decoration="underline">1624</tspan></tspan></text></g><g data-type="tp.Element" transform="translate(461,175)"><g><g>
<path d="M117,0H0v72h117V0L117,0z" fill="#FFFFFF" stroke="#000000"/>
<rect x="5.1" y="3.3" width="106.8" height="65.4" fill="none"/>
<circle fill="none" cx="58.5" cy="0" r="0.1"/>
<circle fill="none" cx="87.5" cy="0" r="0.1"/>
<circle fill="none" cx="117" cy="18.2" r="0.1"/>
<circle fill="none" cx="117" cy="36" r="0.1"/>
<circle fill="none" cx="117" cy="53.8" r="0.1"/>
<circle fill="none" cx="87.5" cy="72" r="0.1"/>
<circle fill="none" cx="58.5" cy="72" r="0.1"/>
<circle fill="none" cx="29.5" cy="72" r="0.1"/>
<circle fill="none" cx="0" cy="53.8" r="0.1"/>
<circle fill="none" cx="0" cy="36" r="0.1"/>
<circle fill="none" cx="0" cy="18.2" r="0.1"/>
<circle fill="none" cx="29.5" cy="0" r="0.1"/>
</g></g><g><rect stroke="none" fill="#ffffff" width="0" height="0"/><path stroke="#000000" fill="none" d=""/><text font-size="18.7" xml:space="preserve" display="none" font-family="OpenSansCondensedLight" fill="black" text-anchor="middle"><tspan dy="0.3em" style="fill-opacity: 0; stroke-opacity: 0;">-</tspan></text></g><text font-size="18.7" xml:space="preserve" font-family="OpenSansCondensedLight" line-height="21" fill="black" text-anchor="middle" text-vertical-anchor="middle" transform="matrix(1,0,0,1,58.5,36)"><tspan dy="-25">OUTPUT</tspan><tspan dy="21" x="0">DEVICE</tspan><tspan dy="21" x="0">ADAPTER</tspan><tspan dy="21" x="0"><tspan text-decoration="underline">1612</tspan></tspan></text></g><g data-type="tp.Element" transform="translate(96,394)"><g><g>
<path d="M158.7,0H0v47.6h158.7V0L158.7,0z" fill="#FFFFFF" stroke="#000000"/>
<rect x="6.9" y="2.2" width="144.8" height="43.3" fill="none"/>
<circle fill="none" cx="79.4" cy="0" r="0.1"/>
<circle fill="none" cx="118.7" cy="0" r="0.1"/>
<circle fill="none" cx="158.7" cy="12" r="0.1"/>
<circle fill="none" cx="158.7" cy="23.8" r="0.1"/>
<circle fill="none" cx="158.7" cy="35.6" r="0.1"/>
<circle fill="none" cx="118.7" cy="47.6" r="0.1"/>
<circle fill="none" cx="79.4" cy="47.6" r="0.1"/>
<circle fill="none" cx="40" cy="47.6" r="0.1"/>
<circle fill="none" cx="0" cy="35.6" r="0.1"/>
<circle fill="none" cx="0" cy="23.8" r="0.1"/>
<circle fill="none" cx="0" cy="12" r="0.1"/>
<circle fill="none" cx="40" cy="0" r="0.1"/>
</g></g><g><rect stroke="none" fill="#ffffff" width="0" height="0"/><path stroke="#000000" fill="none" d=""/><text font-size="18.7" xml:space="preserve" display="none" font-family="OpenSansCondensedLight" fill="black" text-anchor="middle"><tspan dy="0.3em" style="fill-opacity: 0; stroke-opacity: 0;">-</tspan></text></g><text font-size="18.7" xml:space="preserve" font-family="OpenSansCondensedLight" line-height="21" fill="black" text-anchor="middle" text-vertical-anchor="middle" transform="matrix(1,0,0,1,79.4,23.8)"><tspan dy="-25">OTHER</tspan><tspan dy="21" x="0">LIBRARIES AND</tspan><tspan dy="21" x="0">SUBSYSTEMS</tspan><tspan dy="21" x="0"><tspan text-decoration="underline">1626</tspan></tspan></text></g><g data-type="tp.Element" transform="translate(629,81)"><g><g>
<path d="M117,0H0v72h117V0L117,0z" fill="#FFFFFF" stroke="#000000"/>
<rect x="5.1" y="3.3" width="106.8" height="65.4" fill="none"/>
<circle fill="none" cx="58.5" cy="0" r="0.1"/>
<circle fill="none" cx="87.5" cy="0" r="0.1"/>
<circle fill="none" cx="117" cy="18.2" r="0.1"/>
<circle fill="none" cx="117" cy="36" r="0.1"/>
<circle fill="none" cx="117" cy="53.8" r="0.1"/>
<circle fill="none" cx="87.5" cy="72" r="0.1"/>
<circle fill="none" cx="58.5" cy="72" r="0.1"/>
<circle fill="none" cx="29.5" cy="72" r="0.1"/>
<circle fill="none" cx="0" cy="53.8" r="0.1"/>
<circle fill="none" cx="0" cy="36" r="0.1"/>
<circle fill="none" cx="0" cy="18.2" r="0.1"/>
<circle fill="none" cx="29.5" cy="0" r="0.1"/>
</g></g><g><rect stroke="none" fill="#ffffff" width="0" height="0"/><path stroke="#000000" fill="none" d=""/><text font-size="18.7" xml:space="preserve" display="none" font-family="OpenSansCondensedLight" fill="black" text-anchor="middle"><tspan dy="0.3em" style="fill-opacity: 0; stroke-opacity: 0;">-</tspan></text></g><text font-size="18.7" xml:space="preserve" font-family="OpenSansCondensedLight" line-height="21" fill="black" text-anchor="middle" text-vertical-anchor="middle" transform="matrix(1,0,0,1,58.5,36)"><tspan dy="-14.5">INPUT</tspan><tspan dy="21" x="0">DEVICE</tspan><tspan dy="21" x="0"><tspan text-decoration="underline">1628</tspan></tspan></text></g><g data-type="tp.Element" transform="translate(563,370)"><g><g>
<path d="M117,0H0v72h117V0L117,0z" fill="#FFFFFF" stroke="#000000"/>
<rect x="5.1" y="3.3" width="106.8" height="65.4" fill="none"/>
<circle fill="none" cx="58.5" cy="0" r="0.1"/>
<circle fill="none" cx="87.5" cy="0" r="0.1"/>
<circle fill="none" cx="117" cy="18.2" r="0.1"/>
<circle fill="none" cx="117" cy="36" r="0.1"/>
<circle fill="none" cx="117" cy="53.8" r="0.1"/>
<circle fill="none" cx="87.5" cy="72" r="0.1"/>
<circle fill="none" cx="58.5" cy="72" r="0.1"/>
<circle fill="none" cx="29.5" cy="72" r="0.1"/>
<circle fill="none" cx="0" cy="53.8" r="0.1"/>
<circle fill="none" cx="0" cy="36" r="0.1"/>
<circle fill="none" cx="0" cy="18.2" r="0.1"/>
<circle fill="none" cx="29.5" cy="0" r="0.1"/>
</g></g><g><rect stroke="none" fill="#ffffff" width="0" height="0"/><path stroke="#000000" fill="none" d=""/><text font-size="18.7" xml:space="preserve" display="none" font-family="OpenSansCondensedLight" fill="black" text-anchor="middle"><tspan dy="0.3em" style="fill-opacity: 0; stroke-opacity: 0;">-</tspan></text></g><text font-size="18.7" xml:space="preserve" font-family="OpenSansCondensedLight" line-height="21" fill="black" text-anchor="middle" text-vertical-anchor="middle" transform="matrix(1,0,0,1,58.5,36)"><tspan dy="-25">NETWORK</tspan><tspan dy="21" x="0">INTERFACE</tspan><tspan dy="21" x="0">ADAPTER</tspan><tspan dy="21" x="0"><tspan text-decoration="underline">1614</tspan></tspan></text></g><g data-type="tp.Element" transform="translate(461,82)"><g><g>
<path d="M117,0H0v72h117V0L117,0z" fill="#FFFFFF" stroke="#000000"/>
<rect x="5.1" y="3.3" width="106.8" height="65.4" fill="none"/>
<circle fill="none" cx="58.5" cy="0" r="0.1"/>
<circle fill="none" cx="87.5" cy="0" r="0.1"/>
<circle fill="none" cx="117" cy="18.2" r="0.1"/>
<circle fill="none" cx="117" cy="36" r="0.1"/>
<circle fill="none" cx="117" cy="53.8" r="0.1"/>
<circle fill="none" cx="87.5" cy="72" r="0.1"/>
<circle fill="none" cx="58.5" cy="72" r="0.1"/>
<circle fill="none" cx="29.5" cy="72" r="0.1"/>
<circle fill="none" cx="0" cy="53.8" r="0.1"/>
<circle fill="none" cx="0" cy="36" r="0.1"/>
<circle fill="none" cx="0" cy="18.2" r="0.1"/>
<circle fill="none" cx="29.5" cy="0" r="0.1"/>
</g></g><g><rect stroke="none" fill="#ffffff" width="0" height="0"/><path stroke="#000000" fill="none" d=""/><text font-size="18.7" xml:space="preserve" display="none" font-family="OpenSansCondensedLight" fill="black" text-anchor="middle"><tspan dy="0.3em" style="fill-opacity: 0; stroke-opacity: 0;">-</tspan></text></g><text font-size="18.7" xml:space="preserve" font-family="OpenSansCondensedLight" line-height="21" fill="black" text-anchor="middle" text-vertical-anchor="middle" transform="matrix(1,0,0,1,58.5,36)"><tspan dy="-14.5">OUTPUT</tspan><tspan dy="21" x="0">DEVICE</tspan><tspan dy="21" x="0"><tspan text-decoration="underline">1630</tspan></tspan></text></g><g data-type="tp.Element" transform="translate(681,385)"><g><g>
<g fill="#FFFFFF" stroke="#000000">
    <path d="M55.9,21.9l-35.3,4l112.4,25.1L77.4,28.7l40.2,-3.7L0,0L55.9,21.9z"/>
</g>
<rect x="7.6" y="8.8" fill="none" width="114.2" height="29"/>
<circle fill="none" cx="66.5" cy="14.1" r="0.1"/>
<circle fill="none" cx="89.6" cy="19" r="0.1"/>
<circle fill="none" cx="117.6" cy="25" r="0.1"/>
<circle fill="none" cx="77.4" cy="28.7" r="0.1"/>
<circle fill="none" cx="103.3" cy="39" r="0.1"/>
<circle fill="none" cx="110.2" cy="45.9" r="0.1"/>
<circle fill="none" cx="75.5" cy="38.2" r="0.1"/>
<circle fill="none" cx="48.2" cy="32" r="0.1"/>
<circle fill="none" cx="20.6" cy="25.9" r="0.1"/>
<circle fill="none" cx="55.7" cy="21.9" r="0.1"/>
<circle fill="none" cx="37.6" cy="14.6" r="0.1"/>
<circle fill="none" cx="39.7" cy="8.4" r="0.1"/>
</g></g><g><rect stroke="none" fill="#ffffff" width="0" height="0"/><path stroke="#000000" fill="none" d=""/><text font-size="18.7" xml:space="preserve" display="none" font-family="OpenSansCondensedLight" fill="black" text-anchor="middle"><tspan dy="0.3em" style="fill-opacity: 0; stroke-opacity: 0;">-</tspan></text></g><text font-size="18.7" xml:space="preserve" font-family="OpenSansCondensedLight" line-height="21" fill="black" text-anchor="middle" text-vertical-anchor="top" transform="matrix(1,0,0,1,66.5,61)" display="none"><tspan dy="0.8em" style="fill-opacity: 0; stroke-opacity: 0;">-</tspan></text></g><g data-type="tp.Element" transform="translate(219.4,279.8)"><g><g>
<g fill="#FFFFFF" stroke="#000000">
    <path d="M463.8,35.1V46.8L530,23.4L463.8,0v11.7H66.3V0L0,23.4L66.3,46.8v-11.7H463.8z"/>
</g>
<rect x="18.7" y="5" fill="none" width="492.5" height="36.8"/>
<circle fill="none" cx="269.9" cy="11.6" r="0.1"/>
<circle fill="none" cx="397.5" cy="11.6" r="0.1"/>
<circle fill="none" cx="465.3" cy="0.1" r="0.1"/>
<circle fill="none" cx="529.6" cy="23.5" r="0.1"/>
<circle fill="none" cx="464.4" cy="46.7" r="0.1"/>
<circle fill="none" cx="404.6" cy="35" r="0.1"/>
<circle fill="none" cx="275.3" cy="35" r="0.1"/>
<circle fill="none" cx="150.3" cy="35" r="0.1"/>
<circle fill="none" cx="65.6" cy="47" r="0.1"/>
<circle fill="none" cx="1.3" cy="23.1" r="0.1"/>
<circle fill="none" cx="66.5" cy="0.1" r="0.1"/>
<circle fill="none" cx="148.6" cy="11.6" r="0.1"/>
</g></g><g><rect stroke="none" fill="#ffffff" width="0" height="0"/><path stroke="#000000" fill="none" d=""/><text font-size="18.7" xml:space="preserve" display="none" font-family="OpenSansCondensedLight" fill="black" text-anchor="middle"><tspan dy="0.3em" style="fill-opacity: 0; stroke-opacity: 0;">-</tspan></text></g><text font-size="18.7" xml:space="preserve" font-family="OpenSansCondensedLight" line-height="21" fill="black" text-anchor="middle" text-vertical-anchor="middle" transform="matrix(1,0,0,1,265,23.4)"><tspan dy="6.5">BUS <tspan text-decoration="underline">1616</tspan></tspan></text></g><g data-type="tp.Link"><path fill="none" pointer-events="none" joint-selector="line" stroke-width="1" stroke="#333333" stroke-linejoin="round" marker-start="url(#v-56392000855011)" marker-end="url(#v-56391454029882)" d="M 293.6 291.5 L 293.5 248.1"/><g><g label-idx="0" cursor="default" transform="translate(293.5, 269.8)"><rect joint-selector="rect" fill="#ffffff" rx="3" ry="3" width="8" height="0" transform="matrix(1,0,0,1,-4,0)"/><text joint-selector="text" font-size="18.7" xml:space="preserve" display="none" y="0.8em" fill="#000000" text-anchor="middle" pointer-events="none" font-family="OpenSansCondensedLight"><tspan dy="0" style="fill-opacity: 0; stroke-opacity: 0;">-</tspan></text></g></g></g><g data-type="tp.Link"><path fill="none" pointer-events="none" joint-selector="line" stroke-width="1" stroke="#333333" stroke-linejoin="round" marker-start="url(#v-56392000855011)" marker-end="url(#v-56391454029882)" d="M 373.1 314.9 L 372.4 366.9"/><g><g label-idx="0" cursor="default" transform="translate(372.7, 340.9)"><rect joint-selector="rect" fill="#ffffff" rx="3" ry="3" width="8" height="0" transform="matrix(1,0,0,1,-4,0)"/><text joint-selector="text" font-size="18.7" xml:space="preserve" display="none" y="0.8em" fill="#000000" text-anchor="middle" pointer-events="none" font-family="OpenSansCondensedLight"><tspan dy="0" style="fill-opacity: 0; stroke-opacity: 0;">-</tspan></text></g></g></g><g data-type="tp.Link"><path fill="none" pointer-events="none" joint-selector="line" stroke-width="1" stroke="#333333" stroke-linejoin="round" marker-start="url(#v-56392000855011)" marker-end="url(#v-56391454029882)" d="M 373.1 291.5 L 373.3 249.1"/><g><g label-idx="0" cursor="default" transform="translate(373.2, 270.3)"><rect joint-selector="rect" fill="#ffffff" rx="3" ry="3" width="8" height="0" transform="matrix(1,0,0,1,-4,0)"/><text joint-selector="text" font-size="18.7" xml:space="preserve" display="none" y="0.8em" fill="#000000" text-anchor="middle" pointer-events="none" font-family="OpenSansCondensedLight"><tspan dy="0" style="fill-opacity: 0; stroke-opacity: 0;">-</tspan></text></g></g></g><g data-type="tp.Link"><path fill="none" pointer-events="none" joint-selector="line" stroke-width="1" stroke="#333333" stroke-linejoin="round" marker-start="url(#v-56392000855011)" marker-end="url(#v-56391454029882)" d="M 489.7 291.5 L 490.5 247"/><g><g label-idx="0" cursor="default" transform="translate(490.1, 269.2)"><rect joint-selector="rect" fill="#ffffff" rx="3" ry="3" width="8" height="0" transform="matrix(1,0,0,1,-4,0)"/><text joint-selector="text" font-size="18.7" xml:space="preserve" display="none" y="0.8em" fill="#000000" text-anchor="middle" pointer-events="none" font-family="OpenSansCondensedLight"><tspan dy="0" style="fill-opacity: 0; stroke-opacity: 0;">-</tspan></text></g></g></g><g data-type="tp.Link"><path fill="none" pointer-events="none" joint-selector="line" stroke-width="1" stroke="#333333" stroke-linejoin="round" marker-start="url(#v-56392000855011)" marker-end="url(#v-56391454029882)" d="M 519.5 174.9 L 519.5 154"/><g><g label-idx="0" cursor="default" transform="translate(519.5, 164.5)"><rect joint-selector="rect" fill="#ffffff" rx="3" ry="3" width="8" height="0" transform="matrix(1,0,0,1,-4,0)"/><text joint-selector="text" font-size="18.7" xml:space="preserve" display="none" y="0.8em" fill="#000000" text-anchor="middle" pointer-events="none" font-family="OpenSansCondensedLight"><tspan dy="0" style="fill-opacity: 0; stroke-opacity: 0;">-</tspan></text></g></g></g><g data-type="tp.Link"><path fill="none" pointer-events="none" joint-selector="line" stroke-width="1" stroke="#333333" stroke-linejoin="round" marker-start="url(#v-56392000855011)" marker-end="url(#v-56391454029882)" d="M 622.2 314.9 L 621.5 370"/><g><g label-idx="0" cursor="default" transform="translate(621.8, 342.4)"><rect joint-selector="rect" fill="#ffffff" rx="3" ry="3" width="8" height="0" transform="matrix(1,0,0,1,-4,0)"/><text joint-selector="text" font-size="18.7" xml:space="preserve" display="none" y="0.8em" fill="#000000" text-anchor="middle" pointer-events="none" font-family="OpenSansCondensedLight"><tspan dy="0" style="fill-opacity: 0; stroke-opacity: 0;">-</tspan></text></g></g></g><g data-type="tp.Link"><path fill="none" pointer-events="none" joint-selector="line" stroke-width="1" stroke="#333333" stroke-linejoin="round" marker-start="url(#v-56392000855011)" marker-end="url(#v-56391454029882)" d="M 669.9 291.5 L 670.3 248.1"/><g><g label-idx="0" cursor="default" transform="translate(670.1, 269.8)"><rect joint-selector="rect" fill="#ffffff" rx="3" ry="3" width="8" height="0" transform="matrix(1,0,0,1,-4,0)"/><text joint-selector="text" font-size="18.7" xml:space="preserve" display="none" y="0.8em" fill="#000000" text-anchor="middle" pointer-events="none" font-family="OpenSansCondensedLight"><tspan dy="0" style="fill-opacity: 0; stroke-opacity: 0;">-</tspan></text></g></g></g><g data-type="tp.Link"><path fill="none" pointer-events="none" joint-selector="line" stroke-width="1" stroke="#333333" stroke-linejoin="round" marker-start="url(#v-56392000855011)" marker-end="url(#v-56391454029882)" d="M 687.8 175.9 L 687.5 153"/><g><g label-idx="0" cursor="default" transform="translate(687.7, 164.5)"><rect joint-selector="rect" fill="#ffffff" rx="3" ry="3" width="8" height="0" transform="matrix(1,0,0,1,-4,0)"/><text joint-selector="text" font-size="18.7" xml:space="preserve" display="none" y="0.8em" fill="#000000" text-anchor="middle" pointer-events="none" font-family="OpenSansCondensedLight"><tspan dy="0" style="fill-opacity: 0; stroke-opacity: 0;">-</tspan></text></g></g></g></g></svg>