<svg xmlns="http://www.w3.org/2000/svg" xmlns:xlink="http://www.w3.org/1999/xlink" version="1.1" width="627.8" height="836.1" viewBox="32.6 59.9 627.8 836.1"><defs><marker orient="auto" overflow="visible" markerUnits="userSpaceOnUse"><path stroke="#333333" fill="#333333" d="M 0 0 0 0"/></marker><marker orient="auto" overflow="visible" markerUnits="userSpaceOnUse"><path stroke="#333333" fill="#333333" transform="rotate(180)" d="M 0 0 0 0"/></marker></defs><g><g data-type="tp.Element" transform="translate(32.7,60)"><g><g>
<path d="M595,0H0v776h595V0L595,0z" fill="#FFFFFF" stroke="#000000"/>
<rect x="26" y="35.4" width="543" height="705.2" fill="none"/>
<circle fill="none" cx="297.5" cy="0" r="0.1"/>
<circle fill="none" cx="444.9" cy="0" r="0.1"/>
<circle fill="none" cx="595" cy="195.7" r="0.1"/>
<circle fill="none" cx="595" cy="388" r="0.1"/>
<circle fill="none" cx="595" cy="580.3" r="0.1"/>
<circle fill="none" cx="444.9" cy="776" r="0.1"/>
<circle fill="none" cx="297.5" cy="776" r="0.1"/>
<circle fill="none" cx="150.1" cy="776" r="0.1"/>
<circle fill="none" cx="0" cy="580.3" r="0.1"/>
<circle fill="none" cx="0" cy="388" r="0.1"/>
<circle fill="none" cx="0" cy="195.7" r="0.1"/>
<circle fill="none" cx="150.1" cy="0" r="0.1"/>
</g></g><g><rect stroke="none" fill="#ffffff" width="0" height="0"/><path stroke="#000000" fill="none" d=""/><text font-size="18.7" xml:space="preserve" display="none" font-family="OpenSansCondensedLight" fill="black" text-anchor="middle"><tspan dy="0.3em" style="fill-opacity: 0; stroke-opacity: 0;">-</tspan></text></g><text font-size="18.7" xml:space="preserve" font-family="OpenSansCondensedLight" line-height="21" fill="black" text-anchor="middle" text-vertical-anchor="middle" transform="matrix(1,0,0,1,297.5,388)" display="none"><tspan dy="0.3em" style="fill-opacity: 0; stroke-opacity: 0;">-</tspan></text></g><g data-type="tp.Element" transform="translate(424,69)"><g><g>
<path d="M193,0H0v28h193V0L193,0z" fill="#FFFFFF"/>
<rect x="8.4" y="1.3" width="176.1" height="25.4" fill="none"/>
<circle fill="none" cx="96.5" cy="0" r="0.1"/>
<circle fill="none" cx="144.3" cy="0" r="0.1"/>
<circle fill="none" cx="193" cy="7.1" r="0.1"/>
<circle fill="none" cx="193" cy="14" r="0.1"/>
<circle fill="none" cx="193" cy="20.9" r="0.1"/>
<circle fill="none" cx="144.3" cy="28" r="0.1"/>
<circle fill="none" cx="96.5" cy="28" r="0.1"/>
<circle fill="none" cx="48.7" cy="28" r="0.1"/>
<circle fill="none" cx="0" cy="20.9" r="0.1"/>
<circle fill="none" cx="0" cy="14" r="0.1"/>
<circle fill="none" cx="0" cy="7.1" r="0.1"/>
<circle fill="none" cx="48.7" cy="0" r="0.1"/>
</g></g><g><rect stroke="none" fill="#ffffff" width="0" height="0"/><path stroke="#000000" fill="none" d=""/><text font-size="18.7" xml:space="preserve" display="none" font-family="OpenSansCondensedLight" fill="black" text-anchor="middle"><tspan dy="0.3em" style="fill-opacity: 0; stroke-opacity: 0;">-</tspan></text></g><text font-size="18.7" xml:space="preserve" font-family="OpenSansCondensedLight" line-height="21" fill="black" text-anchor="middle" text-vertical-anchor="middle" transform="matrix(1,0,0,1,96.5,14)"><tspan dy="-0.3em">OPERATING</tspan><tspan dy="21" x="0">ENVIRONMENT</tspan></text></g><g data-type="tp.Element" transform="translate(62,187)"><g><g>
<path d="M268,0H0v430h268V0L268,0z" fill="#FFFFFF" stroke="#000000"/>
<rect x="11.7" y="19.6" width="244.6" height="390.8" fill="none"/>
<circle fill="none" cx="134" cy="0" r="0.1"/>
<circle fill="none" cx="200.4" cy="0" r="0.1"/>
<circle fill="none" cx="268" cy="108.4" r="0.1"/>
<circle fill="none" cx="268" cy="215" r="0.1"/>
<circle fill="none" cx="268" cy="321.6" r="0.1"/>
<circle fill="none" cx="200.4" cy="430" r="0.1"/>
<circle fill="none" cx="134" cy="430" r="0.1"/>
<circle fill="none" cx="67.6" cy="430" r="0.1"/>
<circle fill="none" cx="0" cy="321.6" r="0.1"/>
<circle fill="none" cx="0" cy="215" r="0.1"/>
<circle fill="none" cx="0" cy="108.4" r="0.1"/>
<circle fill="none" cx="67.6" cy="0" r="0.1"/>
</g></g><g><rect stroke="none" fill="#ffffff" width="0" height="0"/><path stroke="#000000" fill="none" d=""/><text font-size="18.7" xml:space="preserve" display="none" font-family="OpenSansCondensedLight" fill="black" text-anchor="middle"><tspan dy="0.3em" style="fill-opacity: 0; stroke-opacity: 0;">-</tspan></text></g><text font-size="18.7" xml:space="preserve" font-family="OpenSansCondensedLight" line-height="21" fill="black" text-anchor="middle" text-vertical-anchor="top" transform="matrix(1,0,0,1,134,19.6)"><tspan dy="14.9">APPLICATION <tspan text-decoration="underline">1702</tspan></tspan></text></g><g data-type="tp.Element" transform="translate(342,187)"><g><g>
<path d="M268,0H0v430h268V0L268,0z" fill="#FFFFFF" stroke="#000000"/>
<rect x="11.7" y="19.6" width="244.6" height="390.8" fill="none"/>
<circle fill="none" cx="134" cy="0" r="0.1"/>
<circle fill="none" cx="200.4" cy="0" r="0.1"/>
<circle fill="none" cx="268" cy="108.4" r="0.1"/>
<circle fill="none" cx="268" cy="215" r="0.1"/>
<circle fill="none" cx="268" cy="321.6" r="0.1"/>
<circle fill="none" cx="200.4" cy="430" r="0.1"/>
<circle fill="none" cx="134" cy="430" r="0.1"/>
<circle fill="none" cx="67.6" cy="430" r="0.1"/>
<circle fill="none" cx="0" cy="321.6" r="0.1"/>
<circle fill="none" cx="0" cy="215" r="0.1"/>
<circle fill="none" cx="0" cy="108.4" r="0.1"/>
<circle fill="none" cx="67.6" cy="0" r="0.1"/>
</g></g><g><rect stroke="none" fill="#ffffff" width="0" height="0"/><path stroke="#000000" fill="none" d=""/><text font-size="18.7" xml:space="preserve" display="none" font-family="OpenSansCondensedLight" fill="black" text-anchor="middle"><tspan dy="0.3em" style="fill-opacity: 0; stroke-opacity: 0;">-</tspan></text></g><text font-size="18.7" xml:space="preserve" font-family="OpenSansCondensedLight" line-height="21" fill="black" text-anchor="middle" text-vertical-anchor="top" transform="matrix(1,0,0,1,134,19.6)"><tspan dy="14.9">WEB BROWSER <tspan text-decoration="underline">1704</tspan></tspan></text></g><g data-type="tp.Element" transform="translate(95,434)"><g><g>
<path d="M201,0H0v179h201V0L201,0z" fill="#FFFFFF" stroke="#000000"/>
<rect x="8.8" y="8.2" width="183.4" height="162.7" fill="none"/>
<circle fill="none" cx="100.5" cy="0" r="0.1"/>
<circle fill="none" cx="150.3" cy="0" r="0.1"/>
<circle fill="none" cx="201" cy="45.1" r="0.1"/>
<circle fill="none" cx="201" cy="89.5" r="0.1"/>
<circle fill="none" cx="201" cy="133.9" r="0.1"/>
<circle fill="none" cx="150.3" cy="179" r="0.1"/>
<circle fill="none" cx="100.5" cy="179" r="0.1"/>
<circle fill="none" cx="50.7" cy="179" r="0.1"/>
<circle fill="none" cx="0" cy="133.9" r="0.1"/>
<circle fill="none" cx="0" cy="89.5" r="0.1"/>
<circle fill="none" cx="0" cy="45.1" r="0.1"/>
<circle fill="none" cx="50.7" cy="0" r="0.1"/>
</g></g><g><rect stroke="none" fill="#ffffff" width="0" height="0"/><path stroke="#000000" fill="none" d=""/><text font-size="18.7" xml:space="preserve" display="none" font-family="OpenSansCondensedLight" fill="black" text-anchor="middle"><tspan dy="0.3em" style="fill-opacity: 0; stroke-opacity: 0;">-</tspan></text></g><text font-size="18.7" xml:space="preserve" font-family="OpenSansCondensedLight" line-height="21" fill="black" text-anchor="middle" text-vertical-anchor="middle" transform="matrix(1,0,0,1,100.5,89.5)"><tspan dy="-4">APPLICATION LOGIC</tspan><tspan dy="21" x="0"><tspan text-decoration="underline">1706</tspan></tspan></text></g><g data-type="tp.Element" transform="translate(354,415)"><g><g>
<path d="M250,0H0v168h250V0L250,0z" fill="#FFFFFF" stroke="#000000"/>
<rect x="10.9" y="7.7" width="228.1" height="152.7" fill="none"/>
<circle fill="none" cx="125" cy="0" r="0.1"/>
<circle fill="none" cx="187" cy="0" r="0.1"/>
<circle fill="none" cx="250" cy="42.4" r="0.1"/>
<circle fill="none" cx="250" cy="84" r="0.1"/>
<circle fill="none" cx="250" cy="125.6" r="0.1"/>
<circle fill="none" cx="187" cy="168" r="0.1"/>
<circle fill="none" cx="125" cy="168" r="0.1"/>
<circle fill="none" cx="63.1" cy="168" r="0.1"/>
<circle fill="none" cx="0" cy="125.6" r="0.1"/>
<circle fill="none" cx="0" cy="84" r="0.1"/>
<circle fill="none" cx="0" cy="42.4" r="0.1"/>
<circle fill="none" cx="63.1" cy="0" r="0.1"/>
</g></g><g><rect stroke="none" fill="#ffffff" width="0" height="0"/><path stroke="#000000" fill="none" d=""/><text font-size="18.7" xml:space="preserve" display="none" font-family="OpenSansCondensedLight" fill="black" text-anchor="middle"><tspan dy="0.3em" style="fill-opacity: 0; stroke-opacity: 0;">-</tspan></text></g><text font-size="18.7" xml:space="preserve" font-family="OpenSansCondensedLight" line-height="21" fill="black" text-anchor="middle" text-vertical-anchor="bottom" transform="matrix(1,0,0,1,125,160.3)"><tspan dy="-4.7">APPLICATION LOGIC <tspan text-decoration="underline">1708</tspan></tspan></text></g><g data-type="tp.Element" transform="translate(95,239)"><g><g>
<path d="M201,0H0v194h201V0L201,0z" fill="#FFFFFF" stroke="#000000"/>
<rect x="8.8" y="8.8" width="183.4" height="176.3" fill="none"/>
<circle fill="none" cx="100.5" cy="0" r="0.1"/>
<circle fill="none" cx="150.3" cy="0" r="0.1"/>
<circle fill="none" cx="201" cy="48.9" r="0.1"/>
<circle fill="none" cx="201" cy="97" r="0.1"/>
<circle fill="none" cx="201" cy="145.1" r="0.1"/>
<circle fill="none" cx="150.3" cy="194" r="0.1"/>
<circle fill="none" cx="100.5" cy="194" r="0.1"/>
<circle fill="none" cx="50.7" cy="194" r="0.1"/>
<circle fill="none" cx="0" cy="145.1" r="0.1"/>
<circle fill="none" cx="0" cy="97" r="0.1"/>
<circle fill="none" cx="0" cy="48.9" r="0.1"/>
<circle fill="none" cx="50.7" cy="0" r="0.1"/>
</g></g><g><rect stroke="none" fill="#ffffff" width="0" height="0"/><path stroke="#000000" fill="none" d=""/><text font-size="18.7" xml:space="preserve" display="none" font-family="OpenSansCondensedLight" fill="black" text-anchor="middle"><tspan dy="0.3em" style="fill-opacity: 0; stroke-opacity: 0;">-</tspan></text></g><text font-size="18.7" xml:space="preserve" font-family="OpenSansCondensedLight" line-height="21" fill="black" text-anchor="middle" text-vertical-anchor="top" transform="matrix(1,0,0,1,100.5,8.8)"><tspan dy="14.9">PRESENTATION</tspan><tspan dy="21" x="0">CONTROLLER <tspan text-decoration="underline">1726</tspan></tspan></text></g><g data-type="tp.Element" transform="translate(354,237)"><g><g>
<path d="M250,0H0v178h250V0L250,0z" fill="#FFFFFF" stroke="#000000"/>
<rect x="10.9" y="8.1" width="228.1" height="161.8" fill="none"/>
<circle fill="none" cx="125" cy="0" r="0.1"/>
<circle fill="none" cx="187" cy="0" r="0.1"/>
<circle fill="none" cx="250" cy="44.9" r="0.1"/>
<circle fill="none" cx="250" cy="89" r="0.1"/>
<circle fill="none" cx="250" cy="133.1" r="0.1"/>
<circle fill="none" cx="187" cy="178" r="0.1"/>
<circle fill="none" cx="125" cy="178" r="0.1"/>
<circle fill="none" cx="63.1" cy="178" r="0.1"/>
<circle fill="none" cx="0" cy="133.1" r="0.1"/>
<circle fill="none" cx="0" cy="89" r="0.1"/>
<circle fill="none" cx="0" cy="44.9" r="0.1"/>
<circle fill="none" cx="63.1" cy="0" r="0.1"/>
</g></g><g><rect stroke="none" fill="#ffffff" width="0" height="0"/><path stroke="#000000" fill="none" d=""/><text font-size="18.7" xml:space="preserve" display="none" font-family="OpenSansCondensedLight" fill="black" text-anchor="middle"><tspan dy="0.3em" style="fill-opacity: 0; stroke-opacity: 0;">-</tspan></text></g><text font-size="18.7" xml:space="preserve" font-family="OpenSansCondensedLight" line-height="21" fill="black" text-anchor="middle" text-vertical-anchor="top" transform="matrix(1,0,0,1,125,8.1)"><tspan dy="14.9">PRESENTATION</tspan><tspan dy="21" x="0">CONTROLLER <tspan text-decoration="underline">1728</tspan></tspan></text></g><g data-type="tp.Element" transform="translate(293,631)"><g><g>
<path d="M311,0H0v130h311V0L311,0z" fill="#FFFFFF" stroke="#000000"/>
<rect x="13.6" y="5.9" width="283.8" height="118.1" fill="none"/>
<circle fill="none" cx="155.5" cy="0" r="0.1"/>
<circle fill="none" cx="232.6" cy="0" r="0.1"/>
<circle fill="none" cx="311" cy="32.8" r="0.1"/>
<circle fill="none" cx="311" cy="65" r="0.1"/>
<circle fill="none" cx="311" cy="97.2" r="0.1"/>
<circle fill="none" cx="232.6" cy="130" r="0.1"/>
<circle fill="none" cx="155.5" cy="130" r="0.1"/>
<circle fill="none" cx="78.5" cy="130" r="0.1"/>
<circle fill="none" cx="0" cy="97.2" r="0.1"/>
<circle fill="none" cx="0" cy="65" r="0.1"/>
<circle fill="none" cx="0" cy="32.8" r="0.1"/>
<circle fill="none" cx="78.5" cy="0" r="0.1"/>
</g></g><g><rect stroke="none" fill="#ffffff" width="0" height="0"/><path stroke="#000000" fill="none" d=""/><text font-size="18.7" xml:space="preserve" display="none" font-family="OpenSansCondensedLight" fill="black" text-anchor="middle"><tspan dy="0.3em" style="fill-opacity: 0; stroke-opacity: 0;">-</tspan></text></g><text font-size="18.7" xml:space="preserve" font-family="OpenSansCondensedLight" line-height="21" fill="black" text-anchor="middle" text-vertical-anchor="middle" transform="matrix(1,0,0,1,155.5,65)"><tspan dy="6.5">SUBSYSTEM <tspan text-decoration="underline">1712</tspan></tspan></text></g><g data-type="tp.Element" transform="translate(53,120)"><g><g>
<path d="M262,0H0v44h262V0L262,0z" fill="#FFFFFF" stroke="#000000"/>
<rect x="11.5" y="2" width="239.1" height="40" fill="none"/>
<circle fill="none" cx="131" cy="0" r="0.1"/>
<circle fill="none" cx="195.9" cy="0" r="0.1"/>
<circle fill="none" cx="262" cy="11.1" r="0.1"/>
<circle fill="none" cx="262" cy="22" r="0.1"/>
<circle fill="none" cx="262" cy="32.9" r="0.1"/>
<circle fill="none" cx="195.9" cy="44" r="0.1"/>
<circle fill="none" cx="131" cy="44" r="0.1"/>
<circle fill="none" cx="66.1" cy="44" r="0.1"/>
<circle fill="none" cx="0" cy="32.9" r="0.1"/>
<circle fill="none" cx="0" cy="22" r="0.1"/>
<circle fill="none" cx="0" cy="11.1" r="0.1"/>
<circle fill="none" cx="66.1" cy="0" r="0.1"/>
</g></g><g><rect stroke="none" fill="#ffffff" width="0" height="0"/><path stroke="#000000" fill="none" d=""/><text font-size="18.7" xml:space="preserve" display="none" font-family="OpenSansCondensedLight" fill="black" text-anchor="middle"><tspan dy="0.3em" style="fill-opacity: 0; stroke-opacity: 0;">-</tspan></text></g><text font-size="18.7" xml:space="preserve" font-family="OpenSansCondensedLight" line-height="21" fill="black" text-anchor="middle" text-vertical-anchor="middle" transform="matrix(1,0,0,1,131,22)"><tspan dy="6.5">GUI SUBSYSTEM <tspan text-decoration="underline">1730</tspan></tspan></text></g><g data-type="tp.Element" transform="translate(368,365)"><g><g>
<path d="M96,0H0v83h96V0L96,0z" fill="#FFFFFF" stroke="#000000"/>
<rect x="4.2" y="3.8" width="87.6" height="75.4" fill="none"/>
<circle fill="none" cx="48" cy="0" r="0.1"/>
<circle fill="none" cx="71.8" cy="0" r="0.1"/>
<circle fill="none" cx="96" cy="20.9" r="0.1"/>
<circle fill="none" cx="96" cy="41.5" r="0.1"/>
<circle fill="none" cx="96" cy="62.1" r="0.1"/>
<circle fill="none" cx="71.8" cy="83" r="0.1"/>
<circle fill="none" cx="48" cy="83" r="0.1"/>
<circle fill="none" cx="24.2" cy="83" r="0.1"/>
<circle fill="none" cx="0" cy="62.1" r="0.1"/>
<circle fill="none" cx="0" cy="41.5" r="0.1"/>
<circle fill="none" cx="0" cy="20.9" r="0.1"/>
<circle fill="none" cx="24.2" cy="0" r="0.1"/>
</g></g><g><rect stroke="none" fill="#ffffff" width="0" height="0"/><path stroke="#000000" fill="none" d=""/><text font-size="18.7" xml:space="preserve" display="none" font-family="OpenSansCondensedLight" fill="black" text-anchor="middle"><tspan dy="0.3em" style="fill-opacity: 0; stroke-opacity: 0;">-</tspan></text></g><text font-size="18.7" xml:space="preserve" font-family="OpenSansCondensedLight" line-height="21" fill="black" text-anchor="middle" text-vertical-anchor="middle" transform="matrix(1,0,0,1,48,41.5)"><tspan dy="6.5">SAA <tspan text-decoration="underline">1710</tspan></tspan></text></g><g data-type="tp.Element" transform="translate(58,803)"><g><g>
<path d="M546,0H0v33h546V0L546,0z" fill="#FFFFFF" stroke="#000000"/>
<rect x="23.9" y="1.5" width="498.3" height="30" fill="none"/>
<circle fill="none" cx="273" cy="0" r="0.1"/>
<circle fill="none" cx="408.3" cy="0" r="0.1"/>
<circle fill="none" cx="546" cy="8.3" r="0.1"/>
<circle fill="none" cx="546" cy="16.5" r="0.1"/>
<circle fill="none" cx="546" cy="24.7" r="0.1"/>
<circle fill="none" cx="408.3" cy="33" r="0.1"/>
<circle fill="none" cx="273" cy="33" r="0.1"/>
<circle fill="none" cx="137.7" cy="33" r="0.1"/>
<circle fill="none" cx="0" cy="24.7" r="0.1"/>
<circle fill="none" cx="0" cy="16.5" r="0.1"/>
<circle fill="none" cx="0" cy="8.3" r="0.1"/>
<circle fill="none" cx="137.7" cy="0" r="0.1"/>
</g></g><g><rect stroke="none" fill="#ffffff" width="0" height="0"/><path stroke="#000000" fill="none" d=""/><text font-size="18.7" xml:space="preserve" display="none" font-family="OpenSansCondensedLight" fill="black" text-anchor="middle"><tspan dy="0.3em" style="fill-opacity: 0; stroke-opacity: 0;">-</tspan></text></g><text font-size="18.7" xml:space="preserve" font-family="OpenSansCondensedLight" line-height="21" fill="black" text-anchor="middle" text-vertical-anchor="middle" transform="matrix(1,0,0,1,273,16.5)"><tspan dy="6.5">NETWORK STACK <tspan text-decoration="underline">1714</tspan></tspan></text></g><g data-type="tp.Element" transform="translate(100,76)"><g><g>
<path d="M214,0H0v44h214V0L214,0z" fill="#FFFFFF" stroke="#000000"/>
<rect x="9.4" y="2" width="195.3" height="40" fill="none"/>
<circle fill="none" cx="107" cy="0" r="0.1"/>
<circle fill="none" cx="160" cy="0" r="0.1"/>
<circle fill="none" cx="214" cy="11.1" r="0.1"/>
<circle fill="none" cx="214" cy="22" r="0.1"/>
<circle fill="none" cx="214" cy="32.9" r="0.1"/>
<circle fill="none" cx="160" cy="44" r="0.1"/>
<circle fill="none" cx="107" cy="44" r="0.1"/>
<circle fill="none" cx="54" cy="44" r="0.1"/>
<circle fill="none" cx="0" cy="32.9" r="0.1"/>
<circle fill="none" cx="0" cy="22" r="0.1"/>
<circle fill="none" cx="0" cy="11.1" r="0.1"/>
<circle fill="none" cx="54" cy="0" r="0.1"/>
</g></g><g><rect stroke="none" fill="#ffffff" width="0" height="0"/><path stroke="#000000" fill="none" d=""/><text font-size="18.7" xml:space="preserve" display="none" font-family="OpenSansCondensedLight" fill="black" text-anchor="middle"><tspan dy="0.3em" style="fill-opacity: 0; stroke-opacity: 0;">-</tspan></text></g><text font-size="18.7" xml:space="preserve" font-family="OpenSansCondensedLight" line-height="21" fill="black" text-anchor="middle" text-vertical-anchor="middle" transform="matrix(1,0,0,1,107,22)"><tspan dy="-4">GRAPHICS</tspan><tspan dy="21" x="0">SUBSYSTEM <tspan text-decoration="underline">1732</tspan></tspan></text></g><g data-type="tp.Element" transform="translate(58,770)"><g><g>
<path d="M282,0H0v33h282V0L282,0z" fill="#FFFFFF" stroke="#000000"/>
<rect x="12.3" y="1.5" width="257.4" height="30" fill="none"/>
<circle fill="none" cx="141" cy="0" r="0.1"/>
<circle fill="none" cx="210.9" cy="0" r="0.1"/>
<circle fill="none" cx="282" cy="8.3" r="0.1"/>
<circle fill="none" cx="282" cy="16.5" r="0.1"/>
<circle fill="none" cx="282" cy="24.7" r="0.1"/>
<circle fill="none" cx="210.9" cy="33" r="0.1"/>
<circle fill="none" cx="141" cy="33" r="0.1"/>
<circle fill="none" cx="71.1" cy="33" r="0.1"/>
<circle fill="none" cx="0" cy="24.7" r="0.1"/>
<circle fill="none" cx="0" cy="16.5" r="0.1"/>
<circle fill="none" cx="0" cy="8.3" r="0.1"/>
<circle fill="none" cx="71.1" cy="0" r="0.1"/>
</g></g><g><rect stroke="none" fill="#ffffff" width="0" height="0"/><path stroke="#000000" fill="none" d=""/><text font-size="18.7" xml:space="preserve" display="none" font-family="OpenSansCondensedLight" fill="black" text-anchor="middle"><tspan dy="0.3em" style="fill-opacity: 0; stroke-opacity: 0;">-</tspan></text></g><text font-size="18.7" xml:space="preserve" font-family="OpenSansCondensedLight" line-height="21" fill="black" text-anchor="middle" text-vertical-anchor="middle" transform="matrix(1,0,0,1,141,16.5)"><tspan dy="-4">APPLICATION PROTOCOL</tspan><tspan dy="21" x="0">SERVICE <tspan text-decoration="underline">1716</tspan></tspan></text></g><g data-type="tp.Element" transform="translate(443,119)"><g><g>
<path d="M99.5,0H0v51.5h99.5V0L99.5,0z" fill="#FFFFFF" stroke="#000000"/>
<rect x="4.4" y="2.3" width="90.8" height="46.8" fill="none"/>
<circle fill="none" cx="49.8" cy="0" r="0.1"/>
<circle fill="none" cx="74.4" cy="0" r="0.1"/>
<circle fill="none" cx="99.5" cy="13" r="0.1"/>
<circle fill="none" cx="99.5" cy="25.8" r="0.1"/>
<circle fill="none" cx="99.5" cy="38.5" r="0.1"/>
<circle fill="none" cx="74.4" cy="51.5" r="0.1"/>
<circle fill="none" cx="49.8" cy="51.5" r="0.1"/>
<circle fill="none" cx="25.1" cy="51.5" r="0.1"/>
<circle fill="none" cx="0" cy="38.5" r="0.1"/>
<circle fill="none" cx="0" cy="25.8" r="0.1"/>
<circle fill="none" cx="0" cy="13" r="0.1"/>
<circle fill="none" cx="25.1" cy="0" r="0.1"/>
</g></g><g><rect stroke="none" fill="#ffffff" width="0" height="0"/><path stroke="#000000" fill="none" d=""/><text font-size="18.7" xml:space="preserve" display="none" font-family="OpenSansCondensedLight" fill="black" text-anchor="middle"><tspan dy="0.3em" style="fill-opacity: 0; stroke-opacity: 0;">-</tspan></text></g><text font-size="18.7" xml:space="preserve" font-family="OpenSansCondensedLight" line-height="21" fill="black" text-anchor="middle" text-vertical-anchor="middle" transform="matrix(1,0,0,1,49.8,25.8)"><tspan dy="-14.5">INPUT</tspan><tspan dy="21" x="0">DRIVER</tspan><tspan dy="21" x="0"><tspan text-decoration="underline">1734</tspan></tspan></text></g><g data-type="tp.Element" transform="translate(354,582)"><g><g>
<path d="M250,0H0v34h250V0L250,0z" fill="#FFFFFF" stroke="#000000"/>
<rect x="10.9" y="1.6" width="228.1" height="30.9" fill="none"/>
<circle fill="none" cx="125" cy="0" r="0.1"/>
<circle fill="none" cx="187" cy="0" r="0.1"/>
<circle fill="none" cx="250" cy="8.6" r="0.1"/>
<circle fill="none" cx="250" cy="17" r="0.1"/>
<circle fill="none" cx="250" cy="25.4" r="0.1"/>
<circle fill="none" cx="187" cy="34" r="0.1"/>
<circle fill="none" cx="125" cy="34" r="0.1"/>
<circle fill="none" cx="63.1" cy="34" r="0.1"/>
<circle fill="none" cx="0" cy="25.4" r="0.1"/>
<circle fill="none" cx="0" cy="17" r="0.1"/>
<circle fill="none" cx="0" cy="8.6" r="0.1"/>
<circle fill="none" cx="63.1" cy="0" r="0.1"/>
</g></g><g><rect stroke="none" fill="#ffffff" width="0" height="0"/><path stroke="#000000" fill="none" d=""/><text font-size="18.7" xml:space="preserve" display="none" font-family="OpenSansCondensedLight" fill="black" text-anchor="middle"><tspan dy="0.3em" style="fill-opacity: 0; stroke-opacity: 0;">-</tspan></text></g><text font-size="18.7" xml:space="preserve" font-family="OpenSansCondensedLight" line-height="21" fill="black" text-anchor="middle" text-vertical-anchor="middle" transform="matrix(1,0,0,1,125,17)"><tspan dy="6.5">CONTENT MANAGER <tspan text-decoration="underline">1718</tspan></tspan></text></g><g data-type="tp.Element" transform="translate(475,390)"><g><g>
<g fill="#FFFFFF">
    <path d="M110.9,75.2h-5.5c0.1,-0.1,-0,5.7,-0,5.7H0.1V11.1c0,0,5.7,-0.2,5.6,-0.1V5.5h5.2V0h105.2v69.7h-5.3"/>
</g>
<g stroke="#000000">
    <path fill="none" d="M10.9,5.5V0h105.2v69.7h-5.3"/>
    <path fill="none" d="M5.7,11.1V5.5h105.2v69.7h-5.5"/>
    <path fill="none" d="M0.1,11.1h105.2v69.7H0.1V11.1z"/>
</g>
<rect x="3.5" y="14.6" fill="none" width="98.6" height="62.5"/>
<circle fill="none" cx="59.8" cy="0.1" r="0.1"/>
<circle fill="none" cx="95.4" cy="0.1" r="0.1"/>
<circle fill="none" cx="116.1" cy="6.5" r="0.1"/>
<circle fill="none" cx="116.1" cy="31.3" r="0.1"/>
<circle fill="none" cx="116.1" cy="65.2" r="0.1"/>
<circle fill="none" cx="91.3" cy="81" r="0.1"/>
<circle fill="none" cx="49.5" cy="80.8" r="0.1"/>
<circle fill="none" cx="12.6" cy="80.8" r="0.1"/>
<circle fill="none" cx="0.3" cy="70.6" r="0.1"/>
<circle fill="none" cx="0.3" cy="44.1" r="0.1"/>
<circle fill="none" cx="0.1" cy="22.9" r="0.1"/>
<circle fill="none" cx="24.7" cy="0.1" r="0.1"/>
</g></g><g><rect stroke="none" fill="#ffffff" width="0" height="0"/><path stroke="#000000" fill="none" d=""/><text font-size="18.7" xml:space="preserve" display="none" font-family="OpenSansCondensedLight" fill="black" text-anchor="middle"><tspan dy="0.3em" style="fill-opacity: 0; stroke-opacity: 0;">-</tspan></text></g><text font-size="18.7" xml:space="preserve" font-family="OpenSansCondensedLight" line-height="21" fill="black" text-anchor="middle" text-vertical-anchor="middle" transform="matrix(1,0,0,1,52.8,45.9)"><tspan dy="-14.5">CONTENT</tspan><tspan dy="21" x="0">HANDLER</tspan><tspan dy="21" x="0"><tspan text-decoration="underline">1720</tspan></tspan></text></g><g data-type="tp.Element" transform="translate(127,310)"><g><g>
<g fill="#FFFFFF">
    <path d="M138.6,79.8h-6.9c0.2,-0.2,-0,6,-0,6H0.1V11.8c0,0,7.1,-0.2,7,-0.1V5.8h6.5V0h131.5v74h-6.6"/>
</g>
<g stroke="#000000">
    <path fill="none" d="M13.6,5.8V0h131.5v74h-6.6"/>
    <path fill="none" d="M7.1,11.8V5.8h131.5v74h-6.9"/>
    <path fill="none" d="M0.1,11.8h131.5v74H0.1V11.8z"/>
</g>
<rect x="4.3" y="15.5" fill="none" width="123.2" height="66.3"/>
<circle fill="none" cx="74.8" cy="0.1" r="0.1"/>
<circle fill="none" cx="119.2" cy="0.1" r="0.1"/>
<circle fill="none" cx="145.1" cy="6.9" r="0.1"/>
<circle fill="none" cx="145.1" cy="33.2" r="0.1"/>
<circle fill="none" cx="145.1" cy="69.2" r="0.1"/>
<circle fill="none" cx="114.1" cy="86" r="0.1"/>
<circle fill="none" cx="61.8" cy="85.8" r="0.1"/>
<circle fill="none" cx="15.8" cy="85.8" r="0.1"/>
<circle fill="none" cx="0.3" cy="74.9" r="0.1"/>
<circle fill="none" cx="0.3" cy="46.8" r="0.1"/>
<circle fill="none" cx="0.1" cy="24.3" r="0.1"/>
<circle fill="none" cx="30.9" cy="0.1" r="0.1"/>
</g></g><g><rect stroke="none" fill="#ffffff" width="0" height="0"/><path stroke="#000000" fill="none" d=""/><text font-size="18.7" xml:space="preserve" display="none" font-family="OpenSansCondensedLight" fill="black" text-anchor="middle"><tspan dy="0.3em" style="fill-opacity: 0; stroke-opacity: 0;">-</tspan></text></g><text font-size="18.7" xml:space="preserve" font-family="OpenSansCondensedLight" line-height="21" fill="black" text-anchor="middle" text-vertical-anchor="middle" transform="matrix(1,0,0,1,65.9,48.7)"><tspan dy="-14.5">UI ELEMENT</tspan><tspan dy="21" x="0">HANDLER</tspan><tspan dy="21" x="0"><tspan text-decoration="underline">1722</tspan></tspan></text></g><g data-type="tp.Element" transform="translate(439,275)"><g><g>
<g fill="#FFFFFF">
    <path d="M138.6,74.3h-6.9c0.2,-0.1,-0,5.6,-0,5.6H0.1V11c0,0,7.1,-0.2,7,-0.1V5.4h6.5V0h131.5v68.9h-6.6"/>
</g>
<g stroke="#000000">
    <path fill="none" d="M13.6,5.4V0h131.5v68.9h-6.6"/>
    <path fill="none" d="M7.1,10.9V5.4h131.5v68.9h-6.9"/>
    <path fill="none" d="M0.1,11h131.5v68.9H0.1V11z"/>
</g>
<rect x="4.3" y="14.5" fill="none" width="123.2" height="61.7"/>
<circle fill="none" cx="74.8" cy="0.1" r="0.1"/>
<circle fill="none" cx="119.2" cy="0.1" r="0.1"/>
<circle fill="none" cx="145.1" cy="6.5" r="0.1"/>
<circle fill="none" cx="145.1" cy="30.9" r="0.1"/>
<circle fill="none" cx="145.1" cy="64.4" r="0.1"/>
<circle fill="none" cx="114.1" cy="80" r="0.1"/>
<circle fill="none" cx="61.8" cy="79.8" r="0.1"/>
<circle fill="none" cx="15.8" cy="79.8" r="0.1"/>
<circle fill="none" cx="0.3" cy="69.7" r="0.1"/>
<circle fill="none" cx="0.3" cy="43.6" r="0.1"/>
<circle fill="none" cx="0.1" cy="22.6" r="0.1"/>
<circle fill="none" cx="30.9" cy="0.1" r="0.1"/>
</g></g><g><rect stroke="none" fill="#ffffff" width="0" height="0"/><path stroke="#000000" fill="none" d=""/><text font-size="18.7" xml:space="preserve" display="none" font-family="OpenSansCondensedLight" fill="black" text-anchor="middle"><tspan dy="0.3em" style="fill-opacity: 0; stroke-opacity: 0;">-</tspan></text></g><text font-size="18.7" xml:space="preserve" font-family="OpenSansCondensedLight" line-height="21" fill="black" text-anchor="middle" text-vertical-anchor="middle" transform="matrix(1,0,0,1,65.9,45.3)"><tspan dy="-14.5">UI ELEMENT</tspan><tspan dy="21" x="0">HANDLER</tspan><tspan dy="21" x="0"><tspan text-decoration="underline">1724</tspan></tspan></text></g><g data-type="tp.Link"><path fill="none" pointer-events="none" joint-selector="line" stroke-width="1" stroke="#333333" stroke-linejoin="round" marker-start="url(#v-58842000855011)" marker-end="url(#v-58841454029882)" d="M 442.9 142.2 L 315 142"/><g><g label-idx="0" cursor="default" transform="translate(378.9, 142.1)"><rect joint-selector="rect" fill="#ffffff" rx="3" ry="3" width="8" height="0" transform="matrix(1,0,0,1,-4,0)"/><text joint-selector="text" font-size="18.7" xml:space="preserve" display="none" y="0.8em" fill="#000000" text-anchor="middle" pointer-events="none" font-family="OpenSansCondensedLight"><tspan dy="0" style="fill-opacity: 0; stroke-opacity: 0;">-</tspan></text></g></g></g></g></svg>