<svg xmlns="http://www.w3.org/2000/svg" xmlns:xlink="http://www.w3.org/1999/xlink" version="1.1" width="642.1" height="837.1" viewBox="16.9 60.9 642.1 837.1"><defs><marker orient="auto" overflow="visible" markerUnits="userSpaceOnUse"><path stroke="#333333" fill="#333333" d="M 0 0 0 0"/></marker><marker orient="auto" overflow="visible" markerUnits="userSpaceOnUse"><path stroke="#333333" fill="#333333" transform="rotate(180)" d="M 0 0 0 0"/></marker></defs><g><g data-type="tp.Element" transform="translate(17,61)"><g><g>
<path d="M625,0H0v776h625V0L625,0z" fill="#FFFFFF" stroke="#000000"/>
<rect x="27.3" y="35.4" width="570.4" height="705.2" fill="none"/>
<circle fill="none" cx="312.5" cy="0" r="0.1"/>
<circle fill="none" cx="467.4" cy="0" r="0.1"/>
<circle fill="none" cx="625" cy="195.7" r="0.1"/>
<circle fill="none" cx="625" cy="388" r="0.1"/>
<circle fill="none" cx="625" cy="580.3" r="0.1"/>
<circle fill="none" cx="467.4" cy="776" r="0.1"/>
<circle fill="none" cx="312.5" cy="776" r="0.1"/>
<circle fill="none" cx="157.7" cy="776" r="0.1"/>
<circle fill="none" cx="0" cy="580.3" r="0.1"/>
<circle fill="none" cx="0" cy="388" r="0.1"/>
<circle fill="none" cx="0" cy="195.7" r="0.1"/>
<circle fill="none" cx="157.7" cy="0" r="0.1"/>
</g></g><g><rect stroke="none" fill="#ffffff" width="0" height="0"/><path stroke="#000000" fill="none" d=""/><text font-size="18.7" xml:space="preserve" display="none" font-family="OpenSansCondensedLight" fill="black" text-anchor="middle"><tspan dy="0.3em" style="fill-opacity: 0; stroke-opacity: 0;">-</tspan></text></g><text font-size="18.7" xml:space="preserve" font-family="OpenSansCondensedLight" line-height="21" fill="black" text-anchor="middle" text-vertical-anchor="middle" transform="matrix(1,0,0,1,312.5,388)" display="none"><tspan dy="0.3em" style="fill-opacity: 0; stroke-opacity: 0;">-</tspan></text></g><g data-type="tp.Element" transform="translate(435,790)"><g><g>
<path d="M198,0H0v37h198V0L198,0z" fill="#FFFFFF"/>
<rect x="8.7" y="1.7" width="180.7" height="33.6" fill="none"/>
<circle fill="none" cx="99" cy="0" r="0.1"/>
<circle fill="none" cx="148.1" cy="0" r="0.1"/>
<circle fill="none" cx="198" cy="9.3" r="0.1"/>
<circle fill="none" cx="198" cy="18.5" r="0.1"/>
<circle fill="none" cx="198" cy="27.7" r="0.1"/>
<circle fill="none" cx="148.1" cy="37" r="0.1"/>
<circle fill="none" cx="99" cy="37" r="0.1"/>
<circle fill="none" cx="50" cy="37" r="0.1"/>
<circle fill="none" cx="0" cy="27.7" r="0.1"/>
<circle fill="none" cx="0" cy="18.5" r="0.1"/>
<circle fill="none" cx="0" cy="9.3" r="0.1"/>
<circle fill="none" cx="50" cy="0" r="0.1"/>
</g></g><g><rect stroke="none" fill="#ffffff" width="0" height="0"/><path stroke="#000000" fill="none" d=""/><text font-size="18.7" xml:space="preserve" display="none" font-family="OpenSansCondensedLight" fill="black" text-anchor="middle"><tspan dy="0.3em" style="fill-opacity: 0; stroke-opacity: 0;">-</tspan></text></g><text font-size="18.7" xml:space="preserve" font-family="OpenSansCondensedLight" line-height="21" fill="black" text-anchor="middle" text-vertical-anchor="middle" transform="matrix(1,0,0,1,99,18.5)"><tspan dy="-0.3em">COMPUTING</tspan><tspan dy="21" x="0">ENVIRONMENT</tspan></text></g><g data-type="tp.Element" transform="translate(54,720.5)"><g><g>
<path d="M197,0H0v94h197V0L197,0z" fill="#FFFFFF" stroke="#000000"/>
<rect x="8.6" y="4.3" width="179.8" height="85.4" fill="none"/>
<circle fill="none" cx="98.5" cy="0" r="0.1"/>
<circle fill="none" cx="147.3" cy="0" r="0.1"/>
<circle fill="none" cx="197" cy="23.7" r="0.1"/>
<circle fill="none" cx="197" cy="47" r="0.1"/>
<circle fill="none" cx="197" cy="70.3" r="0.1"/>
<circle fill="none" cx="147.3" cy="94" r="0.1"/>
<circle fill="none" cx="98.5" cy="94" r="0.1"/>
<circle fill="none" cx="49.7" cy="94" r="0.1"/>
<circle fill="none" cx="0" cy="70.3" r="0.1"/>
<circle fill="none" cx="0" cy="47" r="0.1"/>
<circle fill="none" cx="0" cy="23.7" r="0.1"/>
<circle fill="none" cx="49.7" cy="0" r="0.1"/>
</g></g><g><rect stroke="none" fill="#ffffff" width="0" height="0"/><path stroke="#000000" fill="none" d=""/><text font-size="18.7" xml:space="preserve" display="none" font-family="OpenSansCondensedLight" fill="black" text-anchor="middle"><tspan dy="0.3em" style="fill-opacity: 0; stroke-opacity: 0;">-</tspan></text></g><text font-size="18.7" xml:space="preserve" font-family="OpenSansCondensedLight" line-height="21" fill="black" text-anchor="middle" text-vertical-anchor="top" transform="matrix(1,0,0,1,98.5,4.3)"><tspan dy="14.9">TEMPLATE</tspan><tspan dy="21" x="0">DATABASE <tspan text-decoration="underline">1822</tspan></tspan></text></g><g data-type="tp.Element" transform="translate(95,761)"><g><g>
<path d="M119,0H0v36h119V0L119,0z" fill="#FFFFFF" stroke="#000000"/>
<rect x="5.2" y="1.6" width="108.6" height="32.7" fill="none"/>
<circle fill="none" cx="59.5" cy="0" r="0.1"/>
<circle fill="none" cx="89" cy="0" r="0.1"/>
<circle fill="none" cx="119" cy="9.1" r="0.1"/>
<circle fill="none" cx="119" cy="18" r="0.1"/>
<circle fill="none" cx="119" cy="26.9" r="0.1"/>
<circle fill="none" cx="89" cy="36" r="0.1"/>
<circle fill="none" cx="59.5" cy="36" r="0.1"/>
<circle fill="none" cx="30" cy="36" r="0.1"/>
<circle fill="none" cx="0" cy="26.9" r="0.1"/>
<circle fill="none" cx="0" cy="18" r="0.1"/>
<circle fill="none" cx="0" cy="9.1" r="0.1"/>
<circle fill="none" cx="30" cy="0" r="0.1"/>
</g></g><g><rect stroke="none" fill="#ffffff" width="0" height="0"/><path stroke="#000000" fill="none" d=""/><text font-size="18.7" xml:space="preserve" display="none" font-family="OpenSansCondensedLight" fill="black" text-anchor="middle"><tspan dy="0.3em" style="fill-opacity: 0; stroke-opacity: 0;">-</tspan></text></g><text font-size="18.7" xml:space="preserve" font-family="OpenSansCondensedLight" line-height="21" fill="black" text-anchor="middle" text-vertical-anchor="middle" transform="matrix(1,0,0,1,59.5,18)"><tspan dy="-4">TEMPLATE</tspan><tspan dy="21" x="0"><tspan text-decoration="underline">1824</tspan></tspan></text></g><g data-type="tp.Element" transform="translate(293,691)"><g><g>
<g fill="#FFFFFF" stroke="#000000">
    <path d="M124.4,20.5H0v83.6c0,11.2,27.9,20.5,62.3,20.5s62.3,-9.3,62.3,-20.5v-83.6L124.4,20.5L124.4,20.5z"/>
    <path d="M62.3,0C27.9,0,0,9.3,0,20.5s27.9,20.5,62.3,20.5s62.3,-9.3,62.3,-20.5C124.4,9.3,96.5,0,62.3,0L62.3,0z"/>
</g>
<rect x="6.6" y="45.6" width="111.1" height="59.1" fill="none"/>
<circle fill="none" cx="62.3" cy="0" r="0.1"/>
<circle fill="none" cx="95" cy="3.1" r="0.1"/>
<circle fill="none" cx="124.6" cy="20.5" r="0.1"/>
<circle fill="none" cx="124.6" cy="62.3" r="0.1"/>
<circle fill="none" cx="124.6" cy="104.1" r="0.1"/>
<circle fill="none" cx="96.7" cy="121.2" r="0.1"/>
<circle fill="none" cx="62.3" cy="124.6" r="0.1"/>
<circle fill="none" cx="26.1" cy="120.7" r="0.1"/>
<circle fill="none" cx="0" cy="104.1" r="0.1"/>
<circle fill="none" cx="0" cy="62.3" r="0.1"/>
<circle fill="none" cx="0" cy="20.5" r="0.1"/>
<circle fill="none" cx="29.4" cy="3.1" r="0.1"/>
</g></g><g><rect stroke="none" fill="#ffffff" width="0" height="0"/><path stroke="#000000" fill="none" d=""/><text font-size="18.7" xml:space="preserve" display="none" font-family="OpenSansCondensedLight" fill="black" text-anchor="middle"><tspan dy="0.3em" style="fill-opacity: 0; stroke-opacity: 0;">-</tspan></text></g><text font-size="18.7" xml:space="preserve" font-family="OpenSansCondensedLight" line-height="21" fill="black" text-anchor="middle" text-vertical-anchor="middle" transform="matrix(1,0,0,1,62.2,75.2)"><tspan dy="-14.5">MODEL</tspan><tspan dy="21" x="0">DATABASE</tspan><tspan dy="21" x="0"><tspan text-decoration="underline">1816</tspan></tspan></text></g><g data-type="tp.Element" transform="translate(68,246)"><g><g>
<path d="M564,0H0v422h564V0L564,0z" fill="#FFFFFF" stroke="#000000" stroke-dasharray="5,5"/>
<rect x="24.7" y="19.2" width="514.7" height="383.5" fill="none"/>
<circle fill="none" cx="282" cy="0" r="0.1"/>
<circle fill="none" cx="421.8" cy="0" r="0.1"/>
<circle fill="none" cx="564" cy="106.4" r="0.1"/>
<circle fill="none" cx="564" cy="211" r="0.1"/>
<circle fill="none" cx="564" cy="315.6" r="0.1"/>
<circle fill="none" cx="421.8" cy="422" r="0.1"/>
<circle fill="none" cx="282" cy="422" r="0.1"/>
<circle fill="none" cx="142.3" cy="422" r="0.1"/>
<circle fill="none" cx="0" cy="315.6" r="0.1"/>
<circle fill="none" cx="0" cy="211" r="0.1"/>
<circle fill="none" cx="0" cy="106.4" r="0.1"/>
<circle fill="none" cx="142.3" cy="0" r="0.1"/>
</g></g><g><rect stroke="none" fill="#ffffff" width="0" height="0"/><path stroke="#000000" fill="none" d=""/><text font-size="18.7" xml:space="preserve" display="none" font-family="OpenSansCondensedLight" fill="black" text-anchor="middle"><tspan dy="0.3em" style="fill-opacity: 0; stroke-opacity: 0;">-</tspan></text></g><text font-size="18.7" xml:space="preserve" font-family="OpenSansCondensedLight" line-height="21" fill="black" text-anchor="middle" text-vertical-anchor="middle" transform="matrix(1,0,0,1,282,211)" display="none"><tspan dy="0.3em" style="fill-opacity: 0; stroke-opacity: 0;">-</tspan></text></g><g data-type="tp.Element" transform="translate(44,75)"><g><g>
<path d="M567,0H0v40h567V0L567,0z" fill="#FFFFFF" stroke="#000000"/>
<rect x="24.8" y="1.8" width="517.4" height="36.4" fill="none"/>
<circle fill="none" cx="283.5" cy="0" r="0.1"/>
<circle fill="none" cx="424" cy="0" r="0.1"/>
<circle fill="none" cx="567" cy="10.1" r="0.1"/>
<circle fill="none" cx="567" cy="20" r="0.1"/>
<circle fill="none" cx="567" cy="29.9" r="0.1"/>
<circle fill="none" cx="424" cy="40" r="0.1"/>
<circle fill="none" cx="283.5" cy="40" r="0.1"/>
<circle fill="none" cx="143" cy="40" r="0.1"/>
<circle fill="none" cx="0" cy="29.9" r="0.1"/>
<circle fill="none" cx="0" cy="20" r="0.1"/>
<circle fill="none" cx="0" cy="10.1" r="0.1"/>
<circle fill="none" cx="143" cy="0" r="0.1"/>
</g></g><g><rect stroke="none" fill="#ffffff" width="0" height="0"/><path stroke="#000000" fill="none" d=""/><text font-size="18.7" xml:space="preserve" display="none" font-family="OpenSansCondensedLight" fill="black" text-anchor="middle"><tspan dy="0.3em" style="fill-opacity: 0; stroke-opacity: 0;">-</tspan></text></g><text font-size="18.7" xml:space="preserve" font-family="OpenSansCondensedLight" line-height="21" fill="black" text-anchor="middle" text-vertical-anchor="middle" transform="matrix(1,0,0,1,283.5,20)"><tspan dy="6.5">NETWORK STACK <tspan text-decoration="underline">1804</tspan></tspan></text></g><g data-type="tp.Element" transform="translate(59,226)"><g><g>
<path d="M564,0H0v428h564V0L564,0z" fill="#FFFFFF" stroke="#000000" stroke-dasharray="5,5"/>
<rect x="24.7" y="19.5" width="514.7" height="389" fill="none"/>
<circle fill="none" cx="282" cy="0" r="0.1"/>
<circle fill="none" cx="421.8" cy="0" r="0.1"/>
<circle fill="none" cx="564" cy="107.9" r="0.1"/>
<circle fill="none" cx="564" cy="214" r="0.1"/>
<circle fill="none" cx="564" cy="320.1" r="0.1"/>
<circle fill="none" cx="421.8" cy="428" r="0.1"/>
<circle fill="none" cx="282" cy="428" r="0.1"/>
<circle fill="none" cx="142.3" cy="428" r="0.1"/>
<circle fill="none" cx="0" cy="320.1" r="0.1"/>
<circle fill="none" cx="0" cy="214" r="0.1"/>
<circle fill="none" cx="0" cy="107.9" r="0.1"/>
<circle fill="none" cx="142.3" cy="0" r="0.1"/>
</g></g><g><rect stroke="none" fill="#ffffff" width="0" height="0"/><path stroke="#000000" fill="none" d=""/><text font-size="18.7" xml:space="preserve" display="none" font-family="OpenSansCondensedLight" fill="black" text-anchor="middle"><tspan dy="0.3em" style="fill-opacity: 0; stroke-opacity: 0;">-</tspan></text></g><text font-size="18.7" xml:space="preserve" font-family="OpenSansCondensedLight" line-height="21" fill="black" text-anchor="middle" text-vertical-anchor="middle" transform="matrix(1,0,0,1,282,214)" display="none"><tspan dy="0.3em" style="fill-opacity: 0; stroke-opacity: 0;">-</tspan></text></g><g data-type="tp.Element" transform="translate(44,113)"><g><g>
<path d="M567,0H0v40h567V0L567,0z" fill="#FFFFFF" stroke="#000000"/>
<rect x="24.8" y="1.8" width="517.4" height="36.4" fill="none"/>
<circle fill="none" cx="283.5" cy="0" r="0.1"/>
<circle fill="none" cx="424" cy="0" r="0.1"/>
<circle fill="none" cx="567" cy="10.1" r="0.1"/>
<circle fill="none" cx="567" cy="20" r="0.1"/>
<circle fill="none" cx="567" cy="29.9" r="0.1"/>
<circle fill="none" cx="424" cy="40" r="0.1"/>
<circle fill="none" cx="283.5" cy="40" r="0.1"/>
<circle fill="none" cx="143" cy="40" r="0.1"/>
<circle fill="none" cx="0" cy="29.9" r="0.1"/>
<circle fill="none" cx="0" cy="20" r="0.1"/>
<circle fill="none" cx="0" cy="10.1" r="0.1"/>
<circle fill="none" cx="143" cy="0" r="0.1"/>
</g></g><g><rect stroke="none" fill="#ffffff" width="0" height="0"/><path stroke="#000000" fill="none" d=""/><text font-size="18.7" xml:space="preserve" display="none" font-family="OpenSansCondensedLight" fill="black" text-anchor="middle"><tspan dy="0.3em" style="fill-opacity: 0; stroke-opacity: 0;">-</tspan></text></g><text font-size="18.7" xml:space="preserve" font-family="OpenSansCondensedLight" line-height="21" fill="black" text-anchor="middle" text-vertical-anchor="middle" transform="matrix(1,0,0,1,283.5,20)"><tspan dy="6.5">APPLICATION PROTOCOL SERVICE <tspan text-decoration="underline">1808</tspan></tspan></text></g><g data-type="tp.Element" transform="translate(49,216)"><g><g>
<path d="M564,0H0v428h564V0L564,0z" fill="#FFFFFF" stroke="#000000"/>
<rect x="24.7" y="19.5" width="514.7" height="389" fill="none"/>
<circle fill="none" cx="282" cy="0" r="0.1"/>
<circle fill="none" cx="421.8" cy="0" r="0.1"/>
<circle fill="none" cx="564" cy="107.9" r="0.1"/>
<circle fill="none" cx="564" cy="214" r="0.1"/>
<circle fill="none" cx="564" cy="320.1" r="0.1"/>
<circle fill="none" cx="421.8" cy="428" r="0.1"/>
<circle fill="none" cx="282" cy="428" r="0.1"/>
<circle fill="none" cx="142.3" cy="428" r="0.1"/>
<circle fill="none" cx="0" cy="320.1" r="0.1"/>
<circle fill="none" cx="0" cy="214" r="0.1"/>
<circle fill="none" cx="0" cy="107.9" r="0.1"/>
<circle fill="none" cx="142.3" cy="0" r="0.1"/>
</g></g><g><rect stroke="none" fill="#ffffff" width="0" height="0"/><path stroke="#000000" fill="none" d=""/><text font-size="18.7" xml:space="preserve" display="none" font-family="OpenSansCondensedLight" fill="black" text-anchor="middle"><tspan dy="0.3em" style="fill-opacity: 0; stroke-opacity: 0;">-</tspan></text></g><text font-size="18.7" xml:space="preserve" font-family="OpenSansCondensedLight" line-height="21" fill="black" text-anchor="middle" text-vertical-anchor="middle" transform="matrix(1,0,0,1,282,214)" display="none"><tspan dy="0.3em" style="fill-opacity: 0; stroke-opacity: 0;">-</tspan></text></g><g data-type="tp.Element" transform="translate(44,152)"><g><g>
<path d="M567,0H0v40h567V0L567,0z" fill="#FFFFFF" stroke="#000000"/>
<rect x="24.8" y="1.8" width="517.4" height="36.4" fill="none"/>
<circle fill="none" cx="283.5" cy="0" r="0.1"/>
<circle fill="none" cx="424" cy="0" r="0.1"/>
<circle fill="none" cx="567" cy="10.1" r="0.1"/>
<circle fill="none" cx="567" cy="20" r="0.1"/>
<circle fill="none" cx="567" cy="29.9" r="0.1"/>
<circle fill="none" cx="424" cy="40" r="0.1"/>
<circle fill="none" cx="283.5" cy="40" r="0.1"/>
<circle fill="none" cx="143" cy="40" r="0.1"/>
<circle fill="none" cx="0" cy="29.9" r="0.1"/>
<circle fill="none" cx="0" cy="20" r="0.1"/>
<circle fill="none" cx="0" cy="10.1" r="0.1"/>
<circle fill="none" cx="143" cy="0" r="0.1"/>
</g></g><g><rect stroke="none" fill="#ffffff" width="0" height="0"/><path stroke="#000000" fill="none" d=""/><text font-size="18.7" xml:space="preserve" display="none" font-family="OpenSansCondensedLight" fill="black" text-anchor="middle"><tspan dy="0.3em" style="fill-opacity: 0; stroke-opacity: 0;">-</tspan></text></g><text font-size="18.7" xml:space="preserve" font-family="OpenSansCondensedLight" line-height="21" fill="black" text-anchor="middle" text-vertical-anchor="middle" transform="matrix(1,0,0,1,283.5,20)"><tspan dy="6.5">NETWORK APPLICATION PLATFORM <tspan text-decoration="underline">1806</tspan></tspan></text></g><g data-type="tp.Element" transform="translate(104,192)"><g><g>
<path d="M441,0H0v40h441V0L441,0z" fill="#FFFFFF" stroke="#000000"/>
<rect x="19.3" y="1.8" width="402.5" height="36.4" fill="none"/>
<circle fill="none" cx="220.5" cy="0" r="0.1"/>
<circle fill="none" cx="329.8" cy="0" r="0.1"/>
<circle fill="none" cx="441" cy="10.1" r="0.1"/>
<circle fill="none" cx="441" cy="20" r="0.1"/>
<circle fill="none" cx="441" cy="29.9" r="0.1"/>
<circle fill="none" cx="329.8" cy="40" r="0.1"/>
<circle fill="none" cx="220.5" cy="40" r="0.1"/>
<circle fill="none" cx="111.3" cy="40" r="0.1"/>
<circle fill="none" cx="0" cy="29.9" r="0.1"/>
<circle fill="none" cx="0" cy="20" r="0.1"/>
<circle fill="none" cx="0" cy="10.1" r="0.1"/>
<circle fill="none" cx="111.3" cy="0" r="0.1"/>
</g></g><g><rect stroke="none" fill="#ffffff" width="0" height="0"/><path stroke="#000000" fill="none" d=""/><text font-size="18.7" xml:space="preserve" display="none" font-family="OpenSansCondensedLight" fill="black" text-anchor="middle"><tspan dy="0.3em" style="fill-opacity: 0; stroke-opacity: 0;">-</tspan></text></g><text font-size="18.7" xml:space="preserve" font-family="OpenSansCondensedLight" line-height="21" fill="black" text-anchor="middle" text-vertical-anchor="middle" transform="matrix(1,0,0,1,220.5,20)"><tspan dy="6.5">CONTROLLER <tspan text-decoration="underline">1810</tspan></tspan></text></g><g data-type="tp.Element" transform="translate(408,606)"><g><g>
<path d="M200,0H0v29h200V0L200,0z" fill="#FFFFFF"/>
<rect x="8.7" y="1.3" width="182.5" height="26.4" fill="none"/>
<circle fill="none" cx="100" cy="0" r="0.1"/>
<circle fill="none" cx="149.6" cy="0" r="0.1"/>
<circle fill="none" cx="200" cy="7.3" r="0.1"/>
<circle fill="none" cx="200" cy="14.5" r="0.1"/>
<circle fill="none" cx="200" cy="21.7" r="0.1"/>
<circle fill="none" cx="149.6" cy="29" r="0.1"/>
<circle fill="none" cx="100" cy="29" r="0.1"/>
<circle fill="none" cx="50.5" cy="29" r="0.1"/>
<circle fill="none" cx="0" cy="21.7" r="0.1"/>
<circle fill="none" cx="0" cy="14.5" r="0.1"/>
<circle fill="none" cx="0" cy="7.3" r="0.1"/>
<circle fill="none" cx="50.5" cy="0" r="0.1"/>
</g></g><g><rect stroke="none" fill="#ffffff" width="0" height="0"/><path stroke="#000000" fill="none" d=""/><text font-size="18.7" xml:space="preserve" display="none" font-family="OpenSansCondensedLight" fill="black" text-anchor="middle"><tspan dy="0.3em" style="fill-opacity: 0; stroke-opacity: 0;">-</tspan></text></g><text font-size="18.7" xml:space="preserve" font-family="OpenSansCondensedLight" line-height="21" fill="black" text-anchor="middle" text-vertical-anchor="middle" transform="matrix(1,0,0,1,100,14.5)"><tspan dy="-4">SERVICE</tspan><tspan dy="21" x="0">APPLICATION <tspan text-decoration="underline">1802</tspan></tspan></text></g><g data-type="tp.Element" transform="translate(81.2,269.5)"><g><g>
<path d="M218,0H0v322h218V0L218,0z" fill="#FFFFFF" stroke="#000000"/>
<rect x="9.5" y="14.7" width="198.9" height="292.6" fill="none"/>
<circle fill="none" cx="109" cy="0" r="0.1"/>
<circle fill="none" cx="163" cy="0" r="0.1"/>
<circle fill="none" cx="218" cy="81.2" r="0.1"/>
<circle fill="none" cx="218" cy="161" r="0.1"/>
<circle fill="none" cx="218" cy="240.8" r="0.1"/>
<circle fill="none" cx="163" cy="322" r="0.1"/>
<circle fill="none" cx="109" cy="322" r="0.1"/>
<circle fill="none" cx="55" cy="322" r="0.1"/>
<circle fill="none" cx="0" cy="240.8" r="0.1"/>
<circle fill="none" cx="0" cy="161" r="0.1"/>
<circle fill="none" cx="0" cy="81.2" r="0.1"/>
<circle fill="none" cx="55" cy="0" r="0.1"/>
</g></g><g><rect stroke="none" fill="#ffffff" width="0" height="0"/><path stroke="#000000" fill="none" d=""/><text font-size="18.7" xml:space="preserve" display="none" font-family="OpenSansCondensedLight" fill="black" text-anchor="middle"><tspan dy="0.3em" style="fill-opacity: 0; stroke-opacity: 0;">-</tspan></text></g><text font-size="18.7" xml:space="preserve" font-family="OpenSansCondensedLight" line-height="21" fill="black" text-anchor="middle" text-vertical-anchor="top" transform="matrix(1,0,0,1,109,14.7)"><tspan dy="14.9">VIEW <tspan text-decoration="underline">1826</tspan></tspan></text></g><g data-type="tp.Element" transform="translate(299.5,269)"><g><g>
<path d="M286,0H0v322h286V0L286,0z" fill="#FFFFFF" stroke="#000000"/>
<rect x="12.5" y="14.7" width="261" height="292.6" fill="none"/>
<circle fill="none" cx="143" cy="0" r="0.1"/>
<circle fill="none" cx="213.9" cy="0" r="0.1"/>
<circle fill="none" cx="286" cy="81.2" r="0.1"/>
<circle fill="none" cx="286" cy="161" r="0.1"/>
<circle fill="none" cx="286" cy="240.8" r="0.1"/>
<circle fill="none" cx="213.9" cy="322" r="0.1"/>
<circle fill="none" cx="143" cy="322" r="0.1"/>
<circle fill="none" cx="72.2" cy="322" r="0.1"/>
<circle fill="none" cx="0" cy="240.8" r="0.1"/>
<circle fill="none" cx="0" cy="161" r="0.1"/>
<circle fill="none" cx="0" cy="81.2" r="0.1"/>
<circle fill="none" cx="72.2" cy="0" r="0.1"/>
</g></g><g><rect stroke="none" fill="#ffffff" width="0" height="0"/><path stroke="#000000" fill="none" d=""/><text font-size="18.7" xml:space="preserve" display="none" font-family="OpenSansCondensedLight" fill="black" text-anchor="middle"><tspan dy="0.3em" style="fill-opacity: 0; stroke-opacity: 0;">-</tspan></text></g><text font-size="18.7" xml:space="preserve" font-family="OpenSansCondensedLight" line-height="21" fill="black" text-anchor="middle" text-vertical-anchor="top" transform="matrix(1,0,0,1,143,14.7)"><tspan dy="14.9">MODEL <tspan text-decoration="underline">1812</tspan></tspan></text></g><g data-type="tp.Element" transform="translate(133,319)"><g><g>
<path d="M117,0H0v65h117V0L117,0z" fill="#FFFFFF" stroke="#000000"/>
<rect x="5.1" y="3" width="106.8" height="59.1" fill="none"/>
<circle fill="none" cx="58.5" cy="0" r="0.1"/>
<circle fill="none" cx="87.5" cy="0" r="0.1"/>
<circle fill="none" cx="117" cy="16.4" r="0.1"/>
<circle fill="none" cx="117" cy="32.5" r="0.1"/>
<circle fill="none" cx="117" cy="48.6" r="0.1"/>
<circle fill="none" cx="87.5" cy="65" r="0.1"/>
<circle fill="none" cx="58.5" cy="65" r="0.1"/>
<circle fill="none" cx="29.5" cy="65" r="0.1"/>
<circle fill="none" cx="0" cy="48.6" r="0.1"/>
<circle fill="none" cx="0" cy="32.5" r="0.1"/>
<circle fill="none" cx="0" cy="16.4" r="0.1"/>
<circle fill="none" cx="29.5" cy="0" r="0.1"/>
</g></g><g><rect stroke="none" fill="#ffffff" width="0" height="0"/><path stroke="#000000" fill="none" d=""/><text font-size="18.7" xml:space="preserve" display="none" font-family="OpenSansCondensedLight" fill="black" text-anchor="middle"><tspan dy="0.3em" style="fill-opacity: 0; stroke-opacity: 0;">-</tspan></text></g><text font-size="18.7" xml:space="preserve" font-family="OpenSansCondensedLight" line-height="21" fill="black" text-anchor="middle" text-vertical-anchor="middle" transform="matrix(1,0,0,1,58.5,32.5)"><tspan dy="-4">DATA-OUT</tspan><tspan dy="21" x="0"><tspan text-decoration="underline">1830</tspan></tspan></text></g><g data-type="tp.Element" transform="translate(132,404)"><g><g>
<path d="M117,0H0v65h117V0L117,0z" fill="#FFFFFF" stroke="#000000"/>
<rect x="5.1" y="3" width="106.8" height="59.1" fill="none"/>
<circle fill="none" cx="58.5" cy="0" r="0.1"/>
<circle fill="none" cx="87.5" cy="0" r="0.1"/>
<circle fill="none" cx="117" cy="16.4" r="0.1"/>
<circle fill="none" cx="117" cy="32.5" r="0.1"/>
<circle fill="none" cx="117" cy="48.6" r="0.1"/>
<circle fill="none" cx="87.5" cy="65" r="0.1"/>
<circle fill="none" cx="58.5" cy="65" r="0.1"/>
<circle fill="none" cx="29.5" cy="65" r="0.1"/>
<circle fill="none" cx="0" cy="48.6" r="0.1"/>
<circle fill="none" cx="0" cy="32.5" r="0.1"/>
<circle fill="none" cx="0" cy="16.4" r="0.1"/>
<circle fill="none" cx="29.5" cy="0" r="0.1"/>
</g></g><g><rect stroke="none" fill="#ffffff" width="0" height="0"/><path stroke="#000000" fill="none" d=""/><text font-size="18.7" xml:space="preserve" display="none" font-family="OpenSansCondensedLight" fill="black" text-anchor="middle"><tspan dy="0.3em" style="fill-opacity: 0; stroke-opacity: 0;">-</tspan></text></g><text font-size="18.7" xml:space="preserve" font-family="OpenSansCondensedLight" line-height="21" fill="black" text-anchor="middle" text-vertical-anchor="middle" transform="matrix(1,0,0,1,58.5,32.5)"><tspan dy="-14.5">RESPONSE</tspan><tspan dy="21" x="0">HANDLER</tspan><tspan dy="21" x="0"><tspan text-decoration="underline">1828</tspan></tspan></text></g><g data-type="tp.Element" transform="translate(102,500)"><g><g>
<path d="M117,0H0v65h117V0L117,0z" fill="#FFFFFF" stroke="#000000"/>
<rect x="5.1" y="3" width="106.8" height="59.1" fill="none"/>
<circle fill="none" cx="58.5" cy="0" r="0.1"/>
<circle fill="none" cx="87.5" cy="0" r="0.1"/>
<circle fill="none" cx="117" cy="16.4" r="0.1"/>
<circle fill="none" cx="117" cy="32.5" r="0.1"/>
<circle fill="none" cx="117" cy="48.6" r="0.1"/>
<circle fill="none" cx="87.5" cy="65" r="0.1"/>
<circle fill="none" cx="58.5" cy="65" r="0.1"/>
<circle fill="none" cx="29.5" cy="65" r="0.1"/>
<circle fill="none" cx="0" cy="48.6" r="0.1"/>
<circle fill="none" cx="0" cy="32.5" r="0.1"/>
<circle fill="none" cx="0" cy="16.4" r="0.1"/>
<circle fill="none" cx="29.5" cy="0" r="0.1"/>
</g></g><g><rect stroke="none" fill="#ffffff" width="0" height="0"/><path stroke="#000000" fill="none" d=""/><text font-size="18.7" xml:space="preserve" display="none" font-family="OpenSansCondensedLight" fill="black" text-anchor="middle"><tspan dy="0.3em" style="fill-opacity: 0; stroke-opacity: 0;">-</tspan></text></g><text font-size="18.7" xml:space="preserve" font-family="OpenSansCondensedLight" line-height="21" fill="black" text-anchor="middle" text-vertical-anchor="middle" transform="matrix(1,0,0,1,58.5,32.5)"><tspan dy="-14.5">TEMPLATE</tspan><tspan dy="21" x="0">ENGINE</tspan><tspan dy="21" x="0"><tspan text-decoration="underline">1820</tspan></tspan></text></g><g data-type="tp.Element" transform="translate(380,400)"><g><g>
<path d="M131.2,0H0v72.9h131.2V0L131.2,0z" fill="#FFFFFF" stroke="#000000"/>
<rect x="5.7" y="3.3" width="119.7" height="66.2" fill="none"/>
<circle fill="none" cx="65.6" cy="0" r="0.1"/>
<circle fill="none" cx="98.1" cy="0" r="0.1"/>
<circle fill="none" cx="131.2" cy="18.4" r="0.1"/>
<circle fill="none" cx="131.2" cy="36.4" r="0.1"/>
<circle fill="none" cx="131.2" cy="54.5" r="0.1"/>
<circle fill="none" cx="98.1" cy="72.9" r="0.1"/>
<circle fill="none" cx="65.6" cy="72.9" r="0.1"/>
<circle fill="none" cx="33.1" cy="72.9" r="0.1"/>
<circle fill="none" cx="0" cy="54.5" r="0.1"/>
<circle fill="none" cx="0" cy="36.4" r="0.1"/>
<circle fill="none" cx="0" cy="18.4" r="0.1"/>
<circle fill="none" cx="33.1" cy="0" r="0.1"/>
</g></g><g><rect stroke="none" fill="#ffffff" width="0" height="0"/><path stroke="#000000" fill="none" d=""/><text font-size="18.7" xml:space="preserve" display="none" font-family="OpenSansCondensedLight" fill="black" text-anchor="middle"><tspan dy="0.3em" style="fill-opacity: 0; stroke-opacity: 0;">-</tspan></text></g><text font-size="18.7" xml:space="preserve" font-family="OpenSansCondensedLight" line-height="21" fill="black" text-anchor="middle" text-vertical-anchor="middle" transform="matrix(1,0,0,1,65.6,36.4)"><tspan dy="-14.5">REQUEST</tspan><tspan dy="21" x="0">HANDLER</tspan><tspan dy="21" x="0"><tspan text-decoration="underline">1814</tspan></tspan></text></g><g data-type="tp.Element" transform="translate(380,494)"><g><g>
<path d="M131.2,0H0v72.9h131.2V0L131.2,0z" fill="#FFFFFF" stroke="#000000"/>
<rect x="5.7" y="3.3" width="119.7" height="66.2" fill="none"/>
<circle fill="none" cx="65.6" cy="0" r="0.1"/>
<circle fill="none" cx="98.1" cy="0" r="0.1"/>
<circle fill="none" cx="131.2" cy="18.4" r="0.1"/>
<circle fill="none" cx="131.2" cy="36.4" r="0.1"/>
<circle fill="none" cx="131.2" cy="54.5" r="0.1"/>
<circle fill="none" cx="98.1" cy="72.9" r="0.1"/>
<circle fill="none" cx="65.6" cy="72.9" r="0.1"/>
<circle fill="none" cx="33.1" cy="72.9" r="0.1"/>
<circle fill="none" cx="0" cy="54.5" r="0.1"/>
<circle fill="none" cx="0" cy="36.4" r="0.1"/>
<circle fill="none" cx="0" cy="18.4" r="0.1"/>
<circle fill="none" cx="33.1" cy="0" r="0.1"/>
</g></g><g><rect stroke="none" fill="#ffffff" width="0" height="0"/><path stroke="#000000" fill="none" d=""/><text font-size="18.7" xml:space="preserve" display="none" font-family="OpenSansCondensedLight" fill="black" text-anchor="middle"><tspan dy="0.3em" style="fill-opacity: 0; stroke-opacity: 0;">-</tspan></text></g><text font-size="18.7" xml:space="preserve" font-family="OpenSansCondensedLight" line-height="21" fill="black" text-anchor="middle" text-vertical-anchor="middle" transform="matrix(1,0,0,1,65.6,36.4)"><tspan dy="-25">DATA</tspan><tspan dy="21" x="0">ACCESS</tspan><tspan dy="21" x="0">MANAGER</tspan><tspan dy="21" x="0"><tspan text-decoration="underline">1818</tspan></tspan></text></g><g data-type="tp.Link"><path fill="none" pointer-events="none" joint-selector="line" stroke-width="1" stroke="#333333" stroke-linejoin="round" marker-start="url(#v-61662000855011)" marker-end="url(#v-61661454029882)" d="M 328.9 232.1 L 329 256 L 195 255 L 194.7 269.5"/><g><g label-idx="0" cursor="default" transform="translate(266.7, 255.5)"><rect joint-selector="rect" fill="#ffffff" rx="3" ry="3" width="8" height="0" transform="matrix(1,0,0,1,-4,0)"/><text joint-selector="text" font-size="18.7" xml:space="preserve" display="none" y="0.8em" fill="#000000" text-anchor="middle" pointer-events="none" font-family="OpenSansCondensedLight"><tspan dy="0" style="fill-opacity: 0; stroke-opacity: 0;">-</tspan></text></g></g></g><g data-type="tp.Link"><path fill="none" pointer-events="none" joint-selector="line" stroke-width="1" stroke="#333333" stroke-linejoin="round" marker-start="url(#v-61662000855011)" marker-end="url(#v-61661454029882)" d="M 328.9 232.1 L 328 255 L 455 255 L 454.1 269"/><g><g label-idx="0" cursor="default" transform="translate(387.1, 255)"><rect joint-selector="rect" fill="#ffffff" rx="3" ry="3" width="8" height="0" transform="matrix(1,0,0,1,-4,0)"/><text joint-selector="text" font-size="18.7" xml:space="preserve" display="none" y="0.8em" fill="#000000" text-anchor="middle" pointer-events="none" font-family="OpenSansCondensedLight"><tspan dy="0" style="fill-opacity: 0; stroke-opacity: 0;">-</tspan></text></g></g></g><g data-type="tp.Link"><path fill="none" pointer-events="none" joint-selector="line" stroke-width="1" stroke="#333333" stroke-linejoin="round" marker-start="url(#v-61662000855011)" marker-end="url(#v-61661454029882)" d="M 190.3 384.1 L 190.5 404"/><g><g label-idx="0" cursor="default" transform="translate(190.4, 394.1)"><rect joint-selector="rect" fill="#ffffff" rx="3" ry="3" width="8" height="0" transform="matrix(1,0,0,1,-4,0)"/><text joint-selector="text" font-size="18.7" xml:space="preserve" display="none" y="0.8em" fill="#000000" text-anchor="middle" pointer-events="none" font-family="OpenSansCondensedLight"><tspan dy="0" style="fill-opacity: 0; stroke-opacity: 0;">-</tspan></text></g></g></g><g data-type="tp.Link"><path fill="none" pointer-events="none" joint-selector="line" stroke-width="1" stroke="#333333" stroke-linejoin="round" marker-start="url(#v-61662000855011)" marker-end="url(#v-61661454029882)" d="M 249.1 436.5 L 380 436.4"/><g><g label-idx="0" cursor="default" transform="translate(314.6, 436.5)"><rect joint-selector="rect" fill="#ffffff" rx="3" ry="3" width="8" height="0" transform="matrix(1,0,0,1,-4,0)"/><text joint-selector="text" font-size="18.7" xml:space="preserve" display="none" y="0.8em" fill="#000000" text-anchor="middle" pointer-events="none" font-family="OpenSansCondensedLight"><tspan dy="0" style="fill-opacity: 0; stroke-opacity: 0;">-</tspan></text></g></g></g><g data-type="tp.Link"><path fill="none" pointer-events="none" joint-selector="line" stroke-width="1" stroke="#333333" stroke-linejoin="round" marker-start="url(#v-61662000855011)" marker-end="url(#v-61661454029882)" d="M 155.8 565.1 L 156 645 L 156 720.5"/><g><g label-idx="0" cursor="default" transform="translate(156, 642.8)"><rect joint-selector="rect" fill="#ffffff" rx="3" ry="3" width="8" height="0" transform="matrix(1,0,0,1,-4,0)"/><text joint-selector="text" font-size="18.7" xml:space="preserve" display="none" y="0.8em" fill="#000000" text-anchor="middle" pointer-events="none" font-family="OpenSansCondensedLight"><tspan dy="0" style="fill-opacity: 0; stroke-opacity: 0;">-</tspan></text></g></g></g><g data-type="tp.Link"><path fill="none" pointer-events="none" joint-selector="line" stroke-width="1" stroke="#333333" stroke-linejoin="round" marker-start="url(#v-61662000855011)" marker-end="url(#v-61661454029882)" d="M 379.9 534.1 L 351.2 534 L 351.2 691"/><g><g label-idx="0" cursor="default" transform="translate(351.2, 598.1)"><rect joint-selector="rect" fill="#ffffff" rx="3" ry="3" width="8" height="0" transform="matrix(1,0,0,1,-4,0)"/><text joint-selector="text" font-size="18.7" xml:space="preserve" display="none" y="0.8em" fill="#000000" text-anchor="middle" pointer-events="none" font-family="OpenSansCondensedLight"><tspan dy="0" style="fill-opacity: 0; stroke-opacity: 0;">-</tspan></text></g></g></g></g></svg>