<svg xmlns="http://www.w3.org/2000/svg" xmlns:xlink="http://www.w3.org/1999/xlink" version="1.1" width="453" height="690" viewBox="69.5 111.5 453 690"><defs/><g><g data-type="tp.Element" transform="translate(69.5,540)"><g><g><rect width="121" height="150" fill="none"/><svg xmlns="http://www.w3.org/2000/svg" data-name="Layer 1" viewBox="0 0 92.7 114.7" width="121" height="150" preserveAspectRatio="none"><title>arrow1to1</title><polygon points="91.7 54.4 46.4 113.9 1 54.4 29.4 54.4 29.4 0.5 63.4 0.5 63.4 54.4 91.7 54.4" fill="#fff" stroke="#231f20" stroke-miterlimit="10"/></svg></g></g><g><rect stroke="none" fill="#ffffff" width="0" height="0"/><path stroke="#000000" fill="none" d=""/><text font-size="18.7" xml:space="preserve" display="none" font-family="OpenSansCondensedLight" fill="black" text-anchor="middle"><tspan dy="0.3em" style="fill-opacity: 0; stroke-opacity: 0;">-</tspan></text></g><text font-size="18.7" xml:space="preserve" font-family="OpenSansCondensedLight" line-height="21" fill="black" text-anchor="middle" text-vertical-anchor="top" transform="matrix(1,0,0,1,60.5,160)" display="none"><tspan dy="0.8em" style="fill-opacity: 0; stroke-opacity: 0;">-</tspan></text></g><g data-type="tp.Element" transform="translate(332,530)"><g transform="rotate(180,60.5,75)"><g><rect width="121" height="150" fill="none"/><svg xmlns="http://www.w3.org/2000/svg" data-name="Layer 1" viewBox="0 0 92.7 114.7" width="121" height="150" preserveAspectRatio="none"><title>arrow1to1</title><polygon points="91.7 54.4 46.4 113.9 1 54.4 29.4 54.4 29.4 0.5 63.4 0.5 63.4 54.4 91.7 54.4" fill="#fff" stroke="#231f20" stroke-miterlimit="10"/></svg></g></g><g><rect stroke="none" fill="#ffffff" width="0" height="0"/><path stroke="#000000" fill="none" d=""/><text font-size="18.7" xml:space="preserve" display="none" font-family="OpenSansCondensedLight" fill="black" text-anchor="middle"><tspan dy="0.3em" style="fill-opacity: 0; stroke-opacity: 0;">-</tspan></text></g><text font-size="18.7" xml:space="preserve" font-family="OpenSansCondensedLight" line-height="21" fill="black" text-anchor="middle" text-vertical-anchor="top" transform="matrix(1,0,0,1,60.5,160)" display="none"><tspan dy="0.8em" style="fill-opacity: 0; stroke-opacity: 0;">-</tspan></text></g><g data-type="tp.Element" transform="translate(334,282)"><g><g><rect width="117" height="150" fill="none"/><svg xmlns="http://www.w3.org/2000/svg" data-name="Layer 1" viewBox="0 0 121.4 155.3" width="117" height="150" preserveAspectRatio="none"><title>emitting</title><circle cx="110.4" cy="77.4" r="11" fill="#231f20"/><path d="M27.3,146.1A110.2,110.2,0,0,1,27,1.3" transform="translate(8 3.9)" fill="none" stroke="#231f20" stroke-miterlimit="10" stroke-width="16"/><path d="M52.1,124.3A77.1,77.1,0,0,1,52,22.9" transform="translate(8 3.9)" fill="none" stroke="#231f20" stroke-miterlimit="10" stroke-width="16"/><path d="M77,102.6a44.1,44.1,0,0,1,.06-58.1" transform="translate(8 3.9)" fill="none" stroke="#231f20" stroke-miterlimit="10" stroke-width="16"/></svg></g></g><g><rect stroke="none" fill="#ffffff" width="0" height="0"/><path stroke="#000000" fill="none" d=""/><text font-size="18.7" xml:space="preserve" display="none" font-family="OpenSansCondensedLight" fill="black" text-anchor="middle"><tspan dy="0.3em" style="fill-opacity: 0; stroke-opacity: 0;">-</tspan></text></g><text font-size="18.7" xml:space="preserve" font-family="OpenSansCondensedLight" line-height="21" fill="black" text-anchor="middle" text-vertical-anchor="top" transform="matrix(1,0,0,1,58.5,160)" display="none"><tspan dy="0.8em" style="fill-opacity: 0; stroke-opacity: 0;">-</tspan></text></g><g data-type="tp.Element" transform="translate(315,95)"><g transform="rotate(270,58.5,75)"><g><rect width="117" height="150" fill="none"/><svg xmlns="http://www.w3.org/2000/svg" data-name="Layer 1" viewBox="0 0 121.4 155.3" width="117" height="150" preserveAspectRatio="none"><title>emitting</title><circle cx="110.4" cy="77.4" r="11" fill="#231f20"/><path d="M27.3,146.1A110.2,110.2,0,0,1,27,1.3" transform="translate(8 3.9)" fill="none" stroke="#231f20" stroke-miterlimit="10" stroke-width="16"/><path d="M52.1,124.3A77.1,77.1,0,0,1,52,22.9" transform="translate(8 3.9)" fill="none" stroke="#231f20" stroke-miterlimit="10" stroke-width="16"/><path d="M77,102.6a44.1,44.1,0,0,1,.06-58.1" transform="translate(8 3.9)" fill="none" stroke="#231f20" stroke-miterlimit="10" stroke-width="16"/></svg></g></g><g><rect stroke="none" fill="#ffffff" width="0" height="0"/><path stroke="#000000" fill="none" d=""/><text font-size="18.7" xml:space="preserve" display="none" font-family="OpenSansCondensedLight" fill="black" text-anchor="middle"><tspan dy="0.3em" style="fill-opacity: 0; stroke-opacity: 0;">-</tspan></text></g><text font-size="18.7" xml:space="preserve" font-family="OpenSansCondensedLight" line-height="21" fill="black" text-anchor="middle" text-vertical-anchor="top" transform="matrix(1,0,0,1,58.5,143.5)" display="none"><tspan dy="0.8em" style="fill-opacity: 0; stroke-opacity: 0;">-</tspan></text></g><g data-type="tp.Element" transform="translate(85,111.5)"><g transform="rotate(180,58.5,75)"><g><rect width="117" height="150" fill="none"/><svg xmlns="http://www.w3.org/2000/svg" data-name="Layer 1" viewBox="0 0 121.4 155.3" width="117" height="150" preserveAspectRatio="none"><title>emitting</title><circle cx="110.4" cy="77.4" r="11" fill="#231f20"/><path d="M27.3,146.1A110.2,110.2,0,0,1,27,1.3" transform="translate(8 3.9)" fill="none" stroke="#231f20" stroke-miterlimit="10" stroke-width="16"/><path d="M52.1,124.3A77.1,77.1,0,0,1,52,22.9" transform="translate(8 3.9)" fill="none" stroke="#231f20" stroke-miterlimit="10" stroke-width="16"/><path d="M77,102.6a44.1,44.1,0,0,1,.06-58.1" transform="translate(8 3.9)" fill="none" stroke="#231f20" stroke-miterlimit="10" stroke-width="16"/></svg></g></g><g><rect stroke="none" fill="#ffffff" width="0" height="0"/><path stroke="#000000" fill="none" d=""/><text font-size="18.7" xml:space="preserve" display="none" font-family="OpenSansCondensedLight" fill="black" text-anchor="middle"><tspan dy="0.3em" style="fill-opacity: 0; stroke-opacity: 0;">-</tspan></text></g><text font-size="18.7" xml:space="preserve" font-family="OpenSansCondensedLight" line-height="21" fill="black" text-anchor="middle" text-vertical-anchor="top" transform="matrix(1,0,0,1,58.5,160)" display="none"><tspan dy="0.8em" style="fill-opacity: 0; stroke-opacity: 0;">-</tspan></text></g><g data-type="tp.Element" transform="translate(101.5,298.5)"><g transform="rotate(90,58.5,75)"><g><rect width="117" height="150" fill="none"/><svg xmlns="http://www.w3.org/2000/svg" data-name="Layer 1" viewBox="0 0 121.4 155.3" width="117" height="150" preserveAspectRatio="none"><title>emitting</title><circle cx="110.4" cy="77.4" r="11" fill="#231f20"/><path d="M27.3,146.1A110.2,110.2,0,0,1,27,1.3" transform="translate(8 3.9)" fill="none" stroke="#231f20" stroke-miterlimit="10" stroke-width="16"/><path d="M52.1,124.3A77.1,77.1,0,0,1,52,22.9" transform="translate(8 3.9)" fill="none" stroke="#231f20" stroke-miterlimit="10" stroke-width="16"/><path d="M77,102.6a44.1,44.1,0,0,1,.06-58.1" transform="translate(8 3.9)" fill="none" stroke="#231f20" stroke-miterlimit="10" stroke-width="16"/></svg></g></g><g><rect stroke="none" fill="#ffffff" width="0" height="0"/><path stroke="#000000" fill="none" d=""/><text font-size="18.7" xml:space="preserve" display="none" font-family="OpenSansCondensedLight" fill="black" text-anchor="middle"><tspan dy="0.3em" style="fill-opacity: 0; stroke-opacity: 0;">-</tspan></text></g><text font-size="18.7" xml:space="preserve" font-family="OpenSansCondensedLight" line-height="21" fill="black" text-anchor="middle" text-vertical-anchor="top" transform="matrix(1,0,0,1,58.5,143.5)" display="none"><tspan dy="0.8em" style="fill-opacity: 0; stroke-opacity: 0;">-</tspan></text></g></g></svg>