<svg xmlns="http://www.w3.org/2000/svg" xmlns:xlink="http://www.w3.org/1999/xlink" version="1.1" width="637.1" height="521.6" viewBox="0 31.9 637.1 521.6"><defs><marker orient="auto" overflow="visible" markerUnits="userSpaceOnUse"><path stroke="#333333" fill="#333333" d="M 8 -4 0 0 8 4 z"/></marker><marker orient="auto" overflow="visible" markerUnits="userSpaceOnUse"><path stroke="#333333" fill="#333333" transform="rotate(180)" d="M 8 -4 0 0 8 4 z"/></marker><marker orient="auto" overflow="visible" markerUnits="userSpaceOnUse"><path stroke="#333333" fill="#333333" d="M 0 0 0 0"/></marker><marker orient="auto" overflow="visible" markerUnits="userSpaceOnUse"><path stroke="#333333" fill="#333333" transform="rotate(180)" d="M 0 0 0 0"/></marker></defs><g><g data-type="tp.Element" transform="translate(121,233)"><g><g>
<path d="M516,0H0v161h516V0L516,0z" fill="#FFFFFF" stroke="#000000"/>
<rect x="22.6" y="7.3" width="470.9" height="146.3" fill="none"/>
<circle fill="none" cx="258" cy="0" r="0.1"/>
<circle fill="none" cx="385.9" cy="0" r="0.1"/>
<circle fill="none" cx="516" cy="40.6" r="0.1"/>
<circle fill="none" cx="516" cy="80.5" r="0.1"/>
<circle fill="none" cx="516" cy="120.4" r="0.1"/>
<circle fill="none" cx="385.9" cy="161" r="0.1"/>
<circle fill="none" cx="258" cy="161" r="0.1"/>
<circle fill="none" cx="130.2" cy="161" r="0.1"/>
<circle fill="none" cx="0" cy="120.4" r="0.1"/>
<circle fill="none" cx="0" cy="80.5" r="0.1"/>
<circle fill="none" cx="0" cy="40.6" r="0.1"/>
<circle fill="none" cx="130.2" cy="0" r="0.1"/>
</g></g><g><rect stroke="none" fill="#ffffff" width="40" height="20" x="61.2" y="-58.2"/><path stroke="#000000" fill="none" d="M109,-0.1 C116.1,-25.8 79.9,-12.5 87 -38.2"/><text font-size="18.7" xml:space="preserve" font-family="OpenSansCondensedLight" fill="black" text-anchor="middle" x="81.2" y="-48.2"><tspan dy="0.3em">220</tspan></text></g><text font-size="18.7" xml:space="preserve" font-family="OpenSansCondensedLight" line-height="21" fill="black" text-anchor="middle" text-vertical-anchor="middle" transform="matrix(1,0,0,1,258,80.5)" display="none"><tspan dy="0.3em" style="fill-opacity: 0; stroke-opacity: 0;">-</tspan></text></g><g data-type="tp.Element" transform="translate(180,32)"><g><g>
<g fill="#FFFFFF" stroke="#000000">
    <path d="M225.9,0H5.2C2.3,0,0,1.9,0,4.3V111.1c0,2.4,2.3,4.3,5.2,4.3h88.7L87.9,134.6l-20.5,0.7v4.7h97.4v-4.7l-17.9,-0.9l-6.1,-19.2h84.7c2.9,0,5.2,-1.9,5.2,-4.3V4.3C231.1,1.9,228.8,0,225.9,0z"/>
    <path d="M223.9,7.3v99.8H7.2V7.3H223.9z"/>
</g>
<rect x="7.2" y="7.3" fill="none" width="216.7" height="99.8"/>
<circle fill="none" cx="115.5" cy="0" r="0.1"/>
<circle fill="none" cx="185.3" cy="0" r="0.1"/>
<circle fill="none" cx="230.8" cy="26.7" r="0.1"/>
<circle fill="none" cx="230.8" cy="57.2" r="0.1"/>
<circle fill="none" cx="230.8" cy="92.2" r="0.1"/>
<circle fill="none" cx="185.6" cy="115.2" r="0.1"/>
<circle fill="none" cx="115.7" cy="140" r="0.1"/>
<circle fill="none" cx="46.1" cy="115.4" r="0.1"/>
<circle fill="none" cx="0" cy="92.4" r="0.1"/>
<circle fill="none" cx="-0.2" cy="57.1" r="0.1"/>
<circle fill="none" cx="-0.2" cy="25.9" r="0.1"/>
<circle fill="none" cx="45.9" cy="0.1" r="0.1"/>
</g></g><g><rect stroke="none" fill="#ffffff" width="0" height="0"/><path stroke="#000000" fill="none" d=""/><text font-size="18.7" xml:space="preserve" display="none" font-family="OpenSansCondensedLight" fill="black" text-anchor="middle"><tspan dy="0.3em" style="fill-opacity: 0; stroke-opacity: 0;">-</tspan></text></g><text font-size="18.7" xml:space="preserve" font-family="OpenSansCondensedLight" line-height="21" fill="black" text-anchor="middle" text-vertical-anchor="middle" transform="matrix(1,0,0,1,115.5,57.2)" display="none"><tspan dy="0.3em" style="fill-opacity: 0; stroke-opacity: 0;">-</tspan></text></g><g data-type="tp.Element" transform="translate(231.6,44)"><g><g>
<path d="M134,0H0v91h134V0L134,0z" fill="#FFFFFF"/>
<rect x="5.9" y="4.1" width="122.3" height="82.7" fill="none"/>
<circle fill="none" cx="67" cy="0" r="0.1"/>
<circle fill="none" cx="100.2" cy="0" r="0.1"/>
<circle fill="none" cx="134" cy="22.9" r="0.1"/>
<circle fill="none" cx="134" cy="45.5" r="0.1"/>
<circle fill="none" cx="134" cy="68.1" r="0.1"/>
<circle fill="none" cx="100.2" cy="91" r="0.1"/>
<circle fill="none" cx="67" cy="91" r="0.1"/>
<circle fill="none" cx="33.8" cy="91" r="0.1"/>
<circle fill="none" cx="0" cy="68.1" r="0.1"/>
<circle fill="none" cx="0" cy="45.5" r="0.1"/>
<circle fill="none" cx="0" cy="22.9" r="0.1"/>
<circle fill="none" cx="33.8" cy="0" r="0.1"/>
</g></g><g><rect stroke="none" fill="#ffffff" width="0" height="0"/><path stroke="#000000" fill="none" d=""/><text font-size="18.7" xml:space="preserve" display="none" font-family="OpenSansCondensedLight" fill="black" text-anchor="middle"><tspan dy="0.3em" style="fill-opacity: 0; stroke-opacity: 0;">-</tspan></text></g><text font-size="18.7" xml:space="preserve" font-family="OpenSansCondensedLight" line-height="21" fill="black" text-anchor="middle" text-vertical-anchor="middle" transform="matrix(1,0,0,1,67,45.5)"><tspan dy="-35.5">MONITOR OR</tspan><tspan dy="21" x="0">GRAPHICAL</tspan><tspan dy="21" x="0">USER</tspan><tspan dy="21" x="0">INTERFACE</tspan><tspan dy="21" x="0"><tspan text-decoration="underline">202</tspan></tspan></text></g><g data-type="tp.Element" transform="translate(170,266)"><g><g>
<path d="M104.1,0H0v55h104.1V0L104.1,0z" fill="#FFFFFF" stroke="#000000"/>
<rect x="4.6" y="2.5" width="95" height="50" fill="none"/>
<circle fill="none" cx="52" cy="0" r="0.1"/>
<circle fill="none" cx="77.8" cy="0" r="0.1"/>
<circle fill="none" cx="104.1" cy="13.9" r="0.1"/>
<circle fill="none" cx="104.1" cy="27.5" r="0.1"/>
<circle fill="none" cx="104.1" cy="41.2" r="0.1"/>
<circle fill="none" cx="77.8" cy="55" r="0.1"/>
<circle fill="none" cx="52" cy="55" r="0.1"/>
<circle fill="none" cx="26.2" cy="55" r="0.1"/>
<circle fill="none" cx="0" cy="41.2" r="0.1"/>
<circle fill="none" cx="0" cy="27.5" r="0.1"/>
<circle fill="none" cx="0" cy="13.9" r="0.1"/>
<circle fill="none" cx="26.2" cy="0" r="0.1"/>
</g></g><g><rect stroke="none" fill="#ffffff" width="0" height="0"/><path stroke="#000000" fill="none" d=""/><text font-size="18.7" xml:space="preserve" display="none" font-family="OpenSansCondensedLight" fill="black" text-anchor="middle"><tspan dy="0.3em" style="fill-opacity: 0; stroke-opacity: 0;">-</tspan></text></g><text font-size="18.7" xml:space="preserve" font-family="OpenSansCondensedLight" line-height="21" fill="black" text-anchor="middle" text-vertical-anchor="middle" transform="matrix(1,0,0,1,52,27.5)"><tspan dy="-4">PROCESSOR(S)</tspan><tspan dy="21" x="0"><tspan text-decoration="underline">204</tspan></tspan></text></g><g data-type="tp.Element" transform="translate(494,433)"><g><g>
<path d="M104,0H0v74h104V0L104,0z" fill="#FFFFFF" stroke="#000000"/>
<rect x="4.5" y="3.4" width="94.9" height="67.3" fill="none"/>
<circle fill="none" cx="52" cy="0" r="0.1"/>
<circle fill="none" cx="77.8" cy="0" r="0.1"/>
<circle fill="none" cx="104" cy="18.7" r="0.1"/>
<circle fill="none" cx="104" cy="37" r="0.1"/>
<circle fill="none" cx="104" cy="55.3" r="0.1"/>
<circle fill="none" cx="77.8" cy="74" r="0.1"/>
<circle fill="none" cx="52" cy="74" r="0.1"/>
<circle fill="none" cx="26.2" cy="74" r="0.1"/>
<circle fill="none" cx="0" cy="55.3" r="0.1"/>
<circle fill="none" cx="0" cy="37" r="0.1"/>
<circle fill="none" cx="0" cy="18.7" r="0.1"/>
<circle fill="none" cx="26.2" cy="0" r="0.1"/>
</g></g><g><rect stroke="none" fill="#ffffff" width="0" height="0"/><path stroke="#000000" fill="none" d=""/><text font-size="18.7" xml:space="preserve" display="none" font-family="OpenSansCondensedLight" fill="black" text-anchor="middle"><tspan dy="0.3em" style="fill-opacity: 0; stroke-opacity: 0;">-</tspan></text></g><text font-size="18.7" xml:space="preserve" font-family="OpenSansCondensedLight" line-height="21" fill="black" text-anchor="middle" text-vertical-anchor="middle" transform="matrix(1,0,0,1,52,37)"><tspan dy="-14.5">OUTPUT</tspan><tspan dy="21" x="0">DEVICE(S)</tspan><tspan dy="21" x="0"><tspan text-decoration="underline">206</tspan></tspan></text></g><g data-type="tp.Element" transform="translate(328.3,431.3)"><g><g>
<path d="M104,0H0v73h104V0L104,0z" fill="#FFFFFF" stroke="#000000"/>
<rect x="4.5" y="3.3" width="94.9" height="66.3" fill="none"/>
<circle fill="none" cx="52" cy="0" r="0.1"/>
<circle fill="none" cx="77.8" cy="0" r="0.1"/>
<circle fill="none" cx="104" cy="18.4" r="0.1"/>
<circle fill="none" cx="104" cy="36.5" r="0.1"/>
<circle fill="none" cx="104" cy="54.6" r="0.1"/>
<circle fill="none" cx="77.8" cy="73" r="0.1"/>
<circle fill="none" cx="52" cy="73" r="0.1"/>
<circle fill="none" cx="26.2" cy="73" r="0.1"/>
<circle fill="none" cx="0" cy="54.6" r="0.1"/>
<circle fill="none" cx="0" cy="36.5" r="0.1"/>
<circle fill="none" cx="0" cy="18.4" r="0.1"/>
<circle fill="none" cx="26.2" cy="0" r="0.1"/>
</g></g><g><rect stroke="none" fill="#ffffff" width="0" height="0"/><path stroke="#000000" fill="none" d=""/><text font-size="18.7" xml:space="preserve" display="none" font-family="OpenSansCondensedLight" fill="black" text-anchor="middle"><tspan dy="0.3em" style="fill-opacity: 0; stroke-opacity: 0;">-</tspan></text></g><text font-size="18.7" xml:space="preserve" font-family="OpenSansCondensedLight" line-height="21" fill="black" text-anchor="middle" text-vertical-anchor="middle" transform="matrix(1,0,0,1,52,36.5)"><tspan dy="-14.5">INPUT</tspan><tspan dy="21" x="0">DEVICE(S)</tspan><tspan dy="21" x="0"><tspan text-decoration="underline">208</tspan></tspan></text></g><g data-type="tp.Element" transform="translate(312,265)"><g><g>
<path d="M120.7,0H0v73.1h120.7V0L120.7,0z" fill="#FFFFFF" stroke="#000000"/>
<rect x="5.3" y="3.3" width="110.1" height="66.4" fill="none"/>
<circle fill="none" cx="60.3" cy="0" r="0.1"/>
<circle fill="none" cx="90.2" cy="0" r="0.1"/>
<circle fill="none" cx="120.7" cy="18.4" r="0.1"/>
<circle fill="none" cx="120.7" cy="36.5" r="0.1"/>
<circle fill="none" cx="120.7" cy="54.7" r="0.1"/>
<circle fill="none" cx="90.2" cy="73.1" r="0.1"/>
<circle fill="none" cx="60.3" cy="73.1" r="0.1"/>
<circle fill="none" cx="30.4" cy="73.1" r="0.1"/>
<circle fill="none" cx="0" cy="54.7" r="0.1"/>
<circle fill="none" cx="0" cy="36.5" r="0.1"/>
<circle fill="none" cx="0" cy="18.4" r="0.1"/>
<circle fill="none" cx="30.4" cy="0" r="0.1"/>
</g></g><g><rect stroke="none" fill="#ffffff" width="0" height="0"/><path stroke="#000000" fill="none" d=""/><text font-size="18.7" xml:space="preserve" display="none" font-family="OpenSansCondensedLight" fill="black" text-anchor="middle"><tspan dy="0.3em" style="fill-opacity: 0; stroke-opacity: 0;">-</tspan></text></g><text font-size="18.7" xml:space="preserve" font-family="OpenSansCondensedLight" line-height="21" fill="black" text-anchor="middle" text-vertical-anchor="middle" transform="matrix(1,0,0,1,60.3,36.5)"><tspan dy="-14.5">VOLATILE</tspan><tspan dy="21" x="0">MEMORY</tspan><tspan dy="21" x="0"><tspan text-decoration="underline">210</tspan></tspan></text></g><g data-type="tp.Element" transform="translate(170,432)"><g><g>
<path d="M104,0H0v76h104V0L104,0z" fill="#FFFFFF" stroke="#000000"/>
<rect x="4.5" y="3.5" width="94.9" height="69.1" fill="none"/>
<circle fill="none" cx="52" cy="0" r="0.1"/>
<circle fill="none" cx="77.8" cy="0" r="0.1"/>
<circle fill="none" cx="104" cy="19.2" r="0.1"/>
<circle fill="none" cx="104" cy="38" r="0.1"/>
<circle fill="none" cx="104" cy="56.8" r="0.1"/>
<circle fill="none" cx="77.8" cy="76" r="0.1"/>
<circle fill="none" cx="52" cy="76" r="0.1"/>
<circle fill="none" cx="26.2" cy="76" r="0.1"/>
<circle fill="none" cx="0" cy="56.8" r="0.1"/>
<circle fill="none" cx="0" cy="38" r="0.1"/>
<circle fill="none" cx="0" cy="19.2" r="0.1"/>
<circle fill="none" cx="26.2" cy="0" r="0.1"/>
</g></g><g><rect stroke="none" fill="#ffffff" width="0" height="0"/><path stroke="#000000" fill="none" d=""/><text font-size="18.7" xml:space="preserve" display="none" font-family="OpenSansCondensedLight" fill="black" text-anchor="middle"><tspan dy="0.3em" style="fill-opacity: 0; stroke-opacity: 0;">-</tspan></text></g><text font-size="18.7" xml:space="preserve" font-family="OpenSansCondensedLight" line-height="21" fill="black" text-anchor="middle" text-vertical-anchor="middle" transform="matrix(1,0,0,1,52,38)"><tspan dy="-14.5">COMM</tspan><tspan dy="21" x="0">INTERFACE</tspan><tspan dy="21" x="0"><tspan text-decoration="underline">212</tspan></tspan></text></g><g data-type="tp.Element" transform="translate(456,265)"><g><g>
<path d="M104,0H0v70h104V0L104,0z" fill="#FFFFFF" stroke="#000000"/>
<rect x="4.5" y="3.2" width="94.9" height="63.6" fill="none"/>
<circle fill="none" cx="52" cy="0" r="0.1"/>
<circle fill="none" cx="77.8" cy="0" r="0.1"/>
<circle fill="none" cx="104" cy="17.7" r="0.1"/>
<circle fill="none" cx="104" cy="35" r="0.1"/>
<circle fill="none" cx="104" cy="52.3" r="0.1"/>
<circle fill="none" cx="77.8" cy="70" r="0.1"/>
<circle fill="none" cx="52" cy="70" r="0.1"/>
<circle fill="none" cx="26.2" cy="70" r="0.1"/>
<circle fill="none" cx="0" cy="52.3" r="0.1"/>
<circle fill="none" cx="0" cy="35" r="0.1"/>
<circle fill="none" cx="0" cy="17.7" r="0.1"/>
<circle fill="none" cx="26.2" cy="0" r="0.1"/>
</g></g><g><rect stroke="none" fill="#ffffff" width="0" height="0"/><path stroke="#000000" fill="none" d=""/><text font-size="18.7" xml:space="preserve" display="none" font-family="OpenSansCondensedLight" fill="black" text-anchor="middle"><tspan dy="0.3em" style="fill-opacity: 0; stroke-opacity: 0;">-</tspan></text></g><text font-size="18.7" xml:space="preserve" font-family="OpenSansCondensedLight" line-height="21" fill="black" text-anchor="middle" text-vertical-anchor="middle" transform="matrix(1,0,0,1,52,35)"><tspan dy="-14.5">NONVOLATILE</tspan><tspan dy="21" x="0">MEMORY</tspan><tspan dy="21" x="0"><tspan text-decoration="underline">214</tspan></tspan></text></g><g data-type="tp.Element" transform="translate(156,361)"><g><g>
<g fill="#FFFFFF">
    <rect y="0" width="454" height="3.3"/>
</g>
<g stroke="#000000">
    <line fill="none" stroke-linejoin="round" x1="0" y1="3.3" x2="448.8" y2="3.3"/>
</g>
<rect x="17.8" y="0.1" fill="none" width="418.5" height="3.1"/>
<circle fill="none" cx="241.2" cy="3.3" r="0.1"/>
<circle fill="none" cx="317.6" cy="3.3" r="0.1"/>
<circle fill="none" cx="394" cy="3.3" r="0.1"/>
<circle fill="none" cx="432.2" cy="3.3" r="0.1"/>
<circle fill="none" cx="355.8" cy="3.3" r="0.1"/>
<circle fill="none" cx="279.4" cy="3.3" r="0.1"/>
<circle fill="none" cx="203" cy="3.3" r="0.1"/>
<circle fill="none" cx="126.6" cy="3.3" r="0.1"/>
<circle fill="none" cx="50.2" cy="3.3" r="0.1"/>
<circle fill="none" cx="12" cy="3.3" r="0.1"/>
<circle fill="none" cx="88.4" cy="3.3" r="0.1"/>
<circle fill="none" cx="164.8" cy="3.3" r="0.1"/>
</g></g><g><rect stroke="none" fill="#ffffff" width="40" height="20" x="-83.2" y="-46"/><path stroke="#000000" fill="none" d="M0,0.5 C-10,-27.2 -35.9,1.7 -45.9 -26"/><text font-size="18.7" xml:space="preserve" font-family="OpenSansCondensedLight" fill="black" text-anchor="middle" x="-63.2" y="-36"><tspan dy="0.3em">218</tspan></text></g><text font-size="18.7" xml:space="preserve" font-family="OpenSansCondensedLight" line-height="21" fill="black" text-anchor="middle" text-vertical-anchor="middle" transform="matrix(1,0,0,1,227,1.7)" display="none"><tspan dy="0.3em" style="fill-opacity: 0; stroke-opacity: 0;">-</tspan></text></g><g data-type="tp.Element" transform="translate(156,369)"><g><g>
<g fill="#FFFFFF">
    <rect y="0" width="455" height="3"/>
</g>
<g stroke="#000000">
    <line fill="none" stroke-linejoin="round" x1="0" y1="3" x2="449.8" y2="3"/>
</g>
<rect x="17.8" y="0.1" fill="none" width="419.4" height="2.8"/>
<circle fill="none" cx="241.7" cy="3" r="0.1"/>
<circle fill="none" cx="318.3" cy="3" r="0.1"/>
<circle fill="none" cx="394.9" cy="3" r="0.1"/>
<circle fill="none" cx="433.2" cy="3" r="0.1"/>
<circle fill="none" cx="356.6" cy="3" r="0.1"/>
<circle fill="none" cx="280" cy="3" r="0.1"/>
<circle fill="none" cx="203.4" cy="3" r="0.1"/>
<circle fill="none" cx="126.8" cy="3" r="0.1"/>
<circle fill="none" cx="50.3" cy="3" r="0.1"/>
<circle fill="none" cx="12" cy="3" r="0.1"/>
<circle fill="none" cx="88.6" cy="3" r="0.1"/>
<circle fill="none" cx="165.2" cy="3" r="0.1"/>
</g></g><g><rect stroke="none" fill="#ffffff" width="0" height="0"/><path stroke="#000000" fill="none" d=""/><text font-size="18.7" xml:space="preserve" display="none" font-family="OpenSansCondensedLight" fill="black" text-anchor="middle"><tspan dy="0.3em" style="fill-opacity: 0; stroke-opacity: 0;">-</tspan></text></g><text font-size="18.7" xml:space="preserve" font-family="OpenSansCondensedLight" line-height="21" fill="black" text-anchor="middle" text-vertical-anchor="middle" transform="matrix(1,0,0,1,227.5,1.5)" display="none"><tspan dy="0.3em" style="fill-opacity: 0; stroke-opacity: 0;">-</tspan></text></g><g data-type="tp.Element" transform="translate(138,363)"><g transform="rotate(90,12,5.5)"><g>
<g fill="#FFFFFF" stroke="#000000">
    <polygon points="24,0 12,11 0,0"/>
</g>
<rect x="8" y="0.1" fill="none" width="8" height="7.1"/>
<circle fill="none" cx="12.1" cy="0" r="0.1"/>
<circle fill="none" cx="19.2" cy="0" r="0.1"/>
<circle fill="none" cx="24" cy="0" r="0.1"/>
<circle fill="none" cx="21" cy="2.8" r="0.1"/>
<circle fill="none" cx="17.9" cy="5.5" r="0.1"/>
<circle fill="none" cx="15.1" cy="8.3" r="0.1"/>
<circle fill="none" cx="12" cy="11" r="0.1"/>
<circle fill="none" cx="9" cy="8.3" r="0.1"/>
<circle fill="none" cx="6" cy="5.5" r="0.1"/>
<circle fill="none" cx="3" cy="2.8" r="0.1"/>
<circle fill="none" cx="0" cy="0" r="0.1"/>
<circle fill="none" cx="5" cy="0" r="0.1"/>
</g></g><g><rect stroke="none" fill="#ffffff" width="0" height="0"/><path stroke="#000000" fill="none" d=""/><text font-size="18.7" xml:space="preserve" display="none" font-family="OpenSansCondensedLight" fill="black" text-anchor="middle"><tspan dy="0.3em" style="fill-opacity: 0; stroke-opacity: 0;">-</tspan></text></g><text font-size="18.7" xml:space="preserve" font-family="OpenSansCondensedLight" line-height="21" fill="black" text-anchor="middle" text-vertical-anchor="middle" transform="matrix(1,0,0,1,13.9,5.5)" display="none"><tspan dy="0.3em" style="fill-opacity: 0; stroke-opacity: 0;">-</tspan></text></g><g data-type="tp.Element" transform="translate(600,362)"><g transform="rotate(270,12,5.5)"><g>
<g fill="#FFFFFF" stroke="#000000">
    <polygon points="24,0 12,11 0,0"/>
</g>
<rect x="8" y="0.1" fill="none" width="8" height="7.1"/>
<circle fill="none" cx="12.1" cy="0" r="0.1"/>
<circle fill="none" cx="19.2" cy="0" r="0.1"/>
<circle fill="none" cx="24" cy="0" r="0.1"/>
<circle fill="none" cx="21" cy="2.8" r="0.1"/>
<circle fill="none" cx="17.9" cy="5.5" r="0.1"/>
<circle fill="none" cx="15.1" cy="8.3" r="0.1"/>
<circle fill="none" cx="12" cy="11" r="0.1"/>
<circle fill="none" cx="9" cy="8.3" r="0.1"/>
<circle fill="none" cx="6" cy="5.5" r="0.1"/>
<circle fill="none" cx="3" cy="2.8" r="0.1"/>
<circle fill="none" cx="0" cy="0" r="0.1"/>
<circle fill="none" cx="5" cy="0" r="0.1"/>
</g></g><g><rect stroke="none" fill="#ffffff" width="0" height="0"/><path stroke="#000000" fill="none" d=""/><text font-size="18.7" xml:space="preserve" display="none" font-family="OpenSansCondensedLight" fill="black" text-anchor="middle"><tspan dy="0.3em" style="fill-opacity: 0; stroke-opacity: 0;">-</tspan></text></g><text font-size="18.7" xml:space="preserve" font-family="OpenSansCondensedLight" line-height="21" fill="black" text-anchor="middle" text-vertical-anchor="middle" transform="matrix(1,0,0,1,10.1,5.5)" display="none"><tspan dy="0.3em" style="fill-opacity: 0; stroke-opacity: 0;">-</tspan></text></g><g data-type="tp.Element" transform="translate(155,364)"><g><g>
<g fill="#FFFFFF">
    <rect width="1" height="7"/>
</g>
<g>
    <line fill="none" stroke-linejoin="round" x1="0" y1="0" x2="0" y2="7"/>
</g>
<rect fill="none" width="1" height="7"/>
<circle fill="none" cx="0" cy="0.8" r="0.1"/>
<circle fill="none" cx="0" cy="2" r="0.1"/>
<circle fill="none" cx="0" cy="3.2" r="0.1"/>
<circle fill="none" cx="0" cy="4.4" r="0.1"/>
<circle fill="none" cx="0" cy="5.6" r="0.1"/>
<circle fill="none" cx="0" cy="6.7" r="0.1"/>
<circle fill="none" cx="0" cy="6.2" r="0.1"/>
<circle fill="none" cx="0" cy="5" r="0.1"/>
<circle fill="none" cx="0" cy="3.8" r="0.1"/>
<circle fill="none" cx="0" cy="2.6" r="0.1"/>
<circle fill="none" cx="0" cy="1.4" r="0.1"/>
<circle fill="none" cx="0" cy="0.3" r="0.1"/>
</g></g><g><rect stroke="none" fill="#ffffff" width="0" height="0"/><path stroke="#000000" fill="none" d=""/><text font-size="18.7" xml:space="preserve" display="none" font-family="OpenSansCondensedLight" fill="black" text-anchor="middle"><tspan dy="0.3em" style="fill-opacity: 0; stroke-opacity: 0;">-</tspan></text></g><text font-size="18.7" xml:space="preserve" font-family="OpenSansCondensedLight" line-height="21" fill="black" text-anchor="middle" text-vertical-anchor="middle" transform="matrix(1,0,0,1,0.5,3.5)" display="none"><tspan dy="0.3em" style="fill-opacity: 0; stroke-opacity: 0;">-</tspan></text></g><g data-type="tp.Element" transform="translate(606,364)"><g transform="rotate(180,0.5,3.5)"><g>
<g fill="#FFFFFF">
    <rect width="1" height="7"/>
</g>
<g>
    <line fill="none" stroke-linejoin="round" x1="0" y1="0" x2="0" y2="7"/>
</g>
<rect fill="none" width="1" height="7"/>
<circle fill="none" cx="0" cy="0.8" r="0.1"/>
<circle fill="none" cx="0" cy="2" r="0.1"/>
<circle fill="none" cx="0" cy="3.2" r="0.1"/>
<circle fill="none" cx="0" cy="4.4" r="0.1"/>
<circle fill="none" cx="0" cy="5.6" r="0.1"/>
<circle fill="none" cx="0" cy="6.7" r="0.1"/>
<circle fill="none" cx="0" cy="6.2" r="0.1"/>
<circle fill="none" cx="0" cy="5" r="0.1"/>
<circle fill="none" cx="0" cy="3.8" r="0.1"/>
<circle fill="none" cx="0" cy="2.6" r="0.1"/>
<circle fill="none" cx="0" cy="1.4" r="0.1"/>
<circle fill="none" cx="0" cy="0.3" r="0.1"/>
</g></g><g><rect stroke="none" fill="#ffffff" width="0" height="0"/><path stroke="#000000" fill="none" d=""/><text font-size="18.7" xml:space="preserve" display="none" font-family="OpenSansCondensedLight" fill="black" text-anchor="middle"><tspan dy="0.3em" style="fill-opacity: 0; stroke-opacity: 0;">-</tspan></text></g><text font-size="18.7" xml:space="preserve" font-family="OpenSansCondensedLight" line-height="21" fill="black" text-anchor="middle" text-vertical-anchor="middle" transform="matrix(1,0,0,1,0.5,3.5)" display="none"><tspan dy="0.3em" style="fill-opacity: 0; stroke-opacity: 0;">-</tspan></text></g><g data-type="tp.Element" transform="translate(31,369)"><g><g>
<g fill="#FFFFFF" stroke="#000000">
    <path d="M15.7,18H20.9L10.4,0L0,18h5.2v108H0L10.4,144L20.9,126h-5.2V18z"/>
</g>
<rect x="2.2" y="5.1" fill="none" width="16.5" height="133.8"/>
<circle fill="none" cx="10.5" cy="0.1" r="0.1"/>
<circle fill="none" cx="20.9" cy="17.8" r="0.1"/>
<circle fill="none" cx="15.7" cy="34.1" r="0.1"/>
<circle fill="none" cx="15.7" cy="69.2" r="0.1"/>
<circle fill="none" cx="15.7" cy="103.2" r="0.1"/>
<circle fill="none" cx="21" cy="126.2" r="0.1"/>
<circle fill="none" cx="10.3" cy="143.6" r="0.1"/>
<circle fill="none" cx="0" cy="125.9" r="0.1"/>
<circle fill="none" cx="5.2" cy="103.6" r="0.1"/>
<circle fill="none" cx="5.2" cy="70.7" r="0.1"/>
<circle fill="none" cx="5.2" cy="36" r="0.1"/>
<circle fill="none" cx="0" cy="17.6" r="0.1"/>
</g></g><g><rect stroke="none" fill="#ffffff" width="40" height="20" x="51.2" y="132"/><path stroke="#000000" fill="none" d="M15.7,110 C22.4,135.8 47.2,106.2 53.8 132"/><text font-size="18.7" xml:space="preserve" font-family="OpenSansCondensedLight" fill="black" text-anchor="middle" x="71.2" y="142"><tspan dy="0.3em">216</tspan></text></g><text font-size="18.7" xml:space="preserve" font-family="OpenSansCondensedLight" line-height="21" fill="black" text-anchor="middle" text-vertical-anchor="bottom" transform="matrix(1,0,0,1,10.5,-10)"><tspan dy="-1.4em">COMM</tspan><tspan dy="21" x="0">NETWORK</tspan></text></g><g data-type="tp.Link"><path fill="none" pointer-events="none" joint-selector="line" stroke-width="1" stroke="#333333" stroke-linejoin="round" marker-start="url(#v-630-190246168)" marker-end="url(#v-6301588573873)" d="M 245 321.1 L 244.4 361"/><g><g label-idx="0" cursor="default" transform="translate(244.7, 341.1)"><rect joint-selector="rect" fill="#ffffff" rx="3" ry="3" width="8" height="0" transform="matrix(1,0,0,1,-4,0)"/><text joint-selector="text" font-size="18.7" xml:space="preserve" display="none" y="0.8em" fill="#000000" text-anchor="middle" pointer-events="none" font-family="OpenSansCondensedLight"><tspan dy="0" style="fill-opacity: 0; stroke-opacity: 0;">-</tspan></text></g></g></g><g data-type="tp.Link"><path fill="none" pointer-events="none" joint-selector="line" stroke-width="1" stroke="#333333" stroke-linejoin="round" marker-start="url(#v-630-190246168)" marker-end="url(#v-6301588573873)" d="M 397.7 338.2 L 397.3 361"/><g><g label-idx="0" cursor="default" transform="translate(397.5, 349.6)"><rect joint-selector="rect" fill="#ffffff" rx="3" ry="3" width="8" height="0" transform="matrix(1,0,0,1,-4,0)"/><text joint-selector="text" font-size="18.7" xml:space="preserve" display="none" y="0.8em" fill="#000000" text-anchor="middle" pointer-events="none" font-family="OpenSansCondensedLight"><tspan dy="0" style="fill-opacity: 0; stroke-opacity: 0;">-</tspan></text></g></g></g><g data-type="tp.Link"><path fill="none" pointer-events="none" joint-selector="line" stroke-width="1" stroke="#333333" stroke-linejoin="round" marker-start="url(#v-630-190246168)" marker-end="url(#v-6301588573873)" d="M 512.2 335.1 L 511.8 361"/><g><g label-idx="0" cursor="default" transform="translate(512, 348.1)"><rect joint-selector="rect" fill="#ffffff" rx="3" ry="3" width="8" height="0" transform="matrix(1,0,0,1,-4,0)"/><text joint-selector="text" font-size="18.7" xml:space="preserve" display="none" y="0.8em" fill="#000000" text-anchor="middle" pointer-events="none" font-family="OpenSansCondensedLight"><tspan dy="0" style="fill-opacity: 0; stroke-opacity: 0;">-</tspan></text></g></g></g><g data-type="tp.Link"><path fill="none" pointer-events="none" joint-selector="line" stroke-width="1" stroke="#333333" stroke-linejoin="round" marker-start="url(#v-630-190246168)" marker-end="url(#v-6301588573873)" d="M 551.2 432.9 L 550.9 372"/><g><g label-idx="0" cursor="default" transform="translate(551.1, 402.5)"><rect joint-selector="rect" fill="#ffffff" rx="3" ry="3" width="8" height="0" transform="matrix(1,0,0,1,-4,0)"/><text joint-selector="text" font-size="18.7" xml:space="preserve" display="none" y="0.8em" fill="#000000" text-anchor="middle" pointer-events="none" font-family="OpenSansCondensedLight"><tspan dy="0" style="fill-opacity: 0; stroke-opacity: 0;">-</tspan></text></g></g></g><g data-type="tp.Link"><path fill="none" pointer-events="none" joint-selector="line" stroke-width="1" stroke="#333333" stroke-linejoin="round" marker-start="url(#v-630-190246168)" marker-end="url(#v-6301588573873)" d="M 359.4 431.2 L 359.4 372"/><g><g label-idx="0" cursor="default" transform="translate(359.4, 401.6)"><rect joint-selector="rect" fill="#ffffff" rx="3" ry="3" width="8" height="0" transform="matrix(1,0,0,1,-4,0)"/><text joint-selector="text" font-size="18.7" xml:space="preserve" display="none" y="0.8em" fill="#000000" text-anchor="middle" pointer-events="none" font-family="OpenSansCondensedLight"><tspan dy="0" style="fill-opacity: 0; stroke-opacity: 0;">-</tspan></text></g></g></g><g data-type="tp.Link"><path fill="none" pointer-events="none" joint-selector="line" stroke-width="1" stroke="#333333" stroke-linejoin="round" marker-start="url(#v-630-190246168)" marker-end="url(#v-6301588573873)" d="M 247 431.9 L 244.6 372"/><g><g label-idx="0" cursor="default" transform="translate(245.8, 402)"><rect joint-selector="rect" fill="#ffffff" rx="3" ry="3" width="8" height="0" transform="matrix(1,0,0,1,-4,0)"/><text joint-selector="text" font-size="18.7" xml:space="preserve" display="none" y="0.8em" fill="#000000" text-anchor="middle" pointer-events="none" font-family="OpenSansCondensedLight"><tspan dy="0" style="fill-opacity: 0; stroke-opacity: 0;">-</tspan></text></g></g></g><g data-type="tp.Link"><path fill="none" pointer-events="none" joint-selector="line" stroke-width="1" stroke="#333333" stroke-linejoin="round" marker-start="url(#v-630-190246168)" marker-end="url(#v-6301588573873)" d="M 298.6 135.1 L 285 160 L 284.7 361"/><g><g label-idx="0" cursor="default" transform="translate(284.9, 246.3)"><rect joint-selector="rect" fill="#ffffff" rx="3" ry="3" width="8" height="0" transform="matrix(1,0,0,1,-4,0)"/><text joint-selector="text" font-size="18.7" xml:space="preserve" display="none" y="0.8em" fill="#000000" text-anchor="middle" pointer-events="none" font-family="OpenSansCondensedLight"><tspan dy="0" style="fill-opacity: 0; stroke-opacity: 0;">-</tspan></text></g></g></g><g data-type="tp.Link"><path fill="none" pointer-events="none" joint-selector="line" stroke-width="1" stroke="#333333" stroke-linejoin="round" marker-start="url(#v-630-190246168)" marker-end="url(#v-6301588573873)" d="M 169.9 470.8 L 69 470 L 46.7 470"/><g><g label-idx="0" cursor="default" transform="translate(108.3, 470.3)"><rect joint-selector="rect" fill="#ffffff" rx="3" ry="3" width="8" height="0" transform="matrix(1,0,0,1,-4,0)"/><text joint-selector="text" font-size="18.7" xml:space="preserve" display="none" y="0.8em" fill="#000000" text-anchor="middle" pointer-events="none" font-family="OpenSansCondensedLight"><tspan dy="0" style="fill-opacity: 0; stroke-opacity: 0;">-</tspan></text></g></g></g><g data-type="tp.Link"><path fill="none" pointer-events="none" joint-selector="line" stroke-width="1" stroke="#333333" stroke-linejoin="round" stroke-dasharray="5,5" marker-start="url(#v-6302000855011)" marker-end="url(#v-6301454029882)" d="M 311.9 264.9 L 470 105"/><g><g label-idx="0" cursor="default" transform="translate(391, 185)"><rect joint-selector="rect" fill="#ffffff" rx="3" ry="3" width="8" height="0" transform="matrix(1,0,0,1,-4,0)"/><text joint-selector="text" font-size="18.7" xml:space="preserve" display="none" y="0.8em" fill="#000000" text-anchor="middle" pointer-events="none" font-family="OpenSansCondensedLight"><tspan dy="0" style="fill-opacity: 0; stroke-opacity: 0;">-</tspan></text></g></g></g><g data-type="tp.Link"><path fill="none" pointer-events="none" joint-selector="line" stroke-width="1" stroke="#333333" stroke-linejoin="round" stroke-dasharray="5,5" marker-start="url(#v-6302000855011)" marker-end="url(#v-6301454029882)" d="M 560.1 264.9 L 581 132"/><g><g label-idx="0" cursor="default" transform="translate(570.6, 198.5)"><rect joint-selector="rect" fill="#ffffff" rx="3" ry="3" width="8" height="0" transform="matrix(1,0,0,1,-4,0)"/><text joint-selector="text" font-size="18.7" xml:space="preserve" display="none" y="0.8em" fill="#000000" text-anchor="middle" pointer-events="none" font-family="OpenSansCondensedLight"><tspan dy="0" style="fill-opacity: 0; stroke-opacity: 0;">-</tspan></text></g></g></g><g data-type="tp.Element" transform="translate(472,105)"><g><g>
<path d="M109,0H0v30h109V0L109,0z" fill="#FFFFFF" stroke="#000000"/>
<rect x="4.8" y="1.4" width="99.5" height="27.3" fill="none"/>
<circle fill="none" cx="54.5" cy="0" r="0.1"/>
<circle fill="none" cx="81.5" cy="0" r="0.1"/>
<circle fill="none" cx="109" cy="7.6" r="0.1"/>
<circle fill="none" cx="109" cy="15" r="0.1"/>
<circle fill="none" cx="109" cy="22.4" r="0.1"/>
<circle fill="none" cx="81.5" cy="30" r="0.1"/>
<circle fill="none" cx="54.5" cy="30" r="0.1"/>
<circle fill="none" cx="27.5" cy="30" r="0.1"/>
<circle fill="none" cx="0" cy="22.4" r="0.1"/>
<circle fill="none" cx="0" cy="15" r="0.1"/>
<circle fill="none" cx="0" cy="7.6" r="0.1"/>
<circle fill="none" cx="27.5" cy="0" r="0.1"/>
</g></g><g><rect stroke="none" fill="#ffffff" width="0" height="0"/><path stroke="#000000" fill="none" d=""/><text font-size="18.7" xml:space="preserve" display="none" font-family="OpenSansCondensedLight" fill="black" text-anchor="middle"><tspan dy="0.3em" style="fill-opacity: 0; stroke-opacity: 0;">-</tspan></text></g><text font-size="18.7" xml:space="preserve" font-family="OpenSansCondensedLight" line-height="21" fill="black" text-anchor="middle" text-vertical-anchor="middle" transform="matrix(1,0,0,1,54.5,15)"><tspan dy="6.5"><tspan text-decoration="underline">222</tspan></tspan></text></g></g></svg>