<svg xmlns="http://www.w3.org/2000/svg" xmlns:xlink="http://www.w3.org/1999/xlink" version="1.1" width="664" height="858.1" viewBox="0 48.9 664 858.1"><defs><marker orient="auto" overflow="visible" markerUnits="userSpaceOnUse"><path stroke="#333333" fill="#333333" d="M 0 0 0 0"/></marker><marker orient="auto" overflow="visible" markerUnits="userSpaceOnUse"><path stroke="#333333" fill="#333333" transform="rotate(180)" d="M 0 0 0 0"/></marker></defs><g><g data-type="tp.Element" transform="translate(64,764)"><g><g>
<path d="M513,0H0v94h513V0L513,0z" fill="#FFFFFF" stroke="#000000"/>
<rect x="22.4" y="4.3" width="468.2" height="85.4" fill="none"/>
<circle fill="none" cx="256.5" cy="0" r="0.1"/>
<circle fill="none" cx="383.6" cy="0" r="0.1"/>
<circle fill="none" cx="513" cy="23.7" r="0.1"/>
<circle fill="none" cx="513" cy="47" r="0.1"/>
<circle fill="none" cx="513" cy="70.3" r="0.1"/>
<circle fill="none" cx="383.6" cy="94" r="0.1"/>
<circle fill="none" cx="256.5" cy="94" r="0.1"/>
<circle fill="none" cx="129.4" cy="94" r="0.1"/>
<circle fill="none" cx="0" cy="70.3" r="0.1"/>
<circle fill="none" cx="0" cy="47" r="0.1"/>
<circle fill="none" cx="0" cy="23.7" r="0.1"/>
<circle fill="none" cx="129.4" cy="0" r="0.1"/>
</g></g><g><rect stroke="none" fill="#ffffff" width="0" height="0"/><path stroke="#000000" fill="none" d=""/><text font-size="18.7" xml:space="preserve" display="none" font-family="OpenSansCondensedLight" fill="black" text-anchor="middle"><tspan dy="0.3em" style="fill-opacity: 0; stroke-opacity: 0;">-</tspan></text></g><text font-size="18.7" xml:space="preserve" font-family="OpenSansCondensedLight" line-height="21" fill="black" text-anchor="middle" text-vertical-anchor="top" transform="matrix(1,0,0,1,256.5,4.3)"><tspan dy="14.9">MACHINE <tspan text-decoration="underline">2102</tspan></tspan></text></g><g data-type="tp.Element" transform="translate(66,49)"><g><g>
<path d="M519,0H0v645h519V0L519,0z" fill="#FFFFFF" stroke="#000000"/>
<rect x="22.7" y="29.4" width="473.6" height="586.2" fill="none"/>
<circle fill="none" cx="259.5" cy="0" r="0.1"/>
<circle fill="none" cx="388.1" cy="0" r="0.1"/>
<circle fill="none" cx="519" cy="162.6" r="0.1"/>
<circle fill="none" cx="519" cy="322.5" r="0.1"/>
<circle fill="none" cx="519" cy="482.3" r="0.1"/>
<circle fill="none" cx="388.1" cy="645" r="0.1"/>
<circle fill="none" cx="259.5" cy="645" r="0.1"/>
<circle fill="none" cx="130.9" cy="645" r="0.1"/>
<circle fill="none" cx="0" cy="482.3" r="0.1"/>
<circle fill="none" cx="0" cy="322.5" r="0.1"/>
<circle fill="none" cx="0" cy="162.6" r="0.1"/>
<circle fill="none" cx="130.9" cy="0" r="0.1"/>
</g></g><g><rect stroke="none" fill="#ffffff" width="0" height="0"/><path stroke="#000000" fill="none" d=""/><text font-size="18.7" xml:space="preserve" display="none" font-family="OpenSansCondensedLight" fill="black" text-anchor="middle"><tspan dy="0.3em" style="fill-opacity: 0; stroke-opacity: 0;">-</tspan></text></g><text font-size="18.7" xml:space="preserve" font-family="OpenSansCondensedLight" line-height="21" fill="black" text-anchor="middle" text-vertical-anchor="top" transform="matrix(1,0,0,1,259.5,29.4)"><tspan dy="14.9">SOFTWARE ARCHITECTURE <tspan text-decoration="underline">2104</tspan></tspan></text></g><g data-type="tp.Element" transform="translate(77,115)"><g><g>
<path d="M495,0H0v299h495V0L495,0z" fill="#FFFFFF" stroke="#000000"/>
<rect x="21.7" y="13.6" width="451.7" height="271.7" fill="none"/>
<circle fill="none" cx="247.5" cy="0" r="0.1"/>
<circle fill="none" cx="370.2" cy="0" r="0.1"/>
<circle fill="none" cx="495" cy="75.4" r="0.1"/>
<circle fill="none" cx="495" cy="149.5" r="0.1"/>
<circle fill="none" cx="495" cy="223.6" r="0.1"/>
<circle fill="none" cx="370.2" cy="299" r="0.1"/>
<circle fill="none" cx="247.5" cy="299" r="0.1"/>
<circle fill="none" cx="124.9" cy="299" r="0.1"/>
<circle fill="none" cx="0" cy="223.6" r="0.1"/>
<circle fill="none" cx="0" cy="149.5" r="0.1"/>
<circle fill="none" cx="0" cy="75.4" r="0.1"/>
<circle fill="none" cx="124.9" cy="0" r="0.1"/>
</g></g><g><rect stroke="none" fill="#ffffff" width="0" height="0"/><path stroke="#000000" fill="none" d=""/><text font-size="18.7" xml:space="preserve" display="none" font-family="OpenSansCondensedLight" fill="black" text-anchor="middle"><tspan dy="0.3em" style="fill-opacity: 0; stroke-opacity: 0;">-</tspan></text></g><text font-size="18.7" xml:space="preserve" font-family="OpenSansCondensedLight" line-height="21" fill="black" text-anchor="middle" text-vertical-anchor="top" transform="matrix(1,0,0,1,247.5,13.6)"><tspan dy="14.9">APPLICATIONS <tspan text-decoration="underline">2106</tspan></tspan></text></g><g data-type="tp.Element" transform="translate(76,423)"><g><g>
<path d="M499,0H0v38h499V0L499,0z" fill="#FFFFFF" stroke="#000000"/>
<rect x="21.8" y="1.7" width="455.4" height="34.5" fill="none"/>
<circle fill="none" cx="249.5" cy="0" r="0.1"/>
<circle fill="none" cx="373.2" cy="0" r="0.1"/>
<circle fill="none" cx="499" cy="9.6" r="0.1"/>
<circle fill="none" cx="499" cy="19" r="0.1"/>
<circle fill="none" cx="499" cy="28.4" r="0.1"/>
<circle fill="none" cx="373.2" cy="38" r="0.1"/>
<circle fill="none" cx="249.5" cy="38" r="0.1"/>
<circle fill="none" cx="125.9" cy="38" r="0.1"/>
<circle fill="none" cx="0" cy="28.4" r="0.1"/>
<circle fill="none" cx="0" cy="19" r="0.1"/>
<circle fill="none" cx="0" cy="9.6" r="0.1"/>
<circle fill="none" cx="125.9" cy="0" r="0.1"/>
</g></g><g><rect stroke="none" fill="#ffffff" width="0" height="0"/><path stroke="#000000" fill="none" d=""/><text font-size="18.7" xml:space="preserve" display="none" font-family="OpenSansCondensedLight" fill="black" text-anchor="middle"><tspan dy="0.3em" style="fill-opacity: 0; stroke-opacity: 0;">-</tspan></text></g><text font-size="18.7" xml:space="preserve" font-family="OpenSansCondensedLight" line-height="21" fill="black" text-anchor="middle" text-vertical-anchor="middle" transform="matrix(1,0,0,1,249.5,19)"><tspan dy="6.5">FRAMEWORKS <tspan text-decoration="underline">2108</tspan></tspan></text></g><g data-type="tp.Element" transform="translate(77,475)"><g><g>
<path d="M499,0H0v94.5h499V0L499,0z" fill="#FFFFFF" stroke="#000000"/>
<rect x="21.8" y="4.3" width="455.4" height="85.9" fill="none"/>
<circle fill="none" cx="249.5" cy="0" r="0.1"/>
<circle fill="none" cx="373.2" cy="0" r="0.1"/>
<circle fill="none" cx="499" cy="23.8" r="0.1"/>
<circle fill="none" cx="499" cy="47.2" r="0.1"/>
<circle fill="none" cx="499" cy="70.7" r="0.1"/>
<circle fill="none" cx="373.2" cy="94.5" r="0.1"/>
<circle fill="none" cx="249.5" cy="94.5" r="0.1"/>
<circle fill="none" cx="125.9" cy="94.5" r="0.1"/>
<circle fill="none" cx="0" cy="70.7" r="0.1"/>
<circle fill="none" cx="0" cy="47.2" r="0.1"/>
<circle fill="none" cx="0" cy="23.8" r="0.1"/>
<circle fill="none" cx="125.9" cy="0" r="0.1"/>
</g></g><g><rect stroke="none" fill="#ffffff" width="0" height="0"/><path stroke="#000000" fill="none" d=""/><text font-size="18.7" xml:space="preserve" display="none" font-family="OpenSansCondensedLight" fill="black" text-anchor="middle"><tspan dy="0.3em" style="fill-opacity: 0; stroke-opacity: 0;">-</tspan></text></g><text font-size="18.7" xml:space="preserve" font-family="OpenSansCondensedLight" line-height="21" fill="black" text-anchor="middle" text-vertical-anchor="top" transform="matrix(1,0,0,1,249.5,4.3)"><tspan dy="14.9">LIBRARIES <tspan text-decoration="underline">2110</tspan></tspan></text></g><g data-type="tp.Element" transform="translate(76,587)"><g><g>
<path d="M500,0H0v94h500V0L500,0z" fill="#FFFFFF" stroke="#000000"/>
<rect x="21.9" y="4.3" width="456.3" height="85.4" fill="none"/>
<circle fill="none" cx="250" cy="0" r="0.1"/>
<circle fill="none" cx="373.9" cy="0" r="0.1"/>
<circle fill="none" cx="500" cy="23.7" r="0.1"/>
<circle fill="none" cx="500" cy="47" r="0.1"/>
<circle fill="none" cx="500" cy="70.3" r="0.1"/>
<circle fill="none" cx="373.9" cy="94" r="0.1"/>
<circle fill="none" cx="250" cy="94" r="0.1"/>
<circle fill="none" cx="126.1" cy="94" r="0.1"/>
<circle fill="none" cx="0" cy="70.3" r="0.1"/>
<circle fill="none" cx="0" cy="47" r="0.1"/>
<circle fill="none" cx="0" cy="23.7" r="0.1"/>
<circle fill="none" cx="126.1" cy="0" r="0.1"/>
</g></g><g><rect stroke="none" fill="#ffffff" width="0" height="0"/><path stroke="#000000" fill="none" d=""/><text font-size="18.7" xml:space="preserve" display="none" font-family="OpenSansCondensedLight" fill="black" text-anchor="middle"><tspan dy="0.3em" style="fill-opacity: 0; stroke-opacity: 0;">-</tspan></text></g><text font-size="18.7" xml:space="preserve" font-family="OpenSansCondensedLight" line-height="21" fill="black" text-anchor="middle" text-vertical-anchor="top" transform="matrix(1,0,0,1,250,4.3)"><tspan dy="14.9">OPERATING SYSTEM <tspan text-decoration="underline">2112</tspan></tspan></text></g><g data-type="tp.Element" transform="translate(306,697)"><g><g>
<g fill="#FFFFFF" stroke="#000000">
    <path d="M38.8,7H51.7L25.9,0L0,7h12.9v42H0L25.9,56L51.7,49h-12.9V7z"/>
</g>
<rect x="5.5" y="2" fill="none" width="40.8" height="52"/>
<circle fill="none" cx="26" cy="0" r="0.1"/>
<circle fill="none" cx="51.6" cy="6.9" r="0.1"/>
<circle fill="none" cx="38.8" cy="13.2" r="0.1"/>
<circle fill="none" cx="38.8" cy="26.9" r="0.1"/>
<circle fill="none" cx="38.8" cy="40.1" r="0.1"/>
<circle fill="none" cx="52" cy="49.1" r="0.1"/>
<circle fill="none" cx="25.5" cy="55.9" r="0.1"/>
<circle fill="none" cx="0.1" cy="49" r="0.1"/>
<circle fill="none" cx="12.8" cy="40.3" r="0.1"/>
<circle fill="none" cx="12.8" cy="27.5" r="0.1"/>
<circle fill="none" cx="12.8" cy="14" r="0.1"/>
<circle fill="none" cx="0.1" cy="6.8" r="0.1"/>
</g></g><g><rect stroke="none" fill="#ffffff" width="0" height="0"/><path stroke="#000000" fill="none" d=""/><text font-size="18.7" xml:space="preserve" display="none" font-family="OpenSansCondensedLight" fill="black" text-anchor="middle"><tspan dy="0.3em" style="fill-opacity: 0; stroke-opacity: 0;">-</tspan></text></g><text font-size="18.7" xml:space="preserve" font-family="OpenSansCondensedLight" line-height="21" fill="black" text-anchor="middle" text-vertical-anchor="top" transform="matrix(1,0,0,1,26,66)" display="none"><tspan dy="0.8em" style="fill-opacity: 0; stroke-opacity: 0;">-</tspan></text></g><g data-type="tp.Link"><path fill="none" pointer-events="none" joint-selector="line" stroke-width="1" stroke="#333333" stroke-linejoin="round" marker-start="url(#v-68082000855011)" marker-end="url(#v-68081454029882)" d="M 630 698 L 631 58"/><g><g label-idx="0" cursor="default" transform="translate(630.5, 378)"><rect joint-selector="rect" fill="#ffffff" rx="3" ry="3" width="8" height="0" transform="matrix(1,0,0,1,-4,0)"/><text joint-selector="text" font-size="18.7" xml:space="preserve" display="none" y="0.8em" fill="#000000" text-anchor="middle" pointer-events="none" font-family="OpenSansCondensedLight"><tspan dy="0" style="fill-opacity: 0; stroke-opacity: 0;">-</tspan></text></g></g></g><g data-type="tp.Link"><path fill="none" pointer-events="none" joint-selector="line" stroke-width="1" stroke="#333333" stroke-linejoin="round" marker-start="url(#v-68082000855011)" marker-end="url(#v-68081454029882)" d="M 26 87 L 26 694"/><g><g label-idx="0" cursor="default" transform="translate(26, 390.5)"><rect joint-selector="rect" fill="#ffffff" rx="3" ry="3" width="8" height="0" transform="matrix(1,0,0,1,-4,0)"/><text joint-selector="text" font-size="18.7" xml:space="preserve" display="none" y="0.8em" fill="#000000" text-anchor="middle" pointer-events="none" font-family="OpenSansCondensedLight"><tspan dy="0" style="fill-opacity: 0; stroke-opacity: 0;">-</tspan></text></g></g></g><g data-type="tp.Element" transform="translate(6,389)"><g><g>
<path d="M39.2,0H0v50.8h39.2V0L39.2,0z" fill="#FFFFFF"/>
<rect x="1.7" y="2.3" width="35.8" height="46.2" fill="none"/>
<circle fill="none" cx="19.6" cy="0" r="0.1"/>
<circle fill="none" cx="29.3" cy="0" r="0.1"/>
<circle fill="none" cx="39.2" cy="12.8" r="0.1"/>
<circle fill="none" cx="39.2" cy="25.4" r="0.1"/>
<circle fill="none" cx="39.2" cy="38" r="0.1"/>
<circle fill="none" cx="29.3" cy="50.8" r="0.1"/>
<circle fill="none" cx="19.6" cy="50.8" r="0.1"/>
<circle fill="none" cx="9.9" cy="50.8" r="0.1"/>
<circle fill="none" cx="0" cy="38" r="0.1"/>
<circle fill="none" cx="0" cy="25.4" r="0.1"/>
<circle fill="none" cx="0" cy="12.8" r="0.1"/>
<circle fill="none" cx="9.9" cy="0" r="0.1"/>
</g></g><g><rect stroke="none" fill="#ffffff" width="0" height="0"/><path stroke="#000000" fill="none" d=""/><text font-size="18.7" xml:space="preserve" display="none" font-family="OpenSansCondensedLight" fill="black" text-anchor="middle"><tspan dy="0.3em" style="fill-opacity: 0; stroke-opacity: 0;">-</tspan></text></g><text font-size="18.7" xml:space="preserve" font-family="OpenSansCondensedLight" line-height="21" fill="black" text-anchor="middle" text-vertical-anchor="middle" transform="matrix(1,0,0,1,19.6,25.4)"><tspan dy="-0.3em">API</tspan><tspan dy="21" x="0">CALLS</tspan></text></g><g data-type="tp.Element" transform="translate(595,362)"><g transform="rotate(180,32.5,13.5)"><g>
<path d="M65,0H0v27h65V0L65,0z" fill="#FFFFFF"/>
<rect x="2.8" y="1.2" width="59.3" height="24.5" fill="none"/>
<circle fill="none" cx="32.5" cy="0" r="0.1"/>
<circle fill="none" cx="48.6" cy="0" r="0.1"/>
<circle fill="none" cx="65" cy="6.8" r="0.1"/>
<circle fill="none" cx="65" cy="13.5" r="0.1"/>
<circle fill="none" cx="65" cy="20.2" r="0.1"/>
<circle fill="none" cx="48.6" cy="27" r="0.1"/>
<circle fill="none" cx="32.5" cy="27" r="0.1"/>
<circle fill="none" cx="16.4" cy="27" r="0.1"/>
<circle fill="none" cx="0" cy="20.2" r="0.1"/>
<circle fill="none" cx="0" cy="13.5" r="0.1"/>
<circle fill="none" cx="0" cy="6.8" r="0.1"/>
<circle fill="none" cx="16.4" cy="0" r="0.1"/>
</g></g><g><rect stroke="none" fill="#ffffff" width="0" height="0"/><path stroke="#000000" fill="none" d=""/><text font-size="18.7" xml:space="preserve" display="none" font-family="OpenSansCondensedLight" fill="black" text-anchor="middle"><tspan dy="0.3em" style="fill-opacity: 0; stroke-opacity: 0;">-</tspan></text></g><text font-size="18.7" xml:space="preserve" font-family="OpenSansCondensedLight" line-height="21" fill="black" text-anchor="middle" text-vertical-anchor="middle" transform="matrix(1,0,0,1,32.5,13.5)"><tspan dy="0.3em">MESSAGES</tspan></text></g><g data-type="tp.Element" transform="translate(88,625)"><g><g>
<path d="M132,0H0v46h132V0L132,0z" fill="#FFFFFF" stroke="#000000"/>
<rect x="5.8" y="2.1" width="120.5" height="41.8" fill="none"/>
<circle fill="none" cx="66" cy="0" r="0.1"/>
<circle fill="none" cx="98.7" cy="0" r="0.1"/>
<circle fill="none" cx="132" cy="11.6" r="0.1"/>
<circle fill="none" cx="132" cy="23" r="0.1"/>
<circle fill="none" cx="132" cy="34.4" r="0.1"/>
<circle fill="none" cx="98.7" cy="46" r="0.1"/>
<circle fill="none" cx="66" cy="46" r="0.1"/>
<circle fill="none" cx="33.3" cy="46" r="0.1"/>
<circle fill="none" cx="0" cy="34.4" r="0.1"/>
<circle fill="none" cx="0" cy="23" r="0.1"/>
<circle fill="none" cx="0" cy="11.6" r="0.1"/>
<circle fill="none" cx="33.3" cy="0" r="0.1"/>
</g></g><g><rect stroke="none" fill="#ffffff" width="0" height="0"/><path stroke="#000000" fill="none" d=""/><text font-size="18.7" xml:space="preserve" display="none" font-family="OpenSansCondensedLight" fill="black" text-anchor="middle"><tspan dy="0.3em" style="fill-opacity: 0; stroke-opacity: 0;">-</tspan></text></g><text font-size="18.7" xml:space="preserve" font-family="OpenSansCondensedLight" line-height="21" fill="black" text-anchor="middle" text-vertical-anchor="middle" transform="matrix(1,0,0,1,66,23)"><tspan dy="6.5">KERNEL <tspan text-decoration="underline">2114</tspan></tspan></text></g><g data-type="tp.Element" transform="translate(264,626)"><g><g>
<path d="M132,0H0v46h132V0L132,0z" fill="#FFFFFF" stroke="#000000"/>
<rect x="5.8" y="2.1" width="120.5" height="41.8" fill="none"/>
<circle fill="none" cx="66" cy="0" r="0.1"/>
<circle fill="none" cx="98.7" cy="0" r="0.1"/>
<circle fill="none" cx="132" cy="11.6" r="0.1"/>
<circle fill="none" cx="132" cy="23" r="0.1"/>
<circle fill="none" cx="132" cy="34.4" r="0.1"/>
<circle fill="none" cx="98.7" cy="46" r="0.1"/>
<circle fill="none" cx="66" cy="46" r="0.1"/>
<circle fill="none" cx="33.3" cy="46" r="0.1"/>
<circle fill="none" cx="0" cy="34.4" r="0.1"/>
<circle fill="none" cx="0" cy="23" r="0.1"/>
<circle fill="none" cx="0" cy="11.6" r="0.1"/>
<circle fill="none" cx="33.3" cy="0" r="0.1"/>
</g></g><g><rect stroke="none" fill="#ffffff" width="0" height="0"/><path stroke="#000000" fill="none" d=""/><text font-size="18.7" xml:space="preserve" display="none" font-family="OpenSansCondensedLight" fill="black" text-anchor="middle"><tspan dy="0.3em" style="fill-opacity: 0; stroke-opacity: 0;">-</tspan></text></g><text font-size="18.7" xml:space="preserve" font-family="OpenSansCondensedLight" line-height="21" fill="black" text-anchor="middle" text-vertical-anchor="middle" transform="matrix(1,0,0,1,66,23)"><tspan dy="-4">SERVICES</tspan><tspan dy="21" x="0"><tspan text-decoration="underline">2116</tspan></tspan></text></g><g data-type="tp.Element" transform="translate(87,509)"><g><g>
<path d="M132,0H0v46h132V0L132,0z" fill="#FFFFFF" stroke="#000000"/>
<rect x="5.8" y="2.1" width="120.5" height="41.8" fill="none"/>
<circle fill="none" cx="66" cy="0" r="0.1"/>
<circle fill="none" cx="98.7" cy="0" r="0.1"/>
<circle fill="none" cx="132" cy="11.6" r="0.1"/>
<circle fill="none" cx="132" cy="23" r="0.1"/>
<circle fill="none" cx="132" cy="34.4" r="0.1"/>
<circle fill="none" cx="98.7" cy="46" r="0.1"/>
<circle fill="none" cx="66" cy="46" r="0.1"/>
<circle fill="none" cx="33.3" cy="46" r="0.1"/>
<circle fill="none" cx="0" cy="34.4" r="0.1"/>
<circle fill="none" cx="0" cy="23" r="0.1"/>
<circle fill="none" cx="0" cy="11.6" r="0.1"/>
<circle fill="none" cx="33.3" cy="0" r="0.1"/>
</g></g><g><rect stroke="none" fill="#ffffff" width="0" height="0"/><path stroke="#000000" fill="none" d=""/><text font-size="18.7" xml:space="preserve" display="none" font-family="OpenSansCondensedLight" fill="black" text-anchor="middle"><tspan dy="0.3em" style="fill-opacity: 0; stroke-opacity: 0;">-</tspan></text></g><text font-size="18.7" xml:space="preserve" font-family="OpenSansCondensedLight" line-height="21" fill="black" text-anchor="middle" text-vertical-anchor="middle" transform="matrix(1,0,0,1,66,23)"><tspan dy="6.5">SYSTEM <tspan text-decoration="underline">2118</tspan></tspan></text></g><g data-type="tp.Element" transform="translate(75,803)"><g><g>
<path d="M132,0H0v46h132V0L132,0z" fill="#FFFFFF" stroke="#000000"/>
<rect x="5.8" y="2.1" width="120.5" height="41.8" fill="none"/>
<circle fill="none" cx="66" cy="0" r="0.1"/>
<circle fill="none" cx="98.7" cy="0" r="0.1"/>
<circle fill="none" cx="132" cy="11.6" r="0.1"/>
<circle fill="none" cx="132" cy="23" r="0.1"/>
<circle fill="none" cx="132" cy="34.4" r="0.1"/>
<circle fill="none" cx="98.7" cy="46" r="0.1"/>
<circle fill="none" cx="66" cy="46" r="0.1"/>
<circle fill="none" cx="33.3" cy="46" r="0.1"/>
<circle fill="none" cx="0" cy="34.4" r="0.1"/>
<circle fill="none" cx="0" cy="23" r="0.1"/>
<circle fill="none" cx="0" cy="11.6" r="0.1"/>
<circle fill="none" cx="33.3" cy="0" r="0.1"/>
</g></g><g><rect stroke="none" fill="#ffffff" width="0" height="0"/><path stroke="#000000" fill="none" d=""/><text font-size="18.7" xml:space="preserve" display="none" font-family="OpenSansCondensedLight" fill="black" text-anchor="middle"><tspan dy="0.3em" style="fill-opacity: 0; stroke-opacity: 0;">-</tspan></text></g><text font-size="18.7" xml:space="preserve" font-family="OpenSansCondensedLight" line-height="21" fill="black" text-anchor="middle" text-vertical-anchor="middle" transform="matrix(1,0,0,1,66,23)"><tspan dy="-4">PROCESSORS</tspan><tspan dy="21" x="0"><tspan text-decoration="underline">2120</tspan></tspan></text></g><g data-type="tp.Element" transform="translate(437,624)"><g><g>
<path d="M132,0H0v48h132V0L132,0z" fill="#FFFFFF" stroke="#000000"/>
<rect x="5.8" y="2.2" width="120.5" height="43.6" fill="none"/>
<circle fill="none" cx="66" cy="0" r="0.1"/>
<circle fill="none" cx="98.7" cy="0" r="0.1"/>
<circle fill="none" cx="132" cy="12.1" r="0.1"/>
<circle fill="none" cx="132" cy="24" r="0.1"/>
<circle fill="none" cx="132" cy="35.9" r="0.1"/>
<circle fill="none" cx="98.7" cy="48" r="0.1"/>
<circle fill="none" cx="66" cy="48" r="0.1"/>
<circle fill="none" cx="33.3" cy="48" r="0.1"/>
<circle fill="none" cx="0" cy="35.9" r="0.1"/>
<circle fill="none" cx="0" cy="24" r="0.1"/>
<circle fill="none" cx="0" cy="12.1" r="0.1"/>
<circle fill="none" cx="33.3" cy="0" r="0.1"/>
</g></g><g><rect stroke="none" fill="#ffffff" width="0" height="0"/><path stroke="#000000" fill="none" d=""/><text font-size="18.7" xml:space="preserve" display="none" font-family="OpenSansCondensedLight" fill="black" text-anchor="middle"><tspan dy="0.3em" style="fill-opacity: 0; stroke-opacity: 0;">-</tspan></text></g><text font-size="18.7" xml:space="preserve" font-family="OpenSansCondensedLight" line-height="21" fill="black" text-anchor="middle" text-vertical-anchor="middle" transform="matrix(1,0,0,1,66,24)"><tspan dy="-4">DRIVERS</tspan><tspan dy="21" x="0"><tspan text-decoration="underline">2122</tspan></tspan></text></g><g data-type="tp.Element" transform="translate(264,510)"><g><g>
<path d="M132,0H0v46h132V0L132,0z" fill="#FFFFFF" stroke="#000000"/>
<rect x="5.8" y="2.1" width="120.5" height="41.8" fill="none"/>
<circle fill="none" cx="66" cy="0" r="0.1"/>
<circle fill="none" cx="98.7" cy="0" r="0.1"/>
<circle fill="none" cx="132" cy="11.6" r="0.1"/>
<circle fill="none" cx="132" cy="23" r="0.1"/>
<circle fill="none" cx="132" cy="34.4" r="0.1"/>
<circle fill="none" cx="98.7" cy="46" r="0.1"/>
<circle fill="none" cx="66" cy="46" r="0.1"/>
<circle fill="none" cx="33.3" cy="46" r="0.1"/>
<circle fill="none" cx="0" cy="34.4" r="0.1"/>
<circle fill="none" cx="0" cy="23" r="0.1"/>
<circle fill="none" cx="0" cy="11.6" r="0.1"/>
<circle fill="none" cx="33.3" cy="0" r="0.1"/>
</g></g><g><rect stroke="none" fill="#ffffff" width="0" height="0"/><path stroke="#000000" fill="none" d=""/><text font-size="18.7" xml:space="preserve" display="none" font-family="OpenSansCondensedLight" fill="black" text-anchor="middle"><tspan dy="0.3em" style="fill-opacity: 0; stroke-opacity: 0;">-</tspan></text></g><text font-size="18.7" xml:space="preserve" font-family="OpenSansCondensedLight" line-height="21" fill="black" text-anchor="middle" text-vertical-anchor="middle" transform="matrix(1,0,0,1,66,23)"><tspan dy="6.5">API <tspan text-decoration="underline">2124</tspan></tspan></text></g><g data-type="tp.Element" transform="translate(250,804)"><g><g>
<path d="M132,0H0v46h132V0L132,0z" fill="#FFFFFF" stroke="#000000"/>
<rect x="5.8" y="2.1" width="120.5" height="41.8" fill="none"/>
<circle fill="none" cx="66" cy="0" r="0.1"/>
<circle fill="none" cx="98.7" cy="0" r="0.1"/>
<circle fill="none" cx="132" cy="11.6" r="0.1"/>
<circle fill="none" cx="132" cy="23" r="0.1"/>
<circle fill="none" cx="132" cy="34.4" r="0.1"/>
<circle fill="none" cx="98.7" cy="46" r="0.1"/>
<circle fill="none" cx="66" cy="46" r="0.1"/>
<circle fill="none" cx="33.3" cy="46" r="0.1"/>
<circle fill="none" cx="0" cy="34.4" r="0.1"/>
<circle fill="none" cx="0" cy="23" r="0.1"/>
<circle fill="none" cx="0" cy="11.6" r="0.1"/>
<circle fill="none" cx="33.3" cy="0" r="0.1"/>
</g></g><g><rect stroke="none" fill="#ffffff" width="0" height="0"/><path stroke="#000000" fill="none" d=""/><text font-size="18.7" xml:space="preserve" display="none" font-family="OpenSansCondensedLight" fill="black" text-anchor="middle"><tspan dy="0.3em" style="fill-opacity: 0; stroke-opacity: 0;">-</tspan></text></g><text font-size="18.7" xml:space="preserve" font-family="OpenSansCondensedLight" line-height="21" fill="black" text-anchor="middle" text-vertical-anchor="middle" transform="matrix(1,0,0,1,66,23)"><tspan dy="-4">MEMORY</tspan><tspan dy="21" x="0"><tspan text-decoration="underline">2126</tspan></tspan></text></g><g data-type="tp.Element" transform="translate(430,506)"><g><g>
<path d="M132,0H0v48h132V0L132,0z" fill="#FFFFFF" stroke="#000000"/>
<rect x="5.8" y="2.2" width="120.5" height="43.6" fill="none"/>
<circle fill="none" cx="66" cy="0" r="0.1"/>
<circle fill="none" cx="98.7" cy="0" r="0.1"/>
<circle fill="none" cx="132" cy="12.1" r="0.1"/>
<circle fill="none" cx="132" cy="24" r="0.1"/>
<circle fill="none" cx="132" cy="35.9" r="0.1"/>
<circle fill="none" cx="98.7" cy="48" r="0.1"/>
<circle fill="none" cx="66" cy="48" r="0.1"/>
<circle fill="none" cx="33.3" cy="48" r="0.1"/>
<circle fill="none" cx="0" cy="35.9" r="0.1"/>
<circle fill="none" cx="0" cy="24" r="0.1"/>
<circle fill="none" cx="0" cy="12.1" r="0.1"/>
<circle fill="none" cx="33.3" cy="0" r="0.1"/>
</g></g><g><rect stroke="none" fill="#ffffff" width="0" height="0"/><path stroke="#000000" fill="none" d=""/><text font-size="18.7" xml:space="preserve" display="none" font-family="OpenSansCondensedLight" fill="black" text-anchor="middle"><tspan dy="0.3em" style="fill-opacity: 0; stroke-opacity: 0;">-</tspan></text></g><text font-size="18.7" xml:space="preserve" font-family="OpenSansCondensedLight" line-height="21" fill="black" text-anchor="middle" text-vertical-anchor="middle" transform="matrix(1,0,0,1,66,24)"><tspan dy="6.5">OTHER <tspan text-decoration="underline">2128</tspan></tspan></text></g><g data-type="tp.Element" transform="translate(92,229)"><g><g>
<path d="M132,0H0v46h132V0L132,0z" fill="#FFFFFF" stroke="#000000"/>
<rect x="5.8" y="2.1" width="120.5" height="41.8" fill="none"/>
<circle fill="none" cx="66" cy="0" r="0.1"/>
<circle fill="none" cx="98.7" cy="0" r="0.1"/>
<circle fill="none" cx="132" cy="11.6" r="0.1"/>
<circle fill="none" cx="132" cy="23" r="0.1"/>
<circle fill="none" cx="132" cy="34.4" r="0.1"/>
<circle fill="none" cx="98.7" cy="46" r="0.1"/>
<circle fill="none" cx="66" cy="46" r="0.1"/>
<circle fill="none" cx="33.3" cy="46" r="0.1"/>
<circle fill="none" cx="0" cy="34.4" r="0.1"/>
<circle fill="none" cx="0" cy="23" r="0.1"/>
<circle fill="none" cx="0" cy="11.6" r="0.1"/>
<circle fill="none" cx="33.3" cy="0" r="0.1"/>
</g></g><g><rect stroke="none" fill="#ffffff" width="0" height="0"/><path stroke="#000000" fill="none" d=""/><text font-size="18.7" xml:space="preserve" display="none" font-family="OpenSansCondensedLight" fill="black" text-anchor="middle"><tspan dy="0.3em" style="fill-opacity: 0; stroke-opacity: 0;">-</tspan></text></g><text font-size="18.7" xml:space="preserve" font-family="OpenSansCondensedLight" line-height="21" fill="black" text-anchor="middle" text-vertical-anchor="middle" transform="matrix(1,0,0,1,66,23)"><tspan dy="-4">CONTACTS</tspan><tspan dy="21" x="0"><tspan text-decoration="underline">2130</tspan></tspan></text></g><g data-type="tp.Element" transform="translate(92,293)"><g><g>
<path d="M132,0H0v46h132V0L132,0z" fill="#FFFFFF" stroke="#000000"/>
<rect x="5.8" y="2.1" width="120.5" height="41.8" fill="none"/>
<circle fill="none" cx="66" cy="0" r="0.1"/>
<circle fill="none" cx="98.7" cy="0" r="0.1"/>
<circle fill="none" cx="132" cy="11.6" r="0.1"/>
<circle fill="none" cx="132" cy="23" r="0.1"/>
<circle fill="none" cx="132" cy="34.4" r="0.1"/>
<circle fill="none" cx="98.7" cy="46" r="0.1"/>
<circle fill="none" cx="66" cy="46" r="0.1"/>
<circle fill="none" cx="33.3" cy="46" r="0.1"/>
<circle fill="none" cx="0" cy="34.4" r="0.1"/>
<circle fill="none" cx="0" cy="23" r="0.1"/>
<circle fill="none" cx="0" cy="11.6" r="0.1"/>
<circle fill="none" cx="33.3" cy="0" r="0.1"/>
</g></g><g><rect stroke="none" fill="#ffffff" width="0" height="0"/><path stroke="#000000" fill="none" d=""/><text font-size="18.7" xml:space="preserve" display="none" font-family="OpenSansCondensedLight" fill="black" text-anchor="middle"><tspan dy="0.3em" style="fill-opacity: 0; stroke-opacity: 0;">-</tspan></text></g><text font-size="18.7" xml:space="preserve" font-family="OpenSansCondensedLight" line-height="21" fill="black" text-anchor="middle" text-vertical-anchor="middle" transform="matrix(1,0,0,1,66,23)"><tspan dy="-4">BROWSER</tspan><tspan dy="21" x="0"><tspan text-decoration="underline">2132</tspan></tspan></text></g><g data-type="tp.Element" transform="translate(92,359)"><g><g>
<path d="M132,0H0v46h132V0L132,0z" fill="#FFFFFF" stroke="#000000"/>
<rect x="5.8" y="2.1" width="120.5" height="41.8" fill="none"/>
<circle fill="none" cx="66" cy="0" r="0.1"/>
<circle fill="none" cx="98.7" cy="0" r="0.1"/>
<circle fill="none" cx="132" cy="11.6" r="0.1"/>
<circle fill="none" cx="132" cy="23" r="0.1"/>
<circle fill="none" cx="132" cy="34.4" r="0.1"/>
<circle fill="none" cx="98.7" cy="46" r="0.1"/>
<circle fill="none" cx="66" cy="46" r="0.1"/>
<circle fill="none" cx="33.3" cy="46" r="0.1"/>
<circle fill="none" cx="0" cy="34.4" r="0.1"/>
<circle fill="none" cx="0" cy="23" r="0.1"/>
<circle fill="none" cx="0" cy="11.6" r="0.1"/>
<circle fill="none" cx="33.3" cy="0" r="0.1"/>
</g></g><g><rect stroke="none" fill="#ffffff" width="0" height="0"/><path stroke="#000000" fill="none" d=""/><text font-size="18.7" xml:space="preserve" display="none" font-family="OpenSansCondensedLight" fill="black" text-anchor="middle"><tspan dy="0.3em" style="fill-opacity: 0; stroke-opacity: 0;">-</tspan></text></g><text font-size="18.7" xml:space="preserve" font-family="OpenSansCondensedLight" line-height="21" fill="black" text-anchor="middle" text-vertical-anchor="middle" transform="matrix(1,0,0,1,66,23)"><tspan dy="-4">BOOK</tspan><tspan dy="21" x="0">READER <tspan text-decoration="underline">2134</tspan></tspan></text></g><g data-type="tp.Element" transform="translate(92,164)"><g><g>
<path d="M132,0H0v46h132V0L132,0z" fill="#FFFFFF" stroke="#000000"/>
<rect x="5.8" y="2.1" width="120.5" height="41.8" fill="none"/>
<circle fill="none" cx="66" cy="0" r="0.1"/>
<circle fill="none" cx="98.7" cy="0" r="0.1"/>
<circle fill="none" cx="132" cy="11.6" r="0.1"/>
<circle fill="none" cx="132" cy="23" r="0.1"/>
<circle fill="none" cx="132" cy="34.4" r="0.1"/>
<circle fill="none" cx="98.7" cy="46" r="0.1"/>
<circle fill="none" cx="66" cy="46" r="0.1"/>
<circle fill="none" cx="33.3" cy="46" r="0.1"/>
<circle fill="none" cx="0" cy="34.4" r="0.1"/>
<circle fill="none" cx="0" cy="23" r="0.1"/>
<circle fill="none" cx="0" cy="11.6" r="0.1"/>
<circle fill="none" cx="33.3" cy="0" r="0.1"/>
</g></g><g><rect stroke="none" fill="#ffffff" width="0" height="0"/><path stroke="#000000" fill="none" d=""/><text font-size="18.7" xml:space="preserve" display="none" font-family="OpenSansCondensedLight" fill="black" text-anchor="middle"><tspan dy="0.3em" style="fill-opacity: 0; stroke-opacity: 0;">-</tspan></text></g><text font-size="18.7" xml:space="preserve" font-family="OpenSansCondensedLight" line-height="21" fill="black" text-anchor="middle" text-vertical-anchor="middle" transform="matrix(1,0,0,1,66,23)"><tspan dy="6.5">HOME <tspan text-decoration="underline">2136</tspan></tspan></text></g><g data-type="tp.Element" transform="translate(401,802)"><g><g>
<path d="M164,0H0v48h164V0L164,0z" fill="#FFFFFF" stroke="#000000"/>
<rect x="7.2" y="2.2" width="149.7" height="43.6" fill="none"/>
<circle fill="none" cx="82" cy="0" r="0.1"/>
<circle fill="none" cx="122.6" cy="0" r="0.1"/>
<circle fill="none" cx="164" cy="12.1" r="0.1"/>
<circle fill="none" cx="164" cy="24" r="0.1"/>
<circle fill="none" cx="164" cy="35.9" r="0.1"/>
<circle fill="none" cx="122.6" cy="48" r="0.1"/>
<circle fill="none" cx="82" cy="48" r="0.1"/>
<circle fill="none" cx="41.4" cy="48" r="0.1"/>
<circle fill="none" cx="0" cy="35.9" r="0.1"/>
<circle fill="none" cx="0" cy="24" r="0.1"/>
<circle fill="none" cx="0" cy="12.1" r="0.1"/>
<circle fill="none" cx="41.4" cy="0" r="0.1"/>
</g></g><g><rect stroke="none" fill="#ffffff" width="0" height="0"/><path stroke="#000000" fill="none" d=""/><text font-size="18.7" xml:space="preserve" display="none" font-family="OpenSansCondensedLight" fill="black" text-anchor="middle"><tspan dy="0.3em" style="fill-opacity: 0; stroke-opacity: 0;">-</tspan></text></g><text font-size="18.7" xml:space="preserve" font-family="OpenSansCondensedLight" line-height="21" fill="black" text-anchor="middle" text-vertical-anchor="middle" transform="matrix(1,0,0,1,82,24)"><tspan dy="-14.5">I/O</tspan><tspan dy="21" x="0">COMPONENTS</tspan><tspan dy="21" x="0"><tspan text-decoration="underline">2138</tspan></tspan></text></g><g data-type="tp.Element" transform="translate(421,161)"><g><g>
<path d="M132,0H0v110h132V0L132,0z" fill="#FFFFFF" stroke="#000000"/>
<rect x="5.8" y="5" width="120.5" height="100" fill="none"/>
<circle fill="none" cx="66" cy="0" r="0.1"/>
<circle fill="none" cx="98.7" cy="0" r="0.1"/>
<circle fill="none" cx="132" cy="27.7" r="0.1"/>
<circle fill="none" cx="132" cy="55" r="0.1"/>
<circle fill="none" cx="132" cy="82.3" r="0.1"/>
<circle fill="none" cx="98.7" cy="110" r="0.1"/>
<circle fill="none" cx="66" cy="110" r="0.1"/>
<circle fill="none" cx="33.3" cy="110" r="0.1"/>
<circle fill="none" cx="0" cy="82.3" r="0.1"/>
<circle fill="none" cx="0" cy="55" r="0.1"/>
<circle fill="none" cx="0" cy="27.7" r="0.1"/>
<circle fill="none" cx="33.3" cy="0" r="0.1"/>
</g></g><g><rect stroke="none" fill="#ffffff" width="0" height="0"/><path stroke="#000000" fill="none" d=""/><text font-size="18.7" xml:space="preserve" display="none" font-family="OpenSansCondensedLight" fill="black" text-anchor="middle"><tspan dy="0.3em" style="fill-opacity: 0; stroke-opacity: 0;">-</tspan></text></g><text font-size="18.7" xml:space="preserve" font-family="OpenSansCondensedLight" line-height="21" fill="black" text-anchor="middle" text-vertical-anchor="middle" transform="matrix(1,0,0,1,66,55)"><tspan dy="-25">THIRD-</tspan><tspan dy="21" x="0">PARTY</tspan><tspan dy="21" x="0">APPLICATION</tspan><tspan dy="21" x="0"><tspan text-decoration="underline">2140</tspan></tspan></text></g><g data-type="tp.Element" transform="translate(260,161)"><g><g>
<path d="M132,0H0v46h132V0L132,0z" fill="#FFFFFF" stroke="#000000"/>
<rect x="5.8" y="2.1" width="120.5" height="41.8" fill="none"/>
<circle fill="none" cx="66" cy="0" r="0.1"/>
<circle fill="none" cx="98.7" cy="0" r="0.1"/>
<circle fill="none" cx="132" cy="11.6" r="0.1"/>
<circle fill="none" cx="132" cy="23" r="0.1"/>
<circle fill="none" cx="132" cy="34.4" r="0.1"/>
<circle fill="none" cx="98.7" cy="46" r="0.1"/>
<circle fill="none" cx="66" cy="46" r="0.1"/>
<circle fill="none" cx="33.3" cy="46" r="0.1"/>
<circle fill="none" cx="0" cy="34.4" r="0.1"/>
<circle fill="none" cx="0" cy="23" r="0.1"/>
<circle fill="none" cx="0" cy="11.6" r="0.1"/>
<circle fill="none" cx="33.3" cy="0" r="0.1"/>
</g></g><g><rect stroke="none" fill="#ffffff" width="0" height="0"/><path stroke="#000000" fill="none" d=""/><text font-size="18.7" xml:space="preserve" display="none" font-family="OpenSansCondensedLight" fill="black" text-anchor="middle"><tspan dy="0.3em" style="fill-opacity: 0; stroke-opacity: 0;">-</tspan></text></g><text font-size="18.7" xml:space="preserve" font-family="OpenSansCondensedLight" line-height="21" fill="black" text-anchor="middle" text-vertical-anchor="middle" transform="matrix(1,0,0,1,66,23)"><tspan dy="-4">LOCATION</tspan><tspan dy="21" x="0"><tspan text-decoration="underline">2142</tspan></tspan></text></g><g data-type="tp.Element" transform="translate(260,226)"><g><g>
<path d="M132,0H0v46h132V0L132,0z" fill="#FFFFFF" stroke="#000000"/>
<rect x="5.8" y="2.1" width="120.5" height="41.8" fill="none"/>
<circle fill="none" cx="66" cy="0" r="0.1"/>
<circle fill="none" cx="98.7" cy="0" r="0.1"/>
<circle fill="none" cx="132" cy="11.6" r="0.1"/>
<circle fill="none" cx="132" cy="23" r="0.1"/>
<circle fill="none" cx="132" cy="34.4" r="0.1"/>
<circle fill="none" cx="98.7" cy="46" r="0.1"/>
<circle fill="none" cx="66" cy="46" r="0.1"/>
<circle fill="none" cx="33.3" cy="46" r="0.1"/>
<circle fill="none" cx="0" cy="34.4" r="0.1"/>
<circle fill="none" cx="0" cy="23" r="0.1"/>
<circle fill="none" cx="0" cy="11.6" r="0.1"/>
<circle fill="none" cx="33.3" cy="0" r="0.1"/>
</g></g><g><rect stroke="none" fill="#ffffff" width="0" height="0"/><path stroke="#000000" fill="none" d=""/><text font-size="18.7" xml:space="preserve" display="none" font-family="OpenSansCondensedLight" fill="black" text-anchor="middle"><tspan dy="0.3em" style="fill-opacity: 0; stroke-opacity: 0;">-</tspan></text></g><text font-size="18.7" xml:space="preserve" font-family="OpenSansCondensedLight" line-height="21" fill="black" text-anchor="middle" text-vertical-anchor="middle" transform="matrix(1,0,0,1,66,23)"><tspan dy="6.5">MEDIA <tspan text-decoration="underline">2144</tspan></tspan></text></g><g data-type="tp.Element" transform="translate(260,290)"><g><g>
<path d="M132,0H0v46h132V0L132,0z" fill="#FFFFFF" stroke="#000000"/>
<rect x="5.8" y="2.1" width="120.5" height="41.8" fill="none"/>
<circle fill="none" cx="66" cy="0" r="0.1"/>
<circle fill="none" cx="98.7" cy="0" r="0.1"/>
<circle fill="none" cx="132" cy="11.6" r="0.1"/>
<circle fill="none" cx="132" cy="23" r="0.1"/>
<circle fill="none" cx="132" cy="34.4" r="0.1"/>
<circle fill="none" cx="98.7" cy="46" r="0.1"/>
<circle fill="none" cx="66" cy="46" r="0.1"/>
<circle fill="none" cx="33.3" cy="46" r="0.1"/>
<circle fill="none" cx="0" cy="34.4" r="0.1"/>
<circle fill="none" cx="0" cy="23" r="0.1"/>
<circle fill="none" cx="0" cy="11.6" r="0.1"/>
<circle fill="none" cx="33.3" cy="0" r="0.1"/>
</g></g><g><rect stroke="none" fill="#ffffff" width="0" height="0"/><path stroke="#000000" fill="none" d=""/><text font-size="18.7" xml:space="preserve" display="none" font-family="OpenSansCondensedLight" fill="black" text-anchor="middle"><tspan dy="0.3em" style="fill-opacity: 0; stroke-opacity: 0;">-</tspan></text></g><text font-size="18.7" xml:space="preserve" font-family="OpenSansCondensedLight" line-height="21" fill="black" text-anchor="middle" text-vertical-anchor="middle" transform="matrix(1,0,0,1,66,23)"><tspan dy="-4">MESSAGING</tspan><tspan dy="21" x="0"><tspan text-decoration="underline">2146</tspan></tspan></text></g><g data-type="tp.Element" transform="translate(260,356)"><g><g>
<path d="M132,0H0v46h132V0L132,0z" fill="#FFFFFF" stroke="#000000"/>
<rect x="5.8" y="2.1" width="120.5" height="41.8" fill="none"/>
<circle fill="none" cx="66" cy="0" r="0.1"/>
<circle fill="none" cx="98.7" cy="0" r="0.1"/>
<circle fill="none" cx="132" cy="11.6" r="0.1"/>
<circle fill="none" cx="132" cy="23" r="0.1"/>
<circle fill="none" cx="132" cy="34.4" r="0.1"/>
<circle fill="none" cx="98.7" cy="46" r="0.1"/>
<circle fill="none" cx="66" cy="46" r="0.1"/>
<circle fill="none" cx="33.3" cy="46" r="0.1"/>
<circle fill="none" cx="0" cy="34.4" r="0.1"/>
<circle fill="none" cx="0" cy="23" r="0.1"/>
<circle fill="none" cx="0" cy="11.6" r="0.1"/>
<circle fill="none" cx="33.3" cy="0" r="0.1"/>
</g></g><g><rect stroke="none" fill="#ffffff" width="0" height="0"/><path stroke="#000000" fill="none" d=""/><text font-size="18.7" xml:space="preserve" display="none" font-family="OpenSansCondensedLight" fill="black" text-anchor="middle"><tspan dy="0.3em" style="fill-opacity: 0; stroke-opacity: 0;">-</tspan></text></g><text font-size="18.7" xml:space="preserve" font-family="OpenSansCondensedLight" line-height="21" fill="black" text-anchor="middle" text-vertical-anchor="middle" transform="matrix(1,0,0,1,66,23)"><tspan dy="6.5">GAME <tspan text-decoration="underline">2148</tspan></tspan></text></g><g data-type="tp.Element" transform="translate(37,195.2)"><g><g>
<rect y="0" fill="#FFFFFF" width="25" height="30"/>
<rect x="1.7" y="2.3" fill="none" width="21.5" height="25.5"/>
<circle fill="none" cx="12.5" cy="0" r="0.1"/>
<circle fill="none" cx="19.4" cy="0" r="0.1"/>
<circle fill="none" cx="25" cy="7.3" r="0.1"/>
<circle fill="none" cx="25" cy="14.6" r="0.1"/>
<circle fill="none" cx="25" cy="22.8" r="0.1"/>
<circle fill="none" cx="19.4" cy="30" r="0.1"/>
<circle fill="none" cx="12.5" cy="30" r="0.1"/>
<circle fill="none" cx="6.3" cy="30" r="0.1"/>
<circle fill="none" cx="0" cy="22.8" r="0.1"/>
<circle fill="none" cx="0" cy="14.6" r="0.1"/>
<circle fill="none" cx="0" cy="7.3" r="0.1"/>
<circle fill="none" cx="6.4" cy="0" r="0.1"/>
</g></g><g><rect stroke="none" fill="#ffffff"/><path stroke="#000000" fill="none" d=""/><text font-size="18.7" xml:space="preserve" display="none" font-family="OpenSansCondensedLight" fill="black" text-anchor="middle"><tspan dy="0.3em" style="fill-opacity: 0; stroke-opacity: 0;">-</tspan></text></g><text font-size="18.7" xml:space="preserve" font-family="OpenSansCondensedLight" line-height="21" fill="black" text-anchor="middle" text-vertical-anchor="middle" transform="matrix(1,0,0,1,12.4,15.1)"><tspan dy="0.3em">2150</tspan></text></g><g data-type="tp.Link"><path fill="none" pointer-events="none" joint-selector="line" stroke-width="1" stroke="#333333" stroke-linejoin="round" marker-start="url(#v-68082000855011)" marker-end="url(#v-68081454029882)" d="M 43.2 225.3 C 43.2 256.7 25 256.7 25 288"/><g><g label-idx="0" cursor="default" transform="translate(34.1, 256.7)"><rect joint-selector="rect" fill="#ffffff" rx="3" ry="3" width="8" height="0" transform="matrix(1,0,0,1,-4,0)"/><text joint-selector="text" font-size="18.7" xml:space="preserve" display="none" y="0.8em" fill="#000000" text-anchor="middle" pointer-events="none" font-family="OpenSansCondensedLight"><tspan dy="0" style="fill-opacity: 0; stroke-opacity: 0;">-</tspan></text></g></g></g><g data-type="tp.Element" transform="translate(587,148)"><g><g>
<rect y="0" fill="#FFFFFF" width="30.2" height="30.2"/>
<rect x="2.1" y="2.3" fill="none" width="26" height="25.7"/>
<circle fill="none" cx="15.1" cy="0" r="0.1"/>
<circle fill="none" cx="23.5" cy="0" r="0.1"/>
<circle fill="none" cx="30.2" cy="7.3" r="0.1"/>
<circle fill="none" cx="30.2" cy="14.7" r="0.1"/>
<circle fill="none" cx="30.2" cy="23" r="0.1"/>
<circle fill="none" cx="23.5" cy="30.2" r="0.1"/>
<circle fill="none" cx="15.1" cy="30.2" r="0.1"/>
<circle fill="none" cx="7.6" cy="30.2" r="0.1"/>
<circle fill="none" cx="0" cy="23" r="0.1"/>
<circle fill="none" cx="0" cy="14.7" r="0.1"/>
<circle fill="none" cx="0" cy="7.3" r="0.1"/>
<circle fill="none" cx="7.7" cy="0" r="0.1"/>
</g></g><g><rect stroke="none" fill="#ffffff"/><path stroke="#000000" fill="none" d=""/><text font-size="18.7" xml:space="preserve" display="none" font-family="OpenSansCondensedLight" fill="black" text-anchor="middle"><tspan dy="0.3em" style="fill-opacity: 0; stroke-opacity: 0;">-</tspan></text></g><text font-size="18.7" xml:space="preserve" font-family="OpenSansCondensedLight" line-height="21" fill="black" text-anchor="middle" text-vertical-anchor="middle" transform="matrix(1,0,0,1,15,15.2)"><tspan dy="0.3em">2152</tspan></text></g><g data-type="tp.Link"><path fill="none" pointer-events="none" joint-selector="line" stroke-width="1" stroke="#333333" stroke-linejoin="round" marker-start="url(#v-68082000855011)" marker-end="url(#v-68081454029882)" d="M 610.6 178.3 C 610.6 216.7 632 216.7 632 255"/><g><g label-idx="0" cursor="default" transform="translate(621.3, 216.7)"><rect joint-selector="rect" fill="#ffffff" rx="3" ry="3" width="8" height="0" transform="matrix(1,0,0,1,-4,0)"/><text joint-selector="text" font-size="18.7" xml:space="preserve" display="none" y="0.8em" fill="#000000" text-anchor="middle" pointer-events="none" font-family="OpenSansCondensedLight"><tspan dy="0" style="fill-opacity: 0; stroke-opacity: 0;">-</tspan></text></g></g></g></g></svg>