<svg xmlns="http://www.w3.org/2000/svg" xmlns:xlink="http://www.w3.org/1999/xlink" version="1.1" width="624.2" height="864.2" viewBox="14 61.3 624.2 864.2"><defs/><g><g data-type="tp.Element" transform="translate(33,61.3)"><g><g><rect width="150" height="150" fill="none"/><svg xmlns="http://www.w3.org/2000/svg" data-name="Layer 1" viewBox="0 0 49.5 49.5" width="150" height="150" preserveAspectRatio="none"><title>Clock-01b</title><circle cx="24.8" cy="24.8" r="23.8" fill="#fff" stroke="#231f20" stroke-linecap="round" stroke-linejoin="round" stroke-width="2"/><line x1="24.8" y1="1" x2="24.8" y2="48.5" fill="none" stroke="#231f20" stroke-linejoin="round" stroke-width="1.5"/><line x1="1" y1="24.8" x2="48.5" y2="24.8" fill="none" stroke="#231f20" stroke-linejoin="round" stroke-width="1.5"/><path d="M24.8,43.1c-9.6,0-17.3-8.2-17.3-18.3S15.2,6.4,24.8,6.4s17.3,8.2,17.3,18.3S34.3,43.1,24.8,43.1Z" transform="translate(0 0)" fill="#fff"/><path d="M24.8,7.4c9,0,16.3,7.8,16.3,17.3S33.8,42.1,24.8,42.1,8.4,34.3,8.4,24.8,15.7,7.4,24.8,7.4m0-2c-10.1,0-18.3,8.7-18.3,19.3s8.2,19.3,18.3,19.3,18.3-8.7,18.3-19.3S34.9,5.4,24.8,5.4Z" transform="translate(0 0)" fill="#fff"/><polyline points="24.8 9.3 24.8 24.8 19.3 31.9" fill="none" stroke="#231f20" stroke-linecap="round" stroke-linejoin="round" stroke-width="2"/><line x1="13.8" y1="5.7" x2="12.9" y2="4.2" fill="none" stroke="#231f20" stroke-linecap="square" stroke-linejoin="round"/><line x1="35.7" y1="43.8" x2="36.6" y2="45.3" fill="none" stroke="#231f20" stroke-linecap="square" stroke-linejoin="round"/><line x1="43.3" y1="14.1" x2="45.3" y2="12.9" fill="none" stroke="#231f20" stroke-linecap="square" stroke-linejoin="round"/><line x1="6.3" y1="35.4" x2="4.2" y2="36.6" fill="none" stroke="#231f20" stroke-linecap="square" stroke-linejoin="round"/><line x1="4.2" y1="12.9" x2="6.3" y2="14.1" fill="none" stroke="#231f20" stroke-linecap="square" stroke-linejoin="round"/><line x1="43.3" y1="35.4" x2="45.3" y2="36.6" fill="none" stroke="#231f20" stroke-linecap="square" stroke-linejoin="round"/><line x1="13.8" y1="43.8" x2="12.9" y2="45.3" fill="none" stroke="#231f20" stroke-linecap="square" stroke-linejoin="round"/><line x1="35.7" y1="5.7" x2="36.6" y2="4.2" fill="none" stroke="#231f20" stroke-linecap="square" stroke-linejoin="round"/></svg></g></g><g><rect stroke="none" fill="#ffffff" width="0" height="0"/><path stroke="#000000" fill="none" d=""/><text font-size="18.7" xml:space="preserve" display="none" font-family="OpenSansCondensedLight" fill="black" text-anchor="middle"><tspan dy="0.3em" style="fill-opacity: 0; stroke-opacity: 0;">-</tspan></text></g><text font-size="18.7" xml:space="preserve" font-family="OpenSansCondensedLight" line-height="21" fill="black" text-anchor="middle" text-vertical-anchor="top" transform="matrix(1,0,0,1,75,160)"><tspan dy="14.9"><tspan text-decoration="underline">2302</tspan></tspan></text></g><g data-type="tp.Element" transform="translate(242,61.3)"><g><g><rect width="150" height="150" fill="none"/><svg xmlns="http://www.w3.org/2000/svg" data-name="Layer 1" viewBox="0 0 39.8 39.8" width="150" height="150" preserveAspectRatio="none"><title>clock2-01b</title><circle cx="19.9" cy="19.9" r="19.4" fill="#fff" stroke="#000" stroke-miterlimit="10"/><circle cx="19.9" cy="19.9" r="16.7" fill="#fff" stroke="#000" stroke-miterlimit="10" stroke-width="0.5"/><polyline points="19.3 7.8 19.3 21.1 29.2 17.8" fill="#fff" stroke="#000" stroke-linecap="round" stroke-miterlimit="10"/><circle cx="19.3" cy="20.9" r="0.8" fill="#fff" stroke="#000" stroke-linecap="round" stroke-linejoin="bevel" stroke-width="0.7"/></svg></g></g><g><rect stroke="none" fill="#ffffff" width="0" height="0"/><path stroke="#000000" fill="none" d=""/><text font-size="18.7" xml:space="preserve" display="none" font-family="OpenSansCondensedLight" fill="black" text-anchor="middle"><tspan dy="0.3em" style="fill-opacity: 0; stroke-opacity: 0;">-</tspan></text></g><text font-size="18.7" xml:space="preserve" font-family="OpenSansCondensedLight" line-height="21" fill="black" text-anchor="middle" text-vertical-anchor="top" transform="matrix(1,0,0,1,75,160)"><tspan dy="14.9"><tspan text-decoration="underline">2304</tspan></tspan></text></g><g data-type="tp.Element" transform="translate(85,298.3)"><g><g><rect width="60" height="80" fill="none"/><svg xmlns="http://www.w3.org/2000/svg" data-name="Layer 1" viewBox="0 0 91.4 119.1" width="60" height="80" preserveAspectRatio="none"><title>cursor arrow-01b</title><path d="M56,119.1a5.7,5.7,0,0,1-4.9-2.7L31.6,85.9l-21,15.7a5.6,5.6,0,0,1-6,.56A5.8,5.8,0,0,1,1.5,97V7.2a5.8,5.8,0,0,1,2.9-5,5.6,5.6,0,0,1,5.86.2L88.8,53.2a5.6,5.6,0,0,1,2.6,5.6h0a5.7,5.7,0,0,1-4,4.7L63.6,70.1,81.5,98.3a5.4,5.4,0,0,1,.76,4.4,5.8,5.8,0,0,1-2.7,3.6l-20.8,12A5.7,5.7,0,0,1,56,119.1Z" transform="translate(-0.8 -0.8)" fill="#fff" stroke="#231f20" stroke-linecap="round" stroke-linejoin="round" stroke-width="1.5"/></svg></g></g><g><rect stroke="none" fill="#ffffff" width="0" height="0"/><path stroke="#000000" fill="none" d=""/><text font-size="18.7" xml:space="preserve" display="none" font-family="OpenSansCondensedLight" fill="black" text-anchor="middle"><tspan dy="0.3em" style="fill-opacity: 0; stroke-opacity: 0;">-</tspan></text></g><text font-size="18.7" xml:space="preserve" font-family="OpenSansCondensedLight" line-height="21" fill="black" text-anchor="middle" text-vertical-anchor="top" transform="matrix(1,0,0,1,30,90)"><tspan dy="14.9"><tspan text-decoration="underline">2306</tspan></tspan></text></g><g data-type="tp.Element" transform="translate(14,506.2)"><g><g><rect width="288" height="97" fill="none"/><svg xmlns="http://www.w3.org/2000/svg" data-name="Layer 1" viewBox="0 0 99.8 33.6" width="288" height="97" preserveAspectRatio="none"><title>media player-01-01b</title><rect x="0.5" y="0.5" width="98.8" height="32.6" rx="3.4" fill="#fff" stroke="#231f20" stroke-linecap="round" stroke-miterlimit="10"/><rect x="6.3" y="8.5" width="87.2" height="1.8" rx="0.9" fill="#fff" stroke="#231f20" stroke-miterlimit="10"/><line x1="6.3" y1="13" x2="6.3" y2="14.9" fill="none" stroke="#231f20" stroke-linecap="round" stroke-miterlimit="10"/><line x1="17.2" y1="13" x2="17.2" y2="14.1" fill="none" stroke="#231f20" stroke-linecap="round" stroke-miterlimit="10"/><line x1="28.1" y1="13" x2="28.1" y2="14.9" fill="none" stroke="#231f20" stroke-linecap="round" stroke-miterlimit="10"/><line x1="39" y1="13" x2="39" y2="14.1" fill="none" stroke="#231f20" stroke-linecap="round" stroke-miterlimit="10"/><line x1="49.9" y1="13" x2="49.9" y2="14.9" fill="none" stroke="#231f20" stroke-linecap="round" stroke-miterlimit="10"/><line x1="93.5" y1="13" x2="93.5" y2="14.9" fill="none" stroke="#231f20" stroke-linecap="round" stroke-miterlimit="10"/><line x1="82.6" y1="13" x2="82.6" y2="14.1" fill="none" stroke="#231f20" stroke-linecap="round" stroke-miterlimit="10"/><line x1="71.7" y1="13" x2="71.7" y2="14.9" fill="none" stroke="#231f20" stroke-linecap="round" stroke-miterlimit="10"/><line x1="60.8" y1="13" x2="60.8" y2="14.1" fill="none" stroke="#231f20" stroke-linecap="round" stroke-miterlimit="10"/><rect x="16" y="7.4" width="12.4" height="3.9" rx="1.3" fill="#fff" stroke="#231f20" stroke-linecap="round" stroke-miterlimit="10"/><path d="M78.6,21.3l6.2,3-6.2,3v-2.5l-1.8.5-4.1,2v-6.1l4.1,2,1.8.5V21.3m-.75-1.2v2.6l-5.2-2.6v8.5L77.8,26v2.6l8.7-4.3-8.7-4.3Z" transform="translate(0.3 0.3)" fill="#231f20"/><rect x="35.3" y="20.1" width="9.1" height="9.1" fill="none" stroke="#231f20" stroke-linecap="round" stroke-miterlimit="10"/><path d="M52.5,20.6l6.4,3.7L52.5,28V20.6m-.75-1.3v10l8.7-5Z" transform="translate(0.3 0.3)" fill="#231f20"/><path d="M61.3,20v8.6h-.45V20h.45m.5-.5H60.4v9.6h1.5V19.5Z" transform="translate(0.3 0.3)" fill="#231f20"/><path d="M64.6,20v8.6h-.46V20h.46m.5-.5H63.6v9.6h1.5V19.5Z" transform="translate(0.3 0.3)" fill="#231f20"/><path d="M26.6,20.8v7.1l-4.1-2.3L21.4,25v2.9l-6.4-3.5,6.4-3.5V23.7l1.1-.7,4.1-2.3m.75-1.3-5.2,2.9V19.5L13.5,24.3l8.7,4.8V26.2l5.2,2.9V19.5Z" transform="translate(0.3 0.3)" fill="#231f20"/><g style="isolation:isolate"><path d="M17.5,3.5a3.7,3.7,0,0,1,.16-1.2,1.6,1.6,0,0,1,.46-.72,1.2,1.2,0,0,1,.78-.25,1.2,1.2,0,0,1,.61.1,1.2,1.2,0,0,1,.43.4,2.1,2.1,0,0,1,.26.6,3.9,3.9,0,0,1,.1,1,3.7,3.7,0,0,1-.16,1.2,1.5,1.5,0,0,1-.46.7,1.2,1.2,0,0,1-.78.3,1.2,1.2,0,0,1-1-.44A2.9,2.9,0,0,1,17.5,3.5Zm.54,0a2.6,2.6,0,0,0,.25,1.41.71.7,0,0,0,1.2,0,2.7,2.7,0,0,0,.25-1.4,2.6,2.6,0,0,0-.25-1.41.74.7,0,0,0-.62-.35.7.7,0,0,0-.58.3A2.8,2.8,0,0,0,18,3.5Z" transform="translate(0.3 0.3)"/><path d="M21.1,3.1v-.6h.6v.6Zm0,2.5V5h.6v.6Z" transform="translate(0.3 0.3)"/><path d="M22.5,4.5,23,4.4a1.2,1.2,0,0,0,.31.64.79.8,0,0,0,.53.2.89.9,0,0,0,.89-.9.81.8,0,0,0-.24-.6.85.9,0,0,0-.6-.23,1.4,1.4,0,0,0-.37.1l0-.47h.09a1.1,1.1,0,0,0,.61-.18.58.6,0,0,0,.27-.54.66.7,0,0,0-.2-.48.69.7,0,0,0-.51-.19.76.8,0,0,0-.51.19.92.9,0,0,0-.26.6l-.53-.09A1.3,1.3,0,0,1,23,1.6a1.3,1.3,0,0,1,.85-.29,1.4,1.4,0,0,1,.65.2,1.1,1.1,0,0,1,.45.4,1,1,0,0,1,.16.55.9.9,0,0,1-.15.5,1.1,1.1,0,0,1-.44.4,1,1,0,0,1,.59.4,1.1,1.1,0,0,1,.21.7,1.3,1.3,0,0,1-.41,1,1.5,1.5,0,0,1-1,.39,1.4,1.4,0,0,1-.94-.34A1.3,1.3,0,0,1,22.5,4.5Z" transform="translate(0.3 0.3)"/><path d="M25.9,1.9V1.4h2.8v.41a5.7,5.7,0,0,0-.82,1.2,7.1,7.1,0,0,0-.62,1.5A5.3,5.3,0,0,0,27,5.6h-.54a5.1,5.1,0,0,1,.19-1.2A6.6,6.6,0,0,1,27.2,3,5.9,5.9,0,0,1,28,1.9Z" transform="translate(0.3 0.3)"/></g></svg></g></g><g><rect stroke="none" fill="#ffffff" width="0" height="0"/><path stroke="#000000" fill="none" d=""/><text font-size="18.7" xml:space="preserve" display="none" font-family="OpenSansCondensedLight" fill="black" text-anchor="middle"><tspan dy="0.3em" style="fill-opacity: 0; stroke-opacity: 0;">-</tspan></text></g><text font-size="18.7" xml:space="preserve" font-family="OpenSansCondensedLight" line-height="21" fill="black" text-anchor="middle" text-vertical-anchor="top" transform="matrix(1,0,0,1,144,107)"><tspan dy="14.9"><tspan text-decoration="underline">2308</tspan></tspan></text></g><g data-type="tp.Element" transform="translate(302,704.7)"><g><g><rect width="288" height="130.6" fill="none"/><svg xmlns="http://www.w3.org/2000/svg" data-name="Layer 1" viewBox="0 0 372.2 168.3" width="288" height="130.6" preserveAspectRatio="none"><title>AR goggles 2</title><path d="M370.7,80.7c-.92-2.4-1.8-4.9-2.6-7.4-.69-2.1-1.2-4.2-1.9-6.3-2-5.2-6.2-7.8-11.4-8.7-2.8-.49-5.6-.72-8.4-1a7.3,7.3,0,0,0-3.9.2,2,2,0,0,1-.39.1c-2.43.2-6.86.5-8.57.6-4.26.2-8.53.4-12.79.6-4.44.2-8.88.5-13.32.7-6.68.3-13.38.5-20,1.1-5,.42-10,1.3-15,2-5.89.8-11.8,1.6-17.7,2.2a8.4,8.4,0,0,0-3.7,1,174.6,174.6,0,0,1-17.1-5.6c-4.6-1.7-9.4-3.1-13.9-4.9a65.9,65.9,0,0,0-12.4-3.2c-3.9-.72-7.8-1.1-11.7-1.5-4.5-.44-9-.75-13.5-1.1-1-.08-2.1,0-3.1,0-5.7-.24-11.4-.69-17.2-.72-10.1,0-20.25.2-30.38.2H127.4c-5.8.2-11.59.4-17.38.5-4.46.1-8.9,0-13.39.3-3.76.2-7.5.7-11.3,1C84,51,82.7,50.8,81,50.8c.69-.53,1-.78,1.3-1,2.4-1.7,4.9-3.3,7.3-5,.28-.2.3-.7.5-1.1A6.7,6.7,0,0,0,92,43.2c1.8-1.1,3.5-2.3,5.2-3.4,4.9-3.1,9.6-6.5,14.7-9.2a85.1,85.1,0,0,1,14.2-6,87.4,87.4,0,0,1,12.2-2.8,57.6,57.6,0,0,1,23,1.5,82.4,82.4,0,0,1,8.1,2.5,46.8,46.8,0,0,1,6.9,3.3c3.4,2,6.6,4.1,9.8,6.2,4.2,2.7,8.5,5.3,12.5,8.3a87.9,87.9,0,0,0,9.5,6.3A33.2,33.2,0,0,0,219,53.8a11.9,11.9,0,0,0,8.2-1.1,4.5,4.5,0,0,0,2.2-5.4,7.7,7.7,0,0,0-2.3-3.8C225,41.7,222.8,40,220.6,38.3a105.4,105.4,0,0,0-15.4-10.6c-3-1.7-5.8-3.6-8.9-5.3q-4.8-2.6-9.8-4.8c-3-1.3-6.1-2.4-9.3-3.5-4-1.4-7.9-2.8-11.9-4.1-1.5-.51-3.2-.79-4.7-1.2-4.2-1-8.4-2.2-12.6-3.1-2.7-.56-5.5-.65-8.2-1a165.3,165.3,0,0,0-23-1.5c-7.3,0-14.59.2-21.88.3q-9.75.2-19.49.7c-3.24.1-6.47.5-9.71.7C61,5,56.3,5,51.6,5.1c-4,.09-8,.32-12,.33-3.5,0-7-.19-10.5-.33C26.8,5,24.6,5,22.6,3.8c-1.7-.9-3.4-1.6-5.1-2.5a13.6,13.6,0,0,0-6.8-1.7C8.2-.28,7.38.3,6.8,2.7c-.85,3.5-1.6,7-2.4,10.4C3.8,16.3,3,19.5,2.6,22.7A139.3,139.3,0,0,0,1,37.1c-.1,3.5-.6,7.1-.73,10.7A146.7,146.7,0,0,0,.82,63.1c.47,5.6,1,11.1,2,16.6A145,145,0,0,0,6.5,95.8c1.8,6.1,4,12,6.1,18a44.6,44.6,0,0,0,2.1,4.6s.7,2.25.7,2.3a2.9,2.9,0,0,0,.31.3c.1.11.18.25.28.4,1.2,1.2,2.3,2.2,3.2,3.3a8.3,8.3,0,0,0,9.1,3c1.2-.31,2.5-.7,3.7-1,4-.86,8-1.7,12-2.5,3-.64,4.8-2.8,5.9-5.4,2.2-4.8,2.5-10,3.4-15,.42-2.34.9-4.7,1.4-7.5a13.2,13.2,0,0,1,1.2,1.3c1.1,2.5,2.1,5.1,3.2,7.6,1.6,3.6,3.1,7.1,4.8,10.6s3.3,7,5,10.4c1.6,3.1,3.3,6.2,5.1,9.2a49.8,49.8,0,0,0,3.2,4.4c.7.1,1.9,2.6,1.9,2.6a2.5,2.5,0,0,1,.4.5,9.4,9.4,0,0,1,.84.7,34.8,34.8,0,0,0,12,8.8c3.2,1.4,6.5,2.4,9.6,3.8A117.8,117.8,0,0,0,120.2,162c4.8,1.3,9.8,2,14.7,2.9,8,1.4,16.1,1.6,24.2,2a152.7,152.7,0,0,0,16.7-.34c8.5-.56,16.9-.85,25.3-2.6a96.5,96.5,0,0,0,12.1-2.9,76.2,76.2,0,0,0,11.3-5.3c4.4-2.4,8.6-5.1,12.8-7.8,6.1-4,12.2-8,18.2-12.8.5-.42,2.8-1.8,2.8-1.8l6.7-3c6.5-2.9,13.1-5.7,19.5-8.7,3.7-1.7,7.2-3.6,10.7-5.7,2.6-1.6,5.1-3.5,7.5-5.3,3.6-2.6,7.2-5.2,10.7-7.9,3.9-3.1,7.7-6.4,11.6-9.5,3.5-2.8,7.2-5.4,10.7-8.2a81.6,81.6,0,0,1,11.2-7.6,34.3,34.3,0,0,1,6.3-2.7c2.4-.76,5.5,1,6,3.3s.65,4.87.9,7.3c.1,1.1,0,2.2,0,3.2,2.7,1.8,3.2,1.9,5.78.7a15.7,15.7,0,0,0,2.9-2C371.8,85.6,372,84.1,370.7,80.7Z" transform="translate(0.2 0.8)" fill="#fff" stroke="#000" stroke-miterlimit="10"/><path d="M13.9,104.8l-.81-2.5q-2-7.2-4-14.4c0-.11-.4-.13-.58-.18-.9.1-.2.2-.19.2C9.5,92.5,10.7,96.9,12,101.4c.11.39.74.6,1.1,1-.56,1.5-.4,2,.82,2.5-.12.4-.42.9-.34,1.3a15.9,15.9,0,0,0,.87,2.7c.42,1,.93,2,1.4,3A17.1,17.1,0,0,0,13.9,104.8Z" transform="translate(0.2 0.8)" fill="#fff"/><path d="M8.5,68.4c.15-.33.5-.75.4-1-.35-1-.85-1.9-1.5-3.2-.73,2,.69,2.9,1.1,4.2a51.8,51.8,0,0,0,3.9,9c.16-.63.4-1,.28-1.2-1-2.3-2-4.7-3.1-6.9C9.5,68.9,8.9,68.7,8.5,68.4Z" transform="translate(0.2 0.8)" fill="#fff"/><path d="M254.5,115.8c-.28,4.2-.48,8.4-.63,12.5,0,1.1-.46,2.37.5,3.3h0c1.2-.19.8-1.17.9-1.89.2-4,.51-8,.59-12,0-1.64.7-3.4-.6-4.9A14.6,14.6,0,0,0,254.5,115.8Z" transform="translate(0.2 0.8)" fill="#fff"/><path d="M77.9,138.9c-2.2-3.3-4.7-6.5-6.6-9.9-2.4-4.5-4.4-9.3-6.5-13.9-2.4-5.4-4.7-10.9-7.3-16.2-1.8-3.7-3.7-7.4-8-9.1-2.6-1.1-4.8-1.3-7.1.5a9.5,9.5,0,0,0-2.9,4c-2,4.5-2.8,9.2-3.6,14-.65,3.8-1.6,7.6-2.3,11.4a11.7,11.7,0,0,1-2.4,4.6c-1.6,2.3-5.6,3-8.2,2-2.9-1.1-4.5-3.3-6.5-5.9h0a14.7,14.7,0,0,1-.92-2.1h0a16.5,16.5,0,0,0-1.2,1.1s.65,1.49.7,1.6a2.9,2.9,0,0,0,.31.3c.1.11.18.25.28.4,1.2,1.2,2.3,2.2,3.2,3.3a8.3,8.3,0,0,0,9.1,3c1.2-.31,2.5-.7,3.7-1,4-.86,8-1.7,12-2.5,3-.64,4.8-2.8,5.9-5.4,2.2-4.8,2.5-10,3.4-15,.42-2.34.9-4.7,1.4-7.5a13.2,13.2,0,0,1,1.2,1.3c1.1,2.5,2.1,5.1,3.2,7.6,1.6,3.6,3.1,7.1,4.8,10.6s3.3,7,5,10.4c1.6,3.1,3.3,6.2,5.1,9.2,1.1,1.9,2.6,3.6,3.9,5.37.46.62.93.8,1.51.2C79.5,140.1,78.4,139.6,77.9,138.9Z" transform="translate(0.2 0.8)" fill="#fff"/><path d="M343.4,58.4l-.1-.17-.37-.61c-2,.13-7.54.6-9.5.7-4.26.2-8.53.4-12.79.6-4.44.2-8.88.5-13.32.7-6.68.3-13.38.5-20,1.1-5,.42-10,1.3-15,2-5.89.8-11.8,1.6-17.7,2.2-1.71.2-3.25.4-4.5,1.64.2,1.3,1.1,1.2,2.1,1.2,1.8,0,3.55.3,5.35.5-.21,2.6-.4,4.9-.59,7.2h0a3.1,3.1,0,0,1-.31,1.9h.13c.66,4.4-1,12.6-.68,17,1.4-.92,1.4-.92,1.5-2.49.1-3.5.6-10.91.7-14.3l.25-.07a6,6,0,0,1,0-2.2,2.3,2.3,0,0,1,.11-.28c-.12-3.9,0-5.15.9-6.9,2.4-.16,4.8-.2,7.2-.52,5.5-.71,10.9-1.6,16.4-2.4q6.8-.93,13.7-1.7c2.6-.3,5.3-.48,8-.68,4-.31,8-.67,12.1-.87,6.1-.3,12.2-.47,18.3-.74,1.9-.09,7.3-.66,9.4-.87ZM297,61.8h-.06a.5.5,0,0,1,0-1h.42C297.9,61,297.6,62,297,61.8Z" transform="translate(0.2 0.8)" fill="#fff"/><path d="M370.7,80.7c-.92-2.4-1.8-4.9-2.6-7.4-.69-2.1-1.2-4.2-1.9-6.3-2-5.2-6.2-7.8-11.4-8.7-2.8-.49-5.6-.72-8.4-1a7.3,7.3,0,0,0-3.9.2,1,1,0,0,1-.6.8l.73,2h3.2c2.2-.07,4.5-.28,6.7-.24a15.5,15.5,0,0,1,4.64.6c4.4,1.5,6.9,4.9,8.1,9.2,1.1,3.6,1.8,7.4,3.5,10.81.7,1.5,1.3,3.4-.13,5.1a16.1,16.1,0,0,1-4.8,3.3c-.9-1.4-.5-2.8-.57-4.1-.14-2.5-.07-5.1-1.3-7.4-.95-1.8-2.2-3.5-4.3-3.8a14.5,14.5,0,0,0-5.6.4,33,33,0,0,0-10.2,5q-6,4.3-11.8,8.8c-4.5,3.5-8.9,7-13.4,10.6-3.4,2.7-6.7,5.6-10.2,8.1-4.9,3.5-9.9,6.9-14.8,10.2a30.9,30.9,0,0,1-4.3,2.5c-4.7,2.2-9.4,4.2-14.1,6.3l-8.7,3.8c-2.5,1.1-4.9,2.2-7.4,3.3-.23.1-.31.5-.46.8l-1.9-1,1,2c.62-.19,1.6,1.2,1.9-.47l6.7-3c6.5-2.9,13.1-5.7,19.5-8.7,3.7-1.7,7.2-3.6,10.7-5.7,2.6-1.6,5.1-3.5,7.5-5.3,3.6-2.6,7.2-5.2,10.7-7.9,3.9-3.1,7.7-6.4,11.6-9.5,3.5-2.8,7.2-5.4,10.7-8.2a81.6,81.6,0,0,1,11.2-7.6,34.3,34.3,0,0,1,6.3-2.7c2.4-.76,5.5,1,6,3.3s.65,4.87.9,7.3c.1,1.1,0,2.2,0,3.2,2.7,1.8,3.2,1.9,5.78.7a15.7,15.7,0,0,0,2.9-2C371.8,85.6,372,84.1,370.7,80.7Z" transform="translate(0.2 0.8)" fill="#fff"/><path d="M254,133.3a12.8,12.8,0,0,1-2.1,2.9c-1.8,1.5-3.9,2.7-5.9,4-2.7,1.8-5.4,3.6-8.1,5.5a96.7,96.7,0,0,1-10.4,6.6,11.4,11.4,0,0,1-1.39.5c.78-1.7,1.7-3.2,2.1-4.7,1.6-7.6,3.3-15.1,4.1-22.88.3-2.9.6-5.8.9-8.7.3-3.37.8-6.74.9-10.12.1-9.15.3-18.3-.34-27.5a28,28,0,0,0-4-13,5.7,5.7,0,0,1-1.1-2.5l-.31-.51c-.34-.57-.78-1.1-1.1-1.7h0a5.4,5.4,0,0,1-3.1-2.6c.58.2,1.17.4,1.75.6,3.9,1.4,7.7,3,11.7,4.3,3.5,1.2,10.1,2.9,13.7,4a.74.7,0,0,1,.27-.4c-.2-.35-.35-.94-.62-1a171.8,171.8,0,0,1-17.4-5.7c-4.6-1.7-9.4-3.1-13.9-4.9a66.3,66.3,0,0,0-12.4-3.2c-3.9-.72-7.8-1.1-11.7-1.5-4.5-.44-9-.75-13.5-1.1-1-.08-2.1,0-3.1,0-5.7-.24-11.4-.69-17.2-.72-10.1-.05-20.25.2-30.38.2h-4.3c-5.8.2-11.59.4-17.38.5-4.46.1-8.9,0-13.39.3-3.76.2-7.5.7-11.3,1-1.33.1-2.7-.06-4.4-.11.7-.53,1-.78,1.3-1,2.4-1.7,4.9-3.3,7.3-5,.28-.2.3-.7.5-1.1a7.2,7.2,0,0,0,1.9-.49c1.8-1.1,3.5-2.3,5.2-3.4,4.9-3.1,9.6-6.5,14.7-9.2a84,84,0,0,1,14.2-6A88.2,88.2,0,0,1,138,22.2a57.6,57.6,0,0,1,23,1.5,82.4,82.4,0,0,1,8.1,2.5A46.8,46.8,0,0,1,176,29.5c3.4,2,6.6,4.1,9.8,6.2,4.2,2.7,8.5,5.3,12.5,8.3a87.4,87.4,0,0,0,9.5,6.3,33.4,33.4,0,0,0,10.9,3.9,11.9,11.9,0,0,0,8.2-1.1,4.5,4.5,0,0,0,2.2-5.4,7.7,7.7,0,0,0-2.3-3.8c-2.2-1.7-4.4-3.4-6.5-5.2A104.7,104.7,0,0,0,204.9,28c-3-1.7-5.8-3.6-8.9-5.3q-4.8-2.6-9.8-4.8c-3-1.3-6.1-2.4-9.3-3.5-4-1.4-7.9-2.8-11.9-4.1-1.5-.51-3.2-.79-4.7-1.2-4.2-1-8.4-2.2-12.6-3.1-2.7-.56-5.5-.65-8.2-1a165.3,165.3,0,0,0-23-1.5c-7.3,0-14.59.2-21.88.3q-9.75.2-19.49.7c-3.24.1-6.47.5-9.71.7-4.73.2-9.47.2-14.2.3-4,.09-8,.32-12,.33-3.5,0-7-.19-10.5-.33-2.2-.1-4.4-.18-6.5-1.3-1.7-.9-3.4-1.6-5.1-2.5A13.6,13.6,0,0,0,10.4,0C7.89.1,7.9.6,6.5,3.1c-.85,3.5-1.6,7-2.4,10.4-.67,3.2-1.4,6.4-1.8,9.6A139.3,139.3,0,0,0,.73,37.5C.63,41,.13,44.6,0,48.2A146.8,146.8,0,0,0,.53,63.5C1,69,1.5,74.5,2.5,80A145.6,145.6,0,0,0,6.3,96.1c1.8,6.1,4,12,6.1,18a42.5,42.5,0,0,0,2.1,4.6c.32.65.8,1.2,1.71.5A171.5,171.5,0,0,1,4.6,83.3,161.3,161.3,0,0,1,1.6,45.7,176.7,176.7,0,0,1,6.8,8.3c1,2.5,2,4.5,2.7,6.6,1.7,5,5.2,8.7,8.7,12.3a80.8,80.8,0,0,0,11.1,9.3c5.9,4.1,11.8,8,18.1,11.5a18.5,18.5,0,0,1,1.9,1.4c-3.1,1.2-3.9,3.9-4.9,6.3h0a1.2,1.2,0,0,1-.17.9c-.5.5-.8.9-.11,1.4a8.3,8.3,0,0,1,0,1c-.11,3.61.7,6.9,3.5,9.42.86.76.7,1.6-.41,2.2a7.1,7.1,0,0,0-3.4,4.1c-.9,2.4-.6,4.9-.55,7.4h0a5.6,5.6,0,0,0,.2,1.2c.49.83.9,1.5,1.2,2.1,1.8,3.3,5.1,3.4,7.36.4a9.7,9.7,0,0,0,1.7-5.3c.25-3.6-.14-7.1-3.4-9.6-.42-.32-.54-1-.92-1.8,3.3-.1,4.7-2.2,5.6-4.5a14.5,14.5,0,0,0,.88-7l.17-.13a3.4,3.4,0,0,0-.15-.72,18.1,18.1,0,0,1-.47-1.9A14.6,14.6,0,0,1,54,51.5a7.5,7.5,0,0,1,1.77.2,29.7,29.7,0,0,0,9,1.6c9,.48,17.9-.52,26.8-1.2,4.5-.37,9.1-.89,13.6-1,7.4-.22,14.8-.15,22.2-.23,4.7-.06,9.4-.25,14-.25q12.6,0,25.11.2,8.52.1,17,.56c4.57.2,9.16.5,13.7,1,4.93.6,9.8,1.6,14.7,2.4a27,27,0,0,1,8.7,3.5c.25.14.38.52.58.8a11.8,11.8,0,0,1,1.1,1.4l.26-.14A18.8,18.8,0,0,0,224,61.7c.6.5,1.32.9,1.9,1.4a17,17,0,0,1,3.5,5.1,28.5,28.5,0,0,1,2.9,9.8c.3,3.31.5,6.64.6,10,.15,4.92.6,9.88.2,14.8-.67,7.5-.95,15-2,22.6-1,7.2-2.6,14.2-3.8,21.3a13.9,13.9,0,0,1-1.1,2.9c-2.2,5.1-6.9,7.4-11.5,9.5-3.5,1.7-7.4,2.4-11.3,3.3a73.6,73.6,0,0,1-8.6,1.4c-4.81.6-9.7,1-14.5,1.4-3.92.3-7.85.6-11.77.7-4.8,0-9.7-.17-14.5-.34-4-.14-7.9-.19-11.8-.63-4.6-.52-9.1-1.4-13.6-2.2A145.4,145.4,0,0,1,110.3,158c-6.3-2-12.5-4.4-18.6-7A15.2,15.2,0,0,1,88,149c-2.6-2.1-5-4.5-7.5-6.8a.64.6,0,0,1,.1-.13,2.2,2.2,0,0,1-.73-1l-.71.4c-.24.4-.44.8-.7,1.1a1.2,1.2,0,0,1,.22.2h0a2.9,2.9,0,0,1,.4.5h0c.29.22.57.45.84.7a34.8,34.8,0,0,0,12,8.8c3.2,1.4,6.5,2.4,9.6,3.8a117.4,117.4,0,0,0,18.3,5.8c4.8,1.3,9.8,2,14.7,2.9,8,1.4,16.1,1.6,24.2,2a155.3,155.3,0,0,0,16.7-.34c8.5-.56,16.9-.85,25.3-2.6a98.8,98.8,0,0,0,12.1-2.9,76.2,76.2,0,0,0,11.3-5.3c4.4-2.4,8.6-5.1,12.8-7.8,6.1-4,12.2-8,18.2-12.1a5.9,5.9,0,0,0,1.1-1.5ZM48.7,58.4a.57.6,0,0,1-.41-.16.56.6,0,0,1-.48.46.67.7,0,0,1-.42.16.71.7,0,0,1-.63-.93v-.12h0a2.8,2.8,0,0,1,.57-1.1h.13A.56.6,0,0,1,48,57h0a.63.6,0,0,1,.33-.09.58.6,0,0,1,.46.2.63.6,0,0,1-.07,1.3Z" transform="translate(0.2 0.8)" fill="#fff"/><path d="M5,32.9c-2.3,4.1-1.3,37.7,1.4,42C4.1,61,4.5,47,5,32.9Z" transform="translate(0.2 0.8)" fill="#fff"/><path d="M257.3,91.5a1.4,1.4,0,0,1-.06-.6h0l-1.25.6c-.2,4-.37,7.8-.6,11.6-.12,2.1-.35,4.1-.49,6.2-.7.9-.9,10.18.6,10.9.6-6.4,1.7-20.9,1.6-27.4l.14-.1A1,1,0,0,1,257.3,91.5Z" transform="translate(0.2 0.8)" fill="#fff"/><path d="M300.9,104.1h.5a4.7,4.7,0,0,0,.35-1.2V81.2a6.7,6.7,0,0,0-.41-1.6l-.51.1C300.8,87.9,300.7,96,300.9,104.1Z" transform="translate(0.2 0.8)" fill="#fff"/><path d="M17.3,81.7l.77-.31q-4.1-9.9-8.3-19.7c-.1-.23-.44-.36-.66-.53l-.37.2Z" transform="translate(0.2 0.8)" fill="#fff"/><path d="M298.1,85.3c-.89,1.8-.62,3.7-.58,5.6s0,4.1,0,6.1a15.2,15.2,0,0,0,.49,5.5A112.5,112.5,0,0,0,298.1,85.3Z" transform="translate(0.2 0.8)" fill="#fff"/><path d="M305.2,97.4c0-1.65.1-3.29.1-4.9s.08-3.3,0-4.91.4-3.2-.65-5C304,86.1,304.2,96.1,305.2,97.4Z" transform="translate(0.2 0.8)" fill="#fff"/><path d="M308.2,94c.72-1.63.8-9.1,0-11.1C307.5,84.8,307.5,91.7,308.2,94Z" transform="translate(0.2 0.8)" fill="#fff"/><path d="M284.1,94.1c-.72,2.5-.61,9.87.2,11.3C284.3,101.6,284.8,97.9,284.1,94.1Z" transform="translate(0.2 0.8)" fill="#fff"/><path d="M5.5,26.4C6.5,24.6,8,16.6,7.7,14.7,7,17.5,6.3,19.8,5.8,22.2A35.6,35.6,0,0,0,5.5,26.4Z" transform="translate(0.2 0.8)" fill="#fff"/><path d="M311.9,79.9h-.48a108.5,108.5,0,0,0,.48,15.7Z" transform="translate(0.2 0.8)" fill="#fff"/><path d="M290.8,104.7h.54a107.5,107.5,0,0,0-.54-14.6Z" transform="translate(0.2 0.8)" fill="#fff"/><path d="M280.6,106.8c.71-2.4.6-6.4-.17-8A49.7,49.7,0,0,0,280.6,106.8Z" transform="translate(0.2 0.8)" fill="#fff"/><path d="M318.1,89.6h.47V76.8h-.5C318,81,318,85.3,318.1,89.6Z" transform="translate(0.2 0.8)" fill="#fff"/><path d="M321.9,78.7c-.14,1.2-.52,2.51.3,3.7A5.3,5.3,0,0,0,321.9,78.7Z" transform="translate(0.2 0.8)" fill="#fff"/><path d="M277.6,103.1a2.1,2.1,0,0,0,0,3Z" transform="translate(0.2 0.8)" fill="#fff"/><path d="M287.7,99.9c-.77,1.3-.77,1.3,0,2.4Z" transform="translate(0.2 0.8)" fill="#fff"/><path d="M287.2,97.4l.57-.09c0-.71-.07-1.4-.11-2.1h-.46Z" transform="translate(0.2 0.8)" fill="#fff"/><path d="M325.1,80.4h.57c-.05-.72-.09-1.4-.14-2.2h-.43Z" transform="translate(0.2 0.8)" fill="#fff"/><path d="M294.6,92.7h-.3V94.8h.3Z" transform="translate(0.2 0.8)" fill="#fff"/><path d="M315.2,87.9h-.29v2h.29Z" transform="translate(0.2 0.8)" fill="#fff"/><path d="M294.6,97.4h-.35v2.2h.35Z" transform="translate(0.2 0.8)" fill="#fff"/><path d="M294.6,102.3l-.35-.1v2.3h.35Z" transform="translate(0.2 0.8)" fill="#fff"/><path d="M315.2,83.1H315v1.9h.27Z" transform="translate(0.2 0.8)" fill="#fff"/><path d="M287.9,104.8l-.59-.36c-.9.2-.27.4-.25.6s.28.25.43.4Z" transform="translate(0.2 0.8)" fill="#fff"/><path d="M255,130.4c-.68,1-2.2,5.1-3,5.8-1.8,1.5-3.9,2.7-5.9,4-2.7,1.8-5.4,3.6-8.1,5.5a96.7,96.7,0,0,1-10.4,6.6,11.4,11.4,0,0,1-1.39.5c.78-1.7,1.7-3.2,2.1-4.7,1.6-7.6,3.3-15.1,4.1-22.88.3-2.9.6-5.8.9-8.7.3-3.37.8-6.74.9-10.12.1-9.15.3-18.3-.34-27.5a28,28,0,0,0-4-13,5.7,5.7,0,0,1-1.1-2.5l-.31-.51c-.34-.57-.78-1.1-1.1-1.7h0a5.5,5.5,0,0,1-3-2.6c.58.2,1.17.4,1.75.6,3.9,1.4,7.7,3,11.7,4.3,3.5,1.2,10.1,2.9,13.7,4a.74.7,0,0,1,.27-.4c-.2-.35-.35-.94-.62-1a171.8,171.8,0,0,1-17.4-5.7c-4.6-1.7-9.4-3.1-13.9-4.9a66.3,66.3,0,0,0-12.4-3.2c-3.9-.72-7.8-1.1-11.7-1.5-4.5-.44-9-.75-13.5-1.1-1-.08-2.1,0-3.1,0-5.7-.24-11.4-.69-17.2-.72-10.1-.05-20.25.2-30.38.2h-4.3c-5.8.2-11.59.4-17.38.5-4.46.1-8.9,0-13.39.3-3.76.2-7.5.7-11.3,1-1.33.1-2.7-.06-4.4-.11.7-.53,1-.78,1.3-1,2.4-1.7,4.9-3.3,7.3-5,.28-.2.3-.7.5-1.1a7.2,7.2,0,0,0,1.9-.49c1.8-1.1,3.5-2.3,5.2-3.4,4.9-3.1,9.6-6.5,14.7-9.2a84,84,0,0,1,14.2-6A87.4,87.4,0,0,1,138,22.2a57.6,57.6,0,0,1,23,1.5,82.4,82.4,0,0,1,8.1,2.5A46.8,46.8,0,0,1,176,29.5c3.4,2,6.6,4.1,9.8,6.2,4.2,2.7,8.5,5.3,12.5,8.3a87.4,87.4,0,0,0,9.5,6.3,33.4,33.4,0,0,0,10.9,3.9,11.9,11.9,0,0,0,8.2-1.1,4.5,4.5,0,0,0,2.2-5.4,7.7,7.7,0,0,0-2.3-3.8c-2.2-1.7-4.4-3.4-6.5-5.2A104.7,104.7,0,0,0,204.9,28c-3-1.7-5.8-3.6-8.9-5.3q-4.8-2.6-9.8-4.8c-3-1.3-6.1-2.4-9.3-3.5-4-1.4-7.9-2.8-11.9-4.1-1.5-.51-3.2-.79-4.7-1.2-4.2-1-8.4-2.2-12.6-3.1-2.7-.56-5.5-.65-8.2-1a165.3,165.3,0,0,0-23-1.5c-7.3,0-14.59.2-21.88.3q-9.75.2-19.49.7c-3.24.1-6.47.5-9.71.7-4.73.2-9.47.2-14.2.3-4,.09-8,.32-12,.33-3.5,0-7-.19-10.5-.33-2.2-.1-4.4-.18-6.5-1.3-1.7-.9-3.4-1.6-5.1-2.5A13.6,13.6,0,0,0,10.4,0C7.89.1,7.9.6,6.5,3.1c-.85,3.5-1.6,7-2.4,10.4-.67,3.2-1.4,6.4-1.8,9.6A139.3,139.3,0,0,0,.73,37.5C.63,41,.13,44.6,0,48.2A146.8,146.8,0,0,0,.53,63.5C1,69,1.5,74.5,2.5,80A145.6,145.6,0,0,0,6.3,96.1c1.8,6.1,4,12,6.1,18a42.5,42.5,0,0,0,2.1,4.6c.32.65.8,1.2,1.71.5A171.5,171.5,0,0,1,4.6,83.3,161.3,161.3,0,0,1,1.6,45.7,176.7,176.7,0,0,1,6.8,8.3c1,2.5,2,4.5,2.7,6.6,1.7,5,5.2,8.7,8.7,12.3a80.8,80.8,0,0,0,11.1,9.3c5.9,4.1,11.8,8,18.1,11.5a18.5,18.5,0,0,1,1.9,1.4c-3.1,1.2-3.9,3.9-4.9,6.3h0a1.2,1.2,0,0,1-.17.9c-.5.5-.8.9-.11,1.4a8.3,8.3,0,0,1,0,1c-.11,3.61.7,6.9,3.5,9.42.86.76.7,1.6-.41,2.2a7.1,7.1,0,0,0-3.4,4.1c-.9,2.4-.6,4.9-.55,7.4h0a5.6,5.6,0,0,0,.2,1.2c.49.83.9,1.5,1.2,2.1,1.8,3.3,5.1,3.4,7.36.4a9.7,9.7,0,0,0,1.7-5.3c.25-3.6-.14-7.1-3.4-9.6-.42-.32-.54-1-.92-1.8,3.3-.1,4.7-2.2,5.6-4.5a14.5,14.5,0,0,0,.88-7l.17-.13a3.4,3.4,0,0,0-.15-.72,18.1,18.1,0,0,1-.47-1.9A14.6,14.6,0,0,1,54,51.5a7.5,7.5,0,0,1,1.77.2,29.7,29.7,0,0,0,9,1.6c9,.48,17.9-.52,26.8-1.2,4.5-.37,9.1-.89,13.6-1,7.4-.22,14.8-.15,22.2-.23,4.7-.06,9.4-.25,14-.25q12.6,0,25.11.2,8.52.1,17,.56c4.57.2,9.16.5,13.7,1,4.93.6,9.8,1.6,14.7,2.4a27,27,0,0,1,8.7,3.5c.25.14.38.52.58.8a11.8,11.8,0,0,1,1.1,1.4l.26-.14A18.8,18.8,0,0,0,224,61.7c.6.5,1.32.9,1.9,1.4a17,17,0,0,1,3.5,5.1,28.5,28.5,0,0,1,2.9,9.8c.3,3.31.5,6.64.6,10,.15,4.92.6,9.88.2,14.8-.67,7.5-.95,15-2,22.6-1,7.2-2.6,14.2-3.8,21.3a13.9,13.9,0,0,1-1.1,2.9c-2.2,5.1-6.9,7.4-11.5,9.5-3.5,1.7-7.4,2.4-11.3,3.3a73.6,73.6,0,0,1-8.6,1.4c-4.81.6-9.7,1-14.5,1.4-3.92.3-7.85.6-11.77.7-4.8,0-9.7-.17-14.5-.34-4-.14-7.9-.19-11.8-.63-4.6-.52-9.1-1.4-13.6-2.2A145.4,145.4,0,0,1,110.3,158c-6.3-2-12.5-4.4-18.6-7A15.2,15.2,0,0,1,88,149c-2.6-2.1-5-4.5-7.5-6.8a.64.6,0,0,1,.1-.13,2.2,2.2,0,0,1-.73-1l-.71.4c-.24.4-.44.8-.7,1.1a1.2,1.2,0,0,1,.22.2h0a2.9,2.9,0,0,1,.4.5h0c.29.22.57.45.84.7a34.8,34.8,0,0,0,12,8.8c3.2,1.4,6.5,2.4,9.6,3.8a117.4,117.4,0,0,0,18.3,5.8c4.8,1.3,9.8,2,14.7,2.9,8,1.4,16.1,1.6,24.2,2a155.3,155.3,0,0,0,16.7-.34c8.5-.56,16.9-.85,25.3-2.6a98.8,98.8,0,0,0,12.1-2.9,76.2,76.2,0,0,0,11.3-5.3c4.4-2.4,8.6-5.1,12.8-7.8,6.1-4,12.2-8,18.2-12.1a5.9,5.9,0,0,0,1.1-1.4C255.5,134.1,255.6,130.8,255,130.4ZM15.2,3.1a7.4,7.4,0,0,1,2.5.6c1.92.7,3.8,1.7,5.7,2.3,1.79.6,3.68.8,5.9,1.3-.18,7-.36,14.1-.54,21.2l-.54.2c-1.5-1.5-3.1-2.8-4.6-4.4A37.3,37.3,0,0,1,14,6.6,15.4,15.4,0,0,1,13.7,5C13.6,3.8,14.1,3.1,15.2,3.1ZM49.7,51a7.6,7.6,0,0,1,1.77.3l-.19.3-3,.29C48.2,50.8,49.1,51.1,49.7,51ZM46.8,72.8c.08,0,.36.4.33.4a5.6,5.6,0,0,1-.72.7l-.63-.7A6.3,6.3,0,0,1,46.8,72.8Zm-.75,4.5,1.42.2c-.28.9-.56,1.8-1,3.3C46.3,79.4,46.2,78.4,46.1,77.3ZM48,83.8c-1.2-1-.79-1.7,0-2.7C48.5,82,49,82.7,48,83.8Zm-.44-6.3V74.7h1l.33,3.3Zm1.7,8.7V84.3H50.9a1.7,1.7,0,0,1-1.5,1.9h-.16Zm1.7-2,.2-2.1c1.1,1,.12,1.4-.23,2.1Zm-1.5-9.8c.24-.55.4-1,.61-1.4,1,.11,1.9,2.3,2.1,4.6-.85,1.1-1.6,2.1-2.4,3.1-.24-.82-.51-1.7-.77-2.62.9-.12,1.9,0,2.2-1.26.3-1.5-.74-2-1.8-2.5Zm-.73-7.5,2.9-.32C50.4,68,50.4,68,48.7,66.8Zm3-2.6c-1.3,1.6-2.9,1.5-3.8-.35a11.7,11.7,0,0,1-1.3-5.5h.06a.66.7,0,0,1,0-.48v-.09h0a.55.6,0,0,1,.12-.35.59.6,0,0,1,.29-.65,4,4,0,0,1,.37-1.6,4.6,4.6,0,0,1,1.9-1.8,2.2,2.2,0,0,1,2,.44,8.7,8.7,0,0,1,.3,10.3Zm-.47-15.7c-4.5-2.5-8.8-5.4-13.3-8a102.3,102.3,0,0,1-14-9.9A46.2,46.2,0,0,1,14,19.9,41.5,41.5,0,0,1,8.5,7.6a15.4,15.4,0,0,1-.41-4A2,2,0,0,1,9.8,1.3a2.2,2.2,0,0,1,.51,0,30.1,30.1,0,0,1,3,.27c-2.3,3.2-.65,6,.23,8.6a57.9,57.9,0,0,0,4,8.5A17.2,17.2,0,0,0,20,22c2.1,2.4,4,5,6.4,7,3.1,2.5,5.9,5.6,9.5,7.6,2.6,1.4,4.7,3.5,7.2,5.1,3,1.9,6.1,3.6,9.3,5.3,2.6,1.4,5.3,2.6,7.9,3.89.45.2,1,.3,1.41.5a21.6,21.6,0,0,1-10.5-2.9ZM71,51c-.25-9.24.1-18.6-.16-27.9h-.63V50.7c-.63.2-1.13.5-1.35.3-1.3-.88-2.9-.26-4.6-.63V34h-.59c0,5.3-.07,10.5-.11,16.1-2.6-.58-4.8-.9-6.7-2.2-1.4-.94-2.9-1.7-4.3-2.5-3.4-1.9-6.8-3.8-10.1-5.9s-6.2-4.4-9.3-6.6c-.06,0-.09-.15-.16-.17-2.7-1-2.9-3.1-2.8-5.56.3-6.14.3-12.3.5-18.5a16.5,16.5,0,0,1,.18-1.6,25.1,25.1,0,0,1,3-.15,124.3,124.3,0,0,0,12.5,0l20-.65C70.7,6.1,75,6,79.3,5.8c5.6-.23,11.3-.61,16.9-.77,6.6-.19,13.1-.32,19.7-.27,4.9,0,9.84.2,14.72.6,6.8.6,12.2,1.3,18.2,2.4,5.3,1,10.5,2.7,15.8,3.9a105.7,105.7,0,0,1,16.2,5.6c4.7,1.9,9.2,4.1,13.7,6.5s8.8,5,13.1,7.6a107.3,107.3,0,0,1,8.8,6.2c2.7,2,5.5,4.1,8.1,6.3a13.6,13.6,0,0,1,3,3.7c1.2,2.9.1,4.1-2.2,4.9-3.3,1.1-6.42.5-9.6-.33A39.5,39.5,0,0,1,203,45.6c-4.2-3-8.6-5.8-12.9-8.7-2.4-1.6-4.6-3.4-7.1-4.8-4-2.4-8.1-4.7-12.3-6.7a41.3,41.3,0,0,0-10.5-3.4,98.2,98.2,0,0,0-10.8-1.5,65.2,65.2,0,0,0-15.9,1.2,79.8,79.8,0,0,0-19.3,6.5A158.6,158.6,0,0,0,97.1,38.1c-2.3,1.5-4.5,3-6.7,4.5-.35.3-.48.8-.69,1.3-1.1-.65-1.76.3-2.5.8-2.6,1.7-5.1,3.5-7.7,5.2S74.3,51.8,71,51Z" transform="translate(0.2 0.8)"/><path d="M370.7,80.7c-.92-2.4-1.8-4.9-2.6-7.4-.69-2.1-1.2-4.2-1.9-6.3-2-5.2-6.2-7.8-11.4-8.7-2.8-.49-5.6-.72-8.4-1a7.3,7.3,0,0,0-3.9.2,1,1,0,0,1-.6.8l.73,2h3.2c2.2-.07,4.5-.28,6.7-.24a15.5,15.5,0,0,1,4.64.6c4.4,1.5,6.9,4.9,8.1,9.2,1.1,3.6,1.8,7.4,3.5,10.81.7,1.5,1.3,3.4-.13,5.1a16.1,16.1,0,0,1-4.8,3.3c-.9-1.4-.5-2.8-.57-4.1-.14-2.5-.07-5.1-1.3-7.4-.95-1.8-2.2-3.5-4.3-3.8a14.5,14.5,0,0,0-5.6.4,33,33,0,0,0-10.2,5q-6,4.3-11.8,8.8c-4.5,3.5-8.9,7-13.4,10.6-3.4,2.7-6.7,5.6-10.2,8.1-4.9,3.5-9.9,6.9-14.8,10.2a30.9,30.9,0,0,1-4.3,2.5c-4.7,2.2-9.4,4.2-14.1,6.3l-8.7,3.8c-2.5,1.1-4.9,2.2-7.4,3.3-.23.1-.31.5-.46.8l1,.49,6.7-3c6.5-2.9,13.1-5.7,19.5-8.7,3.7-1.7,7.2-3.6,10.7-5.7,2.6-1.6,5.1-3.5,7.5-5.3,3.6-2.6,7.2-5.2,10.7-7.9,3.9-3.1,7.7-6.4,11.6-9.5,3.5-2.8,7.2-5.4,10.7-8.2a81.6,81.6,0,0,1,11.2-7.6,34.3,34.3,0,0,1,6.3-2.7c2.4-.76,5.5,1,6,3.3s.65,4.87.9,7.3c.1,1.1,0,2.2,0,3.2,2.7,1.8,3.2,1.9,5.78.7a15.7,15.7,0,0,0,2.9-2C371.8,85.6,372,84.1,370.7,80.7Zm-8.8,8.6c-1.1-2.4-.35-4.4-.72-6.4s-.67-3.8-1-5.7C362.2,78.8,362.7,83.1,361.9,89.3Z" transform="translate(0.2 0.8)"/><path d="M343.4,58.4l-.1-.17-.37-.61c-2,.13-7.54.6-9.5.7-4.26.2-8.53.4-12.79.6-4.44.2-8.88.5-13.32.7-6.68.3-13.38.5-20,1.1-5,.42-10,1.3-15,2-5.89.8-11.8,1.6-17.7,2.2-1.71.2-3.25.4-4.5,1.64.2,1.3,1.1,1.2,2.1,1.2,1.8,0,3.55.3,5.35.5-.21,2.6-.4,4.9-.59,7.2h0a3.1,3.1,0,0,1-.31,1.9h.13c.66,4.4-1,12.6-.68,17,1.4-.92,1.4-.92,1.5-2.49.1-3.5.6-10.91.7-14.3l.25-.07a6,6,0,0,1,0-2.2,2.3,2.3,0,0,1,.11-.28c-.12-3.9,0-5.15.9-6.9,2.4-.16,4.8-.2,7.2-.52,5.5-.71,10.9-1.6,16.4-2.4q6.8-.93,13.7-1.7c2.6-.3,5.3-.48,8-.68,4-.31,8-.67,12.1-.87,6.1-.3,12.2-.47,18.3-.74,1.9-.09,7.3-.66,9.4-.87Zm-51.8,4.1q-13.6,2.1-27.2,4a24.2,24.2,0,0,1-7.2-.38c1.4-.23,2.7-.5,4.1-.68,2.7-.35,5.3-.63,8-1,6.3-.82,12.6-1.7,19-2.5,2.7-.31,5.3-.31,8-.45C295,62.5,293.2,62.2,291.7,62.4Zm5.9-.87a.49.5,0,0,1-.56.3H297a.5.5,0,0,1,0-1h.42a.45.5,0,0,1,.34.5l5.2-.15c.54,0,1.1-.08,1.6-.13A17,17,0,0,1,297.6,61.6Zm7.4-.51,2.7-.42V61Zm5-.08v-.37H311v.32Z" transform="translate(0.2 0.8)"/><path d="M77.9,138.9c-2.2-3.3-4.7-6.5-6.6-9.9-2.4-4.5-4.4-9.3-6.5-13.9-2.4-5.4-4.7-10.9-7.3-16.2-1.8-3.7-3.7-7.4-8-9.1-2.6-1.1-4.8-1.3-7.1.5a9.5,9.5,0,0,0-2.9,4c-2,4.5-2.8,9.2-3.6,14-.65,3.8-1.6,7.6-2.3,11.4a11.7,11.7,0,0,1-2.4,4.6c-1.6,2.3-5.6,3-8.2,2-2.9-1.1-4.5-3.3-6.5-5.9h0a14.7,14.7,0,0,1-.92-2.1h0c-.41.4-.94,0-1.33.4,0,0,.76,2.23.8,2.3a2.9,2.9,0,0,0,.31.3c.1.11.18.25.28.4,1.2,1.2,2.3,2.2,3.2,3.3a8.3,8.3,0,0,0,9.1,3c1.2-.31,2.5-.7,3.7-1,4-.86,8-1.7,12-2.5,3-.64,4.8-2.8,5.9-5.4,2.2-4.8,2.5-10,3.4-15,.42-2.34.9-4.7,1.4-7.5a13.2,13.2,0,0,1,1.2,1.3c1.1,2.5,2.1,5.1,3.2,7.6,1.6,3.6,3.1,7.1,4.8,10.6s3.3,7,5,10.4c1.6,3.1,3.3,6.2,5.1,9.2,1.1,1.9,2.6,3.6,3.9,5.37.46.62.93.8,1.51.2C79.5,140.1,78.4,139.6,77.9,138.9ZM52.6,98.6c-.26,1.2-.46,2.3-.68,3.5s-.41,2.2-.63,3.3l-8.7,1.7a1.8,1.8,0,0,0,.19.4c1.6-.16,3.1-.31,4.7-.48,1.1-.12,2.2-.28,3.2-.43.3,2.5-.66,7-2.3,11.3l-9.8,1.86.8.5,9-1.2a7.5,7.5,0,0,1-5.2,4.2c-3.36.8-6.8,1.4-10.5,2.2L35,121l3.2-.4c-1-.76-1-.76-2.7-.7a4.9,4.9,0,0,1-.16-1.5c.47-2.5,1-4.9,1.5-7.4s1-5.1,1.4-7.7a33.6,33.6,0,0,1,3.2-9.9c1.5-3.1,5.1-4.4,8.1-2.08.13.1.29.14.42.2C53.5,94.1,53.6,94.4,52.6,98.6Z" transform="translate(0.2 0.8)"/><path d="M5,32.9C4.5,47,4.1,61,6.4,74.9,3.7,70.5,2.7,36.9,5,32.9Z" transform="translate(0.2 0.8)"/><path d="M257.3,91.5a1.4,1.4,0,0,1-.06-.6h0l-1.25.6c-.2,4-.37,7.8-.6,11.6-.12,2.1-.35,4.1-.49,6.2-.7.9-.9,10.18.6,10.9.6-6.4,1.7-20.9,1.6-27.4l.14-.1A1,1,0,0,1,257.3,91.5Z" transform="translate(0.2 0.8)"/><path d="M254.4,131.7c-1-1-.61-2.2-.57-3.38.2-4.18.4-8.37.6-12.5a14.4,14.4,0,0,1,.78-2.9h-.05c1.4,1.5.7,3.31.7,5-.08,4-.36,8-.59,12,0,.72.3,1.7-.89,1.9Z" transform="translate(0.2 0.8)"/><path d="M300.9,104.1c-.16-8.1-.07-16.3,0-24.4l.51-.09a6.7,6.7,0,0,1,.41,1.6V103a4.7,4.7,0,0,1-.35,1.2Z" transform="translate(0.2 0.8)"/><path d="M17.3,81.7,8.7,61.4l.37-.23c.22.17.56.3.66.5Q13.9,71.5,18,81.3Z" transform="translate(0.2 0.8)"/><path d="M298.1,85.3a112.5,112.5,0,0,1-.13,17.2,15.2,15.2,0,0,1-.49-5.5c0-2,.07-4.1,0-6.1S297.2,87.1,298.1,85.3Z" transform="translate(0.2 0.8)"/><path d="M13.1,102.3c-.4-.31-1-.55-1.1-.94C10.7,96.9,9.5,92.5,8.3,88l.19-.23c.18,0,.54.07.58.2l4,14.4Z" transform="translate(0.2 0.8)"/><path d="M305.2,97.4c-1-1.3-1.2-11.4-.56-14.8,1,1.73.6,3.4.7,5s0,3.3,0,4.9S305.2,95.8,305.2,97.4Z" transform="translate(0.2 0.8)"/><path d="M308.2,94c-.65-2.3-.62-9.2,0-11.1C308.9,84.9,308.9,92.3,308.2,94Z" transform="translate(0.2 0.8)"/><path d="M284.1,94.1c.65,3.75.2,7.51.2,11.3C283.5,104,283.4,96.6,284.1,94.1Z" transform="translate(0.2 0.8)"/><path d="M5.5,26.4a35.6,35.6,0,0,1,.35-4.3C6.3,19.8,7,17.5,7.7,14.7,8,16.6,6.5,24.6,5.5,26.4Z" transform="translate(0.2 0.8)"/><path d="M8.5,68.4c.4.3,1,.51,1.18.9,1.1,2.3,2.1,4.6,3.1,6.93.9.2-.12.5-.28,1.2a51.8,51.8,0,0,1-3.9-9Z" transform="translate(0.2 0.8)"/><path d="M311.9,79.9V95.5a108.5,108.5,0,0,1-.48-15.7Z" transform="translate(0.2 0.8)"/><path d="M290.8,104.7V90.1a107.5,107.5,0,0,1,.54,14.6Z" transform="translate(0.2 0.8)"/><path d="M280.6,106.8a49.7,49.7,0,0,1-.17-8C281.2,100.3,281.3,104.4,280.6,106.8Z" transform="translate(0.2 0.8)"/><path d="M318.1,89.6c-.17-4.3-.12-8.6,0-12.9h.5V89.6Z" transform="translate(0.2 0.8)"/><path d="M13.9,104.8a17.2,17.2,0,0,1,2,7c-.48-1-1-2-1.4-3a15.9,15.9,0,0,1-.87-2.7c-.08-.39.2-.86.3-1.3Z" transform="translate(0.2 0.8)"/><path d="M18.9,75.9c.89,1.9,1.8,3.8,2.8,5.9-1.5-.69-2.6-2.8-3-5.7Z" transform="translate(0.2 0.8)"/><path d="M321.9,78.7a5.3,5.3,0,0,1,.25,3.7C321.4,81.2,321.8,79.9,321.9,78.7Z" transform="translate(0.2 0.8)"/><path d="M257.3,133.5l1,.49c-.26,1.7-1.62.4-2.25.6l.14.1c-.25-.51-.57-1.1-1.1-2.1C256,133.1,256.8,133.2,257.3,133.5Z" transform="translate(0.2 0.8)"/><path d="M277.6,103.1v3A2.1,2.1,0,0,1,277.6,103.1Z" transform="translate(0.2 0.8)"/><path d="M8.5,68.4c-.38-1.2-1.8-2.2-1.1-4.16.6,1.3,1.1,2.2,1.5,3.18.9.3-.27.7-.43,1Z" transform="translate(0.2 0.8)"/><path d="M287.7,99.9v2.4C287,101.1,287,101.1,287.7,99.9Z" transform="translate(0.2 0.8)"/><path d="M287.2,97.4V95.2h.46c0,.71.1,1.42.1,2.1Z" transform="translate(0.2 0.8)"/><path d="M325.1,80.4V78.3h.43c.05.72.1,1.43.1,2.2Z" transform="translate(0.2 0.8)"/><path d="M13.9,104.8c-1.2-.51-1.4-1-.82-2.5h0c.28.84.6,1.68.8,2.5Z" transform="translate(0.2 0.8)"/><path d="M294.6,92.7V94.8h-.3V92.7Z" transform="translate(0.2 0.8)"/><path d="M315.2,87.9v2h-.29v-2Z" transform="translate(0.2 0.8)"/><path d="M294.6,97.4v2.2h-.35V97.4Z" transform="translate(0.2 0.8)"/><path d="M294.6,102.3v2.2h-.35v-2.3Z" transform="translate(0.2 0.8)"/><path d="M315.2,83.1v1.9H315V83.1Z" transform="translate(0.2 0.8)"/><path d="M287.9,104.8l-.41.6c-.15-.13-.41-.24-.43-.38s.16-.39.3-.58Z" transform="translate(0.2 0.8)"/><path d="M89.7,43.9c-1.1-.67-1.77.3-2.52.8-2.6,1.7-5.1,3.5-7.7,5.2S74.3,51.8,71,51c-.25-9.24.1-18.6-.16-27.9h-.63V50.7c-.63.2-1.13.5-1.35.3-1.3-.88-2.9-.26-4.6-.63V34h-.59c0,5.3-.07,10.5-.11,16.1-2.6-.58-4.8-.9-6.7-2.2-1.4-.94-2.9-1.7-4.3-2.5-3.4-1.9-6.8-3.8-10.1-5.9s-6.2-4.4-9.3-6.6c-.06,0-.09-.15-.16-.17-2.7-1-2.9-3.1-2.8-5.56.3-6.14.3-12.3.5-18.5a16.5,16.5,0,0,1,.18-1.6,25.1,25.1,0,0,1,3-.15,124.3,124.3,0,0,0,12.5,0l20-.65C70.7,6.1,75,6,79.3,5.8c5.6-.23,11.3-.61,16.9-.77,6.6-.19,13.1-.32,19.7-.27,4.9,0,9.84.2,14.72.6,6.8.6,12.2,1.3,18.2,2.4,5.3,1,10.5,2.7,15.8,3.9a105.7,105.7,0,0,1,16.2,5.6c4.7,1.9,9.2,4.1,13.7,6.5s8.8,5,13.1,7.6a107.3,107.3,0,0,1,8.8,6.2c2.7,2,5.5,4.1,8.1,6.3a13.6,13.6,0,0,1,3,3.7c1.2,2.9.1,4.1-2.2,4.9-3.3,1.1-6.42.5-9.6-.33A39.5,39.5,0,0,1,203,45.6c-4.2-3-8.6-5.8-12.9-8.7-2.4-1.6-4.6-3.4-7.1-4.8-4-2.4-8.1-4.7-12.3-6.7a41.3,41.3,0,0,0-10.5-3.4,98.2,98.2,0,0,0-10.8-1.5,65.2,65.2,0,0,0-15.9,1.2,79.8,79.8,0,0,0-19.3,6.5A158.6,158.6,0,0,0,97.1,38.1c-2.3,1.5-4.5,3-6.7,4.5-.36.3-.48.9-.72,1.3ZM73.8,47.6c.26-.54.5-.73.5-.93V18.1a7.1,7.1,0,0,0-.55-1.7C73.1,18.9,73.2,45.4,73.8,47.6ZM76.9,40.8c.91-2,.79-17.5,0-19ZM80,39.1h.46V18.3C79.9,25.3,79.9,32.2,80,39.1Zm-13.1,4,.54-.08c0-.78-.07-1.6-.11-2.3a2.1,2.1,0,0,0-.39,2.4Zm.4-7.2h-.4v2.4h.4Zm0-2V31.1h-.56c.18.8-.27,1.62.6,2.8Zm0-7.6h-.57c.21.8-.29,1.6.6,2.7Zm16.2-.06a2,2,0,0,0,0-2.5Zm0-4.9h.36V19.2H83.5Z" transform="translate(0.2 0.8)" fill="#fff"/><path d="M29.4,7.3c-.18,7-.36,14.1-.54,21.2l-.54.2c-1.5-1.5-3.1-2.8-4.6-4.4A37.3,37.3,0,0,1,14,6.6,15.4,15.4,0,0,1,13.7,5c-.11-1.17.4-1.9,1.6-1.9a7.4,7.4,0,0,1,2.5.6c1.92.7,3.8,1.7,5.7,2.3C25.2,6.6,27.1,6.8,29.4,7.3Z" transform="translate(0.2 0.8)" fill="#fff"/><path d="M13.2,1.6c-2.3,3.2-.65,6,.23,8.6a57.9,57.9,0,0,0,4,8.5A17.2,17.2,0,0,0,20,22c2.1,2.4,4,5,6.4,7,3.1,2.5,5.9,5.6,9.5,7.6,2.6,1.4,4.7,3.5,7.2,5.1,3,1.9,6.1,3.6,9.3,5.3,2.6,1.4,5.3,2.6,7.9,3.89.45.2,1,.3,1.41.5A21.6,21.6,0,0,1,51.2,48.5C46.7,46,42.5,43.1,38,40.5a102.3,102.3,0,0,1-14-9.9A46.2,46.2,0,0,1,14,19.8,41.5,41.5,0,0,1,8.5,7.6a15.4,15.4,0,0,1-.41-4A2,2,0,0,1,9.8,1.3a2.2,2.2,0,0,1,.51,0A29.4,29.4,0,0,1,13.2,1.6Z" transform="translate(0.2 0.8)" fill="#fff"/><path d="M51.4,53.8a2.2,2.2,0,0,0-2-.44,4.6,4.6,0,0,0-1.9,1.8,4,4,0,0,0-.37,1.59.73.7,0,0,1,.29-.07A.57.6,0,0,1,48,57h0a.56.6,0,0,1,.33-.1.58.6,0,0,1,.46.2.63.6,0,0,1,.55.7.62.6,0,0,1-.8.2h0a.61.6,0,0,1-.95.16.56.6,0,0,1-.48.46.67.7,0,0,1-.42.16.92.9,0,0,1-.68-.48h-.06a11.7,11.7,0,0,0,1.3,5.5c.92,1.8,2.5,1.9,3.78.4A8.7,8.7,0,0,0,51.4,53.8Z" transform="translate(0.2 0.8)" fill="#fff"/><path d="M48.9,78c.91-.14,1.9,0,2.2-1.27.3-1.4-.71-1.9-1.8-2.4L50,72.9c1,.11,1.9,2.3,2.1,4.6l-2.4,3.1L49,78Z" transform="translate(0.2 0.8)"/><path d="M49,78l-1.5-.51h0V74.7h1c.11,1.12.2,2.22.3,3.3Z" transform="translate(0.2 0.8)"/><path d="M48.7,66.8l2.9-.32C50.4,68,50.4,68,48.7,66.8Z" transform="translate(0.2 0.8)"/><path d="M50.9,84.2a1.7,1.7,0,0,1-1.5,1.9h-.18V84.3h1.7Z" transform="translate(0.2 0.8)"/><path d="M48,83.8c-1.2-1-.79-1.7,0-2.7C48.5,82,49,82.7,48,83.8Z" transform="translate(0.2 0.8)"/><path d="M47.5,77.4c-.28.9-.57,1.9-1,3.4l-.4-3.6,1.47.2Z" transform="translate(0.2 0.8)"/><path d="M51.2,51.6l-3,.29c-.1-1.11.9-.81,1.4-.85a7.6,7.6,0,0,1,1.77.3Z" transform="translate(0.2 0.8)"/><path d="M50.9,84.3,51.1,82c1.2,1.1,0,1.5-.25,2.3Z" transform="translate(0.2 0.8)"/><path d="M45.8,73.2a6.1,6.1,0,0,1,1-.39c.08,0,.36.4.33.4a5.6,5.6,0,0,1-.72.7Z" transform="translate(0.2 0.8)"/><path d="M361.9,89.3c-1.1-2.4-.35-4.4-.72-6.4s-.67-3.8-1-5.7C362.2,78.8,362.7,83.1,361.9,89.3Z" transform="translate(0.2 0.8)" fill="#fff"/><path d="M288.4,61.9c-6.33.8-12.7,1.7-19,2.5-2.66.4-5.32.6-8,1-1.38.2-2.74.5-4.11.7a24.2,24.2,0,0,0,7.15.4q13.6-1.8,27.2-4c1.6-.25,3.31.1,4.7-1C293.7,61.6,291,61.6,288.4,61.9Z" transform="translate(0.2 0.8)" fill="#fff"/><path d="M302.8,61.2l-5.18.2a1.2,1.2,0,0,1-.5.2,17,17,0,0,0,6.8-.45C303.9,61.1,303.3,61.2,302.8,61.2Z" transform="translate(0.2 0.8)"/><path d="M304.7,61.1l2.9-.45V61h-3Z" transform="translate(0.2 0.8)"/><path d="M311,60.9,310,61v-.37h1Z" transform="translate(0.2 0.8)"/><path d="M42.9,107.5c1.6-.16,3.1-.31,4.7-.48,1.1-.12,2.2-.28,3.2-.43.3,2.5-.66,7-2.3,11.3l-9.8,1.86.8.5,9-1.2a7.5,7.5,0,0,1-5.2,4.2c-3.36.8-6.8,1.4-10.5,2.2L35,121l3.2-.4c-1-.76-1-.76-2.7-.7a4.9,4.9,0,0,1-.16-1.5c.47-2.5,1-4.9,1.5-7.4s1-5.1,1.4-7.7a33.6,33.6,0,0,1,3.2-9.9c1.5-3.1,5.1-4.4,8.1-2.08.13.1.29.15.42.2,3.5,2.5,3.6,2.8,2.6,7-.26,1.2-.46,2.3-.68,3.5s-.41,2.2-.63,3.3l-8.7,1.7a7.4,7.4,0,0,0-4.1,1C40,108,41.5,108.6,42.9,107.5Z" transform="translate(0.2 0.8)" fill="#fff"/><path d="M42.9,107.5c-1.3,1-2.86.5-4.32.6a7.4,7.4,0,0,1,4.1-1A2,2,0,0,0,42.9,107.5Z" transform="translate(0.2 0.8)"/><path d="M73.8,47.6c-.64-2.2-.72-28.7-.1-31.3a7.1,7.1,0,0,1,.55,1.7V46.6C74.3,46.8,74.1,47,73.8,47.6Z" transform="translate(0.2 0.8)"/><path d="M76.9,40.8V21.9C77.7,23.3,77.8,38.8,76.9,40.8Z" transform="translate(0.2 0.8)"/><path d="M80,39.1c-.1-6.9-.1-13.86.5-20.8V39.1Z" transform="translate(0.2 0.8)"/><path d="M66.9,43.1a2.1,2.1,0,0,1,.43-2.4c0,.78.1,1.55.1,2.3Z" transform="translate(0.2 0.8)"/><path d="M67.3,35.9V38.3h-.4V35.9Z" transform="translate(0.2 0.8)"/><path d="M67.3,33.9c-.84-1.2-.39-2-.56-2.8h.56Z" transform="translate(0.2 0.8)"/><path d="M67.3,26.3V29c-.86-1.1-.36-1.9-.57-2.7Z" transform="translate(0.2 0.8)"/><path d="M83.5,26.2V23.7A2,2,0,0,1,83.5,26.2Z" transform="translate(0.2 0.8)"/><path d="M83.5,21.4V19.2h.36v2.1Z" transform="translate(0.2 0.8)"/><path d="M154.5,123.9c.24.76.5,1.53.7,2.3.5-1.25.5-1.3-.46-2.5l-2-2.3a6.6,6.6,0,0,0-.4-1.8c-1-1.7-2.1-3.4-3.1-5L142.7,104l-2.1-3.4c-1.6-2.5-1.6-2.5-2.8-3,.55.9,1,1.6,1.4,2.3s.75,1.6,1.2,2.3,1.1,1.8,2.3,1.8c-.38.5-.81,1-.24,1.7a20.8,20.8,0,0,1,1.7,2.3c2.2,3.6,4.3,7.3,6.5,10.9a24.9,24.9,0,0,0,2,2.6A2.6,2.6,0,0,0,154.5,123.9Z" transform="translate(0.2 0.8)" fill="#fff"/><path d="M176.3,108.4c-.07,1.4,1.1,2,2,2.8-.3-1.2-.36-2.6-2-2.7-.1-2.1-.69-3-2.7-3.9C174.6,106,175.4,107.2,176.3,108.4Z" transform="translate(0.2 0.8)" fill="#fff"/><path d="M169.7,103.9c-.51,1.5-.08,2.3,2.1,3.5l-2.1-3.5c-1-1.4-1.6-3.2-3.2-4.1C167.3,101.4,167.4,103.5,169.7,103.9Z" transform="translate(0.2 0.8)" fill="#fff"/><path d="M130.2,106.9c0,1.8,1.6,2.6,2.4,3.9a2.5,2.5,0,0,0,.17.9c1,1.6,1.9,3.2,3,4.7a14.1,14.1,0,0,0,2.2,2c-.12.3-.42.7-.33.86.9,1.5,1.8,2.9,2.8,4.34.1-2.3-1.6-3.5-2.5-5.2-1.5-2.5-3-5-4.5-7.4-.11-.18-.54-.15-.82-.22.2-1.9-.78-3.1-2.4-3.8a2.9,2.9,0,0,0-.12-1.4c-1-1.8-2.1-3.5-3.2-5.2,0-.07-.27,0-.59-.06A20.3,20.3,0,0,0,130.2,106.9Z" transform="translate(0.2 0.8)" fill="#fff"/><path d="M169.5,126.2c-.38-1.9-1.6-3.4-2.8-4.9a2,2,0,0,0-.12-.69c-2.3-3.8-4.6-7.6-7-11.3-1.6-2.5-3.4-4.9-5-7.4a3.8,3.8,0,0,0-1.9-3c-.8.2-.21.4-.16.5.57.9,1.2,1.8,1.8,2.7a15.3,15.3,0,0,0,.77,1.7q5,8.2,10,16.3a7,7,0,0,0,1.5,1.3c.39,2,1.1,3.7,3,4.7,0,.32-.13.7,0,.94,1.3,2.1,2.5,4.1,3.8,6.2a3.2,3.2,0,0,0,.59-.07,20.5,20.5,0,0,0-1.2-2.5C171.7,129.1,170.6,127.7,169.5,126.2Z" transform="translate(0.2 0.8)" fill="#fff"/><path d="M159.1,123.9a4.4,4.4,0,0,0,2.8,4.1,5,5,0,0,0,.27,1.8c1,1.8,2.1,3.5,3.2,5.26.2.31.66.5,1,.69l.37-.33-4.9-7.4-2.7-4.2c-1-2.6-3.4-6.3-5-7,1.5,2.3,2.5,4.8,4.3,6.8A1.8,1.8,0,0,0,159.1,123.9Z" transform="translate(0.2 0.8)" fill="#fff"/><path d="M125.8,106.5c0,.44-.13,1,.08,1.31.9,1.4,1.8,2.7,2.8,4,.6,1.1,1.2,2.2,1.8,3.3q3,5,6,9.9a4.7,4.7,0,0,0,1,.88,46.5,46.5,0,0,0-3.6-6.6c-1.2-2-2.3-4-3.6-5.9a10.9,10.9,0,0,0-1.6-1.6c-.06-2.3-1.8-3.6-2.9-5.2-1.3-2.2-2.6-4.4-4-6.6a3.7,3.7,0,0,0-.91-.77,1,1,0,0,0,0,1c.87,1.4,1.8,2.8,2.7,4.2C124.2,105.1,124.6,106.2,125.8,106.5Z" transform="translate(0.2 0.8)" fill="#fff"/><path d="M144,121.4c-1.1-2-2.3-4.1-3.4-6a5.4,5.4,0,0,0-1.3-1.1,42,42,0,0,0,3.6,6.5c.22.32.75.4,1.13.6a8.2,8.2,0,0,0,.57,2.3c1.1,1.9,2.3,3.8,3.5,5.6a8,8,0,0,0,1.2,1.2l.42-.37Z" transform="translate(0.2 0.8)" fill="#fff"/><path d="M131.7,102.1c-.09-2.1-.39-2.6-2.3-3.2l2.2,3.3c2.9,5.8,6.4,11,8,11.4-.93-1.4-1.8-2.5-2.5-3.7-1.3-2.1-2.5-4.4-3.8-6.5A6.4,6.4,0,0,0,131.7,102.1Z" transform="translate(0.2 0.8)" fill="#fff"/><path d="M143.5,114.3c1.8,3,3.6,6,5.4,8.94.15.24.61.3,1.38.6-1.8-3.1-3.3-5.7-4.9-8.2a9.3,9.3,0,0,0-1.7-1.6,2.9,2.9,0,0,0-.15-1.1c-1.1-1.9-2.1-3.7-3.2-5.6-.77-1.3-1.6-2.6-2.4-3.8-.53-.79-.94-1.7-2.1-2,1.1,2.1,2.5,4.1,3.7,6.2S142.2,112.1,143.5,114.3Z" transform="translate(0.2 0.8)" fill="#fff"/><path d="M143.5,99.8c.91-.75.3-1.4-.12-2.1-1.8-3-3.6-5.9-5.4-8.8-.33-.52-.64-1.3-1.7-1.1,1.1,1.9,2.1,3.6,3.2,5.4,1.4,2.2,2.7,4.4,4.1,6.6,1.9,3.1,3.8,6.3,5.8,9.4.5.77.8,2,2,2,.13,2,.7,2.9,2.6,3.4l-2.7-3.4c0-.24.1-.54,0-.71-2-3.2-3.9-6.5-6-9.6C144.9,100.4,144.5,99.4,143.5,99.8Z" transform="translate(0.2 0.8)" fill="#fff"/><path d="M166.2,114.1a5.4,5.4,0,0,0,2.6,3.4c-.46-1.5-.93-2.9-2.6-3.4.5-.84,0-1.5-.39-2.2-1.2-1.9-2.4-3.7-3.6-5.6-1.3-2.1-2.6-4.3-3.9-6.4a6.6,6.6,0,0,0-2.7-3,18.8,18.8,0,0,0,.91,2q2.2,3.5,4.4,7Q163.5,110.1,166.2,114.1Z" transform="translate(0.2 0.8)" fill="#fff"/><path d="M173.7,119.1c1.1,1.9,1.9,4,3.8,5.7,0-.44.2-.72.1-.88-.9-1.5-1.8-3.1-2.8-4.6-.15-.23-.52-.32-.79-.48a2.6,2.6,0,0,0-.22-.67c-1.7-2.8-3.4-5.7-5.2-8.5L162.8,100a1.5,1.5,0,0,0-.2,1.5c.58.9,1.4,1.8,1.9,2.7,2.1,3.4,4.1,6.9,6.2,10.4C171.6,116.1,172.7,117.6,173.7,119.1Z" transform="translate(0.2 0.8)" fill="#fff"/><path d="M163.3,123.2a7.2,7.2,0,0,0,3,5.1c-.37-2.2-1.9-3.5-3-5.1-.88-1.7-1.7-3.4-2.7-4.9-2.6-4.3-5.3-8.6-8-12.9-1.8-2.8-3.5-5.7-5.2-8.5-.43-.69-1-1.3-1.5-2l-.41.3a7.4,7.4,0,0,0,.57,1.4c1.2,1.9,2.5,3.8,3.7,5.8,1.4,2.2,2.6,4.5,4,6.8,2.3,3.8,4.6,7.5,7.1,11.3C161.4,121.4,161.8,122.9,163.3,123.2Z" transform="translate(0.2 0.8)" fill="#fff"/><path d="M172.3,108.2l-.72.4c2.6,4.2,5.1,8.5,8.1,12.5a1.1,1.1,0,0,0,.09-.91C177.3,116.1,174.8,112.2,172.3,108.2Z" transform="translate(0.2 0.8)" fill="#fff"/><path d="M126.5,116.1l.74-.41c-2.2-3.6-4.2-7.2-6.7-10.6l-.56.4Z" transform="translate(0.2 0.8)" fill="#fff"/><path d="M185.1,115.8c.2-1.7-2.4-6.1-4.1-6.7Z" transform="translate(0.2 0.8)" fill="#fff"/><path d="M118.6,109.4l-.46.3c.6,1,1.2,2,1.8,2.9s.68,2.2,2.6,2.5C120.8,113.2,120.4,110.8,118.6,109.4Z" transform="translate(0.2 0.8)" fill="#fff"/><path d="M181,115.8c-.16-1.7-1.1-2.8-2.6-4.1C178.7,113.8,179.9,114.7,181,115.8Z" transform="translate(0.2 0.8)" fill="#fff"/><path d="M181.5,116.6a4.7,4.7,0,0,0,2.5,3.6C183.4,118.7,182.9,117.4,181.5,116.6Z" transform="translate(0.2 0.8)" fill="#fff"/><path d="M171.7,122c.17,2.37.8,3.2,2.2,3.3Z" transform="translate(0.2 0.8)" fill="#fff"/><path d="M128.5,119.3l.55-.29a2.7,2.7,0,0,0-2.1-2.3Z" transform="translate(0.2 0.8)" fill="#fff"/><path d="M169.6,118.8l-.55.5c.51.82.9,1.7,2.3,1.7Z" transform="translate(0.2 0.8)" fill="#fff"/><path d="M174.3,126.6c-.16.2-.39.4-.37.6s.27.33.42.5a2.7,2.7,0,0,0,.47-.58C174.9,127,174.6,126.8,174.3,126.6Z" transform="translate(0.2 0.8)" fill="#fff"/><path d="M163.3,123.2c-1.5-.35-1.9-1.8-2.6-2.8-2.4-3.7-4.7-7.5-7.1-11.3-1.4-2.2-2.6-4.5-4-6.8-1.2-2-2.5-3.8-3.7-5.8a7.4,7.4,0,0,1-.57-1.4l.41-.25a21.2,21.2,0,0,1,1.5,2c1.8,2.8,3.5,5.7,5.2,8.5,2.7,4.3,5.4,8.6,8,12.9,1,1.6,1.8,3.3,2.7,4.9Z" transform="translate(0.2 0.8)"/><path d="M166.5,121.4A7.2,7.2,0,0,1,165,120.1q-5-8.1-10-16.3a15.3,15.3,0,0,1-.77-1.7l.3-.21c1.7,2.5,3.4,4.9,5,7.4,2.4,3.7,4.7,7.6,7,11.3a2,2,0,0,1,.12.7Z" transform="translate(0.2 0.8)"/><path d="M173.7,119.1c-1-1.5-2.1-3-3-4.5-2.1-3.4-4.1-6.9-6.2-10.4-.57-.94-1.4-1.8-1.9-2.7a1.5,1.5,0,0,1,.2-1.5l5.8,9.6c1.7,2.8,3.4,5.7,5.2,8.5a2.6,2.6,0,0,1,.22.7Z" transform="translate(0.2 0.8)"/><path d="M166.2,114.1q-2.6-4-5.3-8.1c-1.5-2.3-3-4.7-4.4-7a18.8,18.8,0,0,1-.91-2,6.6,6.6,0,0,1,2.7,3c1.4,2.1,2.6,4.3,3.9,6.4,1.2,1.9,2.4,3.8,3.6,5.63.43.68.9,1.34.4,2.2Z" transform="translate(0.2 0.8)"/><path d="M152.7,121.3a24.9,24.9,0,0,1-2-2.6c-2.2-3.6-4.3-7.3-6.5-10.9a20.8,20.8,0,0,0-1.7-2.3c-.57-.69-.14-1.15.2-1.7h-.06l6.5,10.5c1,1.7,2.1,3.3,3.1,5a6.6,6.6,0,0,1,.4,1.8Z" transform="translate(0.2 0.8)"/><path d="M128.8,111.7a10.9,10.9,0,0,1,1.6,1.6c1.2,1.9,2.4,4,3.6,5.9a46.5,46.5,0,0,1,3.6,6.6,4.7,4.7,0,0,1-1-.88q-3-5-6-9.9c-.64-1.1-1.2-2.2-1.8-3.3Z" transform="translate(0.2 0.8)"/><path d="M172.3,108.2c2.5,4,5,8,7.5,12a1.1,1.1,0,0,1-.9.9c-3-4-5.5-8.3-8.1-12.5Z" transform="translate(0.2 0.8)"/><path d="M151.3,111.3c-1.3-.07-1.5-1.3-2-2-2-3.1-3.9-6.3-5.8-9.4h-.06c1.1-.41,1.49.5,1.9,1.1,2,3.2,4,6.4,6,9.63.1.2,0,.47,0,.71Z" transform="translate(0.2 0.8)"/><path d="M143.5,114.3c-1.3-2.2-2.6-4.4-3.9-6.5s-2.6-4-3.7-6.2c1.15.2,1.6,1.2,2.1,2,.84,1.2,1.6,2.5,2.4,3.8,1.1,1.8,2.2,3.7,3.2,5.6a2.9,2.9,0,0,1,.15,1.1Z" transform="translate(0.2 0.8)"/><path d="M143.5,99.8c-1.4-2.2-2.8-4.4-4.1-6.6-1.1-1.7-2.1-3.5-3.2-5.4,1.1-.16,1.36.6,1.7,1.1,1.9,2.9,3.7,5.9,5.4,8.81.39.6,1,1.33.1,2.1Z" transform="translate(0.2 0.8)"/><path d="M131.7,102.1a6.5,6.5,0,0,1,1.6,1.3c1.3,2.1,2.5,4.4,3.8,6.49.7,1.2,1.6,2.3,2.5,3.7-1.6-.37-5.2-5.6-8-11.4Z" transform="translate(0.2 0.8)"/><path d="M126.5,116.1q-3.3-5.3-6.5-10.7l.56-.35c2.5,3.4,4.5,7,6.7,10.6Z" transform="translate(0.2 0.8)"/><path d="M143.7,114a9.3,9.3,0,0,1,1.7,1.6c1.6,2.5,3,5.1,4.9,8.2-.77-.34-1.2-.39-1.4-.63-1.8-3-3.6-6-5.4-8.9Z" transform="translate(0.2 0.8)"/><path d="M144,121.4l5.7,8.6-.42.4a8,8,0,0,1-1.2-1.2c-1.2-1.9-2.4-3.7-3.5-5.6a8.2,8.2,0,0,1-.57-2.3Z" transform="translate(0.2 0.8)"/><path d="M161.8,128.1l4.9,7.4-.37.3c-.33-.22-.79-.38-1-.69-1.1-1.7-2.2-3.5-3.2-5.3a5,5,0,0,1-.27-1.8Z" transform="translate(0.2 0.8)"/><path d="M125.8,106.5c-1.3-.25-1.6-1.4-2.2-2.3-.9-1.4-1.8-2.8-2.7-4.2a1,1,0,0,1,0-1,3.7,3.7,0,0,1,.91.8c1.4,2.2,2.7,4.4,4,6.6Z" transform="translate(0.2 0.8)"/><path d="M137.9,118.4a13.3,13.3,0,0,1-2.2-2c-1.1-1.5-2-3.1-3-4.7a2.5,2.5,0,0,1-.17-.89c.28.7.7,0,.82.2,1.5,2.5,3,5,4.5,7.4Z" transform="translate(0.2 0.8)"/><path d="M144.1,121.3c-.38-.21-.91-.32-1.1-.64a42,42,0,0,1-3.6-6.5,5.4,5.4,0,0,1,1.3,1.1c1.2,2,2.3,4,3.4,6Z" transform="translate(0.2 0.8)"/><path d="M159.1,123.9a1.9,1.9,0,0,1-.59-.29c-1.8-2-2.9-4.6-4.3-6.8,1.53.8,4,4.4,5,7Z" transform="translate(0.2 0.8)"/><path d="M169.5,126.2c1.1,1.5,2.2,3,3.3,4.5a20.5,20.5,0,0,1,1.2,2.5c-.33,0-.56.1-.59.1-1.3-2-2.6-4.1-3.8-6.2-.14-.24,0-.62,0-.94Z" transform="translate(0.2 0.8)"/><path d="M142.8,104c-1.27.1-1.8-.94-2.3-1.8s-.8-1.5-1.2-2.3-.89-1.4-1.4-2.3c1.22.4,1.22.4,2.8,3l2.1,3.4Z" transform="translate(0.2 0.8)"/><path d="M185.1,115.8l-4.1-6.7C182.7,109.7,185.3,114.1,185.1,115.8Z" transform="translate(0.2 0.8)"/><path d="M130.2,106.9a20.4,20.4,0,0,1-4-6.6c.32,0,.54,0,.59.1,1.1,1.7,2.2,3.4,3.2,5.18.21.36.09.9.1,1.4Z" transform="translate(0.2 0.8)"/><path d="M174,118.8c.27.16.64.25.79.5,1,1.5,1.9,3.1,2.8,4.6.9.2,0,.44-.6.9-1.9-1.6-2.7-3.7-3.8-5.7Z" transform="translate(0.2 0.8)"/><path d="M118.6,109.4c1.8,1.4,2.2,3.7,3.9,5.7-1.9-.21-2-1.6-2.6-2.5s-1.2-2-1.8-2.9Z" transform="translate(0.2 0.8)"/><path d="M137.9,118.4c.92,1.7,2.6,2.9,2.5,5.2-.93-1.4-1.9-2.9-2.8-4.3-.09-.17.2-.57.3-.86Z" transform="translate(0.2 0.8)"/><path d="M125.8,106.5c1.1,1.7,2.9,3,2.9,5.2l-.12.1c-.93-1.3-1.9-2.6-2.8-4-.21-.32-.06-.87-.08-1.3Z" transform="translate(0.2 0.8)"/><path d="M163.3,123.3c1.1,1.6,2.6,2.9,3,5.1a7.2,7.2,0,0,1-3-5.1Z" transform="translate(0.2 0.8)"/><path d="M181,115.8c-1.1-1-2.3-2-2.6-4.1C179.9,113,180.9,114.1,181,115.8Z" transform="translate(0.2 0.8)"/><path d="M181.5,116.6c1.34.8,1.8,2.1,2.5,3.6A4.7,4.7,0,0,1,181.5,116.6Z" transform="translate(0.2 0.8)"/><path d="M169.7,103.9c-2.3-.38-2.5-2.5-3.3-4,1.64.9,2.2,2.7,3.2,4.1Z" transform="translate(0.2 0.8)"/><path d="M159.1,123.9l.07-.07c.87,1.4,1.8,2.8,2.6,4.2h0A4.4,4.4,0,0,1,159.1,123.9Z" transform="translate(0.2 0.8)"/><path d="M166.6,121.3c1.2,1.5,2.5,2.9,2.8,4.9h.05c-1.9-1-2.6-2.8-3-4.7Z" transform="translate(0.2 0.8)"/><path d="M171.7,122l2.2,3.3C172.5,125.2,171.9,124.4,171.7,122Z" transform="translate(0.2 0.8)"/><path d="M151.3,111.3l2.7,3.4c-1.9-.54-2.5-1.4-2.6-3.4Z" transform="translate(0.2 0.8)"/><path d="M132.5,110.8c-.76-1.3-2.3-2.1-2.4-3.9h-.05C131.8,107.7,132.8,108.9,132.5,110.8Z" transform="translate(0.2 0.8)"/><path d="M176.3,108.4c-.85-1.2-1.7-2.3-2.8-3.8a3.7,3.7,0,0,1,2.7,3.9Z" transform="translate(0.2 0.8)"/><path d="M169.7,103.9l2.1,3.5c-2.2-1.2-2.6-2-2.1-3.5C169.7,103.9,169.7,103.9,169.7,103.9Z" transform="translate(0.2 0.8)"/><path d="M131.6,102.2l-2.2-3.3c1.87.6,2.2,1.1,2.3,3.2Z" transform="translate(0.2 0.8)"/><path d="M166.1,114.2c1.67.5,2.1,2,2.6,3.4a5.4,5.4,0,0,1-2.6-3.4Z" transform="translate(0.2 0.8)"/><path d="M128.5,119.3l-1.5-2.5a2.7,2.7,0,0,1,2.1,2.3Z" transform="translate(0.2 0.8)"/><path d="M154.5,101.9l-.3.2c-.59-.89-1.2-1.8-1.8-2.7-.05-.7.1-.26.2-.5A3.8,3.8,0,0,1,154.5,101.9Z" transform="translate(0.2 0.8)"/><path d="M176.2,108.4c1.66.2,1.7,1.6,2,2.7-.87-.78-2-1.4-2-2.8Z" transform="translate(0.2 0.8)"/><path d="M169.6,118.8l1.8,2.2c-1.4,0-1.8-.86-2.3-1.7Z" transform="translate(0.2 0.8)"/><path d="M152.7,121.4l2,2.3-.25.2a2.6,2.6,0,0,1-1.8-2.5Z" transform="translate(0.2 0.8)"/><path d="M154.7,123.7c.92,1.25.9,1.26.5,2.5-.24-.77-.47-1.5-.71-2.3Z" transform="translate(0.2 0.8)"/><path d="M174.3,126.6c.23.21.55.42.52.5a2.7,2.7,0,0,1-.47.6c-.15-.16-.39-.31-.42-.49S174.2,126.8,174.3,126.6Z" transform="translate(0.2 0.8)"/><ellipse cx="49.7" cy="60.1" rx="3.6" ry="6.5" fill="#fff" stroke="#000" stroke-miterlimit="10" stroke-width="2.7"/></svg></g></g><g><rect stroke="none" fill="#ffffff" width="0" height="0"/><path stroke="#000000" fill="none" d=""/><text font-size="18.7" xml:space="preserve" display="none" font-family="OpenSansCondensedLight" fill="black" text-anchor="middle"><tspan dy="0.3em" style="fill-opacity: 0; stroke-opacity: 0;">-</tspan></text></g><text font-size="18.7" xml:space="preserve" font-family="OpenSansCondensedLight" line-height="21" fill="black" text-anchor="middle" text-vertical-anchor="top" transform="matrix(1,0,0,1,144,140.6)"><tspan dy="14.9"><tspan text-decoration="underline">2310</tspan></tspan></text></g><g data-type="tp.Element" transform="translate(460.8,61.3)"><g><g><rect width="135" height="150" fill="none"/><svg xmlns="http://www.w3.org/2000/svg" data-name="Layer 1" viewBox="0 0 52 57.7" width="135" height="150" preserveAspectRatio="none"><title>user</title><path d="M49.2,39.7c-3.4-1.2-10.5-4.8-15.5-7.3C38.1,29.7,41.1,23.8,41.1,17c0-9.4-5.7-17-12.8-17S15.6,7.6,15.6,17c0,6.8,3,12.7,7.4,15.4C17.8,35,10.3,38.7,7.5,39.7c-2.4.9-4.6,2.1-4.6,4.6v7.7a4.7,4.7,0,0,0,4.6,4.6H49.2a4.7,4.7,0,0,0,4.6-4.6V44.3C53.9,41.8,51.6,40.6,49.2,39.7Z" transform="translate(-2.3 0.5)" fill="#fff" stroke="#231f20" stroke-miterlimit="10"/></svg></g></g><g><rect stroke="none" fill="#ffffff" width="0" height="0"/><path stroke="#000000" fill="none" d=""/><text font-size="18.7" xml:space="preserve" display="none" font-family="OpenSansCondensedLight" fill="black" text-anchor="middle"><tspan dy="0.3em" style="fill-opacity: 0; stroke-opacity: 0;">-</tspan></text></g><text font-size="18.7" xml:space="preserve" font-family="OpenSansCondensedLight" line-height="21" fill="black" text-anchor="middle" text-vertical-anchor="top" transform="matrix(1,0,0,1,67.5,160)"><tspan dy="14.9"><tspan text-decoration="underline">2312</tspan></tspan></text></g><g data-type="tp.Element" transform="translate(429,296.3)"><g><g><rect width="181" height="83.9" fill="none"/><svg xmlns="http://www.w3.org/2000/svg" data-name="Layer 1" viewBox="0 0 137 63.4" width="181" height="83.9" preserveAspectRatio="none"><title>key</title><path d="M135.7,26.1,126.2,20a.81.8,0,0,0-.42-.12H78.2V14.3a4.1,4.1,0,0,0-5.9-3.9l-12.7,8h0a31.2,31.2,0,1,0,0,25.7h0l12.7,8a4.1,4.1,0,0,0,5.9-3.9V40.4h7.7a.78.8,0,0,1,.47.2L90.9,45a.78.8,0,0,0,1-.11l5.1-6.8a.78.8,0,0,1,1.2,0L104,44.2a.78.8,0,0,0,.56.2h1.9a.76.8,0,0,0,.62-.31l4.3-5.9a.79.8,0,0,1,1.2,0l5,6a.76.8,0,0,0,.6.3h6.5a.77.8,0,0,0,.64-.34L135.9,31.4A.75.8,0,0,0,136,31V26.8A.77.8,0,0,0,135.7,26.1ZM18,39.7a8.5,8.5,0,1,1,8.5-8.5A8.5,8.5,0,0,1,18,39.7Z" transform="translate(0.5 0.5)" fill="#fff" stroke="#231f20" stroke-miterlimit="10"/><polygon points="70.8 35.7 133 35.7 135.8 32.2 62.8 32.2 70.8 35.7" fill="#fff" stroke="#231f20" stroke-miterlimit="10"/></svg></g></g><g><rect stroke="none" fill="#ffffff" width="0" height="0"/><path stroke="#000000" fill="none" d=""/><text font-size="18.7" xml:space="preserve" display="none" font-family="OpenSansCondensedLight" fill="black" text-anchor="middle"><tspan dy="0.3em" style="fill-opacity: 0; stroke-opacity: 0;">-</tspan></text></g><text font-size="18.7" xml:space="preserve" font-family="OpenSansCondensedLight" line-height="21" fill="black" text-anchor="middle" text-vertical-anchor="top" transform="matrix(1,0,0,1,90.5,93.9)"><tspan dy="14.9"><tspan text-decoration="underline">2314</tspan></tspan></text></g><g data-type="tp.Element" transform="translate(200,296.1)"><g><g><rect width="68" height="84.3" fill="none"/><svg xmlns="http://www.w3.org/2000/svg" data-name="Layer 1" viewBox="0 0 46.3 57.4" width="68" height="84.3" preserveAspectRatio="none"><title>hand</title><path d="M49.3,13.6a4.4,4.4,0,0,0-4.1-4.7,4.4,4.4,0,0,0-4.1,4.7V7.7c0-2.7-1.9-4.9-4.3-4.9h-.07c-2.4,0-4.3,2.2-4.3,4.9V5.3c0-2.9-2.1-5.3-4.7-5.3s-4.7,2.4-4.7,5.3V9.1c0-2.7-1.9-4.9-4.3-4.9h-.07c-2.4,0-4.3,2.2-4.3,4.9v10c0-2.9-1.9-2.7-3.6-2.6-2,.09-4.6,2.6-5.8,8a66,66,0,0,0-.73,10.5c-.05,8.3,4.9,12.7,7.5,15.3,4.2,4.3,12.4,6,15.2,6s13.7,2,19.8-8.9C51.3,39.4,49.3,13.6,49.3,13.6Z" transform="translate(-3.9 0.5)" fill="#fff" stroke="#231f20" stroke-linecap="round" stroke-miterlimit="10"/><line x1="10.6" y1="19.6" x2="10.7" y2="29.4" fill="none" stroke="#231f20" stroke-linecap="round" stroke-miterlimit="10"/><line x1="19.2" y1="7.6" x2="19.2" y2="16.1" fill="none" stroke="#231f20" stroke-linecap="round" stroke-miterlimit="10"/><line x1="28.5" y1="8.2" x2="28.5" y2="15.2" fill="none" stroke="#231f20" stroke-linecap="round" stroke-miterlimit="10"/><line x1="37.2" y1="14.1" x2="37.1" y2="19.6" fill="none" stroke="#231f20" stroke-linecap="round" stroke-miterlimit="10"/></svg></g></g><g><rect stroke="none" fill="#ffffff" width="0" height="0"/><path stroke="#000000" fill="none" d=""/><text font-size="18.7" xml:space="preserve" display="none" font-family="OpenSansCondensedLight" fill="black" text-anchor="middle"><tspan dy="0.3em" style="fill-opacity: 0; stroke-opacity: 0;">-</tspan></text></g><text font-size="18.7" xml:space="preserve" font-family="OpenSansCondensedLight" line-height="21" fill="black" text-anchor="middle" text-vertical-anchor="top" transform="matrix(1,0,0,1,34,94.3)"><tspan dy="14.9"><tspan text-decoration="underline">2316</tspan></tspan></text></g><g data-type="tp.Element" transform="translate(302,282.8)"><g><g><rect width="68" height="110.9" fill="none"/><svg xmlns="http://www.w3.org/2000/svg" data-name="Layer 1" viewBox="0 0 45.6 74.2" width="68" height="110.9" preserveAspectRatio="none"><title>pointing hand</title><path d="M49.3,30.6a4.4,4.4,0,0,0-4.1-4.7,4.4,4.4,0,0,0-4.1,4.7V24.7c0-2.7-1.9-4.9-4.3-4.9h-.07c-2.4,0-4.3,2.2-4.3,4.9V22.3c0-2.9-2.1-5.3-4.7-5.3s-4.7,2.4-4.7,5.3v3.8c0-.29,0-21.6-.06-21.8a4.5,4.5,0,0,0-4.2-4h-.07A4.6,4.6,0,0,0,14.5,5.1v31c-1.1-2.5-3-2.6-3.6-2.6-2.8,0-5.8,2.5-5.8,8,0,20.2,4.2,23.1,6.7,25.7,4.2,4.3,12.4,6,15.2,6s13.7,2,19.8-8.9C51.3,56.4,49.3,30.6,49.3,30.6Z" transform="translate(-4.7 0.3)" fill="#fff" stroke="#231f20" stroke-linecap="round" stroke-miterlimit="10"/><line x1="9.8" y1="36.4" x2="9.9" y2="46.2" fill="none" stroke="#231f20" stroke-linecap="round" stroke-miterlimit="10"/><line x1="18.5" y1="24.4" x2="18.4" y2="32.9" fill="none" stroke="#231f20" stroke-linecap="round" stroke-miterlimit="10"/><line x1="27.8" y1="25" x2="27.8" y2="32" fill="none" stroke="#231f20" stroke-linecap="round" stroke-miterlimit="10"/><line x1="36.4" y1="30.9" x2="36.4" y2="36.4" fill="none" stroke="#231f20" stroke-linecap="round" stroke-miterlimit="10"/></svg></g></g><g><rect stroke="none" fill="#ffffff" width="0" height="0"/><path stroke="#000000" fill="none" d=""/><text font-size="18.7" xml:space="preserve" display="none" font-family="OpenSansCondensedLight" fill="black" text-anchor="middle"><tspan dy="0.3em" style="fill-opacity: 0; stroke-opacity: 0;">-</tspan></text></g><text font-size="18.7" xml:space="preserve" font-family="OpenSansCondensedLight" line-height="21" fill="black" text-anchor="middle" text-vertical-anchor="top" transform="matrix(1,0,0,1,34,120.9)"><tspan dy="14.9"><tspan text-decoration="underline">2318</tspan></tspan></text></g><g data-type="tp.Element" transform="translate(70.5,732)"><g><g><rect width="75" height="76" fill="none"/><svg xmlns="http://www.w3.org/2000/svg" data-name="Layer 1" viewBox="0 0 61.7 62.4" width="75" height="76" preserveAspectRatio="none"><title>refresh</title><path d="M25.51.1a28.4,28.4,0,0,0-9.7,53.7" transform="translate(2.5 2.9)" fill="none" stroke="#231f20" stroke-linecap="round" stroke-miterlimit="10" stroke-width="5"/><polygon points="14.4 62.4 28 59.4 18.6 49.1 14.4 62.4" fill="#231f20"/><path d="M25.5,56.6" transform="translate(2.5 2.9)" fill="none"/><path d="M25.51.1" transform="translate(2.5 2.9)" fill="none"/><path d="M31.2,56.6A28.4,28.4,0,0,0,40.9,2.9" transform="translate(2.5 2.9)" fill="none" stroke="#231f20" stroke-linecap="round" stroke-miterlimit="10" stroke-width="5"/><polygon points="47.3 0 33.7 3 43.1 13.3 47.3 0" fill="#231f20"/></svg></g></g><g><rect stroke="none" fill="#ffffff" width="0" height="0"/><path stroke="#000000" fill="none" d=""/><text font-size="18.7" xml:space="preserve" display="none" font-family="OpenSansCondensedLight" fill="black" text-anchor="middle"><tspan dy="0.3em" style="fill-opacity: 0; stroke-opacity: 0;">-</tspan></text></g><text font-size="18.7" xml:space="preserve" font-family="OpenSansCondensedLight" line-height="21" fill="black" text-anchor="middle" text-vertical-anchor="top" transform="matrix(1,0,0,1,37.5,86)"><tspan dy="14.9"><tspan text-decoration="underline">2320</tspan></tspan></text></g><g data-type="tp.Element" transform="translate(336.2,506.2)"><g><g><rect width="288" height="123.8" fill="none"/><svg xmlns="http://www.w3.org/2000/svg" data-name="Layer 1" viewBox="0 0 199.4 86" width="288" height="123.8" preserveAspectRatio="none"><title>goggles</title><path d="M186.4,85H119.1s-6.7-17.9-19.9-18c-12.9-.13-19.8,18-19.8,18H12A12,12,0,0,1,0,73V12A12,12,0,0,1,12,0H186.4a12,12,0,0,1,12,12V73A12,12,0,0,1,186.4,85Z" transform="translate(0.5 0.5)" fill="#fff" stroke="#231f20" stroke-miterlimit="10"/><path d="M183.9,82.2H120.5S112,64.5,99.2,64.4c-12.5-.12-21.3,17.8-21.3,17.8H14.5A11.5,11.5,0,0,1,2.8,71V14A11.5,11.5,0,0,1,14.5,2.8H183.9A11.5,11.5,0,0,1,195.6,14V71A11.5,11.5,0,0,1,183.9,82.2Z" transform="translate(0.5 0.5)" fill="#fff" stroke="#231f20" stroke-miterlimit="10"/><circle cx="99.7" cy="18.2" r="8.5" fill="#fff" stroke="#231f20" stroke-miterlimit="10"/><line x1="30.1" y1="47.1" x2="47.2" y2="30.1" fill="none" stroke="#231f20" stroke-miterlimit="10"/><line x1="22.4" y1="62.6" x2="56.8" y2="28.2" fill="none" stroke="#231f20" stroke-miterlimit="10"/><line x1="22.2" y1="69.9" x2="49.7" y2="42.4" fill="none" stroke="#231f20" stroke-miterlimit="10"/><line x1="36.7" y1="61.8" x2="60.8" y2="37.7" fill="none" stroke="#231f20" stroke-miterlimit="10"/><line x1="31" y1="75.2" x2="55" y2="51.2" fill="none" stroke="#231f20" stroke-miterlimit="10"/><line x1="47" y1="65.7" x2="64" y2="48.7" fill="none" stroke="#231f20" stroke-miterlimit="10"/><line x1="144" y1="46.1" x2="161.1" y2="29.1" fill="none" stroke="#231f20" stroke-miterlimit="10"/><line x1="136.3" y1="61.6" x2="170.7" y2="27.2" fill="none" stroke="#231f20" stroke-miterlimit="10"/><line x1="136.1" y1="68.8" x2="163.6" y2="41.3" fill="none" stroke="#231f20" stroke-miterlimit="10"/><line x1="150.6" y1="60.7" x2="174.7" y2="36.7" fill="none" stroke="#231f20" stroke-miterlimit="10"/><line x1="144.9" y1="74.2" x2="168.9" y2="50.1" fill="none" stroke="#231f20" stroke-miterlimit="10"/><line x1="160.9" y1="64.7" x2="177.9" y2="47.7" fill="none" stroke="#231f20" stroke-miterlimit="10"/></svg></g></g><g><rect stroke="none" fill="#ffffff" width="0" height="0"/><path stroke="#000000" fill="none" d=""/><text font-size="18.7" xml:space="preserve" display="none" font-family="OpenSansCondensedLight" fill="black" text-anchor="middle"><tspan dy="0.3em" style="fill-opacity: 0; stroke-opacity: 0;">-</tspan></text></g><text font-size="18.7" xml:space="preserve" font-family="OpenSansCondensedLight" line-height="21" fill="black" text-anchor="middle" text-vertical-anchor="top" transform="matrix(1,0,0,1,144,133.8)"><tspan dy="14.9"><tspan text-decoration="underline">2322</tspan></tspan></text></g></g></svg>