<svg xmlns="http://www.w3.org/2000/svg" xmlns:xlink="http://www.w3.org/1999/xlink" version="1.1" width="796.4" height="604" viewBox="45 17.6 796.4 604"><defs/><g><g data-type="tp.Element" transform="translate(390,30)"><g><g><rect width="107.1" height="574" fill="none"/><svg xmlns="http://www.w3.org/2000/svg" data-name="Layer 1" viewBox="0 0 99.4 541.5" width="107.1" height="574" preserveAspectRatio="none"><defs><style>.cls-1{fill:none;}.cls-1,.cls-2,.cls-3{stroke:#000;}.cls-1,.cls-3{stroke-miterlimit:10;}.cls-2,.cls-3{fill:#fff;stroke-linecap:round;}.cls-2{stroke-linejoin:round;}</style></defs><title>Human_body_front_and_side</title><path d="M41.1,144.2s0-2.9-.1-6.5a48.9,48.9,0,0,0-1.2-10.5c-.6-2.2-1.7-4.2-2.4-4.3a8.5,8.5,0,0,0-4.1,1.5,10.3,10.3,0,0,1-6.5,1.1c-2-.4-4.6-3.4-5.8-6.7a75.7,75.7,0,0,1-2.9-10.3c-.4-2.3.1-8.2,1-13a104.6,104.6,0,0,1,5-16.8c1.8-4.4,5.8-9.8,8.9-12a41.1,41.1,0,0,1,11.4-5.4,62,62,0,0,1,8.9-1.5,23.4,23.4,0,0,1,7.5,1.5,32.6,32.6,0,0,1,8,4.7,19.6,19.6,0,0,1,4.9,7.3c.8,2.3,1.6,8.2,1.8,13s-.1,10-.7,11.4a16.8,16.8,0,0,1-3.7,4.9,31.6,31.6,0,0,0-4,4.5,9.2,9.2,0,0,0-1.5,4.3,9.9,9.9,0,0,0,1.8,4.7,64.2,64.2,0,0,0,4.5,5.4c1.5,1.6,4.2,4.7,6.2,7a85.1,85.1,0,0,1,5.6,7.5,69.1,69.1,0,0,1,3.8,7.7,130.3,130.3,0,0,1,3.8,14.2c1.1,5.5,2.4,12.4,2.7,15.3s.3,6.3-.1,7.4a9.8,9.8,0,0,1-2.9,3.7,19.8,19.8,0,0,1-3.7,2.3l-1.6.7"/><path d="M48.3,141.9s-1.2.2-2.7.5a19.4,19.4,0,0,0-6.3,3.1,106,106,0,0,0-10.1,9.5c-3.6,3.8-8,8.8-9.8,11.1a64.5,64.5,0,0,0-6.2,10.6c-1.6,3.5-2.3,8-1.6,10l1.3,3.7"/><path d="M37.6,186.9s-1.6.7-3.7,1.5a39.2,39.2,0,0,1-9.7,1.9,28.9,28.9,0,0,1-9.3-.6c-1.8-.6-3.4,1.9-3.5,5.4s-.2,7.5-.2,8.8a17.4,17.4,0,0,0,.8,4.2c.4,1,.7,5.2.7,9.4a45,45,0,0,0,2.3,13.6,65.1,65.1,0,0,1,2.9,10.1,47.1,47.1,0,0,1-.3,10.4c-.5,3.5-1.2,8.4-1.6,10.9a27.5,27.5,0,0,0,0,8.1,78.9,78.9,0,0,0,3.5,10.4c1.6,3.7,2.9,6.8,2.9,6.8"/><path d="M22.3,288.1s-1,1.3-2.3,3a32.7,32.7,0,0,0-3.9,7.2,34.2,34.2,0,0,0-1.7,9.4,54.5,54.5,0,0,0,1.8,12.2c1.1,3.9,3.1,10.4,4.5,14.4s3.7,10.7,5.3,14.8a87.1,87.1,0,0,1,3.9,13.7c.6,3.4,1.5,9.5,1.9,13.5s.7,9.9.7,13.1.3,7.3.9,9,3.4,4.3,6.4,5.7,6.1,2.5,7,2.5a3.3,3.3,0,0,0,2.5-1.7c.5-.9.9-1.7.9-1.7"/><path d="M39.4,406s.1,1.1.2,2.5.1,7.3,0,13.2a146.3,146.3,0,0,0,.3,14.7,41.5,41.5,0,0,0,2.5,8.7c1.1,2.6,2.8,6.3,3.9,8.3s1.7,6.4,1.4,9.7-.9,10.1-1.4,15-1.4,11.8-2.2,15.4a57.4,57.4,0,0,1-3.9,11.5c-1.4,2.8-3.4,6.4-4.5,8.1a18.5,18.5,0,0,1-5.3,5.1c-1.8,1.1-5.3,3.1-7.8,4.5s-6.7,3.7-9.4,5.4-6.5,4.3-8.5,5.9a18.6,18.6,0,0,0-4.1,4.2,2.1,2.1,0,0,0,1.1,2.3c.9.6,3.9.6,6.6,0s7.5-1.3,10.7-1.7,8.2-1.1,11.1-1.6a58.2,58.2,0,0,1,9.9-.8,66.6,66.6,0,0,1,9.1,1.1c2.5.6,6.1,1.6,8.1,2.3a15.3,15.3,0,0,0,5.8,1,5.8,5.8,0,0,0,2.9-.9c.4-.4.7-2.1.7-3.9s-.1-4.1-.2-5.3a32.2,32.2,0,0,0-1.7-6.1c-.8-2.2-1.8-5.3-2.2-7a25.6,25.6,0,0,1,.2-8.2c.5-2.9,1.3-8,1.8-11.4s1.7-10.1,2.7-14.8a115.4,115.4,0,0,1,4.2-14.7c1.3-3.3,3.6-8.5,5-11.5a56.6,56.6,0,0,0,3.5-9.9,66.6,66.6,0,0,0,.7-11.8,90,90,0,0,0-.9-11.1c-.4-2.1-2-8-3.5-13.1s-3.7-11.3-4.7-13.7a19.3,19.3,0,0,0-2.6-4.8c-.4-.3-.5-1.6-.1-3.1s1.5-8.3,2.5-15.3,2.2-15.8,2.6-19.6,1.2-11,1.7-15.9,1-12,1-15.8-.1-8.5-.3-10.6-.8-5.1-1.1-6.6a23,23,0,0,0-1.6-4.5c-.5-.9-.9-1.6-.9-1.6"/><path d="M77,309.6l2.9-4a46.5,46.5,0,0,0,4.5-8,41.2,41.2,0,0,0,2.1-9.3c.3-2.9,2.1-6.8,1.8-8.7s-.5-5.6-1.4-8.3a34.3,34.3,0,0,0-4.9-8.8c-1.8-2.1-3.2-3.9-3.2-3.9l-2.6-7.6a29,29,0,0,1-2.7-11.6v-.9a27,27,0,0,1,.8-7.5l2.4-9.7a29.6,29.6,0,0,0,.8-7.8h0c-.2-7.1,1.2-14,5.7-19.5l2.8-6.9"/><path d="M17.9,199s1.1,1.6,2.5,3.5a82.4,82.4,0,0,1,4.9,7.9,36.3,36.3,0,0,1,2.9,6.7,50,50,0,0,1,.6,6.6c.1,2.3.1,4.19.1,4.2"/><path d="M22,249.3a10.3,10.3,0,0,0,.7,1,1.2,1.2,0,0,1,.1,1.5,4.4,4.4,0,0,1-.6.5"/><path d="M89.7,180.1c2-2.7,1.1-6.6,1.1-8.3l.3-17.7s.7-2.5,1.6-5.5,2-6.2,2.3-7.3,1-4.4,1.6-7.4.8-6.3.4-7.4a15.3,15.3,0,0,1-.1-5.3,23,23,0,0,1,1-4.3,15.1,15.1,0,0,0,.9-3.8,23.4,23.4,0,0,0-.1-5.3c-.2-1.4-.5-3.7-.6-5.2a49.3,49.3,0,0,1,.3-7.3c.3-2.5-.7-7.6-2-11.3S93,75.7,92,73.8a83.9,83.9,0,0,0-4.9-7.2c-1.6-2.1-4.1-5.1-5.6-6.7a55,55,0,0,1-5.8-8.1c-1.7-2.8-4.4-7.7-6-10.8s-2.9-5.6-2.9-5.6l.1-.2a9.5,9.5,0,0,0,1-2.7,3.7,3.7,0,0,0-.7-2.9,26.1,26.1,0,0,1-1.9-2.7,21.3,21.3,0,0,1-1.5-4.5c-.3-1.6-.9-5.1-1.2-7.7a61.4,61.4,0,0,0-1.4-7.4A12.6,12.6,0,0,0,59,3,9.9,9.9,0,0,0,54.49.7a26.4,26.4,0,0,0-7,0,16.8,16.8,0,0,0-6.2,2.6,9.3,9.3,0,0,0-2.6,4c-.2,1.1.6,4.2,1.7,6.7s2,4.6,2,4.6l.1.3a7.2,7.2,0,0,0-3.5.6c-1.4.7-2.7,1.5-2.7,1.9s.6,1.7,1.5,2.9a7.6,7.6,0,0,0,3,2.6c.8.2,2,1.5,2.7,3a34.5,34.5,0,0,0,2.4,4.1,10,10,0,0,0,2.3,2.3,23.5,23.5,0,0,0,4,1.3c.2,0,2.7.5,2.7.5l.3.1c.6.3,1.2,2.6,1.5,3.2a21.1,21.1,0,0,1,1.2,4.1c.4,1.6,1,3.9,1.4,5s1.4,5.3,2.2,9.3,1.7,8.5,1.9,10a17.5,17.5,0,0,1-.8,6.5,42.4,42.4,0,0,0-1.5,6.8,36.1,36.1,0,0,0,.9,9c.7,3.3,2.7,10.5,4.5,16.1s3.3,10.1,3.3,10.1v.2c-1.3,1.6-2.8,3.7-3.9,5.2a44.1,44.1,0,0,0-3.7,6.5,35.6,35.6,0,0,0-1.7,7.3c-.2,2.3-.7,6.7-.9,9.8s-.5,5.6-.5,5.6L59,153c-.5.6-1,1.2-1.4,1.7-1,1.3-2.1,4.6-2.6,7.4a59.7,59.7,0,0,0-.8,8.6"/><path d="M63.4,149.2s-.9.8-2,1.7a28.5,28.5,0,0,0-2.4,2.4"/><path d="M73.2,114.5s-1.1,1.4-2.5,3.1c-.3.4-.7.8-1.1,1.3"/><path d="M49.6,26.8s-1.1-1.5-2.5-3.3a15.2,15.2,0,0,0-4.4-4,3,3,0,0,0-1-.2"/></svg></g></g><g><rect stroke="none" fill="#ffffff" width="0" height="0"/><path stroke="#000000" fill="none" d=""/><text font-size="18.7" xml:space="preserve" display="none" font-family="OpenSansCondensedLight" fill="black" text-anchor="middle"><tspan dy="0.3em" style="fill-opacity: 0; stroke-opacity: 0;">-</tspan></text></g><text font-size="18.7" xml:space="preserve" font-family="OpenSansCondensedLight" line-height="21" fill="black" text-anchor="middle" text-vertical-anchor="top" transform="matrix(1,0,0,1,53.6,584)" display="none"><tspan dy="0.8em" style="fill-opacity: 0; stroke-opacity: 0;">-</tspan></text></g><g data-type="tp.Element" transform="translate(540,30)"><g><g><rect width="256.4" height="574" fill="none"/><svg xmlns="http://www.w3.org/2000/svg" data-name="Layer 1" viewBox="0 0 221.6 493.6" width="256.4" height="574" preserveAspectRatio="none"><defs><style>.cls-1,.cls-2,.cls-3{fill:none;stroke:#000;}.cls-1{stroke-linecap:round;}.cls-1,.cls-2{stroke-linejoin:round;}.cls-3{stroke-miterlimit:10;}</style></defs><title>Human_body_front_and_side</title><path d="M126.7,47.5c.1-.3.3-.6.4-.9"/><path d="M43.4,108.7a50.9,50.9,0,0,1-.1-13.5,23.8,23.8,0,0,1,5.1-11,33.5,33.5,0,0,1,8.7-6.4,28.8,28.8,0,0,1,7.1-2.2c1.4-.1,2.5-.2,2.5-.2h0l9-4.7,16.9-6h0a47.7,47.7,0,0,0,.5-4.8c.1-2.9.1-7.4,0-9.8s-.3-4.5-.3-4.5v-.2a35.2,35.2,0,0,1-1.6-4.5c-1-3.2-1.7-10.1-1.7-15.4s.6-11.3,1.2-13.3a22.1,22.1,0,0,1,4.4-7,17.6,17.6,0,0,1,7.1-4.3,44.3,44.3,0,0,1,11.7-.1c4.3.5,8.7,1.5,9.8,2.3s3.2,4.4,4.6,7.9A48.3,48.3,0,0,1,131,25a70,70,0,0,1-1.7,15.5,39.1,39.1,0,0,1-2.1,6"/><path d="M43.2,106.3s-1.6,3.2-3.6,7a130.6,130.6,0,0,0-6.3,15.2,115.9,115.9,0,0,0-4,19.4c-.7,6.2-1.2,16.9-1.2,23.9s.1,12.6.1,12.6"/><path d="M30.9,181s-1.2,1.7-2.7,3.7a56.5,56.5,0,0,0-5.2,8.9c-1.4,2.9-2.5,9.9-2.5,15.6s.1,15.5.1,21.9-.3,12.3-.7,13.3a4.8,4.8,0,0,1-2.1,2.3,9.1,9.1,0,0,0-2.6,2,33.5,33.5,0,0,0-3.1,3.8c-1,1.3-2.4,3-3.1,3.7a20.5,20.5,0,0,1-4.9,2.8c-1.9.8-3.5,1.9-3.6,2.3s.7,1.6,1.6,2.5a5.8,5.8,0,0,0,3.1,1.5,12.9,12.9,0,0,0,4.5-2.6c1.7-1.4,3.6-2.2,4.1-2s.7,2.9.2,5.9a99.7,99.7,0,0,0-.7,10.9c0,3,1.2,6,2.6,6.7a21.1,21.1,0,0,0,6,1.6,6.8,6.8,0,0,0,5.2-1.7c1-1.2,2.4-5.1,3-8.8s1.7-9.9,2.4-13.8a65.1,65.1,0,0,0,1.1-11c-.1-2.1,1.7-6.8,3.9-10.4a68.6,68.6,0,0,0,6.2-14.1,173.9,173.9,0,0,0,3.9-18.3c.9-5.9,1.7-15.2,1.9-20.7s.2-10,.2-10"/><path d="M49.3,185s1.2-2.5,2.7-5.6a75.9,75.9,0,0,0,4.5-13.7,92,92,0,0,0,2-13.5c.1-2.9,0-10.8-.4-17.5"/><path d="M58.7,146.7s1.2,2.7,2.7,6,2.8,13.3,2.9,22.1-.4,17.9-1.2,20.2a44.5,44.5,0,0,0-1.7,10.9c-.1,3.7,0,11.5.2,17.4s1,11.4,1.6,12.1.6,2.8-.1,4.6a53.4,53.4,0,0,0-2.2,9.3,154.2,154.2,0,0,0-.9,17.5,217.9,217.9,0,0,0,1.9,23.7c1,6.7,2.6,17.4,3.6,23.7a126.7,126.7,0,0,0,2.9,14.4,13.1,13.1,0,0,0,3,4.8"/><path d="M71.3,333.5s-.5,1.8-1.1,4a78.6,78.6,0,0,0-1.6,13.4,162.8,162.8,0,0,0,.1,17.2c.3,4.3,1.8,14.5,3.2,22.7s3.9,21.9,5.5,30.4,2.8,16.6,2.7,18a51.5,51.5,0,0,1-.7,5.3,4.6,4.6,0,0,0,1.5,4.3,7.2,7.2,0,0,1,2.5,4,22.8,22.8,0,0,1-.7,6.8,110,110,0,0,1-3.9,11.2,52.8,52.8,0,0,0-3.2,10.5c-.2,2,0,4.5.5,5.4s3.7,2.8,7.1,4.1a34.5,34.5,0,0,0,9.5,2.3c1.9,0,3.9-.4,4.6-1a12.8,12.8,0,0,0,2.6-3.2c.8-1.2,1.4-9.7,1.5-18.8s.5-17.2,1-17.9a5.8,5.8,0,0,0,.9-2.7,29.6,29.6,0,0,0-1.6-5.9c-.9-2.5-1.7-9.2-1.7-14.8s0-12.6.1-15.4a48.4,48.4,0,0,1,1.9-10.5c.9-2.9,2.3-7.3,3.1-9.6s2.1-7.4,2.9-11.1a97.7,97.7,0,0,0,1.4-16.5,89.5,89.5,0,0,0-3.1-20.5c-1.7-5.9-3.1-10.7-3.1-10.7"/><path d="M102.2,336.6a40.2,40.2,0,0,0,2.2-8c.5-2.9,1.4-10.1,2-15.9s4.1-18.8,4.4-26.5-.1-22.7.2-26.2"/><path d="M117.6,336.3a47.3,47.3,0,0,1-2.1-6.9c-.5-2.2-1.4-9-2-14.9s-2.1-24.7-2.5-32.9"/><path d="M116.4,333.4s-1.2,3.8-2.6,8.4a100.6,100.6,0,0,0-3,11.7c-.2,1.8-.3,7.7-.2,13.1a157.6,157.6,0,0,0,1.2,16.9,59.7,59.7,0,0,0,3.4,12.5,72.1,72.1,0,0,1,3.1,9.3c.5,2.2.9,10.2,1,17.8s-.4,15.8-1.1,18.3-1.5,5.2-1.7,6.2a6.3,6.3,0,0,0,.4,3.8c.5,1.2,1,9.7,1.1,18.9s.6,17.6,1.1,18.6a6.9,6.9,0,0,0,3.4,2.8,18.6,18.6,0,0,0,6.9.4,45.1,45.1,0,0,0,9.3-2.6c2.7-1.1,5-3.6,5.1-5.7s-1.5-8.1-3.5-13.6-3.8-12-4-14.6.7-5.7,2-6.9,2.3-2.9,2.2-3.7a6.3,6.3,0,0,0-1.2-2.8c-.6-.7-.8-3.4-.4-5.8s1.7-9.2,2.9-15.1,3.1-16.1,4.2-22.8,2.8-16.4,3.6-21.6a118.7,118.7,0,0,0,1.2-18.8c-.1-5.2-.6-12.6-1.1-16.5s-.9-7.1-.9-7.1v-.7a23.6,23.6,0,0,0,2.4-5.2,106.8,106.8,0,0,0,2.7-12.1c.8-4.6,2.3-14.5,3.4-22s2.1-19.5,2.4-26.8-.4-17.5-1.5-22.7-2-9.5-2-9.5"/><path d="M160.7,135.1c-.1,5.3-.4,10.8-.6,12.2a52.3,52.3,0,0,1-2.4,7.9c-1.1,2.9-2.3,6.4-2.6,7.7s-.6,8.8-.6,16.8.6,16.7,1.4,19.4a46.1,46.1,0,0,1,1.4,10.7c0,3.2-.2,9.9-.5,14.9s-.6,10-.7,11a6.7,6.7,0,0,1-1.1,3c-.5.6-.9,1.1-.9,1.1"/><path d="M170.5,184.2s-.9-1.7-1.9-3.8-2.5-5.2-3.2-6.9a42.3,42.3,0,0,1-2-8c-.4-2.7-1.3-8.3-1.9-12.4l-1.1-7.5"/><path d="M170.5,176.6v4.9c0,2.7.2,7.6.5,10.7s.9,9.7,1.5,14.4,1.5,11,2.1,13.8a53.1,53.1,0,0,0,3.4,10.2,99.7,99.7,0,0,0,5.9,10.9c2,3.2,3.6,5.9,3.6,5.9"/><path d="M187.5,247.6v2.7a26.4,26.4,0,0,0,.6,5.5c.3,1.6,1,4.7,1.4,7s1.1,6.8,1.5,10a43.4,43.4,0,0,0,2.1,8.9c.8,1.7,2.5,3.4,3.9,3.7a12.5,12.5,0,0,0,4.7.1,14.4,14.4,0,0,0,4.7-2.5c1.4-1.1,2.4-4.4,2.2-7.4a74.6,74.6,0,0,0-1.1-10c-.5-2.5-.5-4.7-.1-4.8a11.4,11.4,0,0,1,4.2,1.7,20.4,20.4,0,0,0,5,2.2,5,5,0,0,0,3-.9,3.8,3.8,0,0,0,1.5-1.9c0-.5-1.4-1.4-3.2-2a18.7,18.7,0,0,1-5.5-3.8c-1.3-1.4-3.2-3.8-4.3-5.2a12.1,12.1,0,0,0-4-3.4c-1.1-.5-2.3-3.1-2.5-5.8s-.5-12.8-.5-22.4-.2-18.4-.4-19.6a29,29,0,0,0-2.1-6,50.8,50.8,0,0,0-4.9-8c-1.7-2.3-3.2-4.2-3.2-4.2"/><path d="M126.6,47.9v7.6a52.1,52.1,0,0,0,.7,9.6l-.1-.2s1.7.7,3.8,1.5,5.7,2.1,8,2.9,5.6,1.8,7.4,2.4a28,28,0,0,1,5.5,2.6l2.3,1.6.2.1h1.2a24.5,24.5,0,0,1,15.3,7.2,25.3,25.3,0,0,1,4.9,6.9c.7,1.7,1.2,6.3,1.2,10.1l-.3,6.4s1.5,3,3.2,6.6,4.2,9.2,5.4,12.4,2.8,8.4,3.6,11.6a117.8,117.8,0,0,1,2.1,11.6,132.1,132.1,0,0,1,.7,13.3c0,4.1.1,10.6.2,14.4s.2,6.9.2,6.9"/><path d="M88.3,220s-.3,4.3.7,6"/><path d="M132.3,220s.3,4.3-.7,6"/><path d="M111.7,286s.7,7.3,16.7,8.7"/><path d="M110.3,285.6s-.7,7.3-16.7,8.7"/><path d="M129.6,90.7s-2.6,16.8,5.2,31.8"/><path d="M94.1,90.4s2.6,16.8-5.2,31.8"/><line x1="110.3" y1="95.3" x2="110.3" y2="197.6"/></svg></g></g><g><rect stroke="none" fill="#ffffff" width="0" height="0"/><path stroke="#000000" fill="none" d=""/><text font-size="18.7" xml:space="preserve" display="none" font-family="OpenSansCondensedLight" fill="black" text-anchor="middle"><tspan dy="0.3em" style="fill-opacity: 0; stroke-opacity: 0;">-</tspan></text></g><text font-size="18.7" xml:space="preserve" font-family="OpenSansCondensedLight" line-height="21" fill="black" text-anchor="middle" text-vertical-anchor="top" transform="matrix(1,0,0,1,128.2,584)" display="none"><tspan dy="0.8em" style="fill-opacity: 0; stroke-opacity: 0;">-</tspan></text></g><g data-type="tp.Element" transform="translate(45,17.6)"><g><g><rect width="256.4" height="574" fill="none"/><svg xmlns="http://www.w3.org/2000/svg" data-name="Layer 1" viewBox="0 0 221.6 493.8" width="256.4" height="574" preserveAspectRatio="none"><defs><style>.cls-1{fill:none;stroke:#000;stroke-miterlimit:10;}</style></defs><title>Human_body_front_and_side</title><path d="M113.91.8a44.3,44.3,0,0,0-11.7.1,17,17,0,0,0-7.1,4.3,24.1,24.1,0,0,0-4.4,7c-.7,2-1.2,8-1.2,13.3a70.7,70.7,0,0,0,1.7,15.4,51.9,51.9,0,0,0,4.6,10.4,14.6,14.6,0,0,0,8.1,5.7,39.8,39.8,0,0,0,10.3.5c2.8-.3,6.9-2.5,9.1-4.7s4.9-7.7,6-12.2a66.2,66.2,0,0,0,1.7-15.7,57,57,0,0,0-2.7-14c-1.4-3.5-3.4-7.1-4.6-7.9S118.2,1.2,113.91.8Z"/><path d="M92.9,45.6s.1,2,.3,4.5a80,80,0,0,1,0,9.8c-.2,2.9-.5,5.8-.9,6.4s-.6,1.1-.6,1.1"/><polyline points="73.8 77.4 66.8 75.5 75.8 70.8 92.8 64.8"/><path d="M44.6,115.7s-.5-3.1-1.1-6.9a50.9,50.9,0,0,1-.1-13.5,23.8,23.8,0,0,1,5.1-11,33.5,33.5,0,0,1,8.7-6.4,28.8,28.8,0,0,1,7.1-2.2c1.4-.1,2.5-.2,2.5-.2"/><path d="M43.3,106.4s-1.6,3.2-3.6,7a130.6,130.6,0,0,0-6.3,15.2,115.9,115.9,0,0,0-4,19.4c-.7,6.2-1.2,16.9-1.2,23.9s.1,12.6.1,12.6"/><path d="M30.9,181.2s-1.2,1.7-2.7,3.7a56.5,56.5,0,0,0-5.2,8.9c-1.4,2.9-2.5,9.9-2.5,15.6s.1,15.5.1,21.9-.3,12.3-.7,13.3a4.8,4.8,0,0,1-2.1,2.3,9.1,9.1,0,0,0-2.6,2,33.5,33.5,0,0,0-3.1,3.8c-1,1.3-2.4,3-3.1,3.7a18.7,18.7,0,0,1-4.9,2.8c-1.9.8-3.5,1.9-3.6,2.3s.7,1.6,1.6,2.5a5.5,5.5,0,0,0,3.1,1.5,12.9,12.9,0,0,0,4.5-2.6c1.7-1.4,3.6-2.2,4.1-2s.7,2.9.2,5.9a99.7,99.7,0,0,0-.7,10.9c0,3,1.2,6,2.6,6.7a21.1,21.1,0,0,0,6,1.6,6.8,6.8,0,0,0,5.2-1.7c1-1.2,2.4-5.1,3-8.8s1.7-9.9,2.4-13.8a65.1,65.1,0,0,0,1.1-11c-.1-2.1,1.7-6.8,3.9-10.4a68.6,68.6,0,0,0,6.2-14.1,179.5,179.5,0,0,0,3.9-18.3c.9-5.9,1.7-15.2,1.9-20.7s.2-10,.2-10"/><path d="M49.4,185.1s1.2-2.5,2.7-5.6a75.9,75.9,0,0,0,4.5-13.7,92,92,0,0,0,2-13.5c.1-3,0-10.8-.4-17.5s-.6-12.2-.6-12.2"/><path d="M58.7,146.9s1.2,2.7,2.7,6,2.8,13.3,2.9,22.1-.4,17.9-1.2,20.2a44.5,44.5,0,0,0-1.7,10.9c-.1,3.7,0,11.5.2,17.4s1,11.4,1.6,12.1.6,2.8-.1,4.6a53.4,53.4,0,0,0-2.2,9.3A155.6,155.6,0,0,0,60,267a217.9,217.9,0,0,0,1.9,23.7c1,6.7,2.6,17.4,3.6,23.7a126.7,126.7,0,0,0,2.9,14.4,13.1,13.1,0,0,0,3,4.8,7.1,7.1,0,0,0,3.9,1.9h1.9"/><path d="M71.4,333.7s-.5,1.8-1.1,4a78.6,78.6,0,0,0-1.6,13.4c-.2,5.2-.2,12.9.1,17.2s1.8,14.5,3.2,22.7,3.9,21.9,5.5,30.4,2.8,16.6,2.7,18a51.5,51.5,0,0,1-.7,5.3A4.6,4.6,0,0,0,81,449a7.2,7.2,0,0,1,2.5,4,22.8,22.8,0,0,1-.7,6.8,110,110,0,0,1-3.9,11.2,52.8,52.8,0,0,0-3.2,10.5c-.2,2,0,4.5.5,5.4s3.7,2.8,7.1,4.1a34.5,34.5,0,0,0,9.5,2.3c1.9,0,3.9-.4,4.6-1a12.8,12.8,0,0,0,2.6-3.2c.8-1.2,1.4-9.7,1.5-18.8s.5-17.2,1-17.9a5.8,5.8,0,0,0,.9-2.7,29.6,29.6,0,0,0-1.6-5.9c-.9-2.5-1.7-9.2-1.7-14.8s0-12.6.1-15.4a48.4,48.4,0,0,1,1.9-10.5c.9-2.9,2.3-7.3,3.1-9.6s2.1-7.4,2.9-11.1a97.7,97.7,0,0,0,1.4-16.5,89.5,89.5,0,0,0-3.1-20.5c-1.7-5.9-3.1-10.7-3.1-10.7"/><path d="M77.8,343.9s1,.7,2.1,1.6a9.7,9.7,0,0,0,5,1.7,30.8,30.8,0,0,0,7.7-1.1c2.7-.7,4.9-1.2,4.9-1.2"/><path d="M101,339.5s.6-1.2,1.2-2.7a40.2,40.2,0,0,0,2.2-8c.5-2.9,1.4-10.1,2-15.9s1.3-17,1.6-24.7.9-17,1.2-20.5.6-6.4.6-6.4"/><path d="M95.5,241.4s1,2.3,2.2,5.2a44.7,44.7,0,0,0,4.6,8.3,16.8,16.8,0,0,0,4.2,4,10.6,10.6,0,0,0,4,.9,5.9,5.9,0,0,0,4-2.5,33,33,0,0,0,3.6-7.9c1-3,1.7-5.4,1.7-5.4"/><path d="M118.9,339.2s-.6-1.3-1.2-2.8a57.7,57.7,0,0,1-2.1-6.9c-.5-2.2-1.4-9-2-14.9s-1.5-17.6-1.9-25.8-1-17.7-1.2-21-.5-6.1-.5-6.1"/><path d="M116.4,333.5s-1.2,3.8-2.6,8.4a100.6,100.6,0,0,0-3,11.7c-.2,1.8-.3,7.7-.2,13.1a157.6,157.6,0,0,0,1.2,16.9,59.7,59.7,0,0,0,3.4,12.5,72.1,72.1,0,0,1,3.1,9.3c.5,2.2.9,10.2,1,17.8s-.4,15.8-1.1,18.3-1.5,5.2-1.7,6.2a7.2,7.2,0,0,0,.4,3.8c.5,1.2,1,9.7,1.1,18.9s.6,17.6,1.1,18.6a6.9,6.9,0,0,0,3.4,2.8,18.6,18.6,0,0,0,6.9.4,45.1,45.1,0,0,0,9.3-2.6c2.7-1.1,5-3.6,5.1-5.7s-1.5-8.1-3.5-13.6-3.8-12-4-14.6.7-5.7,2-6.9,2.3-2.9,2.2-3.7a6.3,6.3,0,0,0-1.2-2.8c-.6-.7-.8-3.4-.4-5.8s1.7-9.2,2.9-15.1,3.1-16.1,4.2-22.8,2.8-16.4,3.6-21.6a118.7,118.7,0,0,0,1.2-18.8c-.2-5.2-.6-12.6-1.1-16.5s-.9-7.1-.9-7.1"/><path d="M121.7,344.9s1.5.6,3.4,1.2a29.4,29.4,0,0,0,7.4,1.4,11.5,11.5,0,0,0,6.4-1.7c1.3-1,2.4-1.9,2.4-1.9"/><path d="M143.8,335.5h2a4.4,4.4,0,0,0,3.1-1.5,23.6,23.6,0,0,0,2.4-5.2,106.8,106.8,0,0,0,2.7-12.1c.8-4.6,2.3-14.5,3.4-22s2.1-19.5,2.4-26.8-.4-17.5-1.5-22.7-2-9.5-2-9.5"/><path d="M161.1,125.6s-.1,4.3-.2,9.6-.4,10.8-.6,12.2a52.3,52.3,0,0,1-2.4,7.9c-1.1,2.9-2.3,6.4-2.6,7.7s-.6,8.8-.6,16.8.6,16.7,1.4,19.4a46.1,46.1,0,0,1,1.4,10.7c0,3.2-.2,9.9-.5,14.9s-.6,10-.7,11a6.7,6.7,0,0,1-1.1,3c-.5.6-.9,1.1-.9,1.1"/><path d="M170.6,184.3s-.9-1.7-1.9-3.8-2.5-5.2-3.2-6.9a42.3,42.3,0,0,1-2-8c-.4-2.7-1.3-8.3-1.9-12.4l-1.1-7.5"/><path d="M170.5,176.7v4.9c0,2.7.2,7.6.5,10.7s.9,9.7,1.5,14.4,1.5,11,2.1,13.8a53.1,53.1,0,0,0,3.4,10.2,99.7,99.7,0,0,0,5.9,10.9c2,3.2,3.6,5.9,3.6,5.9"/><path d="M187.5,247.7v2.7a26.4,26.4,0,0,0,.6,5.5c.3,1.6,1,4.7,1.4,7s1.1,6.8,1.5,10a43.4,43.4,0,0,0,2.1,8.9c.8,1.7,2.5,3.4,3.9,3.7a12.5,12.5,0,0,0,4.7.1,14.4,14.4,0,0,0,4.7-2.5c1.4-1.1,2.4-4.4,2.2-7.4a95.6,95.6,0,0,0-1.1-10c-.5-2.5-.5-4.7-.1-4.8a11.4,11.4,0,0,1,4.2,1.7,20.4,20.4,0,0,0,5,2.2,5,5,0,0,0,3-.9,3.8,3.8,0,0,0,1.5-1.9c0-.5-1.4-1.4-3.2-2a18.7,18.7,0,0,1-5.5-3.8c-1.3-1.4-3.2-3.8-4.3-5.2a12.1,12.1,0,0,0-4-3.4c-1.1-.5-2.3-3.1-2.5-5.8s-.5-12.8-.5-22.4-.2-18.4-.4-19.6a29,29,0,0,0-2.1-6,50.8,50.8,0,0,0-4.9-8c-1.7-2.3-3.2-4.2-3.2-4.2"/><path d="M176.8,106.6s1.5,3,3.2,6.6,4.2,9.2,5.4,12.4,2.8,8.4,3.6,11.6a117.8,117.8,0,0,1,2.1,11.6,132.1,132.1,0,0,1,.7,13.3c0,4.1.1,10.6.2,14.4s.2,6.9.2,6.9"/><path d="M146.6,77.3s1.4-.3,3.1-.6a31.3,31.3,0,0,1,6-.6,24.5,24.5,0,0,1,15.3,7.2,25.3,25.3,0,0,1,4.9,6.9c.7,1.7,1.2,6.3,1.2,10.1a84.5,84.5,0,0,1-.7,11.2c-.4,2.3-.7,4.3-.7,4.3"/><path d="M127.2,65.1s1.7.7,3.8,1.5,5.7,2.1,8,2.9,5.6,1.8,7.4,2.4a28,28,0,0,1,5.5,2.6l2.3,1.6"/><path d="M126.7,48.1v7.6c0,4.2.3,8.6.8,9.9s.8,2.3.8,2.3"/><path d="M68.6,132.3s.7.3,1.5.7a24,24,0,0,0,5.1,1.2c2,.3,8.7.5,14.9.6s11.2.1,11.2.1"/><path d="M153.5,131.6s-.5.5-1.1,1a10.5,10.5,0,0,1-3.5,1.5c-1.3.3-8.1.6-15.1.7s-12.7.3-12.7.3"/><path d="M105.3,153.6s-2,2.2-4.5,4.8a59.6,59.6,0,0,0-6.7,8.4c-1.2,2-3,7.7-4,12.7s-1.8,9.1-1.8,9.1"/><path d="M116.3,153.8l4.3,5a74.2,74.2,0,0,1,6.6,8.8,46.7,46.7,0,0,1,3.9,12c.9,4.5,1.6,8.2,1.6,8.2"/><path d="M108.5,214.8s.4.6.9,1.3a4.8,4.8,0,0,1,.9,2,2.7,2.7,0,0,1-1,1.5c-.6.4-1,.7-1,.7"/></svg></g></g><g><rect stroke="none" fill="#ffffff" width="0" height="0"/><path stroke="#000000" fill="none" d=""/><text font-size="18.7" xml:space="preserve" display="none" font-family="OpenSansCondensedLight" fill="black" text-anchor="middle"><tspan dy="0.3em" style="fill-opacity: 0; stroke-opacity: 0;">-</tspan></text></g><text font-size="18.7" xml:space="preserve" font-family="OpenSansCondensedLight" line-height="21" fill="black" text-anchor="middle" text-vertical-anchor="top" transform="matrix(1,0,0,1,128.2,584)" display="none"><tspan dy="0.8em" style="fill-opacity: 0; stroke-opacity: 0;">-</tspan></text></g></g></svg>