<svg xmlns="http://www.w3.org/2000/svg" xmlns:xlink="http://www.w3.org/1999/xlink" version="1.1" width="791.3" height="613.8" viewBox="61.5 45.9 791.3 613.8"><defs/><g><g data-type="tp.Element" transform="translate(390,45.9)"><g><g><rect width="106" height="567.9" fill="none"/><svg xmlns="http://www.w3.org/2000/svg" data-name="Layer 1" viewBox="0 0 99.4 541.5" width="106" height="567.9" preserveAspectRatio="none"><title>Human_body_front_and_side-02</title><polygon points="78 302.2 48.5 387.1 11.5 186.7 39 146.2 67.6 180.1 78 302.2" fill="#fff"/><path d="M48.3,141.9s-1.2.2-2.7.5a19.3,19.3,0,0,0-6.3,3.1,106.7,106.7,0,0,0-10.1,9.5c-3.6,3.8-8,8.8-9.8,11.1a64.3,64.3,0,0,0-6.2,10.6c-1.6,3.5-2.3,8-1.6,10l1.3,3.7" transform="translate(-0.1 0)" fill="#fff" stroke="#000" stroke-miterlimit="10"/><path d="M39.4,406s.1,1.1.2,2.5.1,7.3,0,13.2a144.2,144.2,0,0,0,.3,14.7,41.2,41.2,0,0,0,2.5,8.7c1.1,2.6,2.8,6.3,3.9,8.3s1.7,6.4,1.4,9.7-.9,10.1-1.4,15-1.4,11.8-2.2,15.4a57.5,57.5,0,0,1-3.9,11.5c-1.4,2.8-3.4,6.4-4.5,8.1a18.5,18.5,0,0,1-5.3,5.1c-1.8,1.1-5.3,3.1-7.8,4.5s-6.7,3.7-9.4,5.4-6.5,4.3-8.5,5.9a18.6,18.6,0,0,0-4.1,4.2,2.1,2.1,0,0,0,1.1,2.3c.9.6,3.9.6,6.6,0s7.5-1.3,10.7-1.7,8.2-1.1,11.1-1.6a57.6,57.6,0,0,1,9.9-.8,66.1,66.1,0,0,1,9.1,1.1c2.5.6,6.1,1.6,8.1,2.3a15.1,15.1,0,0,0,5.8,1,5.9,5.9,0,0,0,2.9-.9c.4-.4.7-2.1.7-3.9s-.1-4.1-.2-5.3a31.6,31.6,0,0,0-1.7-6.1c-.8-2.2-1.8-5.3-2.2-7a25.6,25.6,0,0,1,.2-8.2c.5-2.9,1.3-8,1.8-11.4s1.7-10.1,2.7-14.8a115.2,115.2,0,0,1,4.2-14.7c1.3-3.3,3.6-8.5,5-11.5a56.8,56.8,0,0,0,3.5-9.9,66.5,66.5,0,0,0,.7-11.8,89.8,89.8,0,0,0-.9-11.1c-.4-2.1-2-8-3.5-13.1s-3.7-11.3-4.7-13.7a19.6,19.6,0,0,0-2.6-4.8c-.4-.3-.5-1.6-.1-3.1s1.5-8.3,2.5-15.3,2.2-15.8,2.6-19.6,1.2-11,1.7-15.9,1-12,1-15.8-.1-8.5-.3-10.6-.8-5.1-1.1-6.6a23.2,23.2,0,0,0-1.6-4.5c-.5-.9-.9-1.6-.9-1.6" transform="translate(-0.1 0)" fill="#fff" stroke="#000" stroke-miterlimit="10"/><path d="M37.6,186.9s-1.6.7-3.7,1.5a39.1,39.1,0,0,1-9.7,1.9,29.1,29.1,0,0,1-9.3-.6c-1.8-.6-3.4,1.9-3.5,5.4s-.2,7.5-.2,8.8a17.1,17.1,0,0,0,.8,4.2c.4,1,.7,5.2.7,9.4a45,45,0,0,0,2.3,13.6,64.4,64.4,0,0,1,2.9,10.1,47.6,47.6,0,0,1-.3,10.4c-.5,3.5-1.2,8.4-1.6,10.9a27.5,27.5,0,0,0,0,8.1,78,78,0,0,0,3.5,10.4c1.6,3.7,2.9,6.8,2.9,6.8s-1.1,1.6-2.4,3.3a32.6,32.6,0,0,0-3.9,7.2,34.2,34.2,0,0,0-1.7,9.4,54.7,54.7,0,0,0,1.8,12.2c1.1,3.9,3.1,10.4,4.5,14.4s3.7,10.7,5.3,14.8a86.7,86.7,0,0,1,3.9,13.7c.6,3.4,1.5,9.5,1.9,13.5s.7,9.9.7,13.1.3,7.3.9,9,3.4,4.3,6.4,5.7,6.1,2.5,7,2.5a3.3,3.3,0,0,0,2.5-1.7c.5-.9.9-1.7.9-1.7" transform="translate(-0.1 0)" fill="#fff" stroke="#000" stroke-miterlimit="10"/><path d="M77,309.6l2.9-4a46.2,46.2,0,0,0,4.5-8,41.2,41.2,0,0,0,2.1-9.3c.3-2.9,2.1-6.8,1.8-8.7s-.5-5.6-1.4-8.3a34.2,34.2,0,0,0-4.9-8.8c-1.8-2.1-3.2-3.9-3.2-3.9L76.2,251a29.1,29.1,0,0,1-2.7-11.6v-.9a26.7,26.7,0,0,1,.8-7.5l2.4-9.7a29.7,29.7,0,0,0,.8-7.8h0c-.2-7.1,1.2-14,5.7-19.5l2.5-6.7,1.6-.7a19.9,19.9,0,0,0,3.7-2.3,9.8,9.8,0,0,0,2.9-3.7c.4-1.09.4-4.48.1-7.4s-1.6-9.8-2.7-15.3a130.7,130.7,0,0,0-3.8-14.2,69.6,69.6,0,0,0-3.8-7.7,87,87,0,0,0-5.6-7.5c-2-2.3-4.7-5.4-6.2-7a64.4,64.4,0,0,1-4.5-5.4,9.8,9.8,0,0,1-1.8-4.7,9.2,9.2,0,0,1,1.5-4.3,32.3,32.3,0,0,1,4-4.5,16.8,16.8,0,0,0,3.7-4.9c.6-1.41.9-6.61.7-11.4s-1-10.7-1.8-13a19.7,19.7,0,0,0-4.9-7.3,32.7,32.7,0,0,0-8-4.7,23.2,23.2,0,0,0-7.5-1.5,61,61,0,0,0-8.9,1.5A41.2,41.2,0,0,0,33,66.7c-3.1,2.2-7.1,7.6-8.9,12a104.5,104.5,0,0,0-5,16.8c-.9,4.8-1.4,10.7-1,13a75,75,0,0,0,2.9,10.3c1.2,3.3,3.8,6.3,5.8,6.7a10.3,10.3,0,0,0,6.5-1.1,8.5,8.5,0,0,1,4.1-1.5c.7.1,1.8,2.1,2.4,4.3a48.9,48.9,0,0,1,1.2,10.5c.1,3.6.1,6.5.1,6.5" transform="translate(-0.1 0)" fill="#fff" stroke="#000" stroke-miterlimit="10"/><path d="M17.9,199s1.1,1.6,2.5,3.5a82.3,82.3,0,0,1,4.9,7.9,36.2,36.2,0,0,1,2.9,6.7,48.9,48.9,0,0,1,.6,6.6c.1,2.3.1,4.19.1,4.2" transform="translate(-0.1 0)" fill="#fff" stroke="#000" stroke-miterlimit="10"/><path d="M22,249.3a10,10,0,0,0,.7,1,1.2,1.2,0,0,1,.1,1.5,4.8,4.8,0,0,1-.6.5" transform="translate(-0.1 0)" fill="#fff" stroke="#000" stroke-miterlimit="10"/><path d="M89.7,180.1c2-2.7,1.1-6.6,1.1-8.3l.3-17.7s.7-2.5,1.6-5.5,2-6.2,2.3-7.3,1-4.4,1.6-7.4.8-6.3.4-7.4a15.2,15.2,0,0,1-.1-5.3,22.7,22.7,0,0,1,1-4.3,15,15,0,0,0,.9-3.8,23,23,0,0,0-.1-5.3c-.2-1.4-.5-3.7-.6-5.2a49.6,49.6,0,0,1,.3-7.3c.3-2.5-.7-7.6-2-11.3A92.2,92.2,0,0,0,92,73.8a83.5,83.5,0,0,0-4.9-7.2c-1.6-2.1-4.1-5.1-5.6-6.7a55.1,55.1,0,0,1-5.8-8.1C74,49,71.3,44.1,69.7,41l-2.9-5.6.1-.2a9.2,9.2,0,0,0,1-2.7,3.7,3.7,0,0,0-.7-2.9,26.7,26.7,0,0,1-1.9-2.7,21.1,21.1,0,0,1-1.5-4.5c-.3-1.6-.9-5.1-1.2-7.7a60.3,60.3,0,0,0-1.4-7.4A12.7,12.7,0,0,0,59,3,10,10,0,0,0,54.49.7a26.5,26.5,0,0,0-7,0,16.9,16.9,0,0,0-6.2,2.6,9.2,9.2,0,0,0-2.6,4c-.2,1.1.6,4.2,1.7,6.7s2,4.6,2,4.6l.1.3a7.3,7.3,0,0,0-3.5.6c-1.4.7-2.7,1.5-2.7,1.9a7.8,7.8,0,0,0,1.5,2.9,7.6,7.6,0,0,0,3,2.6c.8.2,2,1.5,2.7,3a34.3,34.3,0,0,0,2.4,4.1,10,10,0,0,0,2.3,2.3,23.4,23.4,0,0,0,4,1.3c.2,0,2.7.5,2.7.5l.3.1c.6.3,1.2,2.6,1.5,3.2a21,21,0,0,1,1.2,4.1c.4,1.6,1,3.9,1.4,5s1.4,5.3,2.2,9.3,1.7,8.5,1.9,10a17.5,17.5,0,0,1-.8,6.5,41.7,41.7,0,0,0-1.5,6.8,35.8,35.8,0,0,0,.9,9c.7,3.3,2.7,10.5,4.5,16.1s3.3,10.1,3.3,10.1v.2c-1.3,1.6-2.8,3.7-3.9,5.2a43.9,43.9,0,0,0-3.7,6.5,35.8,35.8,0,0,0-1.7,7.3c-.2,2.3-.7,6.7-.9,9.8s-.5,5.6-.5,5.6L59,153c-.5.6-1,1.2-1.4,1.7-1,1.3-2.1,4.6-2.6,7.4a60.6,60.6,0,0,0-.8,8.6" transform="translate(-0.1 0)" fill="#fff" stroke="#000" stroke-linecap="round" stroke-linejoin="round"/><path d="M63.4,149.2s-.9.8-2,1.7a27.2,27.2,0,0,0-2.4,2.4" transform="translate(-0.1 0)" fill="#fff" stroke="#000" stroke-linecap="round" stroke-miterlimit="10"/><path d="M73.2,114.5s-1.1,1.4-2.5,3.1c-.3.4-.7.8-1.1,1.3" transform="translate(-0.1 0)" fill="#fff" stroke="#000" stroke-linecap="round" stroke-miterlimit="10"/><path d="M49.6,26.8s-1.1-1.5-2.5-3.3a15.2,15.2,0,0,0-4.4-4,3.1,3.1,0,0,0-1-.2" transform="translate(-0.1 0)" fill="#fff" stroke="#000" stroke-linecap="round" stroke-linejoin="round"/></svg></g></g><g><rect stroke="none" fill="#ffffff" width="0" height="0"/><path stroke="#000000" fill="none" d=""/><text font-size="18.7" xml:space="preserve" display="none" font-family="OpenSansCondensedLight" fill="black" text-anchor="middle"><tspan dy="0.3em" style="fill-opacity: 0; stroke-opacity: 0;">-</tspan></text></g><text font-size="18.7" xml:space="preserve" font-family="OpenSansCondensedLight" line-height="21" fill="black" text-anchor="middle" text-vertical-anchor="middle" transform="matrix(1,0,0,1,53,283.9)" display="none"><tspan dy="0.3em" style="fill-opacity: 0; stroke-opacity: 0;">-</tspan></text></g><g data-type="tp.Element" transform="translate(555,84.8)"><g><g><rect width="236.3" height="529" fill="none"/><svg xmlns="http://www.w3.org/2000/svg" data-name="Layer 1" viewBox="0 0 221.6 493.6" width="236.3" height="529" preserveAspectRatio="none"><title>Human_body_front_and_side-03</title><path d="M126.7,47.5c.1-.3.3-.6.4-.9" transform="translate(0 0)" fill="none" stroke="#000" stroke-linecap="round" stroke-linejoin="round"/><path d="M43.4,108.7a50.9,50.9,0,0,1-.1-13.5,23.8,23.8,0,0,1,5.1-11,33.4,33.4,0,0,1,8.7-6.4,28.5,28.5,0,0,1,7.1-2.2c1.4-.1,2.5-.2,2.5-.2h0l9-4.7,16.9-6h0a48.2,48.2,0,0,0,.5-4.8c.1-2.9.1-7.4,0-9.8s-.3-4.5-.3-4.5v-.2a35.9,35.9,0,0,1-1.6-4.5c-1-3.2-1.7-10.1-1.7-15.4s.6-11.3,1.2-13.3a22.2,22.2,0,0,1,4.4-7,17.6,17.6,0,0,1,7.1-4.3,44.5,44.5,0,0,1,11.7-.1c4.3.5,8.7,1.5,9.8,2.3s3.2,4.4,4.6,7.9A48.3,48.3,0,0,1,131,25a70.3,70.3,0,0,1-1.7,15.5,39.9,39.9,0,0,1-2.1,6" transform="translate(0 0)" fill="none" stroke="#000" stroke-linejoin="round"/><path d="M43.2,106.3s-1.6,3.2-3.6,7a130.8,130.8,0,0,0-6.3,15.2,116.6,116.6,0,0,0-4,19.4c-.7,6.2-1.2,16.9-1.2,23.9s.1,12.6.1,12.6" transform="translate(0 0)" fill="none" stroke="#000" stroke-miterlimit="10"/><path d="M30.9,181s-1.2,1.7-2.7,3.7a56.5,56.5,0,0,0-5.2,8.9c-1.4,2.9-2.5,9.9-2.5,15.6s.1,15.5.1,21.9-.3,12.3-.7,13.3a4.7,4.7,0,0,1-2.1,2.3,9,9,0,0,0-2.6,2,34.3,34.3,0,0,0-3.1,3.8c-1,1.3-2.4,3-3.1,3.7a20.7,20.7,0,0,1-4.9,2.8c-1.9.8-3.5,1.9-3.6,2.3s.7,1.6,1.6,2.5a5.9,5.9,0,0,0,3.1,1.5,12.9,12.9,0,0,0,4.5-2.6c1.7-1.4,3.6-2.2,4.1-2s.7,2.9.2,5.9a99.4,99.4,0,0,0-.7,10.9c0,3,1.2,6,2.6,6.7a20.8,20.8,0,0,0,6,1.6,6.8,6.8,0,0,0,5.2-1.7c1-1.2,2.4-5.1,3-8.8s1.7-9.9,2.4-13.8a64.5,64.5,0,0,0,1.1-11c-.1-2.1,1.7-6.8,3.9-10.4a68.4,68.4,0,0,0,6.2-14.1,173.1,173.1,0,0,0,3.9-18.3c.9-5.9,1.7-15.2,1.9-20.7s.2-10,.2-10" transform="translate(0 0)" fill="none" stroke="#000" stroke-miterlimit="10"/><path d="M49.3,185s1.2-2.5,2.7-5.6a75.8,75.8,0,0,0,4.5-13.7,91.8,91.8,0,0,0,2-13.5c.1-2.9,0-10.8-.4-17.5" transform="translate(0 0)" fill="none" stroke="#000" stroke-miterlimit="10"/><path d="M58.7,146.7s1.2,2.7,2.7,6,2.8,13.3,2.9,22.1-.4,17.9-1.2,20.2a44.2,44.2,0,0,0-1.7,10.9c-.1,3.7,0,11.5.2,17.4s1,11.4,1.6,12.1.6,2.8-.1,4.6a53.1,53.1,0,0,0-2.2,9.3,154.9,154.9,0,0,0-.9,17.5,218.6,218.6,0,0,0,1.9,23.7c1,6.7,2.6,17.4,3.6,23.7a128.3,128.3,0,0,0,2.9,14.4,13.1,13.1,0,0,0,3,4.8" transform="translate(0 0)" fill="none" stroke="#000" stroke-miterlimit="10"/><path d="M71.3,333.5s-.5,1.8-1.1,4a78.5,78.5,0,0,0-1.6,13.4,161.8,161.8,0,0,0,.1,17.2c.3,4.3,1.8,14.5,3.2,22.7s3.9,21.9,5.5,30.4,2.8,16.6,2.7,18a49.6,49.6,0,0,1-.7,5.3,4.6,4.6,0,0,0,1.5,4.3,7.2,7.2,0,0,1,2.5,4,22.9,22.9,0,0,1-.7,6.8,110.7,110.7,0,0,1-3.9,11.2,52.8,52.8,0,0,0-3.2,10.5c-.2,2,0,4.5.5,5.4s3.7,2.8,7.1,4.1a34.6,34.6,0,0,0,9.5,2.3c1.9,0,3.9-.4,4.6-1a13,13,0,0,0,2.6-3.2c.8-1.2,1.4-9.7,1.5-18.8s.5-17.2,1-17.9a5.8,5.8,0,0,0,.9-2.7,29.4,29.4,0,0,0-1.6-5.9c-.9-2.5-1.7-9.2-1.7-14.8s0-12.6.1-15.4a48,48,0,0,1,1.9-10.5c.9-2.9,2.3-7.3,3.1-9.6s2.1-7.4,2.9-11.1a98.1,98.1,0,0,0,1.4-16.5,90,90,0,0,0-3.1-20.5c-1.7-5.9-3.1-10.7-3.1-10.7" transform="translate(0 0)" fill="none" stroke="#000" stroke-miterlimit="10"/><path d="M102.2,336.6a40.2,40.2,0,0,0,2.2-8c.5-2.9,1.4-10.1,2-15.9s4.1-18.8,4.4-26.5-.1-22.7.2-26.2" transform="translate(0 0)" fill="none" stroke="#000" stroke-miterlimit="10"/><path d="M117.6,336.3a47.3,47.3,0,0,1-2.1-6.9c-.5-2.2-1.4-9-2-14.9s-2.1-24.7-2.5-32.9" transform="translate(0 0)" fill="none" stroke="#000" stroke-miterlimit="10"/><path d="M116.4,333.4s-1.2,3.8-2.6,8.4a100.3,100.3,0,0,0-3,11.7c-.2,1.8-.3,7.7-.2,13.1a159.2,159.2,0,0,0,1.2,16.9,60.1,60.1,0,0,0,3.4,12.5,72.4,72.4,0,0,1,3.1,9.3c.5,2.2.9,10.2,1,17.8s-.4,15.8-1.1,18.3-1.5,5.2-1.7,6.2a6.4,6.4,0,0,0,.4,3.8c.5,1.2,1,9.7,1.1,18.9s.6,17.6,1.1,18.6a6.9,6.9,0,0,0,3.4,2.8,18.7,18.7,0,0,0,6.9.4,44.9,44.9,0,0,0,9.3-2.6c2.7-1.1,5-3.6,5.1-5.7s-1.5-8.1-3.5-13.6-3.8-12-4-14.6.7-5.7,2-6.9,2.3-2.9,2.2-3.7a6.3,6.3,0,0,0-1.2-2.8c-.6-.7-.8-3.4-.4-5.8s1.7-9.2,2.9-15.1,3.1-16.1,4.2-22.8,2.8-16.4,3.6-21.6a118.3,118.3,0,0,0,1.2-18.8c-.1-5.2-.6-12.6-1.1-16.5s-.9-7.1-.9-7.1v-.7a23.8,23.8,0,0,0,2.4-5.2,106.7,106.7,0,0,0,2.7-12.1c.8-4.6,2.3-14.5,3.4-22s2.1-19.5,2.4-26.8-.4-17.5-1.5-22.7-2-9.5-2-9.5" transform="translate(0 0)" fill="none" stroke="#000" stroke-miterlimit="10"/><path d="M160.7,135.1c-.1,5.3-.4,10.8-.6,12.2a52.1,52.1,0,0,1-2.4,7.9c-1.1,2.9-2.3,6.4-2.6,7.7s-.6,8.8-.6,16.8.6,16.7,1.4,19.4a46.5,46.5,0,0,1,1.4,10.7c0,3.2-.2,9.9-.5,14.9s-.6,10-.7,11a6.8,6.8,0,0,1-1.1,3c-.5.6-.9,1.1-.9,1.1" transform="translate(0 0)" fill="none" stroke="#000" stroke-miterlimit="10"/><path d="M170.5,184.2s-.9-1.7-1.9-3.8-2.5-5.2-3.2-6.9a41.6,41.6,0,0,1-2-8c-.4-2.7-1.3-8.3-1.9-12.4l-1.1-7.5" transform="translate(0 0)" fill="none" stroke="#000" stroke-miterlimit="10"/><path d="M170.5,176.6v4.9c0,2.7.2,7.6.5,10.7s.9,9.7,1.5,14.4,1.5,11,2.1,13.8a53.1,53.1,0,0,0,3.4,10.2,100.5,100.5,0,0,0,5.9,10.9c2,3.2,3.6,5.9,3.6,5.9" transform="translate(0 0)" fill="none" stroke="#000" stroke-miterlimit="10"/><path d="M187.5,247.6v2.7a26.8,26.8,0,0,0,.6,5.5c.3,1.6,1,4.7,1.4,7s1.1,6.8,1.5,10a43.2,43.2,0,0,0,2.1,8.9c.8,1.7,2.5,3.4,3.9,3.7a12.6,12.6,0,0,0,4.7.1,14.3,14.3,0,0,0,4.7-2.5c1.4-1.1,2.4-4.4,2.2-7.4a74.6,74.6,0,0,0-1.1-10c-.5-2.5-.5-4.7-.1-4.8a11.4,11.4,0,0,1,4.2,1.7,20.7,20.7,0,0,0,5,2.2,5,5,0,0,0,3-.9,3.8,3.8,0,0,0,1.5-1.9c0-.5-1.4-1.4-3.2-2a18.7,18.7,0,0,1-5.5-3.8c-1.3-1.4-3.2-3.8-4.3-5.2a12.1,12.1,0,0,0-4-3.4c-1.1-.5-2.3-3.1-2.5-5.8s-.5-12.8-.5-22.4-.2-18.4-.4-19.6a29.1,29.1,0,0,0-2.1-6,50.4,50.4,0,0,0-4.9-8c-1.7-2.3-3.2-4.2-3.2-4.2" transform="translate(0 0)" fill="none" stroke="#000" stroke-miterlimit="10"/><path d="M126.6,47.9v7.6a52.3,52.3,0,0,0,.7,9.6l-.1-.2s1.7.7,3.8,1.5,5.7,2.1,8,2.9,5.6,1.8,7.4,2.4a27.9,27.9,0,0,1,5.5,2.6l2.3,1.6.2.1h1.2a24.5,24.5,0,0,1,15.3,7.2,25.2,25.2,0,0,1,4.9,6.9c.7,1.7,1.2,6.3,1.2,10.1l-.3,6.4s1.5,3,3.2,6.6,4.2,9.2,5.4,12.4,2.8,8.4,3.6,11.6q1.3,5.8,2.1,11.6a131.4,131.4,0,0,1,.7,13.3c0,4.1.1,10.6.2,14.4s.2,6.9.2,6.9" transform="translate(0 0)" fill="none" stroke="#000" stroke-linecap="round" stroke-linejoin="round"/><path d="M88.3,220s-.3,4.3.7,6" transform="translate(0 0)" fill="none" stroke="#000" stroke-linecap="round" stroke-linejoin="round"/><path d="M132.3,220s.3,4.3-.7,6" transform="translate(0 0)" fill="none" stroke="#000" stroke-linecap="round" stroke-linejoin="round"/><path d="M111.7,286s.7,7.3,16.7,8.7" transform="translate(0 0)" fill="none" stroke="#000" stroke-miterlimit="10"/><path d="M110.3,285.6s-.7,7.3-16.7,8.7" transform="translate(0 0)" fill="none" stroke="#000" stroke-miterlimit="10"/><path d="M129.6,90.7s-2.6,16.8,5.2,31.8" transform="translate(0 0)" fill="none" stroke="#000" stroke-linecap="round" stroke-linejoin="round"/><path d="M94.1,90.4s2.6,16.8-5.2,31.8" transform="translate(0 0)" fill="none" stroke="#000" stroke-linecap="round" stroke-linejoin="round"/><line x1="110.3" y1="95.3" x2="110.3" y2="197.6" fill="none" stroke="#000" stroke-linecap="round" stroke-linejoin="round"/></svg></g></g><g><rect stroke="none" fill="#ffffff" width="0" height="0"/><path stroke="#000000" fill="none" d=""/><text font-size="18.7" xml:space="preserve" display="none" font-family="OpenSansCondensedLight" fill="black" text-anchor="middle"><tspan dy="0.3em" style="fill-opacity: 0; stroke-opacity: 0;">-</tspan></text></g><text font-size="18.7" xml:space="preserve" font-family="OpenSansCondensedLight" line-height="21" fill="black" text-anchor="middle" text-vertical-anchor="middle" transform="matrix(1,0,0,1,118.1,264.5)" display="none"><tspan dy="0.3em" style="fill-opacity: 0; stroke-opacity: 0;">-</tspan></text></g><g data-type="tp.Element" transform="translate(61.5,84.8)"><g><g><rect width="236.3" height="529" fill="none"/><svg xmlns="http://www.w3.org/2000/svg" data-name="Layer 1" viewBox="0 0 221.6 493.8" width="236.3" height="529" preserveAspectRatio="none"><title>Human_body_front_and_side-01</title><path d="M113.91.8a44.5,44.5,0,0,0-11.7.1,16.9,16.9,0,0,0-7.1,4.3,24,24,0,0,0-4.4,7c-.7,2-1.2,8-1.2,13.3a70.6,70.6,0,0,0,1.7,15.4,52.2,52.2,0,0,0,4.6,10.4,14.7,14.7,0,0,0,8.1,5.7,40,40,0,0,0,10.3.5c2.8-.3,6.9-2.5,9.1-4.7s4.9-7.7,6-12.2a66.4,66.4,0,0,0,1.7-15.7,57.1,57.1,0,0,0-2.7-14c-1.4-3.5-3.4-7.1-4.6-7.9S118.2,1.2,113.91.8Z" transform="translate(0 0)" fill="none" stroke="#000" stroke-miterlimit="10"/><path d="M92.9,45.6s.1,2,.3,4.5a80.1,80.1,0,0,1,0,9.8c-.2,2.9-.5,5.8-.9,6.4a6.7,6.7,0,0,0-.6,1.1" transform="translate(0 0)" fill="none" stroke="#000" stroke-miterlimit="10"/><polyline points="73.8 77.4 66.8 75.5 75.8 70.8 92.8 64.8" fill="none" stroke="#000" stroke-miterlimit="10"/><path d="M44.6,115.7s-.5-3.1-1.1-6.9a50.9,50.9,0,0,1-.1-13.5,23.8,23.8,0,0,1,5.1-11,33.4,33.4,0,0,1,8.7-6.4,28.5,28.5,0,0,1,7.1-2.2c1.4-.1,2.5-.2,2.5-.2" transform="translate(0 0)" fill="none" stroke="#000" stroke-miterlimit="10"/><path d="M43.3,106.4s-1.6,3.2-3.6,7a130.8,130.8,0,0,0-6.3,15.2,116.6,116.6,0,0,0-4,19.4c-.7,6.2-1.2,16.9-1.2,23.9s.1,12.6.1,12.6" transform="translate(0 0)" fill="none" stroke="#000" stroke-miterlimit="10"/><path d="M30.9,181.2s-1.2,1.7-2.7,3.7a56.5,56.5,0,0,0-5.2,8.9c-1.4,2.9-2.5,9.9-2.5,15.6s.1,15.5.1,21.9-.3,12.3-.7,13.3a4.7,4.7,0,0,1-2.1,2.3,9,9,0,0,0-2.6,2,34.3,34.3,0,0,0-3.1,3.8c-1,1.3-2.4,3-3.1,3.7a18.5,18.5,0,0,1-4.9,2.8c-1.9.8-3.5,1.9-3.6,2.3s.7,1.6,1.6,2.5a5.5,5.5,0,0,0,3.1,1.5,12.9,12.9,0,0,0,4.5-2.6c1.7-1.4,3.6-2.2,4.1-2s.7,2.9.2,5.9a99.4,99.4,0,0,0-.7,10.9c0,3,1.2,6,2.6,6.7a20.8,20.8,0,0,0,6,1.6,6.8,6.8,0,0,0,5.2-1.7c1-1.2,2.4-5.1,3-8.8s1.7-9.9,2.4-13.8a64.5,64.5,0,0,0,1.1-11c-.1-2.1,1.7-6.8,3.9-10.4a68.4,68.4,0,0,0,6.2-14.1,178.8,178.8,0,0,0,3.9-18.3c.9-5.9,1.7-15.2,1.9-20.7s.2-10,.2-10" transform="translate(0 0)" fill="none" stroke="#000" stroke-miterlimit="10"/><path d="M49.4,185.1s1.2-2.5,2.7-5.6a75.8,75.8,0,0,0,4.5-13.7,91.8,91.8,0,0,0,2-13.5c.1-3,0-10.8-.4-17.5s-.6-12.2-.6-12.2" transform="translate(0 0)" fill="none" stroke="#000" stroke-miterlimit="10"/><path d="M58.7,146.9s1.2,2.7,2.7,6,2.8,13.3,2.9,22.1-.4,17.9-1.2,20.2a44.2,44.2,0,0,0-1.7,10.9c-.1,3.7,0,11.5.2,17.4s1,11.4,1.6,12.1.6,2.8-.1,4.6a53.1,53.1,0,0,0-2.2,9.3A156.8,156.8,0,0,0,60,267a218.6,218.6,0,0,0,1.9,23.7c1,6.7,2.6,17.4,3.6,23.7a128.3,128.3,0,0,0,2.9,14.4,13.1,13.1,0,0,0,3,4.8,7.1,7.1,0,0,0,3.9,1.9h1.9" transform="translate(0 0)" fill="none" stroke="#000" stroke-miterlimit="10"/><path d="M71.4,333.7s-.5,1.8-1.1,4a78.5,78.5,0,0,0-1.6,13.4c-.2,5.2-.2,12.9.1,17.2s1.8,14.5,3.2,22.7,3.9,21.9,5.5,30.4,2.8,16.6,2.7,18a49.6,49.6,0,0,1-.7,5.3A4.6,4.6,0,0,0,81,449a7.2,7.2,0,0,1,2.5,4,22.9,22.9,0,0,1-.7,6.8A110.7,110.7,0,0,1,78.9,471a52.8,52.8,0,0,0-3.2,10.5c-.2,2,0,4.5.5,5.4s3.7,2.8,7.1,4.1a34.6,34.6,0,0,0,9.5,2.3c1.9,0,3.9-.4,4.6-1a13,13,0,0,0,2.6-3.2c.8-1.2,1.4-9.7,1.5-18.8s.5-17.2,1-17.9a5.8,5.8,0,0,0,.9-2.7,29.4,29.4,0,0,0-1.6-5.9c-.9-2.5-1.7-9.2-1.7-14.8s0-12.6.1-15.4a48,48,0,0,1,1.9-10.5c.9-2.9,2.3-7.3,3.1-9.6s2.1-7.4,2.9-11.1a98.1,98.1,0,0,0,1.4-16.5,90,90,0,0,0-3.1-20.5c-1.7-5.9-3.1-10.7-3.1-10.7" transform="translate(0 0)" fill="none" stroke="#000" stroke-miterlimit="10"/><path d="M77.8,343.9s1,.7,2.1,1.6a9.7,9.7,0,0,0,5,1.7,30.9,30.9,0,0,0,7.7-1.1c2.7-.7,4.9-1.2,4.9-1.2" transform="translate(0 0)" fill="none" stroke="#000" stroke-miterlimit="10"/><path d="M101,339.5s.6-1.2,1.2-2.7a40.2,40.2,0,0,0,2.2-8c.5-2.9,1.4-10.1,2-15.9s1.3-17,1.6-24.7.9-17,1.2-20.5.6-6.4.6-6.4" transform="translate(0 0)" fill="none" stroke="#000" stroke-miterlimit="10"/><path d="M95.5,241.4s1,2.3,2.2,5.2a44.9,44.9,0,0,0,4.6,8.3,16.8,16.8,0,0,0,4.2,4,10.6,10.6,0,0,0,4,.9,5.9,5.9,0,0,0,4-2.5,33.2,33.2,0,0,0,3.6-7.9c1-3,1.7-5.4,1.7-5.4" transform="translate(0 0)" fill="none" stroke="#000" stroke-miterlimit="10"/><path d="M118.9,339.2s-.6-1.3-1.2-2.8a59,59,0,0,1-2.1-6.9c-.5-2.2-1.4-9-2-14.9s-1.5-17.6-1.9-25.8-1-17.7-1.2-21-.5-6.1-.5-6.1" transform="translate(0 0)" fill="none" stroke="#000" stroke-miterlimit="10"/><path d="M116.4,333.5s-1.2,3.8-2.6,8.4a100.3,100.3,0,0,0-3,11.7c-.2,1.8-.3,7.7-.2,13.1a159.2,159.2,0,0,0,1.2,16.9,60.1,60.1,0,0,0,3.4,12.5,72.4,72.4,0,0,1,3.1,9.3c.5,2.2.9,10.2,1,17.8s-.4,15.8-1.1,18.3-1.5,5.2-1.7,6.2a7.3,7.3,0,0,0,.4,3.8c.5,1.2,1,9.7,1.1,18.9s.6,17.6,1.1,18.6a6.9,6.9,0,0,0,3.4,2.8,18.7,18.7,0,0,0,6.9.4,44.9,44.9,0,0,0,9.3-2.6c2.7-1.1,5-3.6,5.1-5.7s-1.5-8.1-3.5-13.6-3.8-12-4-14.6.7-5.7,2-6.9,2.3-2.9,2.2-3.7a6.3,6.3,0,0,0-1.2-2.8c-.6-.7-.8-3.4-.4-5.8s1.7-9.2,2.9-15.1,3.1-16.1,4.2-22.8,2.8-16.4,3.6-21.6a118.3,118.3,0,0,0,1.2-18.8c-.2-5.2-.6-12.6-1.1-16.5s-.9-7.1-.9-7.1" transform="translate(0 0)" fill="none" stroke="#000" stroke-miterlimit="10"/><path d="M121.7,344.9s1.5.6,3.4,1.2a29.6,29.6,0,0,0,7.4,1.4,11.6,11.6,0,0,0,6.4-1.7c1.3-1,2.4-1.9,2.4-1.9" transform="translate(0 0)" fill="none" stroke="#000" stroke-miterlimit="10"/><path d="M143.8,335.5h2a4.4,4.4,0,0,0,3.1-1.5,23.8,23.8,0,0,0,2.4-5.2,106.7,106.7,0,0,0,2.7-12.1c.8-4.6,2.3-14.5,3.4-22s2.1-19.5,2.4-26.8-.4-17.5-1.5-22.7-2-9.5-2-9.5" transform="translate(0 0)" fill="none" stroke="#000" stroke-miterlimit="10"/><path d="M161.1,125.6s-.1,4.3-.2,9.6-.4,10.8-.6,12.2a52.1,52.1,0,0,1-2.4,7.9c-1.1,2.9-2.3,6.4-2.6,7.7s-.6,8.8-.6,16.8.6,16.7,1.4,19.4a46.5,46.5,0,0,1,1.4,10.7c0,3.2-.2,9.9-.5,14.9s-.6,10-.7,11a6.8,6.8,0,0,1-1.1,3c-.5.6-.9,1.1-.9,1.1" transform="translate(0 0)" fill="none" stroke="#000" stroke-miterlimit="10"/><path d="M170.6,184.3s-.9-1.7-1.9-3.8-2.5-5.2-3.2-6.9a41.6,41.6,0,0,1-2-8c-.4-2.7-1.3-8.3-1.9-12.4l-1.1-7.5" transform="translate(0 0)" fill="none" stroke="#000" stroke-miterlimit="10"/><path d="M170.5,176.7v4.9c0,2.7.2,7.6.5,10.7s.9,9.7,1.5,14.4,1.5,11,2.1,13.8a53.1,53.1,0,0,0,3.4,10.2,100.5,100.5,0,0,0,5.9,10.9c2,3.2,3.6,5.9,3.6,5.9" transform="translate(0 0)" fill="none" stroke="#000" stroke-miterlimit="10"/><path d="M187.5,247.7v2.7a26.8,26.8,0,0,0,.6,5.5c.3,1.6,1,4.7,1.4,7s1.1,6.8,1.5,10a43.2,43.2,0,0,0,2.1,8.9c.8,1.7,2.5,3.4,3.9,3.7a12.6,12.6,0,0,0,4.7.1,14.3,14.3,0,0,0,4.7-2.5c1.4-1.1,2.4-4.4,2.2-7.4a95.8,95.8,0,0,0-1.1-10c-.5-2.5-.5-4.7-.1-4.8a11.4,11.4,0,0,1,4.2,1.7,20.7,20.7,0,0,0,5,2.2,5,5,0,0,0,3-.9,3.8,3.8,0,0,0,1.5-1.9c0-.5-1.4-1.4-3.2-2a18.7,18.7,0,0,1-5.5-3.8c-1.3-1.4-3.2-3.8-4.3-5.2a12.1,12.1,0,0,0-4-3.4c-1.1-.5-2.3-3.1-2.5-5.8s-.5-12.8-.5-22.4-.2-18.4-.4-19.6a29.1,29.1,0,0,0-2.1-6,50.4,50.4,0,0,0-4.9-8c-1.7-2.3-3.2-4.2-3.2-4.2" transform="translate(0 0)" fill="none" stroke="#000" stroke-miterlimit="10"/><path d="M176.8,106.6s1.5,3,3.2,6.6,4.2,9.2,5.4,12.4,2.8,8.4,3.6,11.6q1.3,5.8,2.1,11.6a131.4,131.4,0,0,1,.7,13.3c0,4.1.1,10.6.2,14.4s.2,6.9.2,6.9" transform="translate(0 0)" fill="none" stroke="#000" stroke-miterlimit="10"/><path d="M146.6,77.3s1.4-.3,3.1-.6a31.9,31.9,0,0,1,6-.6,24.5,24.5,0,0,1,15.3,7.2,25.2,25.2,0,0,1,4.9,6.9c.7,1.7,1.2,6.3,1.2,10.1a83.9,83.9,0,0,1-.7,11.2c-.4,2.3-.7,4.3-.7,4.3" transform="translate(0 0)" fill="none" stroke="#000" stroke-miterlimit="10"/><path d="M127.2,65.1s1.7.7,3.8,1.5,5.7,2.1,8,2.9,5.6,1.8,7.4,2.4a27.9,27.9,0,0,1,5.5,2.6l2.3,1.6" transform="translate(0 0)" fill="none" stroke="#000" stroke-miterlimit="10"/><path d="M126.7,48.1v7.6c0,4.2.3,8.6.8,9.9s.8,2.3.8,2.3" transform="translate(0 0)" fill="none" stroke="#000" stroke-miterlimit="10"/><path d="M68.6,132.3s.7.3,1.5.7a24.1,24.1,0,0,0,5.1,1.2c2,.3,8.7.5,14.9.6s11.2.1,11.2.1" transform="translate(0 0)" fill="none" stroke="#000" stroke-miterlimit="10"/><path d="M153.5,131.6s-.5.5-1.1,1a10.5,10.5,0,0,1-3.5,1.5c-1.3.3-8.1.6-15.1.7s-12.7.3-12.7.3" transform="translate(0 0)" fill="none" stroke="#000" stroke-miterlimit="10"/><path d="M105.3,153.6s-2,2.2-4.5,4.8a59.6,59.6,0,0,0-6.7,8.4c-1.2,2-3,7.7-4,12.7s-1.8,9.1-1.8,9.1" transform="translate(0 0)" fill="none" stroke="#000" stroke-miterlimit="10"/><path d="M116.3,153.8l4.3,5a75.4,75.4,0,0,1,6.6,8.8,46.6,46.6,0,0,1,3.9,12c.9,4.5,1.6,8.2,1.6,8.2" transform="translate(0 0)" fill="none" stroke="#000" stroke-miterlimit="10"/><path d="M108.5,214.8s.4.6.9,1.3a4.8,4.8,0,0,1,.9,2,2.7,2.7,0,0,1-1,1.5c-.6.4-1,.7-1,.7" transform="translate(0 0)" fill="none" stroke="#000" stroke-miterlimit="10"/></svg></g></g><g><rect stroke="none" fill="#ffffff" width="0" height="0"/><path stroke="#000000" fill="none" d=""/><text font-size="18.7" xml:space="preserve" display="none" font-family="OpenSansCondensedLight" fill="black" text-anchor="middle"><tspan dy="0.3em" style="fill-opacity: 0; stroke-opacity: 0;">-</tspan></text></g><text font-size="18.7" xml:space="preserve" font-family="OpenSansCondensedLight" line-height="21" fill="black" text-anchor="middle" text-vertical-anchor="middle" transform="matrix(1,0,0,1,118.1,264.5)" display="none"><tspan dy="0.3em" style="fill-opacity: 0; stroke-opacity: 0;">-</tspan></text></g></g></svg>