<svg xmlns="http://www.w3.org/2000/svg" xmlns:xlink="http://www.w3.org/1999/xlink" version="1.1" width="664" height="828.7" viewBox="11.9 65.9 664 828.7"><defs><marker orient="auto" overflow="visible" markerUnits="userSpaceOnUse"><path stroke="#333333" fill="#333333" d="M 8 -4 0 0 8 4 z"/></marker><marker orient="auto" overflow="visible" markerUnits="userSpaceOnUse"><path stroke="#333333" fill="#333333" transform="rotate(180)" d="M 8 -4 0 0 8 4 z"/></marker></defs><g><g data-type="tp.Element" transform="translate(330,177)"><g><g>
<path d="M1,0H0v242.3h1V0L1,0z" fill="#FFFFFF"/>
<rect x="0" y="11" width="0.9" height="220.2" fill="none"/>
<circle fill="none" cx="0.5" cy="0" r="0.1"/>
<circle fill="none" cx="0.7" cy="0" r="0.1"/>
<circle fill="none" cx="1" cy="61.1" r="0.1"/>
<circle fill="none" cx="1" cy="121.2" r="0.1"/>
<circle fill="none" cx="1" cy="181.2" r="0.1"/>
<circle fill="none" cx="0.7" cy="242.3" r="0.1"/>
<circle fill="none" cx="0.5" cy="242.3" r="0.1"/>
<circle fill="none" cx="0.3" cy="242.3" r="0.1"/>
<circle fill="none" cx="0" cy="181.2" r="0.1"/>
<circle fill="none" cx="0" cy="121.2" r="0.1"/>
<circle fill="none" cx="0" cy="61.1" r="0.1"/>
<circle fill="none" cx="0.3" cy="0" r="0.1"/>
</g></g><g><rect stroke="none" fill="#ffffff" width="40" height="20" x="-75.5" y="202.3"/><path stroke="#000000" fill="none" d="M-0.1,180.3 C-25.8,173.2 -12.5,209.4 -38.2 202.3"/><text font-size="18.7" xml:space="preserve" font-family="OpenSansCondensedLight" fill="black" text-anchor="middle" x="-55.5" y="212.3"><tspan dy="0.3em">302</tspan></text></g><text font-size="18.7" xml:space="preserve" font-family="OpenSansCondensedLight" line-height="21" fill="black" text-anchor="middle" text-vertical-anchor="middle" transform="matrix(1,0,0,1,0.5,121.2)"><tspan dy="-0.3em" style="fill-opacity: 0; stroke-opacity: 0;">-</tspan><tspan dy="21" x="0" style="fill-opacity: 0; stroke-opacity: 0;">-</tspan></text></g><g data-type="tp.Element" transform="translate(71.8,454.3)"><g><g>
<path d="M515.5,0H0v374.3h515.5V0L515.5,0z" fill="#FFFFFF" stroke="#000000"/>
<rect x="22.6" y="17.1" width="470.4" height="340.2" fill="none"/>
<circle fill="none" cx="257.7" cy="0" r="0.1"/>
<circle fill="none" cx="385.5" cy="0" r="0.1"/>
<circle fill="none" cx="515.5" cy="94.4" r="0.1"/>
<circle fill="none" cx="515.5" cy="187.2" r="0.1"/>
<circle fill="none" cx="515.5" cy="279.9" r="0.1"/>
<circle fill="none" cx="385.5" cy="374.3" r="0.1"/>
<circle fill="none" cx="257.7" cy="374.3" r="0.1"/>
<circle fill="none" cx="130" cy="374.3" r="0.1"/>
<circle fill="none" cx="0" cy="279.9" r="0.1"/>
<circle fill="none" cx="0" cy="187.2" r="0.1"/>
<circle fill="none" cx="0" cy="94.4" r="0.1"/>
<circle fill="none" cx="130" cy="0" r="0.1"/>
</g></g><g><rect stroke="none" fill="#ffffff" width="40" height="20" x="559.6" y="177.2"/><path stroke="#000000" fill="none" d="M515.6,187.2 C534.2,206.2 540.9,168.2 559.6 187.2"/><text font-size="18.7" xml:space="preserve" font-family="OpenSansCondensedLight" fill="black" text-anchor="middle" x="579.6" y="187.2"><tspan dy="0.3em">304</tspan></text></g><text font-size="18.7" xml:space="preserve" font-family="OpenSansCondensedLight" line-height="21" fill="black" text-anchor="middle" text-vertical-anchor="middle" transform="matrix(1,0,0,1,257.8,187.2)"><tspan dy="-0.3em" style="fill-opacity: 0; stroke-opacity: 0;">-</tspan><tspan dy="21" x="0" style="fill-opacity: 0; stroke-opacity: 0;">-</tspan></text></g><g data-type="tp.Element" transform="translate(378.7,215)"><g><g>
<path d="M183.5,0H0v43.3h183.5V0L183.5,0z" fill="#FFFFFF" stroke="#000000"/>
<rect x="8" y="2" width="167.5" height="39.4" fill="none"/>
<circle fill="none" cx="91.7" cy="0" r="0.1"/>
<circle fill="none" cx="137.2" cy="0" r="0.1"/>
<circle fill="none" cx="183.5" cy="10.9" r="0.1"/>
<circle fill="none" cx="183.5" cy="21.7" r="0.1"/>
<circle fill="none" cx="183.5" cy="32.4" r="0.1"/>
<circle fill="none" cx="137.2" cy="43.3" r="0.1"/>
<circle fill="none" cx="91.7" cy="43.3" r="0.1"/>
<circle fill="none" cx="46.3" cy="43.3" r="0.1"/>
<circle fill="none" cx="0" cy="32.4" r="0.1"/>
<circle fill="none" cx="0" cy="21.7" r="0.1"/>
<circle fill="none" cx="0" cy="10.9" r="0.1"/>
<circle fill="none" cx="46.3" cy="0" r="0.1"/>
</g></g><g><rect stroke="none" fill="#ffffff" width="40" height="20" x="227.6" y="11.7"/><path stroke="#000000" fill="none" d="M183.6,21.7 C202.2,40.7 208.9,2.7 227.6 21.7"/><text font-size="18.7" xml:space="preserve" font-family="OpenSansCondensedLight" fill="black" text-anchor="middle" x="247.6" y="21.7"><tspan dy="0.3em">306</tspan></text></g><text font-size="18.7" xml:space="preserve" font-family="OpenSansCondensedLight" line-height="21" fill="black" text-anchor="middle" text-vertical-anchor="middle" transform="matrix(1,0,0,1,91.8,21.7)"><tspan dy="0.3em">DISPLAY</tspan></text></g><g data-type="tp.Element" transform="translate(282.3,456.3)"><g><g>
<path d="M94.5,0H0v23.3h94.5V0L94.5,0z" fill="#FFFFFF"/>
<rect x="4.1" y="1.1" width="86.2" height="21.2" fill="none"/>
<circle fill="none" cx="47.2" cy="0" r="0.1"/>
<circle fill="none" cx="70.7" cy="0" r="0.1"/>
<circle fill="none" cx="94.5" cy="5.9" r="0.1"/>
<circle fill="none" cx="94.5" cy="11.7" r="0.1"/>
<circle fill="none" cx="94.5" cy="17.4" r="0.1"/>
<circle fill="none" cx="70.7" cy="23.3" r="0.1"/>
<circle fill="none" cx="47.2" cy="23.3" r="0.1"/>
<circle fill="none" cx="23.8" cy="23.3" r="0.1"/>
<circle fill="none" cx="0" cy="17.4" r="0.1"/>
<circle fill="none" cx="0" cy="11.7" r="0.1"/>
<circle fill="none" cx="0" cy="5.9" r="0.1"/>
<circle fill="none" cx="23.8" cy="0" r="0.1"/>
</g></g><g><rect stroke="none" fill="#ffffff" width="0" height="0"/><path stroke="#000000" fill="none" d=""/><text font-size="18.7" xml:space="preserve" display="none" font-family="OpenSansCondensedLight" fill="black" text-anchor="middle"><tspan dy="0.3em" style="fill-opacity: 0; stroke-opacity: 0;">-</tspan></text></g><text font-size="18.7" xml:space="preserve" font-family="OpenSansCondensedLight" line-height="21" fill="black" text-anchor="middle" text-vertical-anchor="middle" transform="matrix(1,0,0,1,47.2,11.7)"><tspan dy="0.3em">MEMORY</tspan></text></g><g data-type="tp.Element" transform="translate(235.8,75.7)"><g><g>
<path d="M189.5,0H0v55.6h189.5V0L189.5,0z" fill="#FFFFFF" stroke="#000000"/>
<rect x="8.3" y="2.5" width="172.9" height="50.6" fill="none"/>
<circle fill="none" cx="94.7" cy="0" r="0.1"/>
<circle fill="none" cx="141.7" cy="0" r="0.1"/>
<circle fill="none" cx="189.5" cy="14" r="0.1"/>
<circle fill="none" cx="189.5" cy="27.8" r="0.1"/>
<circle fill="none" cx="189.5" cy="41.6" r="0.1"/>
<circle fill="none" cx="141.7" cy="55.6" r="0.1"/>
<circle fill="none" cx="94.7" cy="55.6" r="0.1"/>
<circle fill="none" cx="47.8" cy="55.6" r="0.1"/>
<circle fill="none" cx="0" cy="41.6" r="0.1"/>
<circle fill="none" cx="0" cy="27.8" r="0.1"/>
<circle fill="none" cx="0" cy="14" r="0.1"/>
<circle fill="none" cx="47.8" cy="0" r="0.1"/>
</g></g><g><rect stroke="none" fill="#ffffff" width="40" height="20" x="233.6" y="17.8"/><path stroke="#000000" fill="none" d="M189.6,27.8 C208.2,46.8 214.9,8.8 233.6 27.8"/><text font-size="18.7" xml:space="preserve" font-family="OpenSansCondensedLight" fill="black" text-anchor="middle" x="253.6" y="27.8"><tspan dy="0.3em">308</tspan></text></g><text font-size="18.7" xml:space="preserve" font-family="OpenSansCondensedLight" line-height="21" fill="black" text-anchor="middle" text-vertical-anchor="middle" transform="matrix(1,0,0,1,94.8,27.8)"><tspan dy="-0.3em">NETWORK</tspan><tspan dy="21" x="0">INTERFACE</tspan></text></g><g data-type="tp.Element" transform="translate(99,271)"><g><g>
<path d="M183.5,0H0v51.9h183.5V0L183.5,0z" fill="#FFFFFF" stroke="#000000"/>
<rect x="8" y="2.4" width="167.5" height="47.2" fill="none"/>
<circle fill="none" cx="91.7" cy="0" r="0.1"/>
<circle fill="none" cx="137.2" cy="0" r="0.1"/>
<circle fill="none" cx="183.5" cy="13.1" r="0.1"/>
<circle fill="none" cx="183.5" cy="26" r="0.1"/>
<circle fill="none" cx="183.5" cy="38.8" r="0.1"/>
<circle fill="none" cx="137.2" cy="51.9" r="0.1"/>
<circle fill="none" cx="91.7" cy="51.9" r="0.1"/>
<circle fill="none" cx="46.3" cy="51.9" r="0.1"/>
<circle fill="none" cx="0" cy="38.8" r="0.1"/>
<circle fill="none" cx="0" cy="26" r="0.1"/>
<circle fill="none" cx="0" cy="13.1" r="0.1"/>
<circle fill="none" cx="46.3" cy="0" r="0.1"/>
</g></g><g><rect stroke="none" fill="#ffffff" width="40" height="20" x="-84.1" y="16"/><path stroke="#000000" fill="none" d="M-0.1,26 C-18.8,7 -25.4,45 -44.1 26"/><text font-size="18.7" xml:space="preserve" font-family="OpenSansCondensedLight" fill="black" text-anchor="middle" x="-64.1" y="26"><tspan dy="0.3em">310</tspan></text></g><text font-size="18.7" xml:space="preserve" font-family="OpenSansCondensedLight" line-height="21" fill="black" text-anchor="middle" text-vertical-anchor="middle" transform="matrix(1,0,0,1,91.8,26)"><tspan dy="-0.3em">CENTRAL</tspan><tspan dy="21" x="0">PROCESSING UNIT</tspan></text></g><g data-type="tp.Link"><path fill="none" pointer-events="none" joint-selector="line" stroke-width="1" stroke="#333333" stroke-linejoin="round" marker-start="url(#v-1054-190246168)" marker-end="url(#v-10541588573873)" d="M 282.6 298 L 330 298.2"/><g><g label-idx="0" cursor="default" transform="translate(306.3, 298.1)"><rect joint-selector="rect" fill="#ffffff" rx="3" ry="3" width="8" height="0" transform="matrix(1,0,0,1,-4,0)"/><text joint-selector="text" font-size="18.7" xml:space="preserve" display="none" y="0.8em" fill="#000000" text-anchor="middle" pointer-events="none" font-family="OpenSansCondensedLight"><tspan dy="0" style="fill-opacity: 0; stroke-opacity: 0;">-</tspan></text></g></g></g><g data-type="tp.Link"><path fill="none" pointer-events="none" joint-selector="line" stroke-width="1" stroke="#333333" stroke-linejoin="round" marker-start="url(#v-1054-190246168)" marker-end="url(#v-10541588573873)" d="M 378.6 238 L 331 238.1"/><g><g label-idx="0" cursor="default" transform="translate(354.8, 238)"><rect joint-selector="rect" fill="#ffffff" rx="3" ry="3" width="8" height="0" transform="matrix(1,0,0,1,-4,0)"/><text joint-selector="text" font-size="18.7" xml:space="preserve" display="none" y="0.8em" fill="#000000" text-anchor="middle" pointer-events="none" font-family="OpenSansCondensedLight"><tspan dy="0" style="fill-opacity: 0; stroke-opacity: 0;">-</tspan></text></g></g></g><g data-type="tp.Element" transform="translate(96,496)"><g><g>
<path d="M464.5,0H0v27.6h464.5V0L464.5,0z" fill="#FFFFFF" stroke="#000000"/>
<rect x="20.3" y="1.3" width="423.9" height="25.1" fill="none"/>
<circle fill="none" cx="232.2" cy="0" r="0.1"/>
<circle fill="none" cx="347.4" cy="0" r="0.1"/>
<circle fill="none" cx="464.5" cy="7" r="0.1"/>
<circle fill="none" cx="464.5" cy="13.8" r="0.1"/>
<circle fill="none" cx="464.5" cy="20.7" r="0.1"/>
<circle fill="none" cx="347.4" cy="27.6" r="0.1"/>
<circle fill="none" cx="232.2" cy="27.6" r="0.1"/>
<circle fill="none" cx="117.2" cy="27.6" r="0.1"/>
<circle fill="none" cx="0" cy="20.7" r="0.1"/>
<circle fill="none" cx="0" cy="13.8" r="0.1"/>
<circle fill="none" cx="0" cy="7" r="0.1"/>
<circle fill="none" cx="117.2" cy="0" r="0.1"/>
</g></g><g><rect stroke="none" fill="#ffffff" width="40" height="20" x="-84.1" y="3.8"/><path stroke="#000000" fill="none" d="M-0.1,13.8 C-18.8,-5.2 -25.4,32.8 -44.1 13.8"/><text font-size="18.7" xml:space="preserve" font-family="OpenSansCondensedLight" fill="black" text-anchor="middle" x="-64.1" y="13.8"><tspan dy="0.3em">312</tspan></text></g><text font-size="18.7" xml:space="preserve" font-family="OpenSansCondensedLight" line-height="21" fill="black" text-anchor="middle" text-vertical-anchor="middle" transform="matrix(1,0,0,1,232.3,13.8)"><tspan dy="0.3em">OPERATING SYSTEM</tspan></text></g><g data-type="tp.Element" transform="translate(96,734)"><g><g>
<g fill="#FFFFFF" stroke="#000000">
    <path d="M93.7,11.2H0v45.6c0,6.1,21,11.2,47,11.2s47,-5.1,47,-11.2v-45.6L93.7,11.2L93.7,11.2z"/>
    <path d="M47,0C21,0,0,5.1,0,11.2s21,11.2,47,11.2s47,-5.1,47,-11.2C93.7,5.1,72.7,0,47,0L47,0z"/>
</g>
<rect x="5" y="24.9" width="83.8" height="32.2" fill="none"/>
<circle fill="none" cx="47" cy="0" r="0.1"/>
<circle fill="none" cx="71.6" cy="1.7" r="0.1"/>
<circle fill="none" cx="94" cy="11.2" r="0.1"/>
<circle fill="none" cx="94" cy="34" r="0.1"/>
<circle fill="none" cx="94" cy="56.8" r="0.1"/>
<circle fill="none" cx="72.9" cy="66.1" r="0.1"/>
<circle fill="none" cx="47" cy="68" r="0.1"/>
<circle fill="none" cx="19.7" cy="65.8" r="0.1"/>
<circle fill="none" cx="0" cy="56.8" r="0.1"/>
<circle fill="none" cx="0" cy="34" r="0.1"/>
<circle fill="none" cx="0" cy="11.2" r="0.1"/>
<circle fill="none" cx="22.2" cy="1.7" r="0.1"/>
</g></g><g><rect stroke="none" fill="#ffffff" width="40" height="20" x="-84.1" y="24"/><path stroke="#000000" fill="none" d="M-0.1,34 C-18.8,15 -25.4,53 -44.1 34"/><text font-size="18.7" xml:space="preserve" font-family="OpenSansCondensedLight" fill="black" text-anchor="middle" x="-64.1" y="34"><tspan dy="0.3em">314</tspan></text></g><text font-size="18.7" xml:space="preserve" font-family="OpenSansCondensedLight" line-height="21" fill="black" text-anchor="middle" text-vertical-anchor="middle" transform="matrix(1,0,0,1,46.9,41)"><tspan dy="0.3em">DATABASE</tspan></text></g><g data-type="tp.Link"><path fill="none" pointer-events="none" joint-selector="line" stroke-width="1" stroke="#333333" stroke-linejoin="round" marker-start="url(#v-1054-190246168)" marker-end="url(#v-10541588573873)" d="M 329.5 454.2 L 330.5 131.3"/><g><g label-idx="0" cursor="default" transform="translate(330, 292.8)"><rect joint-selector="rect" fill="#ffffff" rx="3" ry="3" width="8" height="0" transform="matrix(1,0,0,1,-4,0)"/><text joint-selector="text" font-size="18.7" xml:space="preserve" display="none" y="0.8em" fill="#000000" text-anchor="middle" pointer-events="none" font-family="OpenSansCondensedLight"><tspan dy="0" style="fill-opacity: 0; stroke-opacity: 0;">-</tspan></text></g></g></g><g data-type="tp.Element" transform="translate(15,66)"><g><g>
<path d="M90,0C40.2,0,0,40.4,0,90s40.2,90,90,90s90,-40.4,90,-90S140,0,90,0L90,0z" fill="#FFFFFF" stroke="#000000"/>
<rect x="17.7" y="45.8" width="145" height="88.5" fill="none"/>
<circle fill="none" cx="90.3" cy="0" r="0.1"/>
<circle fill="none" cx="133.1" cy="11" r="0.1"/>
<circle fill="none" cx="168.6" cy="46" r="0.1"/>
<circle fill="none" cx="180.1" cy="90" r="0.1"/>
<circle fill="none" cx="168.5" cy="134.2" r="0.1"/>
<circle fill="none" cx="134.3" cy="168.4" r="0.1"/>
<circle fill="none" cx="90" cy="180.1" r="0.1"/>
<circle fill="none" cx="45.6" cy="168.4" r="0.1"/>
<circle fill="none" cx="11.6" cy="134.2" r="0.1"/>
<circle fill="none" cx="0" cy="89.2" r="0.1"/>
<circle fill="none" cx="11.5" cy="46" r="0.1"/>
<circle fill="none" cx="46.8" cy="11" r="0.1"/>
</g></g><g><rect stroke="none" fill="#ffffff" width="40" height="20" x="204" y="155.5"/><path stroke="#000000" fill="none" d="M168.5,133.5 C175.2,159.3 200,129.8 206.6 155.5"/><text font-size="18.7" xml:space="preserve" font-family="OpenSansCondensedLight" fill="black" text-anchor="middle" x="224" y="165.5"><tspan dy="0.3em">316</tspan></text></g><text font-size="18.7" xml:space="preserve" font-family="OpenSansCondensedLight" line-height="21" fill="black" text-anchor="middle" text-vertical-anchor="middle" transform="matrix(1,0,0,1,90.2,90)"><tspan dy="-2em">NON-</tspan><tspan dy="21" x="0">TRANSITORY</tspan><tspan dy="21" x="0">COMPUTER-</tspan><tspan dy="21" x="0">READABLE </tspan><tspan dy="21" x="0">MEDIUM</tspan></text></g><g data-type="tp.Link"><path fill="none" pointer-events="none" joint-selector="line" stroke-width="1" stroke="#333333" stroke-linejoin="round" marker-start="url(#v-1054-190246168)" marker-end="url(#v-10541588573873)" d="M 195.2 156 L 330 157"/><g><g label-idx="0" cursor="default" transform="translate(262.6, 156.5)"><rect joint-selector="rect" fill="#ffffff" rx="3" ry="3" width="8" height="0" transform="matrix(1,0,0,1,-4,0)"/><text joint-selector="text" font-size="18.7" xml:space="preserve" display="none" y="0.8em" fill="#000000" text-anchor="middle" pointer-events="none" font-family="OpenSansCondensedLight"><tspan dy="0" style="fill-opacity: 0; stroke-opacity: 0;">-</tspan></text></g></g></g></g></svg>