<svg xmlns="http://www.w3.org/2000/svg" xmlns:xlink="http://www.w3.org/1999/xlink" version="1.1" width="650" height="535.6" viewBox="63.9 6.8 650 535.6"><defs><marker orient="auto" overflow="visible" markerUnits="userSpaceOnUse"><path stroke="#333333" fill="#333333" d="M 0 0 0 0"/></marker><marker orient="auto" overflow="visible" markerUnits="userSpaceOnUse"><path stroke="#333333" fill="#333333" transform="rotate(180)" d="M 8 -4 0 0 8 4 z"/></marker><marker orient="auto" overflow="visible" markerUnits="userSpaceOnUse"><path stroke="#333333" fill="#333333" d="M 8 -4 0 0 8 4 z"/></marker><marker orient="auto" overflow="visible" markerUnits="userSpaceOnUse"><path stroke="#333333" fill="#333333" transform="rotate(180)" d="M 0 0 0 0"/></marker></defs><g><g data-type="tp.Element" transform="translate(320,25)"><g><g>
<path d="M94.5,0H0v94.5h94.5V0L94.5,0z" fill="#FFFFFF" stroke="#000000"/>
<rect x="4.1" y="4.3" width="86.2" height="85.9" fill="none"/>
<circle fill="none" cx="47.2" cy="0" r="0.1"/>
<circle fill="none" cx="70.7" cy="0" r="0.1"/>
<circle fill="none" cx="94.5" cy="23.8" r="0.1"/>
<circle fill="none" cx="94.5" cy="47.2" r="0.1"/>
<circle fill="none" cx="94.5" cy="70.7" r="0.1"/>
<circle fill="none" cx="70.7" cy="94.5" r="0.1"/>
<circle fill="none" cx="47.2" cy="94.5" r="0.1"/>
<circle fill="none" cx="23.8" cy="94.5" r="0.1"/>
<circle fill="none" cx="0" cy="70.7" r="0.1"/>
<circle fill="none" cx="0" cy="47.2" r="0.1"/>
<circle fill="none" cx="0" cy="23.8" r="0.1"/>
<circle fill="none" cx="23.8" cy="0" r="0.1"/>
</g></g><g><rect stroke="none" fill="#ffffff" width="40" height="20" x="-75.5" y="-17.8"/><path stroke="#000000" fill="none" d="M-0.1,24.2 C-6.8,-1.6 -31.5,27.9 -38.2 2.2"/><text font-size="18.7" xml:space="preserve" font-family="OpenSansCondensedLight" fill="black" text-anchor="middle" x="-55.5" y="-7.8"><tspan dy="0.3em">402</tspan></text></g><text font-size="18.7" xml:space="preserve" font-family="OpenSansCondensedLight" line-height="21" fill="black" text-anchor="middle" text-vertical-anchor="middle" transform="matrix(1,0,0,1,47.2,47.2)"><tspan dy="0.3em">CPU</tspan></text></g><g data-type="tp.Element" transform="translate(64,200)"><g><g>
<path d="M94.5,0H0v94.5h94.5V0L94.5,0z" fill="#FFFFFF" stroke="#000000"/>
<rect x="4.1" y="4.3" width="86.2" height="85.9" fill="none"/>
<circle fill="none" cx="47.2" cy="0" r="0.1"/>
<circle fill="none" cx="70.7" cy="0" r="0.1"/>
<circle fill="none" cx="94.5" cy="23.8" r="0.1"/>
<circle fill="none" cx="94.5" cy="47.2" r="0.1"/>
<circle fill="none" cx="94.5" cy="70.7" r="0.1"/>
<circle fill="none" cx="70.7" cy="94.5" r="0.1"/>
<circle fill="none" cx="47.2" cy="94.5" r="0.1"/>
<circle fill="none" cx="23.8" cy="94.5" r="0.1"/>
<circle fill="none" cx="0" cy="70.7" r="0.1"/>
<circle fill="none" cx="0" cy="47.2" r="0.1"/>
<circle fill="none" cx="0" cy="23.8" r="0.1"/>
<circle fill="none" cx="23.8" cy="0" r="0.1"/>
</g></g><g><rect stroke="none" fill="#ffffff" width="40" height="20" x="27.2" y="-64.1"/><path stroke="#000000" fill="none" d="M47.2,-0.1 C66.2,-18.8 28.2,-25.4 47.2 -44.1"/><text font-size="18.7" xml:space="preserve" font-family="OpenSansCondensedLight" fill="black" text-anchor="middle" x="47.2" y="-54.1"><tspan dy="0.3em">404</tspan></text></g><text font-size="18.7" xml:space="preserve" font-family="OpenSansCondensedLight" line-height="21" fill="black" text-anchor="middle" text-vertical-anchor="middle" transform="matrix(1,0,0,1,47.2,47.2)"><tspan dy="-0.3em">INPUT</tspan><tspan dy="21" x="0">DEVICES</tspan></text></g><g data-type="tp.Element" transform="translate(320,200)"><g><g>
<path d="M94.5,0H0v94.5h94.5V0L94.5,0z" fill="#FFFFFF" stroke="#000000"/>
<rect x="4.1" y="4.3" width="86.2" height="85.9" fill="none"/>
<circle fill="none" cx="47.2" cy="0" r="0.1"/>
<circle fill="none" cx="70.7" cy="0" r="0.1"/>
<circle fill="none" cx="94.5" cy="23.8" r="0.1"/>
<circle fill="none" cx="94.5" cy="47.2" r="0.1"/>
<circle fill="none" cx="94.5" cy="70.7" r="0.1"/>
<circle fill="none" cx="70.7" cy="94.5" r="0.1"/>
<circle fill="none" cx="47.2" cy="94.5" r="0.1"/>
<circle fill="none" cx="23.8" cy="94.5" r="0.1"/>
<circle fill="none" cx="0" cy="70.7" r="0.1"/>
<circle fill="none" cx="0" cy="47.2" r="0.1"/>
<circle fill="none" cx="0" cy="23.8" r="0.1"/>
<circle fill="none" cx="23.8" cy="0" r="0.1"/>
</g></g><g><rect stroke="none" fill="#ffffff" width="40" height="20" x="78.1" y="-58.2"/><path stroke="#000000" fill="none" d="M70.3,-0.1 C96.1,-6.8 66.5,-31.5 92.3 -38.2"/><text font-size="18.7" xml:space="preserve" font-family="OpenSansCondensedLight" fill="black" text-anchor="middle" x="98.1" y="-48.2"><tspan dy="0.3em">406</tspan></text></g><text font-size="18.7" xml:space="preserve" font-family="OpenSansCondensedLight" line-height="21" fill="black" text-anchor="middle" text-vertical-anchor="middle" transform="matrix(1,0,0,1,47.2,47.2)"><tspan dy="0.3em">MEMORY</tspan></text></g><g data-type="tp.Element" transform="translate(551.5,200)"><g><g>
<path d="M94.5,0H0v94.5h94.5V0L94.5,0z" fill="#FFFFFF" stroke="#000000"/>
<rect x="4.1" y="4.3" width="86.2" height="85.9" fill="none"/>
<circle fill="none" cx="47.2" cy="0" r="0.1"/>
<circle fill="none" cx="70.7" cy="0" r="0.1"/>
<circle fill="none" cx="94.5" cy="23.8" r="0.1"/>
<circle fill="none" cx="94.5" cy="47.2" r="0.1"/>
<circle fill="none" cx="94.5" cy="70.7" r="0.1"/>
<circle fill="none" cx="70.7" cy="94.5" r="0.1"/>
<circle fill="none" cx="47.2" cy="94.5" r="0.1"/>
<circle fill="none" cx="23.8" cy="94.5" r="0.1"/>
<circle fill="none" cx="0" cy="70.7" r="0.1"/>
<circle fill="none" cx="0" cy="47.2" r="0.1"/>
<circle fill="none" cx="0" cy="23.8" r="0.1"/>
<circle fill="none" cx="23.8" cy="0" r="0.1"/>
</g></g><g><rect stroke="none" fill="#ffffff" width="40" height="20" x="-23.6" y="-58.2"/><path stroke="#000000" fill="none" d="M24.2,-0.1 C31.3,-25.8 -5,-12.5 2.2 -38.2"/><text font-size="18.7" xml:space="preserve" font-family="OpenSansCondensedLight" fill="black" text-anchor="middle" x="-3.6" y="-48.2"><tspan dy="0.3em">408</tspan></text></g><text font-size="18.7" xml:space="preserve" font-family="OpenSansCondensedLight" line-height="21" fill="black" text-anchor="middle" text-vertical-anchor="middle" transform="matrix(1,0,0,1,47.2,47.2)"><tspan dy="-0.3em">OUTPUT</tspan><tspan dy="21" x="0">DEVICES</tspan></text></g><g data-type="tp.Element" transform="translate(320,377)"><g><g>
<path d="M94.5,0H0v94.5h94.5V0L94.5,0z" fill="#FFFFFF" stroke="#000000"/>
<rect x="4.1" y="4.3" width="86.2" height="85.9" fill="none"/>
<circle fill="none" cx="47.2" cy="0" r="0.1"/>
<circle fill="none" cx="70.7" cy="0" r="0.1"/>
<circle fill="none" cx="94.5" cy="23.8" r="0.1"/>
<circle fill="none" cx="94.5" cy="47.2" r="0.1"/>
<circle fill="none" cx="94.5" cy="70.7" r="0.1"/>
<circle fill="none" cx="70.7" cy="94.5" r="0.1"/>
<circle fill="none" cx="47.2" cy="94.5" r="0.1"/>
<circle fill="none" cx="23.8" cy="94.5" r="0.1"/>
<circle fill="none" cx="0" cy="70.7" r="0.1"/>
<circle fill="none" cx="0" cy="47.2" r="0.1"/>
<circle fill="none" cx="0" cy="23.8" r="0.1"/>
<circle fill="none" cx="23.8" cy="0" r="0.1"/>
</g></g><g><rect stroke="none" fill="#ffffff" width="40" height="20" x="27.2" y="138.6"/><path stroke="#000000" fill="none" d="M47.2,94.6 C28.2,113.3 66.2,119.9 47.2 138.6"/><text font-size="18.7" xml:space="preserve" font-family="OpenSansCondensedLight" fill="black" text-anchor="middle" x="47.2" y="148.6"><tspan dy="0.3em">410</tspan></text></g><text font-size="18.7" xml:space="preserve" font-family="OpenSansCondensedLight" line-height="21" fill="black" text-anchor="middle" text-vertical-anchor="middle" transform="matrix(1,0,0,1,47.2,47.2)"><tspan dy="-0.3em">STORAGE</tspan><tspan dy="21" x="0">DEVICES</tspan></text></g><g data-type="tp.Element" transform="translate(551.5,377)"><g><g>
<path d="M94.5,0H0v94.5h94.5V0L94.5,0z" fill="#FFFFFF" stroke="#000000"/>
<rect x="4.1" y="4.3" width="86.2" height="85.9" fill="none"/>
<circle fill="none" cx="47.2" cy="0" r="0.1"/>
<circle fill="none" cx="70.7" cy="0" r="0.1"/>
<circle fill="none" cx="94.5" cy="23.8" r="0.1"/>
<circle fill="none" cx="94.5" cy="47.2" r="0.1"/>
<circle fill="none" cx="94.5" cy="70.7" r="0.1"/>
<circle fill="none" cx="70.7" cy="94.5" r="0.1"/>
<circle fill="none" cx="47.2" cy="94.5" r="0.1"/>
<circle fill="none" cx="23.8" cy="94.5" r="0.1"/>
<circle fill="none" cx="0" cy="70.7" r="0.1"/>
<circle fill="none" cx="0" cy="47.2" r="0.1"/>
<circle fill="none" cx="0" cy="23.8" r="0.1"/>
<circle fill="none" cx="23.8" cy="0" r="0.1"/>
</g></g><g><rect stroke="none" fill="#ffffff" width="40" height="20" x="27.2" y="138.6"/><path stroke="#000000" fill="none" d="M47.2,94.6 C28.2,113.3 66.2,119.9 47.2 138.6"/><text font-size="18.7" xml:space="preserve" font-family="OpenSansCondensedLight" fill="black" text-anchor="middle" x="47.2" y="148.6"><tspan dy="0.3em">412</tspan></text></g><text font-size="18.7" xml:space="preserve" font-family="OpenSansCondensedLight" line-height="21" fill="black" text-anchor="middle" text-vertical-anchor="middle" transform="matrix(1,0,0,1,47.2,47.2)"><tspan dy="-0.3em">NETWORK</tspan><tspan dy="21" x="0">INTERFACE</tspan></text></g><g data-type="tp.Link"><path fill="none" pointer-events="none" joint-selector="line" stroke-width="1" stroke="#333333" stroke-linejoin="round" marker-start="url(#v-15112000855011)" marker-end="url(#v-15111588573873)" d="M 158.6 247.2 L 268.8 247.2 C 271.8 240.5 275.8 240.5 278.8 247.2 L 320 247.2"/><g><g label-idx="0" cursor="default" transform="translate(241.8, 247.2)"><rect joint-selector="rect" fill="#ffffff" rx="3" ry="3" width="8" height="0" transform="matrix(1,0,0,1,-4,0)"/><text joint-selector="text" font-size="18.7" xml:space="preserve" display="none" y="0.8em" fill="#000000" text-anchor="middle" pointer-events="none" font-family="OpenSansCondensedLight"><tspan dy="0" style="fill-opacity: 0; stroke-opacity: 0;">-</tspan></text></g></g></g><g data-type="tp.Link"><path fill="none" pointer-events="none" joint-selector="line" stroke-width="1" stroke="#333333" stroke-linejoin="round" marker-start="url(#v-15112000855011)" marker-end="url(#v-15111588573873)" d="M 414.6 247.2 L 551.5 247.2"/><g><g label-idx="0" cursor="default" transform="translate(483.1, 247.2)"><rect joint-selector="rect" fill="#ffffff" rx="3" ry="3" width="8" height="0" transform="matrix(1,0,0,1,-4,0)"/><text joint-selector="text" font-size="18.7" xml:space="preserve" display="none" y="0.8em" fill="#000000" text-anchor="middle" pointer-events="none" font-family="OpenSansCondensedLight"><tspan dy="0" style="fill-opacity: 0; stroke-opacity: 0;">-</tspan></text></g></g></g><g data-type="tp.Link"><path fill="none" pointer-events="none" joint-selector="line" stroke-width="1" stroke="#333333" stroke-linejoin="round" marker-start="url(#v-1511-190246168)" marker-end="url(#v-15111588573873)" d="M 367.2 119.6 L 367.2 200"/><g><g label-idx="0" cursor="default" transform="translate(367.2, 159.8)"><rect joint-selector="rect" fill="#ffffff" rx="3" ry="3" width="8" height="0" transform="matrix(1,0,0,1,-4,0)"/><text joint-selector="text" font-size="18.7" xml:space="preserve" display="none" y="0.8em" fill="#000000" text-anchor="middle" pointer-events="none" font-family="OpenSansCondensedLight"><tspan dy="0" style="fill-opacity: 0; stroke-opacity: 0;">-</tspan></text></g></g></g><g data-type="tp.Link"><path fill="none" pointer-events="none" joint-selector="line" stroke-width="1" stroke="#333333" stroke-linejoin="round" marker-start="url(#v-1511-190246168)" marker-end="url(#v-15111588573873)" d="M 367.2 294.6 L 367.2 377"/><g><g label-idx="0" cursor="default" transform="translate(367.2, 335.8)"><rect joint-selector="rect" fill="#ffffff" rx="3" ry="3" width="8" height="0" transform="matrix(1,0,0,1,-4,0)"/><text joint-selector="text" font-size="18.7" xml:space="preserve" display="none" y="0.8em" fill="#000000" text-anchor="middle" pointer-events="none" font-family="OpenSansCondensedLight"><tspan dy="0" style="fill-opacity: 0; stroke-opacity: 0;">-</tspan></text></g></g></g><g data-type="tp.Link"><path fill="none" pointer-events="none" joint-selector="line" stroke-width="1" stroke="#333333" stroke-linejoin="round" marker-start="url(#v-1511-190246168)" marker-end="url(#v-15111588573873)" d="M 414.6 270.9 L 551.5 400.8"/><g><g label-idx="0" cursor="default" transform="translate(483.1, 335.9)"><rect joint-selector="rect" fill="#ffffff" rx="3" ry="3" width="8" height="0" transform="matrix(1,0,0,1,-4,0)"/><text joint-selector="text" font-size="18.7" xml:space="preserve" display="none" y="0.8em" fill="#000000" text-anchor="middle" pointer-events="none" font-family="OpenSansCondensedLight"><tspan dy="0" style="fill-opacity: 0; stroke-opacity: 0;">-</tspan></text></g></g></g><g data-type="tp.Link"><path fill="none" pointer-events="none" joint-selector="line" stroke-width="1" stroke="#333333" stroke-linejoin="round" stroke-dasharray="5,5" marker-start="url(#v-15112000855011)" marker-end="url(#v-15111454029882)" d="M 319.9 199.9 L 160 364"/><g><g label-idx="0" cursor="default" transform="translate(240, 282)"><rect joint-selector="rect" fill="#ffffff" rx="3" ry="3" width="8" height="0" transform="matrix(1,0,0,1,-4,0)"/><text joint-selector="text" font-size="18.7" xml:space="preserve" display="none" y="0.8em" fill="#000000" text-anchor="middle" pointer-events="none" font-family="OpenSansCondensedLight"><tspan dy="0" style="fill-opacity: 0; stroke-opacity: 0;">-</tspan></text></g></g></g><g data-type="tp.Link"><path fill="none" pointer-events="none" joint-selector="line" stroke-width="1" stroke="#333333" stroke-linejoin="round" stroke-dasharray="5,5" marker-start="url(#v-15112000855011)" marker-end="url(#v-15111454029882)" d="M 319.9 471.6 L 158 437"/><g><g label-idx="0" cursor="default" transform="translate(239, 454.3)"><rect joint-selector="rect" fill="#ffffff" rx="3" ry="3" width="8" height="0" transform="matrix(1,0,0,1,-4,0)"/><text joint-selector="text" font-size="18.7" xml:space="preserve" display="none" y="0.8em" fill="#000000" text-anchor="middle" pointer-events="none" font-family="OpenSansCondensedLight"><tspan dy="0" style="fill-opacity: 0; stroke-opacity: 0;">-</tspan></text></g></g></g><g data-type="tp.Element" transform="translate(76.5,364)"><g><g>
<path d="M83,0H0v72h83V0L83,0z" fill="#FFFFFF" stroke="#000000"/>
<rect x="3.6" y="3.3" width="75.7" height="65.4" fill="none"/>
<circle fill="none" cx="41.5" cy="0" r="0.1"/>
<circle fill="none" cx="62.1" cy="0" r="0.1"/>
<circle fill="none" cx="83" cy="18.2" r="0.1"/>
<circle fill="none" cx="83" cy="36" r="0.1"/>
<circle fill="none" cx="83" cy="53.8" r="0.1"/>
<circle fill="none" cx="62.1" cy="72" r="0.1"/>
<circle fill="none" cx="41.5" cy="72" r="0.1"/>
<circle fill="none" cx="20.9" cy="72" r="0.1"/>
<circle fill="none" cx="0" cy="53.8" r="0.1"/>
<circle fill="none" cx="0" cy="36" r="0.1"/>
<circle fill="none" cx="0" cy="18.2" r="0.1"/>
<circle fill="none" cx="20.9" cy="0" r="0.1"/>
</g></g><g><rect stroke="none" fill="#ffffff" width="0" height="0"/><path stroke="#000000" fill="none" d=""/><text font-size="18.7" xml:space="preserve" display="none" font-family="OpenSansCondensedLight" fill="black" text-anchor="middle"><tspan dy="0.3em" style="fill-opacity: 0; stroke-opacity: 0;">-</tspan></text></g><text font-size="18.7" xml:space="preserve" font-family="OpenSansCondensedLight" line-height="21" fill="black" text-anchor="middle" text-vertical-anchor="middle" transform="matrix(1,0,0,1,41.5,36)"><tspan dy="6.5"><tspan text-decoration="underline">414</tspan></tspan></text></g></g></svg>