<svg xmlns="http://www.w3.org/2000/svg" xmlns:xlink="http://www.w3.org/1999/xlink" version="1.1" width="788.1" height="555.1" viewBox="101.3 33.9 788.1 555.1"><defs><marker orient="auto" overflow="visible" markerUnits="userSpaceOnUse"><path stroke="#333333" fill="#333333" d="M 0 0 0 0"/></marker><marker orient="auto" overflow="visible" markerUnits="userSpaceOnUse"><path stroke="#333333" fill="#333333" transform="rotate(180)" d="M 0 0 0 0"/></marker></defs><g><g data-type="tp.Element" transform="translate(105,81)"><g><g>
<path d="M683,0H0v474h683V0L683,0z" fill="#FFFFFF" stroke="#000000"/>
<rect x="29.9" y="21.6" width="623.3" height="430.8" fill="none"/>
<circle fill="none" cx="341.5" cy="0" r="0.1"/>
<circle fill="none" cx="510.8" cy="0" r="0.1"/>
<circle fill="none" cx="683" cy="119.5" r="0.1"/>
<circle fill="none" cx="683" cy="237" r="0.1"/>
<circle fill="none" cx="683" cy="354.5" r="0.1"/>
<circle fill="none" cx="510.8" cy="474" r="0.1"/>
<circle fill="none" cx="341.5" cy="474" r="0.1"/>
<circle fill="none" cx="172.3" cy="474" r="0.1"/>
<circle fill="none" cx="0" cy="354.5" r="0.1"/>
<circle fill="none" cx="0" cy="237" r="0.1"/>
<circle fill="none" cx="0" cy="119.5" r="0.1"/>
<circle fill="none" cx="172.3" cy="0" r="0.1"/>
</g></g><g><rect stroke="none" fill="#ffffff" width="0" height="0"/><path stroke="#000000" fill="none" d=""/><text font-size="18.7" xml:space="preserve" display="none" font-family="OpenSansCondensedLight" fill="black" text-anchor="middle"><tspan dy="0.3em" style="fill-opacity: 0; stroke-opacity: 0;">-</tspan></text></g><text font-size="18.7" xml:space="preserve" font-family="OpenSansCondensedLight" line-height="21" fill="black" text-anchor="middle" text-vertical-anchor="middle" transform="matrix(1,0,0,1,341.5,237)"><tspan dy="-0.3em" style="fill-opacity: 0; stroke-opacity: 0;">-</tspan><tspan dy="21" x="0" style="fill-opacity: 0; stroke-opacity: 0;">-</tspan></text></g><g data-type="tp.Element" transform="translate(172,34)"><g><g>
<g stroke="#000000" fill="#FFFFFF">
    <ellipse cx="9.5" cy="5.5" rx="1.2" ry="1.2"/>
    <polygon points="19,43 9.5,47 0,43 9.5,6.7"/>
</g>
<g fill="none" stroke="#000000">
    <line x1="9.5" y1="6.7" x2="9.5" y2="47"/>
    <ellipse cx="9.5" cy="5.5" rx="1.2" ry="1.2"/>
    <line x1="9.5" y1="6.7" x2="0" y2="43"/>
    <line x1="9.5" y1="6.7" x2="19" y2="43"/>
    <polygon points="9.5,13.5 7.9,12.8 9.5,12 11,12.8"/>
    <polygon points="9.5,15.5 7.4,14.6 9.5,13.6 11.5,14.6"/>
    <polygon points="9.5,18.1 6.8,16.9 9.5,15.7 12.2,16.9"/>
    <polygon points="9.5,21.3 6,19.9 9.5,18.3 12.9,20"/>
    <polygon points="9.5,25.7 5,23.8 9.5,21.7 13.9,23.8"/>
    <polygon points="9.5,31.1 3.8,28.7 9.5,26.1 15.2,28.6"/>
    <polygon points="9.5,38.1 2.1,35 9.5,31.6 16.9,34.9"/>
    <polygon points="9.5,47 0,43 9.5,38.8 19,43"/>
    <path d="M12.1,10.4c1.8,-1,3.1,-2.8,3.1,-4.9C15.2,2.5,12.6,0,9.5,0S3.7,2.5,3.7,5.5c0,2.1,1.2,4,3.1,4.9"/>
    <path d="M11.7,8.7c1.1,-0.7,1.8,-1.8,1.8,-3.2c0,-2.1,-1.8,-3.8,-4,-3.8S5.5,3.4,5.5,5.5c0,1.4,0.8,2.5,1.8,3.2"/>
    <path d="M11.3,7.1c0.4,-0.4,0.7,-1,0.7,-1.6c0,-1.3,-1.1,-2.3,-2.4,-2.3S7.1,4.2,7.1,5.5c0,0.6,0.2,1.2,0.7,1.7"/>
</g>
<rect x="1.2" y="17.2" width="17.1" height="16" fill="none"/>
<circle fill="none" cx="9.4" cy="0" r="0.1"/>
<circle fill="none" cx="15.2" cy="5.5" r="0.1"/>
<circle fill="none" cx="11.5" cy="14.6" r="0.1"/>
<circle fill="none" cx="13.9" cy="23.8" r="0.1"/>
<circle fill="none" cx="16.9" cy="34.9" r="0.1"/>
<circle fill="none" cx="19" cy="43" r="0.1"/>
<circle fill="none" cx="9.5" cy="47" r="0.1"/>
<circle fill="none" cx="0" cy="43" r="0.1"/>
<circle fill="none" cx="2.1" cy="35" r="0.1"/>
<circle fill="none" cx="5" cy="23.7" r="0.1"/>
<circle fill="none" cx="7.4" cy="14.6" r="0.1"/>
<circle fill="none" cx="3.7" cy="5.5" r="0.1"/>
</g></g><g><rect stroke="none" fill="#ffffff" width="40" height="20" x="55.5" y="4.4"/><path stroke="#000000" fill="none" d="M11.5,14.4 C30.2,33.4 36.9,-4.6 55.5 14.4"/><text font-size="18.7" xml:space="preserve" font-family="OpenSansCondensedLight" fill="black" text-anchor="middle" x="75.5" y="14.4"><tspan dy="0.3em">502</tspan></text></g><text font-size="18.7" xml:space="preserve" font-family="OpenSansCondensedLight" line-height="21" fill="black" text-anchor="middle" text-vertical-anchor="top" transform="matrix(1,0,0,1,9.5,57.1)"><tspan dy="0.8em" style="fill-opacity: 0; stroke-opacity: 0;">-</tspan><tspan dy="21" x="0" style="fill-opacity: 0; stroke-opacity: 0;">-</tspan></text></g><g data-type="tp.Element" transform="translate(323,180)"><g><g>
<path d="M94,0H0v216h94V0L94,0z" fill="#FFFFFF" stroke="#000000"/>
<rect x="4.1" y="9.8" width="85.8" height="196.3" fill="none"/>
<circle fill="none" cx="47" cy="0" r="0.1"/>
<circle fill="none" cx="70.3" cy="0" r="0.1"/>
<circle fill="none" cx="94" cy="54.5" r="0.1"/>
<circle fill="none" cx="94" cy="108" r="0.1"/>
<circle fill="none" cx="94" cy="161.5" r="0.1"/>
<circle fill="none" cx="70.3" cy="216" r="0.1"/>
<circle fill="none" cx="47" cy="216" r="0.1"/>
<circle fill="none" cx="23.7" cy="216" r="0.1"/>
<circle fill="none" cx="0" cy="161.5" r="0.1"/>
<circle fill="none" cx="0" cy="108" r="0.1"/>
<circle fill="none" cx="0" cy="54.5" r="0.1"/>
<circle fill="none" cx="23.7" cy="0" r="0.1"/>
</g></g><g><rect stroke="none" fill="#ffffff" width="40" height="20" x="77.7" y="-58.2"/><path stroke="#000000" fill="none" d="M70,-0.1 C95.8,-6.8 66.2,-31.5 92 -38.2"/><text font-size="18.7" xml:space="preserve" font-family="OpenSansCondensedLight" fill="black" text-anchor="middle" x="97.7" y="-48.2"><tspan dy="0.3em">504</tspan></text></g><text font-size="18.7" xml:space="preserve" font-family="OpenSansCondensedLight" line-height="21" fill="black" text-anchor="middle" text-vertical-anchor="middle" transform="matrix(1,0,0,1,47,108)"><tspan dy="-0.3em">CONTROL</tspan><tspan dy="21" x="0">LOGIC</tspan></text></g><g data-type="tp.Element" transform="translate(121.3,185)"><g><g>
<path d="M121,0H0v104h121V0L121,0z" fill="#FFFFFF" stroke="#000000"/>
<rect x="5.3" y="4.7" width="110.4" height="94.5" fill="none"/>
<circle fill="none" cx="60.5" cy="0" r="0.1"/>
<circle fill="none" cx="90.5" cy="0" r="0.1"/>
<circle fill="none" cx="121" cy="26.2" r="0.1"/>
<circle fill="none" cx="121" cy="52" r="0.1"/>
<circle fill="none" cx="121" cy="77.8" r="0.1"/>
<circle fill="none" cx="90.5" cy="104" r="0.1"/>
<circle fill="none" cx="60.5" cy="104" r="0.1"/>
<circle fill="none" cx="30.5" cy="104" r="0.1"/>
<circle fill="none" cx="0" cy="77.8" r="0.1"/>
<circle fill="none" cx="0" cy="52" r="0.1"/>
<circle fill="none" cx="0" cy="26.2" r="0.1"/>
<circle fill="none" cx="30.5" cy="0" r="0.1"/>
</g></g><g><rect stroke="none" fill="#ffffff" width="40" height="20" x="156.5" y="-15.4"/><path stroke="#000000" fill="none" d="M121.1,26.6 C146.8,33.7 133.5,-2.5 159.2 4.6"/><text font-size="18.7" xml:space="preserve" font-family="OpenSansCondensedLight" fill="black" text-anchor="middle" x="176.5" y="-5.4"><tspan dy="0.3em">506</tspan></text></g><text font-size="18.7" xml:space="preserve" font-family="OpenSansCondensedLight" line-height="21" fill="black" text-anchor="middle" text-vertical-anchor="middle" transform="matrix(1,0,0,1,60.5,52)"><tspan dy="-0.8em">WIRELESS</tspan><tspan dy="21" x="0">COMMUNICATION</tspan><tspan dy="21" x="0">LOGIC</tspan></text></g><g data-type="tp.Link"><path fill="none" pointer-events="none" joint-selector="line" stroke-width="1" stroke="#333333" stroke-linejoin="round" marker-start="url(#v-18592000855011)" marker-end="url(#v-18591454029882)" d="M 181.7 81.1 L 181.8 185"/><g><g label-idx="0" cursor="default" transform="translate(181.7, 133.1)"><rect joint-selector="rect" fill="#ffffff" rx="3" ry="3" width="8" height="0" transform="matrix(1,0,0,1,-4,0)"/><text joint-selector="text" font-size="18.7" xml:space="preserve" display="none" y="0.8em" fill="#000000" text-anchor="middle" pointer-events="none" font-family="OpenSansCondensedLight"><tspan dy="0" style="fill-opacity: 0; stroke-opacity: 0;">-</tspan></text></g></g></g><g data-type="tp.Link"><path fill="none" pointer-events="none" joint-selector="line" stroke-width="1" stroke="#333333" stroke-linejoin="round" marker-start="url(#v-18592000855011)" marker-end="url(#v-18591454029882)" d="M 181.8 184.9 L 181.5 81"/><g><g label-idx="0" cursor="default" transform="translate(181.6, 133)"><rect joint-selector="rect" fill="#ffffff" rx="3" ry="3" width="8" height="0" transform="matrix(1,0,0,1,-4,0)"/><text joint-selector="text" font-size="18.7" xml:space="preserve" display="none" y="0.8em" fill="#000000" text-anchor="middle" pointer-events="none" font-family="OpenSansCondensedLight"><tspan dy="0" style="fill-opacity: 0; stroke-opacity: 0;">-</tspan></text></g></g></g><g data-type="tp.Link"><path fill="none" pointer-events="none" joint-selector="line" stroke-width="1" stroke="#333333" stroke-linejoin="round" marker-start="url(#v-18592000855011)" marker-end="url(#v-18591454029882)" d="M 322.9 236.1 L 242.3 237"/><g><g label-idx="0" cursor="default" transform="translate(282.6, 236.6)"><rect joint-selector="rect" fill="#ffffff" rx="3" ry="3" width="8" height="0" transform="matrix(1,0,0,1,-4,0)"/><text joint-selector="text" font-size="18.7" xml:space="preserve" display="none" y="0.8em" fill="#000000" text-anchor="middle" pointer-events="none" font-family="OpenSansCondensedLight"><tspan dy="0" style="fill-opacity: 0; stroke-opacity: 0;">-</tspan></text></g></g></g><g data-type="tp.Element" transform="translate(508,142)"><g><g>
<path d="M154,0H0v124h154V0L154,0z" fill="#FFFFFF" stroke="#000000"/>
<rect x="6.7" y="5.7" width="140.5" height="112.7" fill="none"/>
<circle fill="none" cx="77" cy="0" r="0.1"/>
<circle fill="none" cx="115.2" cy="0" r="0.1"/>
<circle fill="none" cx="154" cy="31.3" r="0.1"/>
<circle fill="none" cx="154" cy="62" r="0.1"/>
<circle fill="none" cx="154" cy="92.7" r="0.1"/>
<circle fill="none" cx="115.2" cy="124" r="0.1"/>
<circle fill="none" cx="77" cy="124" r="0.1"/>
<circle fill="none" cx="38.9" cy="124" r="0.1"/>
<circle fill="none" cx="0" cy="92.7" r="0.1"/>
<circle fill="none" cx="0" cy="62" r="0.1"/>
<circle fill="none" cx="0" cy="31.3" r="0.1"/>
<circle fill="none" cx="38.9" cy="0" r="0.1"/>
</g></g><g><rect stroke="none" fill="#ffffff" width="40" height="20" x="189.5" y="-10.3"/><path stroke="#000000" fill="none" d="M154.1,31.7 C179.8,38.8 166.5,2.6 192.2 9.7"/><text font-size="18.7" xml:space="preserve" font-family="OpenSansCondensedLight" fill="black" text-anchor="middle" x="209.5" y="-0.3"><tspan dy="0.3em">508</tspan></text></g><text font-size="18.7" xml:space="preserve" font-family="OpenSansCondensedLight" line-height="21" fill="black" text-anchor="middle" text-vertical-anchor="middle" transform="matrix(1,0,0,1,77,62)"><tspan dy="0.3em">MEMORY</tspan></text></g><g data-type="tp.Element" transform="translate(507.5,345)"><g><g>
<path d="M155,0H0v65h155V0L155,0z" fill="#FFFFFF" stroke="#000000"/>
<rect x="6.8" y="3" width="141.5" height="59.1" fill="none"/>
<circle fill="none" cx="77.5" cy="0" r="0.1"/>
<circle fill="none" cx="115.9" cy="0" r="0.1"/>
<circle fill="none" cx="155" cy="16.4" r="0.1"/>
<circle fill="none" cx="155" cy="32.5" r="0.1"/>
<circle fill="none" cx="155" cy="48.6" r="0.1"/>
<circle fill="none" cx="115.9" cy="65" r="0.1"/>
<circle fill="none" cx="77.5" cy="65" r="0.1"/>
<circle fill="none" cx="39.1" cy="65" r="0.1"/>
<circle fill="none" cx="0" cy="48.6" r="0.1"/>
<circle fill="none" cx="0" cy="32.5" r="0.1"/>
<circle fill="none" cx="0" cy="16.4" r="0.1"/>
<circle fill="none" cx="39.1" cy="0" r="0.1"/>
</g></g><g><rect stroke="none" fill="#ffffff" width="40" height="20" x="190.5" y="-25.4"/><path stroke="#000000" fill="none" d="M155.1,16.6 C180.8,23.7 167.5,-12.5 193.2 -5.4"/><text font-size="18.7" xml:space="preserve" font-family="OpenSansCondensedLight" fill="black" text-anchor="middle" x="210.5" y="-15.4"><tspan dy="0.3em">510</tspan></text></g><text font-size="18.7" xml:space="preserve" font-family="OpenSansCondensedLight" line-height="21" fill="black" text-anchor="middle" text-vertical-anchor="middle" transform="matrix(1,0,0,1,77.5,32.5)"><tspan dy="-0.3em">POWER</tspan><tspan dy="21" x="0">MANAGER</tspan></text></g><g data-type="tp.Element" transform="translate(612,444)"><g><g>
<path d="M94,0H0v57h94V0L94,0z" fill="#FFFFFF" stroke="#000000"/>
<rect x="4.1" y="2.6" width="85.8" height="51.8" fill="none"/>
<circle fill="none" cx="47" cy="0" r="0.1"/>
<circle fill="none" cx="70.3" cy="0" r="0.1"/>
<circle fill="none" cx="94" cy="14.4" r="0.1"/>
<circle fill="none" cx="94" cy="28.5" r="0.1"/>
<circle fill="none" cx="94" cy="42.6" r="0.1"/>
<circle fill="none" cx="70.3" cy="57" r="0.1"/>
<circle fill="none" cx="47" cy="57" r="0.1"/>
<circle fill="none" cx="23.7" cy="57" r="0.1"/>
<circle fill="none" cx="0" cy="42.6" r="0.1"/>
<circle fill="none" cx="0" cy="28.5" r="0.1"/>
<circle fill="none" cx="0" cy="14.4" r="0.1"/>
<circle fill="none" cx="23.7" cy="0" r="0.1"/>
</g></g><g><rect stroke="none" fill="#ffffff" width="40" height="20" x="-75.5" y="64.4"/><path stroke="#000000" fill="none" d="M-0.1,42.4 C-25.8,35.3 -12.5,71.6 -38.2 64.4"/><text font-size="18.7" xml:space="preserve" font-family="OpenSansCondensedLight" fill="black" text-anchor="middle" x="-55.5" y="74.4"><tspan dy="0.3em">512</tspan></text></g><text font-size="18.7" xml:space="preserve" font-family="OpenSansCondensedLight" line-height="21" fill="black" text-anchor="middle" text-vertical-anchor="middle" transform="matrix(1,0,0,1,47,28.5)"><tspan dy="0.3em">BATTERY</tspan></text></g><g data-type="tp.Link"><path fill="none" pointer-events="none" joint-selector="line" stroke-width="1" stroke="#333333" stroke-linejoin="round" marker-start="url(#v-18592000855011)" marker-end="url(#v-18591454029882)" d="M 611.9 470.2 L 606 470 L 548 470 L 548 410"/><g><g label-idx="0" cursor="default" transform="translate(550, 470)"><rect joint-selector="rect" fill="#ffffff" rx="3" ry="3" width="8" height="0" transform="matrix(1,0,0,1,-4,0)"/><text joint-selector="text" font-size="18.7" xml:space="preserve" display="none" y="0.8em" fill="#000000" text-anchor="middle" pointer-events="none" font-family="OpenSansCondensedLight"><tspan dy="0" style="fill-opacity: 0; stroke-opacity: 0;">-</tspan></text></g></g></g><g data-type="tp.Link"><path fill="none" pointer-events="none" joint-selector="line" stroke-width="1" stroke="#333333" stroke-linejoin="round" marker-start="url(#v-18592000855011)" marker-end="url(#v-18591454029882)" d="M 507.9 235.1 L 417 234.5"/><g><g label-idx="0" cursor="default" transform="translate(462.5, 234.8)"><rect joint-selector="rect" fill="#ffffff" rx="3" ry="3" width="8" height="0" transform="matrix(1,0,0,1,-4,0)"/><text joint-selector="text" font-size="18.7" xml:space="preserve" display="none" y="0.8em" fill="#000000" text-anchor="middle" pointer-events="none" font-family="OpenSansCondensedLight"><tspan dy="0" style="fill-opacity: 0; stroke-opacity: 0;">-</tspan></text></g></g></g><g data-type="tp.Element" transform="translate(136,318)"><g><g>
<path d="M94.5,0H0v94.5h94.5V0L94.5,0z" fill="#FFFFFF" stroke="#000000"/>
<rect x="4.1" y="4.3" width="86.2" height="85.9" fill="none"/>
<circle fill="none" cx="47.2" cy="0" r="0.1"/>
<circle fill="none" cx="70.7" cy="0" r="0.1"/>
<circle fill="none" cx="94.5" cy="23.8" r="0.1"/>
<circle fill="none" cx="94.5" cy="47.2" r="0.1"/>
<circle fill="none" cx="94.5" cy="70.7" r="0.1"/>
<circle fill="none" cx="70.7" cy="94.5" r="0.1"/>
<circle fill="none" cx="47.2" cy="94.5" r="0.1"/>
<circle fill="none" cx="23.8" cy="94.5" r="0.1"/>
<circle fill="none" cx="0" cy="70.7" r="0.1"/>
<circle fill="none" cx="0" cy="47.2" r="0.1"/>
<circle fill="none" cx="0" cy="23.8" r="0.1"/>
<circle fill="none" cx="23.8" cy="0" r="0.1"/>
</g></g><g><rect stroke="none" fill="#ffffff" width="40" height="20" x="130" y="92.3"/><path stroke="#000000" fill="none" d="M94.6,70.3 C101.3,96.1 126,66.5 132.7 92.3"/><text font-size="18.7" xml:space="preserve" font-family="OpenSansCondensedLight" fill="black" text-anchor="middle" x="150" y="102.3"><tspan dy="0.3em">514</tspan></text></g><text font-size="18.7" xml:space="preserve" font-family="OpenSansCondensedLight" line-height="21" fill="black" text-anchor="middle" text-vertical-anchor="middle" transform="matrix(1,0,0,1,47.2,47.2)"><tspan dy="-0.8em">USER</tspan><tspan dy="21" x="0">INTERFACE</tspan><tspan dy="21" x="0">LOGIC</tspan></text></g><g data-type="tp.Link"><path fill="none" pointer-events="none" joint-selector="line" stroke-width="1" stroke="#333333" stroke-linejoin="round" marker-start="url(#v-18592000855011)" marker-end="url(#v-18591454029882)" d="M 322.9 339.9 L 263 340 L 230.5 340"/><g><g label-idx="0" cursor="default" transform="translate(276.7, 340)"><rect joint-selector="rect" fill="#ffffff" rx="3" ry="3" width="8" height="0" transform="matrix(1,0,0,1,-4,0)"/><text joint-selector="text" font-size="18.7" xml:space="preserve" display="none" y="0.8em" fill="#000000" text-anchor="middle" pointer-events="none" font-family="OpenSansCondensedLight"><tspan dy="0" style="fill-opacity: 0; stroke-opacity: 0;">-</tspan></text></g></g></g><g data-type="tp.Element" transform="translate(502.6,270)"><g><g>
<g fill="#FFFFFF">
    <path d="M83.4,15c-0.2,-3.1,-8.5,-5.7,-22.3,-5.7H21.6C7.8,9.3,0,7,0,4V0h169v4c0,3,-7.8,5.2,-21.8,5.2H105.7C92.1,9.3,83.6,11.8,83.4,15"/>
</g>
<g stroke="#000000">
    <path fill="none" stroke-linejoin="round" d="M169,0v4c0,3,-7.8,5.2,-21.8,5.2H105.7c-13.6,0,-22.1,2.6,-22.3,5.7"/>
    <path fill="none" stroke-linejoin="round" d="M83.4,15c-0.2,-3.1,-8.5,-5.7,-22.3,-5.7H21.6C7.8,9.3,0,7,0,4V0"/>
</g>
<rect x="3.6" y="1" fill="none" width="161.7" height="12.9"/>
<circle fill="none" cx="85.9" cy="12.3" r="0.1"/>
<circle fill="none" cx="102.1" cy="9.3" r="0.1"/>
<circle fill="none" cx="133.8" cy="9.3" r="0.1"/>
<circle fill="none" cx="162.3" cy="8" r="0.1"/>
<circle fill="none" cx="169" cy="3.7" r="0.1"/>
<circle fill="none" cx="169" cy="0" r="0.1"/>
<circle fill="none" cx="0" cy="0" r="0.1"/>
<circle fill="none" cx="0" cy="3.7" r="0.1"/>
<circle fill="none" cx="7.3" cy="8.1" r="0.1"/>
<circle fill="none" cx="25.1" cy="9.3" r="0.1"/>
<circle fill="none" cx="61.9" cy="9.2" r="0.1"/>
<circle fill="none" cx="81" cy="12.4" r="0.1"/>
</g></g><g><rect stroke="none" fill="#ffffff" width="40" height="20" x="202.9" y="23.1"/><path stroke="#000000" fill="none" d="M162.2,8 C172.2,32.7 192.9,0.1 202.9 24.8"/><text font-size="18.7" xml:space="preserve" font-family="OpenSansCondensedLight" fill="black" text-anchor="middle" x="222.9" y="33.1"><tspan dy="0.3em">516</tspan></text></g><text font-size="18.7" xml:space="preserve" font-family="OpenSansCondensedLight" line-height="21" fill="black" text-anchor="middle" text-vertical-anchor="top" transform="matrix(1,0,0,1,84.5,25)" display="none"><tspan dy="0.8em" style="fill-opacity: 0; stroke-opacity: 0;">-</tspan></text></g></g></svg>