<svg xmlns="http://www.w3.org/2000/svg" xmlns:xlink="http://www.w3.org/1999/xlink" version="1.1" width="677.7" height="485" viewBox="75 70 677.7 485"><defs/><g><g data-type="tp.Element" transform="translate(75,70)"><g><g><rect width="227" height="288.6" fill="none"/><svg xmlns="http://www.w3.org/2000/svg" data-name="Layer 1" viewBox="0 0 156.9 199.4" width="227" height="288.6" preserveAspectRatio="none"><title>fig6_11x14circlematrixb</title><rect x="0.5" y="0.5" width="155.9" height="198.4" fill="#fff" stroke="#231f20" stroke-miterlimit="10"/><circle cx="9" cy="9" r="4.3" fill="#fff" stroke="#231f20" stroke-miterlimit="10"/><circle cx="134" cy="9" r="4.3" fill="#fff" stroke="#231f20" stroke-miterlimit="10"/><circle cx="120.1" cy="9" r="4.3" fill="#fff" stroke="#231f20" stroke-miterlimit="10"/><circle cx="106.2" cy="9" r="4.3" fill="#fff" stroke="#231f20" stroke-miterlimit="10"/><circle cx="92.3" cy="9" r="4.3" fill="#fff" stroke="#231f20" stroke-miterlimit="10"/><circle cx="78.5" cy="9" r="4.3" fill="#fff" stroke="#231f20" stroke-miterlimit="10"/><circle cx="64.6" cy="9" r="4.3" fill="#fff" stroke="#231f20" stroke-miterlimit="10"/><circle cx="50.7" cy="9" r="4.3" fill="#fff" stroke="#231f20" stroke-miterlimit="10"/><circle cx="36.8" cy="9" r="4.3" fill="#fff" stroke="#231f20" stroke-miterlimit="10"/><circle cx="147.9" cy="9" r="4.3" fill="#fff" stroke="#231f20" stroke-miterlimit="10"/><circle cx="22.9" cy="9" r="4.3" fill="#fff" stroke="#231f20" stroke-miterlimit="10"/><circle cx="9" cy="23" r="4.3" fill="#fff" stroke="#231f20" stroke-miterlimit="10"/><circle cx="134" cy="23" r="4.3" fill="#fff" stroke="#231f20" stroke-miterlimit="10"/><circle cx="120.1" cy="23" r="4.3" fill="#fff" stroke="#231f20" stroke-miterlimit="10"/><circle cx="106.2" cy="23" r="4.3" fill="#fff" stroke="#231f20" stroke-miterlimit="10"/><circle cx="92.3" cy="23" r="4.3" fill="#fff" stroke="#231f20" stroke-miterlimit="10"/><circle cx="78.5" cy="23" r="4.3" fill="#fff" stroke="#231f20" stroke-miterlimit="10"/><circle cx="64.6" cy="23" r="4.3" fill="#fff" stroke="#231f20" stroke-miterlimit="10"/><circle cx="50.7" cy="23" r="4.3" fill="#fff" stroke="#231f20" stroke-miterlimit="10"/><circle cx="36.8" cy="23" r="4.3" fill="#fff" stroke="#231f20" stroke-miterlimit="10"/><circle cx="147.9" cy="23" r="4.3" fill="#fff" stroke="#231f20" stroke-miterlimit="10"/><circle cx="22.9" cy="23" r="4.3" fill="#fff" stroke="#231f20" stroke-miterlimit="10"/><circle cx="9" cy="36.9" r="4.3" fill="#fff" stroke="#231f20" stroke-miterlimit="10"/><circle cx="134" cy="36.9" r="4.3" fill="#fff" stroke="#231f20" stroke-miterlimit="10"/><circle cx="120.1" cy="36.9" r="4.3" fill="#fff" stroke="#231f20" stroke-miterlimit="10"/><circle cx="106.2" cy="36.9" r="4.3" fill="#fff" stroke="#231f20" stroke-miterlimit="10"/><circle cx="92.3" cy="36.9" r="4.3" fill="#fff" stroke="#231f20" stroke-miterlimit="10"/><circle cx="78.5" cy="36.9" r="4.3" fill="#fff" stroke="#231f20" stroke-miterlimit="10"/><circle cx="64.6" cy="36.9" r="4.3" fill="#fff" stroke="#231f20" stroke-miterlimit="10"/><circle cx="50.7" cy="36.9" r="4.3" fill="#fff" stroke="#231f20" stroke-miterlimit="10"/><circle cx="36.8" cy="36.9" r="4.3" fill="#fff" stroke="#231f20" stroke-miterlimit="10"/><circle cx="147.9" cy="36.9" r="4.3" fill="#fff" stroke="#231f20" stroke-miterlimit="10"/><circle cx="22.9" cy="36.9" r="4.3" fill="#fff" stroke="#231f20" stroke-miterlimit="10"/><circle cx="9" cy="50.9" r="4.3" fill="#fff" stroke="#231f20" stroke-miterlimit="10"/><circle cx="134" cy="50.9" r="4.3" fill="#fff" stroke="#231f20" stroke-miterlimit="10"/><circle cx="120.1" cy="50.9" r="4.3" fill="#fff" stroke="#231f20" stroke-miterlimit="10"/><circle cx="106.2" cy="50.9" r="4.3" fill="#fff" stroke="#231f20" stroke-miterlimit="10"/><circle cx="92.3" cy="50.9" r="4.3" fill="#fff" stroke="#231f20" stroke-miterlimit="10"/><circle cx="78.5" cy="50.9" r="4.3" fill="#fff" stroke="#231f20" stroke-miterlimit="10"/><circle cx="64.6" cy="50.9" r="4.3" fill="#fff" stroke="#231f20" stroke-miterlimit="10"/><circle cx="50.7" cy="50.9" r="4.3" fill="#fff" stroke="#231f20" stroke-miterlimit="10"/><circle cx="36.8" cy="50.9" r="4.3" fill="#fff" stroke="#231f20" stroke-miterlimit="10"/><circle cx="147.9" cy="50.9" r="4.3" fill="#fff" stroke="#231f20" stroke-miterlimit="10"/><circle cx="22.9" cy="50.9" r="4.3" fill="#fff" stroke="#231f20" stroke-miterlimit="10"/><circle cx="9" cy="64.8" r="4.3" fill="#fff" stroke="#231f20" stroke-miterlimit="10"/><circle cx="134" cy="64.8" r="4.3" fill="#fff" stroke="#231f20" stroke-miterlimit="10"/><circle cx="120.1" cy="64.8" r="4.3" fill="#fff" stroke="#231f20" stroke-miterlimit="10"/><circle cx="106.2" cy="64.8" r="4.3" fill="#fff" stroke="#231f20" stroke-miterlimit="10"/><circle cx="92.3" cy="64.8" r="4.3" fill="#fff" stroke="#231f20" stroke-miterlimit="10"/><circle cx="78.5" cy="64.8" r="4.3" fill="#fff" stroke="#231f20" stroke-miterlimit="10"/><circle cx="64.6" cy="64.8" r="4.3" fill="#fff" stroke="#231f20" stroke-miterlimit="10"/><circle cx="50.7" cy="64.8" r="4.3" fill="#fff" stroke="#231f20" stroke-miterlimit="10"/><circle cx="36.8" cy="64.8" r="4.3" fill="#fff" stroke="#231f20" stroke-miterlimit="10"/><circle cx="147.9" cy="64.8" r="4.3" fill="#fff" stroke="#231f20" stroke-miterlimit="10"/><circle cx="22.9" cy="64.8" r="4.3" fill="#fff" stroke="#231f20" stroke-miterlimit="10"/><circle cx="9" cy="78.8" r="4.3" fill="#fff" stroke="#231f20" stroke-miterlimit="10"/><circle cx="134" cy="78.8" r="4.3" fill="#fff" stroke="#231f20" stroke-miterlimit="10"/><circle cx="120.1" cy="78.8" r="4.3" fill="#fff" stroke="#231f20" stroke-miterlimit="10"/><circle cx="106.2" cy="78.8" r="4.3" fill="#fff" stroke="#231f20" stroke-miterlimit="10"/><circle cx="92.3" cy="78.8" r="4.3" fill="#fff" stroke="#231f20" stroke-miterlimit="10"/><circle cx="78.5" cy="78.8" r="4.3" fill="#fff" stroke="#231f20" stroke-miterlimit="10"/><circle cx="64.6" cy="78.8" r="4.3" fill="#fff" stroke="#231f20" stroke-miterlimit="10"/><circle cx="50.7" cy="78.8" r="4.3" fill="#fff" stroke="#231f20" stroke-miterlimit="10"/><circle cx="36.8" cy="78.8" r="4.3" fill="#fff" stroke="#231f20" stroke-miterlimit="10"/><circle cx="147.9" cy="78.8" r="4.3" fill="#fff" stroke="#231f20" stroke-miterlimit="10"/><circle cx="22.9" cy="78.8" r="4.3" fill="#fff" stroke="#231f20" stroke-miterlimit="10"/><circle cx="9" cy="92.7" r="4.3" fill="#fff" stroke="#231f20" stroke-miterlimit="10"/><circle cx="134" cy="92.7" r="4.3" fill="#fff" stroke="#231f20" stroke-miterlimit="10"/><circle cx="120.1" cy="92.7" r="4.3" fill="#fff" stroke="#231f20" stroke-miterlimit="10"/><circle cx="106.2" cy="92.7" r="4.3" fill="#fff" stroke="#231f20" stroke-miterlimit="10"/><circle cx="92.3" cy="92.7" r="4.3" fill="#fff" stroke="#231f20" stroke-miterlimit="10"/><circle cx="78.5" cy="92.7" r="4.3" fill="#fff" stroke="#231f20" stroke-miterlimit="10"/><circle cx="64.6" cy="92.7" r="4.3" fill="#fff" stroke="#231f20" stroke-miterlimit="10"/><circle cx="50.7" cy="92.7" r="4.3" fill="#fff" stroke="#231f20" stroke-miterlimit="10"/><circle cx="36.8" cy="92.7" r="4.3" fill="#fff" stroke="#231f20" stroke-miterlimit="10"/><circle cx="147.9" cy="92.7" r="4.3" fill="#fff" stroke="#231f20" stroke-miterlimit="10"/><circle cx="22.9" cy="92.7" r="4.3" fill="#fff" stroke="#231f20" stroke-miterlimit="10"/><circle cx="9" cy="106.7" r="4.3" fill="#fff" stroke="#231f20" stroke-miterlimit="10"/><circle cx="134" cy="106.7" r="4.3" fill="#fff" stroke="#231f20" stroke-miterlimit="10"/><circle cx="120.1" cy="106.7" r="4.3" fill="#fff" stroke="#231f20" stroke-miterlimit="10"/><circle cx="106.2" cy="106.7" r="4.3" fill="#fff" stroke="#231f20" stroke-miterlimit="10"/><circle cx="92.3" cy="106.7" r="4.3" fill="#fff" stroke="#231f20" stroke-miterlimit="10"/><circle cx="78.5" cy="106.7" r="4.3" fill="#fff" stroke="#231f20" stroke-miterlimit="10"/><circle cx="64.6" cy="106.7" r="4.3" fill="#fff" stroke="#231f20" stroke-miterlimit="10"/><circle cx="50.7" cy="106.7" r="4.3" fill="#fff" stroke="#231f20" stroke-miterlimit="10"/><circle cx="36.8" cy="106.7" r="4.3" fill="#fff" stroke="#231f20" stroke-miterlimit="10"/><circle cx="147.9" cy="106.7" r="4.3" fill="#fff" stroke="#231f20" stroke-miterlimit="10"/><circle cx="22.9" cy="106.7" r="4.3" fill="#fff" stroke="#231f20" stroke-miterlimit="10"/><circle cx="9" cy="120.7" r="4.3" fill="#fff" stroke="#231f20" stroke-miterlimit="10"/><circle cx="134" cy="120.7" r="4.3" fill="#fff" stroke="#231f20" stroke-miterlimit="10"/><circle cx="120.1" cy="120.7" r="4.3" fill="#fff" stroke="#231f20" stroke-miterlimit="10"/><circle cx="106.2" cy="120.7" r="4.3" fill="#fff" stroke="#231f20" stroke-miterlimit="10"/><circle cx="92.3" cy="120.7" r="4.3" fill="#fff" stroke="#231f20" stroke-miterlimit="10"/><circle cx="78.5" cy="120.7" r="4.3" fill="#fff" stroke="#231f20" stroke-miterlimit="10"/><circle cx="64.6" cy="120.7" r="4.3" fill="#fff" stroke="#231f20" stroke-miterlimit="10"/><circle cx="50.7" cy="120.7" r="4.3" fill="#fff" stroke="#231f20" stroke-miterlimit="10"/><circle cx="36.8" cy="120.7" r="4.3" fill="#fff" stroke="#231f20" stroke-miterlimit="10"/><circle cx="147.9" cy="120.7" r="4.3" fill="#fff" stroke="#231f20" stroke-miterlimit="10"/><circle cx="22.9" cy="120.7" r="4.3" fill="#fff" stroke="#231f20" stroke-miterlimit="10"/><circle cx="9" cy="134.6" r="4.3" fill="#fff" stroke="#231f20" stroke-miterlimit="10"/><circle cx="134" cy="134.6" r="4.3" fill="#fff" stroke="#231f20" stroke-miterlimit="10"/><circle cx="120.1" cy="134.6" r="4.3" fill="#fff" stroke="#231f20" stroke-miterlimit="10"/><circle cx="106.2" cy="134.6" r="4.3" fill="#fff" stroke="#231f20" stroke-miterlimit="10"/><circle cx="92.3" cy="134.6" r="4.3" fill="#fff" stroke="#231f20" stroke-miterlimit="10"/><circle cx="78.5" cy="134.6" r="4.3" fill="#fff" stroke="#231f20" stroke-miterlimit="10"/><circle cx="64.6" cy="134.6" r="4.3" fill="#fff" stroke="#231f20" stroke-miterlimit="10"/><circle cx="50.7" cy="134.6" r="4.3" fill="#fff" stroke="#231f20" stroke-miterlimit="10"/><circle cx="36.8" cy="134.6" r="4.3" fill="#fff" stroke="#231f20" stroke-miterlimit="10"/><circle cx="147.9" cy="134.6" r="4.3" fill="#fff" stroke="#231f20" stroke-miterlimit="10"/><circle cx="22.9" cy="134.6" r="4.3" fill="#fff" stroke="#231f20" stroke-miterlimit="10"/><circle cx="9" cy="148.6" r="4.3" fill="#fff" stroke="#231f20" stroke-miterlimit="10"/><circle cx="134" cy="148.6" r="4.3" fill="#fff" stroke="#231f20" stroke-miterlimit="10"/><circle cx="120.1" cy="148.6" r="4.3" fill="#fff" stroke="#231f20" stroke-miterlimit="10"/><circle cx="106.2" cy="148.6" r="4.3" fill="#fff" stroke="#231f20" stroke-miterlimit="10"/><circle cx="92.3" cy="148.6" r="4.3" fill="#fff" stroke="#231f20" stroke-miterlimit="10"/><circle cx="78.5" cy="148.6" r="4.3" fill="#fff" stroke="#231f20" stroke-miterlimit="10"/><circle cx="64.6" cy="148.6" r="4.3" fill="#fff" stroke="#231f20" stroke-miterlimit="10"/><circle cx="50.7" cy="148.6" r="4.3" fill="#fff" stroke="#231f20" stroke-miterlimit="10"/><circle cx="36.8" cy="148.6" r="4.3" fill="#fff" stroke="#231f20" stroke-miterlimit="10"/><circle cx="147.9" cy="148.6" r="4.3" fill="#fff" stroke="#231f20" stroke-miterlimit="10"/><circle cx="22.9" cy="148.6" r="4.3" fill="#fff" stroke="#231f20" stroke-miterlimit="10"/><circle cx="9" cy="162.5" r="4.3" fill="#fff" stroke="#231f20" stroke-miterlimit="10"/><circle cx="134" cy="162.5" r="4.3" fill="#fff" stroke="#231f20" stroke-miterlimit="10"/><circle cx="120.1" cy="162.5" r="4.3" fill="#fff" stroke="#231f20" stroke-miterlimit="10"/><circle cx="106.2" cy="162.5" r="4.3" fill="#fff" stroke="#231f20" stroke-miterlimit="10"/><circle cx="92.3" cy="162.5" r="4.3" fill="#fff" stroke="#231f20" stroke-miterlimit="10"/><circle cx="78.5" cy="162.5" r="4.3" fill="#fff" stroke="#231f20" stroke-miterlimit="10"/><circle cx="64.6" cy="162.5" r="4.3" fill="#fff" stroke="#231f20" stroke-miterlimit="10"/><circle cx="50.7" cy="162.5" r="4.3" fill="#fff" stroke="#231f20" stroke-miterlimit="10"/><circle cx="36.8" cy="162.5" r="4.3" fill="#fff" stroke="#231f20" stroke-miterlimit="10"/><circle cx="147.9" cy="162.5" r="4.3" fill="#fff" stroke="#231f20" stroke-miterlimit="10"/><circle cx="22.9" cy="162.5" r="4.3" fill="#fff" stroke="#231f20" stroke-miterlimit="10"/><circle cx="9" cy="176.5" r="4.3" fill="#fff" stroke="#231f20" stroke-miterlimit="10"/><circle cx="134" cy="176.5" r="4.3" fill="#fff" stroke="#231f20" stroke-miterlimit="10"/><circle cx="120.1" cy="176.5" r="4.3" fill="#fff" stroke="#231f20" stroke-miterlimit="10"/><circle cx="106.2" cy="176.5" r="4.3" fill="#fff" stroke="#231f20" stroke-miterlimit="10"/><circle cx="92.3" cy="176.5" r="4.3" fill="#fff" stroke="#231f20" stroke-miterlimit="10"/><circle cx="78.5" cy="176.5" r="4.3" fill="#fff" stroke="#231f20" stroke-miterlimit="10"/><circle cx="64.6" cy="176.5" r="4.3" fill="#fff" stroke="#231f20" stroke-miterlimit="10"/><circle cx="50.7" cy="176.5" r="4.3" fill="#fff" stroke="#231f20" stroke-miterlimit="10"/><circle cx="36.8" cy="176.5" r="4.3" fill="#fff" stroke="#231f20" stroke-miterlimit="10"/><circle cx="147.9" cy="176.5" r="4.3" fill="#fff" stroke="#231f20" stroke-miterlimit="10"/><circle cx="22.9" cy="176.5" r="4.3" fill="#fff" stroke="#231f20" stroke-miterlimit="10"/><circle cx="9" cy="190.4" r="4.3" fill="#fff" stroke="#231f20" stroke-miterlimit="10"/><circle cx="134" cy="190.4" r="4.3" fill="#fff" stroke="#231f20" stroke-miterlimit="10"/><circle cx="120.1" cy="190.4" r="4.3" fill="#fff" stroke="#231f20" stroke-miterlimit="10"/><circle cx="106.2" cy="190.4" r="4.3" fill="#fff" stroke="#231f20" stroke-miterlimit="10"/><circle cx="92.3" cy="190.4" r="4.3" fill="#fff" stroke="#231f20" stroke-miterlimit="10"/><circle cx="78.5" cy="190.4" r="4.3" fill="#fff" stroke="#231f20" stroke-miterlimit="10"/><circle cx="64.6" cy="190.4" r="4.3" fill="#fff" stroke="#231f20" stroke-miterlimit="10"/><circle cx="50.7" cy="190.4" r="4.3" fill="#fff" stroke="#231f20" stroke-miterlimit="10"/><circle cx="36.8" cy="190.4" r="4.3" fill="#fff" stroke="#231f20" stroke-miterlimit="10"/><circle cx="147.9" cy="190.4" r="4.3" fill="#fff" stroke="#231f20" stroke-miterlimit="10"/><circle cx="22.9" cy="190.4" r="4.3" fill="#fff" stroke="#231f20" stroke-miterlimit="10"/></svg></g></g><g><rect stroke="none" fill="#ffffff" width="0" height="0"/><path stroke="#000000" fill="none" d=""/><text font-size="18.7" xml:space="preserve" display="none" font-family="OpenSansCondensedLight" fill="black" text-anchor="middle"><tspan dy="0.3em" style="fill-opacity: 0; stroke-opacity: 0;">-</tspan></text></g><text font-size="18.7" xml:space="preserve" font-family="OpenSansCondensedLight" line-height="21" fill="black" text-anchor="middle" text-vertical-anchor="top" transform="matrix(1,0,0,1,113.5,298.6)" display="none"><tspan dy="0.8em" style="fill-opacity: 0; stroke-opacity: 0;">-</tspan></text></g><g data-type="tp.Element" transform="translate(360,100.8)"><g><g><rect width="288" height="38.4" fill="none"/><svg xmlns="http://www.w3.org/2000/svg" data-name="Layer 1" viewBox="0 0 228.8 30.4" width="288" height="38.4" preserveAspectRatio="none"><title>fig6_8x1rowb</title><rect x="1" y="1" width="28.4" height="28.4" fill="#fff" stroke="#231f20" stroke-miterlimit="10" stroke-width="2"/><rect x="171.1" y="1" width="28.4" height="28.4" fill="#fff" stroke="#231f20" stroke-miterlimit="10" stroke-width="2"/><rect x="142.7" y="1" width="28.4" height="28.4" fill="#fff" stroke="#231f20" stroke-miterlimit="10" stroke-width="2"/><rect x="114.4" y="1" width="28.4" height="28.4" fill="#fff" stroke="#231f20" stroke-miterlimit="10" stroke-width="2"/><rect x="86" y="1" width="28.4" height="28.4" fill="#fff" stroke="#231f20" stroke-miterlimit="10" stroke-width="2"/><rect x="57.7" y="1" width="28.4" height="28.4" fill="#fff" stroke="#231f20" stroke-miterlimit="10" stroke-width="2"/><rect x="29.4" y="1" width="28.4" height="28.4" fill="#fff" stroke="#231f20" stroke-miterlimit="10" stroke-width="2"/><rect x="199.4" y="1" width="28.4" height="28.4" fill="#fff" stroke="#231f20" stroke-miterlimit="10" stroke-width="2"/></svg></g></g><g><rect stroke="none" fill="#ffffff" width="0" height="0"/><path stroke="#000000" fill="none" d=""/><text font-size="18.7" xml:space="preserve" display="none" font-family="OpenSansCondensedLight" fill="black" text-anchor="middle"><tspan dy="0.3em" style="fill-opacity: 0; stroke-opacity: 0;">-</tspan></text></g><text font-size="18.7" xml:space="preserve" font-family="OpenSansCondensedLight" line-height="21" fill="black" text-anchor="middle" text-vertical-anchor="top" transform="matrix(1,0,0,1,144,48.4)" display="none"><tspan dy="0.8em" style="fill-opacity: 0; stroke-opacity: 0;">-</tspan></text></g><g data-type="tp.Element" transform="translate(449.2,258)"><g><g><rect width="228.5" height="227" fill="none"/><svg xmlns="http://www.w3.org/2000/svg" data-name="Layer 1" viewBox="0 0 174.1 173.3" width="228.5" height="227" preserveAspectRatio="none"><title>fig6_10x10gridb</title><rect x="2" y="2" width="17" height="17" fill="#fff" stroke="#231f20" stroke-miterlimit="10" stroke-width="4"/><rect x="155.1" y="2" width="17" height="17" fill="#fff" stroke="#231f20" stroke-miterlimit="10" stroke-width="4"/><rect x="138.1" y="2" width="17" height="17" fill="#fff" stroke="#231f20" stroke-miterlimit="10" stroke-width="4"/><rect x="121.1" y="2" width="17" height="17" fill="#fff" stroke="#231f20" stroke-miterlimit="10" stroke-width="4"/><rect x="104.1" y="2" width="17" height="17" fill="#fff" stroke="#231f20" stroke-miterlimit="10" stroke-width="4"/><rect x="87" y="2" width="17" height="17" fill="#fff" stroke="#231f20" stroke-miterlimit="10" stroke-width="4"/><rect x="70" y="2" width="17" height="17" fill="#fff" stroke="#231f20" stroke-miterlimit="10" stroke-width="4"/><rect x="53" y="2" width="17" height="17" fill="#fff" stroke="#231f20" stroke-miterlimit="10" stroke-width="4"/><rect x="36" y="2" width="17" height="17" fill="#fff" stroke="#231f20" stroke-miterlimit="10" stroke-width="4"/><rect x="19" y="2" width="17" height="17" fill="#fff" stroke="#231f20" stroke-miterlimit="10" stroke-width="4"/><rect x="2" y="18.9" width="17" height="17" fill="#fff" stroke="#231f20" stroke-miterlimit="10" stroke-width="4"/><rect x="155.1" y="18.9" width="17" height="17" fill="#fff" stroke="#231f20" stroke-miterlimit="10" stroke-width="4"/><rect x="138.1" y="18.9" width="17" height="17" fill="#fff" stroke="#231f20" stroke-miterlimit="10" stroke-width="4"/><rect x="121.1" y="18.9" width="17" height="17" fill="#fff" stroke="#231f20" stroke-miterlimit="10" stroke-width="4"/><rect x="104.1" y="18.9" width="17" height="17" fill="#fff" stroke="#231f20" stroke-miterlimit="10" stroke-width="4"/><rect x="87" y="18.9" width="17" height="17" fill="#fff" stroke="#231f20" stroke-miterlimit="10" stroke-width="4"/><rect x="70" y="18.9" width="17" height="17" fill="#fff" stroke="#231f20" stroke-miterlimit="10" stroke-width="4"/><rect x="53" y="18.9" width="17" height="17" fill="#fff" stroke="#231f20" stroke-miterlimit="10" stroke-width="4"/><rect x="36" y="18.9" width="17" height="17" fill="#fff" stroke="#231f20" stroke-miterlimit="10" stroke-width="4"/><rect x="19" y="18.9" width="17" height="17" fill="#fff" stroke="#231f20" stroke-miterlimit="10" stroke-width="4"/><rect x="2" y="35.9" width="17" height="17" fill="#fff" stroke="#231f20" stroke-miterlimit="10" stroke-width="4"/><rect x="155.1" y="35.9" width="17" height="17" fill="#fff" stroke="#231f20" stroke-miterlimit="10" stroke-width="4"/><rect x="138.1" y="35.9" width="17" height="17" fill="#fff" stroke="#231f20" stroke-miterlimit="10" stroke-width="4"/><rect x="121.1" y="35.9" width="17" height="17" fill="#fff" stroke="#231f20" stroke-miterlimit="10" stroke-width="4"/><rect x="104.1" y="35.9" width="17" height="17" fill="#fff" stroke="#231f20" stroke-miterlimit="10" stroke-width="4"/><rect x="87" y="35.9" width="17" height="17" fill="#fff" stroke="#231f20" stroke-miterlimit="10" stroke-width="4"/><rect x="70" y="35.9" width="17" height="17" fill="#fff" stroke="#231f20" stroke-miterlimit="10" stroke-width="4"/><rect x="53" y="35.9" width="17" height="17" fill="#fff" stroke="#231f20" stroke-miterlimit="10" stroke-width="4"/><rect x="36" y="35.9" width="17" height="17" fill="#fff" stroke="#231f20" stroke-miterlimit="10" stroke-width="4"/><rect x="19" y="35.9" width="17" height="17" fill="#fff" stroke="#231f20" stroke-miterlimit="10" stroke-width="4"/><rect x="2" y="52.8" width="17" height="17" fill="#fff" stroke="#231f20" stroke-miterlimit="10" stroke-width="4"/><rect x="155.1" y="52.8" width="17" height="17" fill="#fff" stroke="#231f20" stroke-miterlimit="10" stroke-width="4"/><rect x="138.1" y="52.8" width="17" height="17" fill="#fff" stroke="#231f20" stroke-miterlimit="10" stroke-width="4"/><rect x="121.1" y="52.8" width="17" height="17" fill="#fff" stroke="#231f20" stroke-miterlimit="10" stroke-width="4"/><rect x="104.1" y="52.8" width="17" height="17" fill="#fff" stroke="#231f20" stroke-miterlimit="10" stroke-width="4"/><rect x="87" y="52.8" width="17" height="17" fill="#fff" stroke="#231f20" stroke-miterlimit="10" stroke-width="4"/><rect x="70" y="52.8" width="17" height="17" fill="#fff" stroke="#231f20" stroke-miterlimit="10" stroke-width="4"/><rect x="53" y="52.8" width="17" height="17" fill="#fff" stroke="#231f20" stroke-miterlimit="10" stroke-width="4"/><rect x="36" y="52.8" width="17" height="17" fill="#fff" stroke="#231f20" stroke-miterlimit="10" stroke-width="4"/><rect x="19" y="52.8" width="17" height="17" fill="#fff" stroke="#231f20" stroke-miterlimit="10" stroke-width="4"/><rect x="2" y="69.7" width="17" height="17" fill="#fff" stroke="#231f20" stroke-miterlimit="10" stroke-width="4"/><rect x="155.1" y="69.7" width="17" height="17" fill="#fff" stroke="#231f20" stroke-miterlimit="10" stroke-width="4"/><rect x="138.1" y="69.7" width="17" height="17" fill="#fff" stroke="#231f20" stroke-miterlimit="10" stroke-width="4"/><rect x="121.1" y="69.7" width="17" height="17" fill="#fff" stroke="#231f20" stroke-miterlimit="10" stroke-width="4"/><rect x="104.1" y="69.7" width="17" height="17" fill="#fff" stroke="#231f20" stroke-miterlimit="10" stroke-width="4"/><rect x="87" y="69.7" width="17" height="17" fill="#fff" stroke="#231f20" stroke-miterlimit="10" stroke-width="4"/><rect x="70" y="69.7" width="17" height="17" fill="#fff" stroke="#231f20" stroke-miterlimit="10" stroke-width="4"/><rect x="53" y="69.7" width="17" height="17" fill="#fff" stroke="#231f20" stroke-miterlimit="10" stroke-width="4"/><rect x="36" y="69.7" width="17" height="17" fill="#fff" stroke="#231f20" stroke-miterlimit="10" stroke-width="4"/><rect x="19" y="69.7" width="17" height="17" fill="#fff" stroke="#231f20" stroke-miterlimit="10" stroke-width="4"/><rect x="2" y="86.6" width="17" height="17" fill="#fff" stroke="#231f20" stroke-miterlimit="10" stroke-width="4"/><rect x="155.1" y="86.6" width="17" height="17" fill="#fff" stroke="#231f20" stroke-miterlimit="10" stroke-width="4"/><rect x="138.1" y="86.6" width="17" height="17" fill="#fff" stroke="#231f20" stroke-miterlimit="10" stroke-width="4"/><rect x="121.1" y="86.6" width="17" height="17" fill="#fff" stroke="#231f20" stroke-miterlimit="10" stroke-width="4"/><rect x="104.1" y="86.6" width="17" height="17" fill="#fff" stroke="#231f20" stroke-miterlimit="10" stroke-width="4"/><rect x="87" y="86.6" width="17" height="17" fill="#fff" stroke="#231f20" stroke-miterlimit="10" stroke-width="4"/><rect x="70" y="86.6" width="17" height="17" fill="#fff" stroke="#231f20" stroke-miterlimit="10" stroke-width="4"/><rect x="53" y="86.6" width="17" height="17" fill="#fff" stroke="#231f20" stroke-miterlimit="10" stroke-width="4"/><rect x="36" y="86.6" width="17" height="17" fill="#fff" stroke="#231f20" stroke-miterlimit="10" stroke-width="4"/><rect x="19" y="86.6" width="17" height="17" fill="#fff" stroke="#231f20" stroke-miterlimit="10" stroke-width="4"/><rect x="2" y="103.6" width="17" height="17" fill="#fff" stroke="#231f20" stroke-miterlimit="10" stroke-width="4"/><rect x="155.1" y="103.6" width="17" height="17" fill="#fff" stroke="#231f20" stroke-miterlimit="10" stroke-width="4"/><rect x="138.1" y="103.6" width="17" height="17" fill="#fff" stroke="#231f20" stroke-miterlimit="10" stroke-width="4"/><rect x="121.1" y="103.6" width="17" height="17" fill="#fff" stroke="#231f20" stroke-miterlimit="10" stroke-width="4"/><rect x="104.1" y="103.6" width="17" height="17" fill="#fff" stroke="#231f20" stroke-miterlimit="10" stroke-width="4"/><rect x="87" y="103.6" width="17" height="17" fill="#fff" stroke="#231f20" stroke-miterlimit="10" stroke-width="4"/><rect x="70" y="103.6" width="17" height="17" fill="#fff" stroke="#231f20" stroke-miterlimit="10" stroke-width="4"/><rect x="53" y="103.6" width="17" height="17" fill="#fff" stroke="#231f20" stroke-miterlimit="10" stroke-width="4"/><rect x="36" y="103.6" width="17" height="17" fill="#fff" stroke="#231f20" stroke-miterlimit="10" stroke-width="4"/><rect x="19" y="103.6" width="17" height="17" fill="#fff" stroke="#231f20" stroke-miterlimit="10" stroke-width="4"/><rect x="2" y="120.5" width="17" height="17" fill="#fff" stroke="#231f20" stroke-miterlimit="10" stroke-width="4"/><rect x="155.1" y="120.5" width="17" height="17" fill="#fff" stroke="#231f20" stroke-miterlimit="10" stroke-width="4"/><rect x="138.1" y="120.5" width="17" height="17" fill="#fff" stroke="#231f20" stroke-miterlimit="10" stroke-width="4"/><rect x="121.1" y="120.5" width="17" height="17" fill="#fff" stroke="#231f20" stroke-miterlimit="10" stroke-width="4"/><rect x="104.1" y="120.5" width="17" height="17" fill="#fff" stroke="#231f20" stroke-miterlimit="10" stroke-width="4"/><rect x="87" y="120.5" width="17" height="17" fill="#fff" stroke="#231f20" stroke-miterlimit="10" stroke-width="4"/><rect x="70" y="120.5" width="17" height="17" fill="#fff" stroke="#231f20" stroke-miterlimit="10" stroke-width="4"/><rect x="53" y="120.5" width="17" height="17" fill="#fff" stroke="#231f20" stroke-miterlimit="10" stroke-width="4"/><rect x="36" y="120.5" width="17" height="17" fill="#fff" stroke="#231f20" stroke-miterlimit="10" stroke-width="4"/><rect x="19" y="120.5" width="17" height="17" fill="#fff" stroke="#231f20" stroke-miterlimit="10" stroke-width="4"/><rect x="2" y="137.4" width="17" height="17" fill="#fff" stroke="#231f20" stroke-miterlimit="10" stroke-width="4"/><rect x="155.1" y="137.4" width="17" height="17" fill="#fff" stroke="#231f20" stroke-miterlimit="10" stroke-width="4"/><rect x="138.1" y="137.4" width="17" height="17" fill="#fff" stroke="#231f20" stroke-miterlimit="10" stroke-width="4"/><rect x="121.1" y="137.4" width="17" height="17" fill="#fff" stroke="#231f20" stroke-miterlimit="10" stroke-width="4"/><rect x="104.1" y="137.4" width="17" height="17" fill="#fff" stroke="#231f20" stroke-miterlimit="10" stroke-width="4"/><rect x="87" y="137.4" width="17" height="17" fill="#fff" stroke="#231f20" stroke-miterlimit="10" stroke-width="4"/><rect x="70" y="137.4" width="17" height="17" fill="#fff" stroke="#231f20" stroke-miterlimit="10" stroke-width="4"/><rect x="53" y="137.4" width="17" height="17" fill="#fff" stroke="#231f20" stroke-miterlimit="10" stroke-width="4"/><rect x="36" y="137.4" width="17" height="17" fill="#fff" stroke="#231f20" stroke-miterlimit="10" stroke-width="4"/><rect x="19" y="137.4" width="17" height="17" fill="#fff" stroke="#231f20" stroke-miterlimit="10" stroke-width="4"/><rect x="2" y="154.3" width="17" height="17" fill="#fff" stroke="#231f20" stroke-miterlimit="10" stroke-width="4"/><rect x="155.1" y="154.3" width="17" height="17" fill="#fff" stroke="#231f20" stroke-miterlimit="10" stroke-width="4"/><rect x="138.1" y="154.3" width="17" height="17" fill="#fff" stroke="#231f20" stroke-miterlimit="10" stroke-width="4"/><rect x="121.1" y="154.3" width="17" height="17" fill="#fff" stroke="#231f20" stroke-miterlimit="10" stroke-width="4"/><rect x="104.1" y="154.3" width="17" height="17" fill="#fff" stroke="#231f20" stroke-miterlimit="10" stroke-width="4"/><rect x="87" y="154.3" width="17" height="17" fill="#fff" stroke="#231f20" stroke-miterlimit="10" stroke-width="4"/><rect x="70" y="154.3" width="17" height="17" fill="#fff" stroke="#231f20" stroke-miterlimit="10" stroke-width="4"/><rect x="53" y="154.3" width="17" height="17" fill="#fff" stroke="#231f20" stroke-miterlimit="10" stroke-width="4"/><rect x="36" y="154.3" width="17" height="17" fill="#fff" stroke="#231f20" stroke-miterlimit="10" stroke-width="4"/><rect x="19" y="154.3" width="17" height="17" fill="#fff" stroke="#231f20" stroke-miterlimit="10" stroke-width="4"/></svg></g></g><g><rect stroke="none" fill="#ffffff" width="0" height="0"/><path stroke="#000000" fill="none" d=""/><text font-size="18.7" xml:space="preserve" display="none" font-family="OpenSansCondensedLight" fill="black" text-anchor="middle"><tspan dy="0.3em" style="fill-opacity: 0; stroke-opacity: 0;">-</tspan></text></g><text font-size="18.7" xml:space="preserve" font-family="OpenSansCondensedLight" line-height="21" fill="black" text-anchor="middle" text-vertical-anchor="top" transform="matrix(1,0,0,1,114.3,237)" display="none"><tspan dy="0.8em" style="fill-opacity: 0; stroke-opacity: 0;">-</tspan></text></g></g></svg>