<svg xmlns="http://www.w3.org/2000/svg" xmlns:xlink="http://www.w3.org/1999/xlink" version="1.1" width="677" height="512" viewBox="31 17.9 677 512"><defs/><g><g data-type="tp.Element" transform="translate(31,17.9)"><g><g><rect width="227" height="288.6" fill="none"/><svg xmlns="http://www.w3.org/2000/svg" xmlns:xlink="http://www.w3.org/1999/xlink" version="1.1" x="0px" y="0px" viewBox="0 0 155.9 198.4" xml:space="preserve" width="227" height="288.6" preserveAspectRatio="none">
<style type="text/css">
	.st0{fill:#FFFFFF;stroke:#000000;stroke-width:0.75;stroke-miterlimit:10;}
</style>
<rect x="0" y="0" width="155.9" height="198.4"/>
<circle cx="8.5" cy="8.5" r="4.3"/>
<circle cx="133.5" cy="8.5" r="4.3"/>
<circle cx="119.6" cy="8.5" r="4.3"/>
<circle cx="105.7" cy="8.5" r="4.3"/>
<circle cx="91.8" cy="8.5" r="4.3"/>
<circle cx="78" cy="8.5" r="4.3"/>
<circle cx="64.1" cy="8.5" r="4.3"/>
<circle cx="50.2" cy="8.5" r="4.3"/>
<circle cx="36.3" cy="8.5" r="4.3"/>
<circle cx="147.4" cy="8.5" r="4.3"/>
<circle cx="22.4" cy="8.5" r="4.3"/>
<circle cx="8.5" cy="22.5" r="4.3"/>
<circle cx="133.5" cy="22.5" r="4.3"/>
<circle cx="119.6" cy="22.5" r="4.3"/>
<circle cx="105.7" cy="22.5" r="4.3"/>
<circle cx="91.8" cy="22.5" r="4.3"/>
<circle cx="78" cy="22.5" r="4.3"/>
<circle cx="64.1" cy="22.5" r="4.3"/>
<circle cx="50.2" cy="22.5" r="4.3"/>
<circle cx="36.3" cy="22.5" r="4.3"/>
<circle cx="147.4" cy="22.5" r="4.3"/>
<circle cx="22.4" cy="22.5" r="4.3"/>
<circle cx="8.5" cy="36.4" r="4.3"/>
<circle cx="133.5" cy="36.4" r="4.3"/>
<circle cx="119.6" cy="36.4" r="4.3"/>
<circle cx="105.7" cy="36.4" r="4.3"/>
<circle cx="91.8" cy="36.4" r="4.3"/>
<circle cx="78" cy="36.4" r="4.3"/>
<circle cx="64.1" cy="36.4" r="4.3"/>
<circle cx="50.2" cy="36.4" r="4.3"/>
<circle cx="36.3" cy="36.4" r="4.3"/>
<circle cx="147.4" cy="36.4" r="4.3"/>
<circle cx="22.4" cy="36.4" r="4.3"/>
<circle cx="8.5" cy="50.4" r="4.3"/>
<circle cx="133.5" cy="50.4" r="4.3"/>
<circle cx="119.6" cy="50.4" r="4.3"/>
<circle cx="105.7" cy="50.4" r="4.3"/>
<circle cx="91.8" cy="50.4" r="4.3"/>
<circle cx="78" cy="50.4" r="4.3"/>
<circle cx="64.1" cy="50.4" r="4.3"/>
<circle cx="50.2" cy="50.4" r="4.3"/>
<circle cx="36.3" cy="50.4" r="4.3"/>
<circle cx="147.4" cy="50.4" r="4.3"/>
<circle cx="22.4" cy="50.4" r="4.3"/>
<circle cx="8.5" cy="64.3" r="4.3"/>
<circle cx="133.5" cy="64.3" r="4.3"/>
<circle cx="119.6" cy="64.3" r="4.3"/>
<circle cx="105.7" cy="64.3" r="4.3"/>
<circle cx="91.8" cy="64.3" r="4.3"/>
<circle cx="78" cy="64.3" r="4.3"/>
<circle cx="64.1" cy="64.3" r="4.3"/>
<circle cx="50.2" cy="64.3" r="4.3"/>
<circle cx="36.3" cy="64.3" r="4.3"/>
<circle cx="147.4" cy="64.3" r="4.3"/>
<circle cx="22.4" cy="64.3" r="4.3"/>
<circle cx="8.5" cy="78.3" r="4.3"/>
<circle cx="133.5" cy="78.3" r="4.3"/>
<circle cx="119.6" cy="78.3" r="4.3"/>
<circle cx="105.7" cy="78.3" r="4.3"/>
<circle cx="91.8" cy="78.3" r="4.3"/>
<circle cx="78" cy="78.3" r="4.3"/>
<circle cx="64.1" cy="78.3" r="4.3"/>
<circle cx="50.2" cy="78.3" r="4.3"/>
<circle cx="36.3" cy="78.3" r="4.3"/>
<circle cx="147.4" cy="78.3" r="4.3"/>
<circle cx="22.4" cy="78.3" r="4.3"/>
<circle cx="8.5" cy="92.2" r="4.3"/>
<circle cx="133.5" cy="92.2" r="4.3"/>
<circle cx="119.6" cy="92.2" r="4.3"/>
<circle cx="105.7" cy="92.2" r="4.3"/>
<circle cx="91.8" cy="92.2" r="4.3"/>
<circle cx="78" cy="92.2" r="4.3"/>
<circle cx="64.1" cy="92.2" r="4.3"/>
<circle cx="50.2" cy="92.2" r="4.3"/>
<circle cx="36.3" cy="92.2" r="4.3"/>
<circle cx="147.4" cy="92.2" r="4.3"/>
<circle cx="22.4" cy="92.2" r="4.3"/>
<circle cx="8.5" cy="106.2" r="4.3"/>
<circle cx="133.5" cy="106.2" r="4.3"/>
<circle cx="119.6" cy="106.2" r="4.3"/>
<circle cx="105.7" cy="106.2" r="4.3"/>
<circle cx="91.8" cy="106.2" r="4.3"/>
<circle cx="78" cy="106.2" r="4.3"/>
<circle cx="64.1" cy="106.2" r="4.3"/>
<circle cx="50.2" cy="106.2" r="4.3"/>
<circle cx="36.3" cy="106.2" r="4.3"/>
<circle cx="147.4" cy="106.2" r="4.3"/>
<circle cx="22.4" cy="106.2" r="4.3"/>
<circle cx="8.5" cy="120.2" r="4.3"/>
<circle cx="133.5" cy="120.2" r="4.3"/>
<circle cx="119.6" cy="120.2" r="4.3"/>
<circle cx="105.7" cy="120.2" r="4.3"/>
<circle cx="91.8" cy="120.2" r="4.3"/>
<circle cx="78" cy="120.2" r="4.3"/>
<circle cx="64.1" cy="120.2" r="4.3"/>
<circle cx="50.2" cy="120.2" r="4.3"/>
<circle cx="36.3" cy="120.2" r="4.3"/>
<circle cx="147.4" cy="120.2" r="4.3"/>
<circle cx="22.4" cy="120.2" r="4.3"/>
<circle cx="8.5" cy="134.1" r="4.3"/>
<circle cx="133.5" cy="134.1" r="4.3"/>
<circle cx="119.6" cy="134.1" r="4.3"/>
<circle cx="105.7" cy="134.1" r="4.3"/>
<circle cx="91.8" cy="134.1" r="4.3"/>
<circle cx="78" cy="134.1" r="4.3"/>
<circle cx="64.1" cy="134.1" r="4.3"/>
<circle cx="50.2" cy="134.1" r="4.3"/>
<circle cx="36.3" cy="134.1" r="4.3"/>
<circle cx="147.4" cy="134.1" r="4.3"/>
<circle cx="22.4" cy="134.1" r="4.3"/>
<circle cx="8.5" cy="148.1" r="4.3"/>
<circle cx="133.5" cy="148.1" r="4.3"/>
<circle cx="119.6" cy="148.1" r="4.3"/>
<circle cx="105.7" cy="148.1" r="4.3"/>
<circle cx="91.8" cy="148.1" r="4.3"/>
<circle cx="78" cy="148.1" r="4.3"/>
<circle cx="64.1" cy="148.1" r="4.3"/>
<circle cx="50.2" cy="148.1" r="4.3"/>
<circle cx="36.3" cy="148.1" r="4.3"/>
<circle cx="147.4" cy="148.1" r="4.3"/>
<circle cx="22.4" cy="148.1" r="4.3"/>
<circle cx="8.5" cy="162" r="4.3"/>
<circle cx="133.5" cy="162" r="4.3"/>
<circle cx="119.6" cy="162" r="4.3"/>
<circle cx="105.7" cy="162" r="4.3"/>
<circle cx="91.8" cy="162" r="4.3"/>
<circle cx="78" cy="162" r="4.3"/>
<circle cx="64.1" cy="162" r="4.3"/>
<circle cx="50.2" cy="162" r="4.3"/>
<circle cx="36.3" cy="162" r="4.3"/>
<circle cx="147.4" cy="162" r="4.3"/>
<circle cx="22.4" cy="162" r="4.3"/>
<circle cx="8.5" cy="176" r="4.3"/>
<circle cx="133.5" cy="176" r="4.3"/>
<circle cx="119.6" cy="176" r="4.3"/>
<circle cx="105.7" cy="176" r="4.3"/>
<circle cx="91.8" cy="176" r="4.3"/>
<circle cx="78" cy="176" r="4.3"/>
<circle cx="64.1" cy="176" r="4.3"/>
<circle cx="50.2" cy="176" r="4.3"/>
<circle cx="36.3" cy="176" r="4.3"/>
<circle cx="147.4" cy="176" r="4.3"/>
<circle cx="22.4" cy="176" r="4.3"/>
<circle cx="8.5" cy="189.9" r="4.3"/>
<circle cx="133.5" cy="189.9" r="4.3"/>
<circle cx="119.6" cy="189.9" r="4.3"/>
<circle cx="105.7" cy="189.9" r="4.3"/>
<circle cx="91.8" cy="189.9" r="4.3"/>
<circle cx="78" cy="189.9" r="4.3"/>
<circle cx="64.1" cy="189.9" r="4.3"/>
<circle cx="50.2" cy="189.9" r="4.3"/>
<circle cx="36.3" cy="189.9" r="4.3"/>
<circle cx="147.4" cy="189.9" r="4.3"/>
<circle cx="22.4" cy="189.9" r="4.3"/>
</svg></g></g><g><rect stroke="none" fill="#ffffff" width="0" height="0"/><path stroke="#000000" fill="none" d=""/><text font-size="18.7" xml:space="preserve" display="none" font-family="OpenSansCondensedLight" fill="black" text-anchor="middle"><tspan dy="0.3em" style="fill-opacity: 0; stroke-opacity: 0;">-</tspan></text></g><text font-size="18.7" xml:space="preserve" font-family="OpenSansCondensedLight" line-height="21" fill="black" text-anchor="middle" text-vertical-anchor="middle" transform="matrix(1,0,0,1,113.5,144.3)" display="none"><tspan dy="0.3em" style="fill-opacity: 0; stroke-opacity: 0;">-</tspan></text></g><g data-type="tp.Element" transform="translate(450,285)"><g><g><rect width="227" height="227" fill="none"/><svg xmlns="http://www.w3.org/2000/svg" xmlns:xlink="http://www.w3.org/1999/xlink" version="1.1" x="0px" y="0px" viewBox="0 0 170.1 170.1" xml:space="preserve" width="227" height="227" preserveAspectRatio="none">
<style type="text/css">
	.st0{fill:#FFFFFF;stroke:#000000;stroke-width:4;stroke-miterlimit:10;}
</style>
<g>
	<rect x="0" y="0.7" width="17" height="17"/>
	<rect x="153.1" y="0.7" width="17" height="17"/>
	<rect x="136.1" y="0.7" width="17" height="17"/>
	<rect x="119.1" y="0.7" width="17" height="17"/>
	<rect x="102" y="0.7" width="17" height="17"/>
	<rect x="85" y="0.7" width="17" height="17"/>
	<rect x="68" y="0.7" width="17" height="17"/>
	<rect x="51" y="0.7" width="17" height="17"/>
	<rect x="34" y="0.7" width="17" height="17"/>
	<rect x="17" y="0.7" width="17" height="17"/>
</g>
<g>
	<rect x="0" y="17.7" width="17" height="17"/>
	<rect x="153.1" y="17.7" width="17" height="17"/>
	<rect x="136.1" y="17.7" width="17" height="17"/>
	<rect x="119.1" y="17.7" width="17" height="17"/>
	<rect x="102" y="17.7" width="17" height="17"/>
	<rect x="85" y="17.7" width="17" height="17"/>
	<rect x="68" y="17.7" width="17" height="17"/>
	<rect x="51" y="17.7" width="17" height="17"/>
	<rect x="34" y="17.7" width="17" height="17"/>
	<rect x="17" y="17.7" width="17" height="17"/>
</g>
<g>
	<rect x="0" y="34.6" width="17" height="17"/>
	<rect x="153.1" y="34.6" width="17" height="17"/>
	<rect x="136.1" y="34.6" width="17" height="17"/>
	<rect x="119.1" y="34.6" width="17" height="17"/>
	<rect x="102" y="34.6" width="17" height="17"/>
	<rect x="85" y="34.6" width="17" height="17"/>
	<rect x="68" y="34.6" width="17" height="17"/>
	<rect x="51" y="34.6" width="17" height="17"/>
	<rect x="34" y="34.6" width="17" height="17"/>
	<rect x="17" y="34.6" width="17" height="17"/>
</g>
<g>
	<rect x="0" y="51.5" width="17" height="17"/>
	<rect x="153.1" y="51.5" width="17" height="17"/>
	<rect x="136.1" y="51.5" width="17" height="17"/>
	<rect x="119.1" y="51.5" width="17" height="17"/>
	<rect x="102" y="51.5" width="17" height="17"/>
	<rect x="85" y="51.5" width="17" height="17"/>
	<rect x="68" y="51.5" width="17" height="17"/>
	<rect x="51" y="51.5" width="17" height="17"/>
	<rect x="34" y="51.5" width="17" height="17"/>
	<rect x="17" y="51.5" width="17" height="17"/>
</g>
<g>
	<rect x="0" y="68.4" width="17" height="17"/>
	<rect x="153.1" y="68.4" width="17" height="17"/>
	<rect x="136.1" y="68.4" width="17" height="17"/>
	<rect x="119.1" y="68.4" width="17" height="17"/>
	<rect x="102" y="68.4" width="17" height="17"/>
	<rect x="85" y="68.4" width="17" height="17"/>
	<rect x="68" y="68.4" width="17" height="17"/>
	<rect x="51" y="68.4" width="17" height="17"/>
	<rect x="34" y="68.4" width="17" height="17"/>
	<rect x="17" y="68.4" width="17" height="17"/>
</g>
<g>
	<rect x="0" y="85.4" width="17" height="17"/>
	<rect x="153.1" y="85.4" width="17" height="17"/>
	<rect x="136.1" y="85.4" width="17" height="17"/>
	<rect x="119.1" y="85.4" width="17" height="17"/>
	<rect x="102" y="85.4" width="17" height="17"/>
	<rect x="85" y="85.4" width="17" height="17"/>
	<rect x="68" y="85.4" width="17" height="17"/>
	<rect x="51" y="85.4" width="17" height="17"/>
	<rect x="34" y="85.4" width="17" height="17"/>
	<rect x="17" y="85.4" width="17" height="17"/>
</g>
<g>
	<rect x="0" y="102.3" width="17" height="17"/>
	<rect x="153.1" y="102.3" width="17" height="17"/>
	<rect x="136.1" y="102.3" width="17" height="17"/>
	<rect x="119.1" y="102.3" width="17" height="17"/>
	<rect x="102" y="102.3" width="17" height="17"/>
	<rect x="85" y="102.3" width="17" height="17"/>
	<rect x="68" y="102.3" width="17" height="17"/>
	<rect x="51" y="102.3" width="17" height="17"/>
	<rect x="34" y="102.3" width="17" height="17"/>
	<rect x="17" y="102.3" width="17" height="17"/>
</g>
<g>
	<rect x="0" y="119.2" width="17" height="17"/>
	<rect x="153.1" y="119.2" width="17" height="17"/>
	<rect x="136.1" y="119.2" width="17" height="17"/>
	<rect x="119.1" y="119.2" width="17" height="17"/>
	<rect x="102" y="119.2" width="17" height="17"/>
	<rect x="85" y="119.2" width="17" height="17"/>
	<rect x="68" y="119.2" width="17" height="17"/>
	<rect x="51" y="119.2" width="17" height="17"/>
	<rect x="34" y="119.2" width="17" height="17"/>
	<rect x="17" y="119.2" width="17" height="17"/>
</g>
<g>
	<rect x="0" y="136.1" width="17" height="17"/>
	<rect x="153.1" y="136.1" width="17" height="17"/>
	<rect x="136.1" y="136.1" width="17" height="17"/>
	<rect x="119.1" y="136.1" width="17" height="17"/>
	<rect x="102" y="136.1" width="17" height="17"/>
	<rect x="85" y="136.1" width="17" height="17"/>
	<rect x="68" y="136.1" width="17" height="17"/>
	<rect x="51" y="136.1" width="17" height="17"/>
	<rect x="34" y="136.1" width="17" height="17"/>
	<rect x="17" y="136.1" width="17" height="17"/>
</g>
<g>
	<rect x="0" y="153.1" width="17" height="17"/>
	<rect x="153.1" y="153.1" width="17" height="17"/>
	<rect x="136.1" y="153.1" width="17" height="17"/>
	<rect x="119.1" y="153.1" width="17" height="17"/>
	<rect x="102" y="153.1" width="17" height="17"/>
	<rect x="85" y="153.1" width="17" height="17"/>
	<rect x="68" y="153.1" width="17" height="17"/>
	<rect x="51" y="153.1" width="17" height="17"/>
	<rect x="34" y="153.1" width="17" height="17"/>
	<rect x="17" y="153.1" width="17" height="17"/>
</g>
</svg></g></g><g><rect stroke="none" fill="#ffffff" width="0" height="0"/><path stroke="#000000" fill="none" d=""/><text font-size="18.7" xml:space="preserve" display="none" font-family="OpenSansCondensedLight" fill="black" text-anchor="middle"><tspan dy="0.3em" style="fill-opacity: 0; stroke-opacity: 0;">-</tspan></text></g><text font-size="18.7" xml:space="preserve" font-family="OpenSansCondensedLight" line-height="21" fill="black" text-anchor="middle" text-vertical-anchor="middle" transform="matrix(1,0,0,1,113.5,113.5)" display="none"><tspan dy="0.3em" style="fill-opacity: 0; stroke-opacity: 0;">-</tspan></text></g><g data-type="tp.Element" transform="translate(360,153)"><g><g><rect width="288" height="35.5" fill="none"/><svg xmlns="http://www.w3.org/2000/svg" xmlns:xlink="http://www.w3.org/1999/xlink" version="1.1" x="0px" y="0px" viewBox="0 0 226.8 28.3" xml:space="preserve" width="288" height="35.5" preserveAspectRatio="none">
<style type="text/css">
	.st0{fill:#FFFFFF;stroke:#000000;stroke-width:2;stroke-miterlimit:10;}
</style>
<rect y="0" width="28.3" height="28.3"/>
<rect x="170.1" y="0" width="28.3" height="28.3"/>
<rect x="141.7" y="0" width="28.3" height="28.3"/>
<rect x="113.4" y="0" width="28.3" height="28.3"/>
<rect x="85" y="0" width="28.3" height="28.3"/>
<rect x="56.7" y="0" width="28.3" height="28.3"/>
<rect x="28.3" y="0" width="28.3" height="28.3"/>
<rect x="198.4" y="0" width="28.3" height="28.3"/>
</svg></g></g><g><rect stroke="none" fill="#ffffff" width="0" height="0"/><path stroke="#000000" fill="none" d=""/><text font-size="18.7" xml:space="preserve" display="none" font-family="OpenSansCondensedLight" fill="black" text-anchor="middle"><tspan dy="0.3em" style="fill-opacity: 0; stroke-opacity: 0;">-</tspan></text></g><text font-size="18.7" xml:space="preserve" font-family="OpenSansCondensedLight" line-height="21" fill="black" text-anchor="middle" text-vertical-anchor="middle" transform="matrix(1,0,0,1,144,17.8)" display="none"><tspan dy="0.3em" style="fill-opacity: 0; stroke-opacity: 0;">-</tspan></text></g></g></svg>