<svg xmlns="http://www.w3.org/2000/svg" xmlns:xlink="http://www.w3.org/1999/xlink" version="1.1" width="759" height="577.3" viewBox="81 82.5 759 577.3"><defs/><g><g data-type="tp.Element" transform="translate(81,370)"><g><g><rect width="76" height="38" fill="none"/><svg xmlns="http://www.w3.org/2000/svg" xmlns:xlink="http://www.w3.org/1999/xlink" version="1.1" x="0px" y="0px" viewBox="0 0 56.7 28.3" xml:space="preserve" width="76" height="38" preserveAspectRatio="none">
<style type="text/css">
	.st0{fill:none;stroke:#000000;stroke-miterlimit:10;}
</style>
<g>
	<polyline points="56.7,14.2 45.5,14.2 42.7,25.5 37,2.8 31.3,25.5 25.7,2.8 20,25.5 14.3,2.8 11.5,14.2 0,14.2"/>
</g>
</svg></g></g><g><rect stroke="none" fill="#ffffff" width="0" height="0"/><path stroke="#000000" fill="none" d=""/><text font-size="18.7" xml:space="preserve" display="none" font-family="OpenSansCondensedLight" fill="black" text-anchor="middle"><tspan dy="0.3em" style="fill-opacity: 0; stroke-opacity: 0;">-</tspan></text></g><text font-size="18.7" xml:space="preserve" font-family="OpenSansCondensedLight" line-height="21" fill="black" text-anchor="middle" text-vertical-anchor="middle" transform="matrix(1,0,0,1,38,19)" display="none"><tspan dy="0.3em" style="fill-opacity: 0; stroke-opacity: 0;">-</tspan></text></g><g data-type="tp.Element" transform="translate(157,498)"><g><g><rect width="38" height="38" fill="none"/><svg xmlns="http://www.w3.org/2000/svg" xmlns:xlink="http://www.w3.org/1999/xlink" version="1.1" x="0px" y="0px" viewBox="0 0 28.3 28.3" xml:space="preserve" width="38" height="38" preserveAspectRatio="none">
<style type="text/css">
	.st0{fill:none;stroke:#000000;stroke-miterlimit:10;}
	.st1{fill:#FFFFFF;stroke:#000000;stroke-miterlimit:10;}
</style>
<line x1="14.2" y1="14.2" x2="14.2" y2="0"/>
<polygon points="14.2,28.3 0,14.2 28.3,14.2"/>
</svg></g></g><g><rect stroke="none" fill="#ffffff" width="0" height="0"/><path stroke="#000000" fill="none" d=""/><text font-size="18.7" xml:space="preserve" display="none" font-family="OpenSansCondensedLight" fill="black" text-anchor="middle"><tspan dy="0.3em" style="fill-opacity: 0; stroke-opacity: 0;">-</tspan></text></g><text font-size="18.7" xml:space="preserve" font-family="OpenSansCondensedLight" line-height="21" fill="black" text-anchor="middle" text-vertical-anchor="middle" transform="matrix(1,0,0,1,19,19)" display="none"><tspan dy="0.3em" style="fill-opacity: 0; stroke-opacity: 0;">-</tspan></text></g><g data-type="tp.Element" transform="translate(88.5,498)"><g><g><rect width="38" height="38" fill="none"/><svg xmlns="http://www.w3.org/2000/svg" xmlns:xlink="http://www.w3.org/1999/xlink" version="1.1" x="0px" y="0px" viewBox="0 0 28.3 28.3" xml:space="preserve" width="38" height="38" preserveAspectRatio="none">
<style type="text/css">
	.st0{fill:none;stroke:#000000;stroke-miterlimit:10;}
</style>
<line x1="0" y1="14.2" x2="28.3" y2="14.2"/>
<line x1="14.2" y1="14.2" x2="14.2" y2="0"/>
<line x1="5.3" y1="21.3" x2="22.3" y2="21.3"/>
<line x1="11.3" y1="28.3" x2="17" y2="28.3"/>
</svg></g></g><g><rect stroke="none" fill="#ffffff" width="0" height="0"/><path stroke="#000000" fill="none" d=""/><text font-size="18.7" xml:space="preserve" display="none" font-family="OpenSansCondensedLight" fill="black" text-anchor="middle"><tspan dy="0.3em" style="fill-opacity: 0; stroke-opacity: 0;">-</tspan></text></g><text font-size="18.7" xml:space="preserve" font-family="OpenSansCondensedLight" line-height="21" fill="black" text-anchor="middle" text-vertical-anchor="middle" transform="matrix(1,0,0,1,19,19)" display="none"><tspan dy="0.3em" style="fill-opacity: 0; stroke-opacity: 0;">-</tspan></text></g><g data-type="tp.Element" transform="translate(683,92)"><g><g><rect width="76" height="38" fill="none"/><svg xmlns="http://www.w3.org/2000/svg" xmlns:xlink="http://www.w3.org/1999/xlink" version="1.1" x="0px" y="0px" viewBox="0 0 56.7 28.3" xml:space="preserve" width="76" height="38" preserveAspectRatio="none">
<style type="text/css">
	.st0{fill:none;stroke:#000000;stroke-miterlimit:10;}
	.st1{fill:#FFFFFF;stroke:#000000;stroke-miterlimit:10;}
</style>
<line x1="0" y1="19.8" x2="16.2" y2="19.8"/>
<line x1="41.7" y1="14.2" x2="56.7" y2="14.2"/>
<path d="M42.4,14.2c-5.3,14.2-26.3,12.3-26.3,12.3s4-6.6,4-12.3c0-5.7-4-12.3-4-12.3S37.7,0,42.4,14.2z"/>
<line x1="0" y1="8.5" x2="16.2" y2="8.5"/>
<path d="M13.3,25.5c0,0,3.7-6.1,3.7-11.3c0-5.2-3.7-11.3-3.7-11.3"/>
</svg></g></g><g><rect stroke="none" fill="#ffffff" width="0" height="0"/><path stroke="#000000" fill="none" d=""/><text font-size="18.7" xml:space="preserve" display="none" font-family="OpenSansCondensedLight" fill="black" text-anchor="middle"><tspan dy="0.3em" style="fill-opacity: 0; stroke-opacity: 0;">-</tspan></text></g><text font-size="18.7" xml:space="preserve" font-family="OpenSansCondensedLight" line-height="21" fill="black" text-anchor="middle" text-vertical-anchor="middle" transform="matrix(1,0,0,1,38,19)" display="none"><tspan dy="0.3em" style="fill-opacity: 0; stroke-opacity: 0;">-</tspan></text></g><g data-type="tp.Element" transform="translate(275.5,92)"><g><g><rect width="76" height="38" fill="none"/><svg xmlns="http://www.w3.org/2000/svg" xmlns:xlink="http://www.w3.org/1999/xlink" version="1.1" x="0px" y="0px" viewBox="0 0 56.7 28.3" xml:space="preserve" width="76" height="38" preserveAspectRatio="none">
<style type="text/css">
	.st0{fill:none;stroke:#000000;stroke-miterlimit:10;}
	.st1{fill:#FFFFFF;stroke:#000000;stroke-miterlimit:10;}
</style>
<line x1="0" y1="19.8" x2="14.2" y2="19.8"/>
<line x1="39.7" y1="14.2" x2="56.7" y2="14.2"/>
<path d="M39.7,14.2c0,12.4-25.5,12.3-25.5,12.3V1.9C14.2,1.9,39.7,1.9,39.7,14.2z"/>
<line x1="0" y1="8.5" x2="14.2" y2="8.5"/>
</svg></g></g><g><rect stroke="none" fill="#ffffff" width="0" height="0"/><path stroke="#000000" fill="none" d=""/><text font-size="18.7" xml:space="preserve" display="none" font-family="OpenSansCondensedLight" fill="black" text-anchor="middle"><tspan dy="0.3em" style="fill-opacity: 0; stroke-opacity: 0;">-</tspan></text></g><text font-size="18.7" xml:space="preserve" font-family="OpenSansCondensedLight" line-height="21" fill="black" text-anchor="middle" text-vertical-anchor="middle" transform="matrix(1,0,0,1,38,19)" display="none"><tspan dy="0.3em" style="fill-opacity: 0; stroke-opacity: 0;">-</tspan></text></g><g data-type="tp.Element" transform="translate(397.5,498)"><g><g><rect width="38" height="38" fill="none"/><svg xmlns="http://www.w3.org/2000/svg" xmlns:xlink="http://www.w3.org/1999/xlink" version="1.1" x="0px" y="0px" viewBox="0 0 28.3 28.3" xml:space="preserve" width="38" height="38" preserveAspectRatio="none">
<style type="text/css">
	.st0{fill:none;stroke:#000000;stroke-miterlimit:10;}
</style>
<line x1="0" y1="11.3" x2="28.3" y2="11.3"/>
<line x1="14.2" y1="11.3" x2="14.2" y2="0"/>
<line x1="5.3" y1="17" x2="22.3" y2="17"/>
<line x1="13.8" y1="17" x2="13.8" y2="28.3"/>
<g>
	<line x1="8.9" y1="8.8" x2="8.9" y2="4.5"/>
	<line x1="11" y1="6.6" x2="6.8" y2="6.6"/>
</g>
</svg></g></g><g><rect stroke="none" fill="#ffffff" width="0" height="0"/><path stroke="#000000" fill="none" d=""/><text font-size="18.7" xml:space="preserve" display="none" font-family="OpenSansCondensedLight" fill="black" text-anchor="middle"><tspan dy="0.3em" style="fill-opacity: 0; stroke-opacity: 0;">-</tspan></text></g><text font-size="18.7" xml:space="preserve" font-family="OpenSansCondensedLight" line-height="21" fill="black" text-anchor="middle" text-vertical-anchor="middle" transform="matrix(1,0,0,1,19,19)" display="none"><tspan dy="0.3em" style="fill-opacity: 0; stroke-opacity: 0;">-</tspan></text></g><g data-type="tp.Element" transform="translate(517.5,375)"><g><g><rect width="76" height="38" fill="none"/><svg xmlns="http://www.w3.org/2000/svg" xmlns:xlink="http://www.w3.org/1999/xlink" version="1.1" x="0px" y="0px" viewBox="0 0 56.7 28.3" xml:space="preserve" width="76" height="38" preserveAspectRatio="none">
<style type="text/css">
	.st0{fill:none;stroke:#000000;stroke-miterlimit:10;}
	.st1{fill:#FFFFFF;stroke:#000000;stroke-miterlimit:10;}
</style>
<line x1="0" y1="14.2" x2="21.3" y2="14.2"/>
<line x1="35.4" y1="14.2" x2="56.7" y2="14.2"/>
<polygon points="35.4,14.2 20.8,22.7 20.8,5.7"/>
<line x1="35.4" y1="22.7" x2="35.4" y2="5.7"/>
</svg></g></g><g><rect stroke="none" fill="#ffffff" width="0" height="0"/><path stroke="#000000" fill="none" d=""/><text font-size="18.7" xml:space="preserve" display="none" font-family="OpenSansCondensedLight" fill="black" text-anchor="middle"><tspan dy="0.3em" style="fill-opacity: 0; stroke-opacity: 0;">-</tspan></text></g><text font-size="18.7" xml:space="preserve" font-family="OpenSansCondensedLight" line-height="21" fill="black" text-anchor="middle" text-vertical-anchor="middle" transform="matrix(1,0,0,1,38,19)" display="none"><tspan dy="0.3em" style="fill-opacity: 0; stroke-opacity: 0;">-</tspan></text></g><g data-type="tp.Element" transform="translate(237.5,498)"><g><g><rect width="38" height="38" fill="none"/><svg xmlns="http://www.w3.org/2000/svg" xmlns:xlink="http://www.w3.org/1999/xlink" version="1.1" x="0px" y="0px" viewBox="0 0 28.3 28.3" xml:space="preserve" width="38" height="38" preserveAspectRatio="none">
<style type="text/css">
	.st0{fill:none;stroke:#000000;stroke-miterlimit:10;}
</style>
<polyline points="0,28.3 5,14.2 16.6,14.2 28.3,14.2 23.4,28.3"/>
<polyline points="11.9,28.3 16.6,14.2 16.6,0"/>
</svg></g></g><g><rect stroke="none" fill="#ffffff" width="0" height="0"/><path stroke="#000000" fill="none" d=""/><text font-size="18.7" xml:space="preserve" display="none" font-family="OpenSansCondensedLight" fill="black" text-anchor="middle"><tspan dy="0.3em" style="fill-opacity: 0; stroke-opacity: 0;">-</tspan></text></g><text font-size="18.7" xml:space="preserve" font-family="OpenSansCondensedLight" line-height="21" fill="black" text-anchor="middle" text-vertical-anchor="middle" transform="matrix(1,0,0,1,19,19)" display="none"><tspan dy="0.3em" style="fill-opacity: 0; stroke-opacity: 0;">-</tspan></text></g><g data-type="tp.Element" transform="translate(195,370)"><g><g><rect width="76" height="38" fill="none"/><svg xmlns="http://www.w3.org/2000/svg" xmlns:xlink="http://www.w3.org/1999/xlink" version="1.1" x="0px" y="0px" viewBox="0 0 56.7 28.3" xml:space="preserve" width="76" height="38" preserveAspectRatio="none">
<style type="text/css">
	.st0{fill:none;stroke:#000000;stroke-miterlimit:10;}
</style>
<path d="M0,22.7h11.3c0,0-1.7-6.1-1.7-10.6c0.1-3.8,2.1-7.4,5.9-7.4c4,0,6.1,5.4,6.5,9c0.3,2.3,0.5,9-2.3,9  c-2.4,0-2.2-6.7-1.9-9c0.3-2.3,1.3-9,6.1-9c4.3,0,5.9,5.9,6.4,9c0.3,2.1,0.2,9-2.1,9c-3.1,0-2.4-6.7-2.1-9c0.3-2.2,1.8-9,6.3-9  c3.9,0,5.7,5.7,6.2,9c0.4,2.5,0.4,9-1.9,9c-2.4,0-2.5-6.7-2.2-9c0.3-2.2,1-9,6.5-9c4.1,0,5.5,3.2,5.6,7.2c0.1,4.3-1.1,9.6-1.4,10.8  h11.3"/>
</svg></g></g><g><rect stroke="none" fill="#ffffff" width="0" height="0"/><path stroke="#000000" fill="none" d=""/><text font-size="18.7" xml:space="preserve" display="none" font-family="OpenSansCondensedLight" fill="black" text-anchor="middle"><tspan dy="0.3em" style="fill-opacity: 0; stroke-opacity: 0;">-</tspan></text></g><text font-size="18.7" xml:space="preserve" font-family="OpenSansCondensedLight" line-height="21" fill="black" text-anchor="middle" text-vertical-anchor="middle" transform="matrix(1,0,0,1,38,19)" display="none"><tspan dy="0.3em" style="fill-opacity: 0; stroke-opacity: 0;">-</tspan></text></g><g data-type="tp.Element" transform="translate(170,92)"><g><g><rect width="76" height="38" fill="none"/><svg xmlns="http://www.w3.org/2000/svg" xmlns:xlink="http://www.w3.org/1999/xlink" version="1.1" x="0px" y="0px" viewBox="0 0 56.7 28.3" xml:space="preserve" width="76" height="38" preserveAspectRatio="none">
<style type="text/css">
	.st0{fill:none;stroke:#000000;stroke-miterlimit:10;}
	.st1{fill:#FFFFFF;stroke:#000000;stroke-miterlimit:10;}
</style>
<line x1="0" y1="14.2" x2="14.2" y2="14.2"/>
<line x1="42" y1="14.2" x2="56.7" y2="14.2"/>
<polygon points="36.1,14.2 14.2,26.4 14.2,1.9"/>
<circle cx="39" cy="14.2" r="2.8"/>
</svg></g></g><g><rect stroke="none" fill="#ffffff" width="0" height="0"/><path stroke="#000000" fill="none" d=""/><text font-size="18.7" xml:space="preserve" display="none" font-family="OpenSansCondensedLight" fill="black" text-anchor="middle"><tspan dy="0.3em" style="fill-opacity: 0; stroke-opacity: 0;">-</tspan></text></g><text font-size="18.7" xml:space="preserve" font-family="OpenSansCondensedLight" line-height="21" fill="black" text-anchor="middle" text-vertical-anchor="middle" transform="matrix(1,0,0,1,38,19)" display="none"><tspan dy="0.3em" style="fill-opacity: 0; stroke-opacity: 0;">-</tspan></text></g><g data-type="tp.Element" transform="translate(645,375)"><g><g><rect width="76" height="38" fill="none"/><svg xmlns="http://www.w3.org/2000/svg" xmlns:xlink="http://www.w3.org/1999/xlink" version="1.1" x="0px" y="0px" viewBox="0 0 56.7 28.3" xml:space="preserve" width="76" height="38" preserveAspectRatio="none">
<style type="text/css">
	.st0{fill:none;stroke:#000000;stroke-miterlimit:10;}
	.st1{fill:#FFFFFF;stroke:#000000;stroke-miterlimit:10;}
</style>
<line x1="0" y1="14.2" x2="21.3" y2="14.2"/>
<line x1="35.4" y1="14.2" x2="56.7" y2="14.2"/>
<polygon points="35.4,14.2 20.8,22.7 20.8,5.7"/>
<line x1="35.4" y1="22.7" x2="35.4" y2="5.7"/>
<g>
	<g>
		<g>
			<line x1="27.3" y1="7.4" x2="29.8" y2="2.1"/>
			<g>
				<polygon points="31.1,3.3 30.8,0 28.1,1.9"/>
			</g>
		</g>
	</g>
</g>
<g>
	<g>
		<g>
			<line x1="31.5" y1="7.4" x2="34.1" y2="2.1"/>
			<g>
				<polygon points="35.3,3.3 35.1,0 32.4,1.9"/>
			</g>
		</g>
	</g>
</g>
</svg></g></g><g><rect stroke="none" fill="#ffffff" width="0" height="0"/><path stroke="#000000" fill="none" d=""/><text font-size="18.7" xml:space="preserve" display="none" font-family="OpenSansCondensedLight" fill="black" text-anchor="middle"><tspan dy="0.3em" style="fill-opacity: 0; stroke-opacity: 0;">-</tspan></text></g><text font-size="18.7" xml:space="preserve" font-family="OpenSansCondensedLight" line-height="21" fill="black" text-anchor="middle" text-vertical-anchor="middle" transform="matrix(1,0,0,1,38,19)" display="none"><tspan dy="0.3em" style="fill-opacity: 0; stroke-opacity: 0;">-</tspan></text></g><g data-type="tp.Element" transform="translate(367,92)"><g><g><rect width="76" height="38" fill="none"/><svg xmlns="http://www.w3.org/2000/svg" xmlns:xlink="http://www.w3.org/1999/xlink" version="1.1" x="0px" y="0px" viewBox="0 0 56.7 28.3" xml:space="preserve" width="76" height="38" preserveAspectRatio="none">
<style type="text/css">
	.st0{fill:none;stroke:#000000;stroke-miterlimit:10;}
	.st1{fill:#FFFFFF;stroke:#000000;stroke-miterlimit:10;}
</style>
<line x1="0" y1="19.8" x2="14.2" y2="19.8"/>
<line x1="45.1" y1="14.2" x2="56.7" y2="14.2"/>
<path d="M39.4,14.2c0,12.4-25.3,12.3-25.3,12.3V1.9C14.2,1.9,39.4,1.9,39.4,14.2z"/>
<circle cx="42.3" cy="14.2" r="2.8"/>
<line x1="0" y1="8.5" x2="14.2" y2="8.5"/>
</svg></g></g><g><rect stroke="none" fill="#ffffff" width="0" height="0"/><path stroke="#000000" fill="none" d=""/><text font-size="18.7" xml:space="preserve" display="none" font-family="OpenSansCondensedLight" fill="black" text-anchor="middle"><tspan dy="0.3em" style="fill-opacity: 0; stroke-opacity: 0;">-</tspan></text></g><text font-size="18.7" xml:space="preserve" font-family="OpenSansCondensedLight" line-height="21" fill="black" text-anchor="middle" text-vertical-anchor="middle" transform="matrix(1,0,0,1,38,19)" display="none"><tspan dy="0.3em" style="fill-opacity: 0; stroke-opacity: 0;">-</tspan></text></g><g data-type="tp.Element" transform="translate(382.5,240)"><g><g><rect width="37.5" height="45" fill="none"/><svg xmlns="http://www.w3.org/2000/svg" xmlns:xlink="http://www.w3.org/1999/xlink" version="1.1" x="0px" y="0px" viewBox="0 0 28.3 34" xml:space="preserve" width="37.5" height="45" preserveAspectRatio="none">
<style type="text/css">
	.st0{fill:none;stroke:#000000;stroke-miterlimit:10;}
</style>
<polyline points="0,29.8 10.9,29.8 10.9,4.3"/>
<polyline points="15.2,8.4 28.3,8.4 28.3,0"/>
<polyline points="15.2,17.2 28.3,17.2 28.3,34"/>
<line x1="15.2" y1="25.6" x2="28.3" y2="25.6"/>
<g>
	<g>
		<polygon points="21.5,14.7 17.2,17.2 21.5,19.7"/>
	</g>
</g>
<line x1="14.9" y1="29.8" x2="14.9" y2="4.3"/>
</svg></g></g><g><rect stroke="none" fill="#ffffff" width="0" height="0"/><path stroke="#000000" fill="none" d=""/><text font-size="18.7" xml:space="preserve" display="none" font-family="OpenSansCondensedLight" fill="black" text-anchor="middle"><tspan dy="0.3em" style="fill-opacity: 0; stroke-opacity: 0;">-</tspan></text></g><text font-size="18.7" xml:space="preserve" font-family="OpenSansCondensedLight" line-height="21" fill="black" text-anchor="middle" text-vertical-anchor="middle" transform="matrix(1,0,0,1,18.8,22.5)" display="none"><tspan dy="0.3em" style="fill-opacity: 0; stroke-opacity: 0;">-</tspan></text></g><g data-type="tp.Element" transform="translate(496,240)"><g><g><rect width="37.5" height="45" fill="none"/><svg xmlns="http://www.w3.org/2000/svg" xmlns:xlink="http://www.w3.org/1999/xlink" version="1.1" x="0px" y="0px" viewBox="0 0 28.3 34" xml:space="preserve" width="37.5" height="45" preserveAspectRatio="none">
<style type="text/css">
	.st0{fill:none;stroke:#000000;stroke-miterlimit:10;}
</style>
<g>
	<line x1="15.2" y1="12.5" x2="15.2" y2="4.3"/>
	<line x1="15.2" y1="29.8" x2="15.2" y2="21.5"/>
	<line x1="15.2" y1="20.3" x2="15.2" y2="13.7"/>
</g>
<polyline points="0,29.8 10.9,29.8 10.9,4.3"/>
<polyline points="15.2,8.4 28.3,8.4 28.3,0"/>
<polyline points="15.2,17.2 28.3,17.2 28.3,34"/>
<line x1="15.2" y1="25.6" x2="28.3" y2="25.6"/>
<g>
	<g>
		<polygon points="21.5,14.7 17.2,17.2 21.5,19.7"/>
	</g>
</g>
</svg></g></g><g><rect stroke="none" fill="#ffffff" width="0" height="0"/><path stroke="#000000" fill="none" d=""/><text font-size="18.7" xml:space="preserve" display="none" font-family="OpenSansCondensedLight" fill="black" text-anchor="middle"><tspan dy="0.3em" style="fill-opacity: 0; stroke-opacity: 0;">-</tspan></text></g><text font-size="18.7" xml:space="preserve" font-family="OpenSansCondensedLight" line-height="21" fill="black" text-anchor="middle" text-vertical-anchor="middle" transform="matrix(1,0,0,1,18.8,22.5)" display="none"><tspan dy="0.3em" style="fill-opacity: 0; stroke-opacity: 0;">-</tspan></text></g><g data-type="tp.Element" transform="translate(638,243.8)"><g><g><rect width="45" height="37.5" fill="none"/><svg xmlns="http://www.w3.org/2000/svg" xmlns:xlink="http://www.w3.org/1999/xlink" version="1.1" x="0px" y="0px" viewBox="0 0 34 28.3" xml:space="preserve" width="45" height="37.5" preserveAspectRatio="none">
<style type="text/css">
	.st0{fill:#FFFFFF;stroke:#000000;stroke-miterlimit:10;}
	.st1{fill:none;stroke:#000000;stroke-miterlimit:10;}
</style>
<line x1="8.5" y1="25.5" x2="8.5" y2="2.8"/>
<line x1="8.5" y1="14.2" x2="0" y2="14.2"/>
<polyline points="34,28.3 34,25.5 11.3,25.5 11.3,2.8 34,2.8 34,0"/>
</svg></g></g><g><rect stroke="none" fill="#ffffff" width="0" height="0"/><path stroke="#000000" fill="none" d=""/><text font-size="18.7" xml:space="preserve" display="none" font-family="OpenSansCondensedLight" fill="black" text-anchor="middle"><tspan dy="0.3em" style="fill-opacity: 0; stroke-opacity: 0;">-</tspan></text></g><text font-size="18.7" xml:space="preserve" font-family="OpenSansCondensedLight" line-height="21" fill="black" text-anchor="middle" text-vertical-anchor="middle" transform="matrix(1,0,0,1,22.5,18.8)" display="none"><tspan dy="0.3em" style="fill-opacity: 0; stroke-opacity: 0;">-</tspan></text></g><g data-type="tp.Element" transform="translate(569.5,92)"><g><g><rect width="76" height="38" fill="none"/><svg xmlns="http://www.w3.org/2000/svg" xmlns:xlink="http://www.w3.org/1999/xlink" version="1.1" x="0px" y="0px" viewBox="0 0 56.7 28.3" xml:space="preserve" width="76" height="38" preserveAspectRatio="none">
<style type="text/css">
	.st0{fill:none;stroke:#000000;stroke-miterlimit:10;}
	.st1{fill:#FFFFFF;stroke:#000000;stroke-miterlimit:10;}
</style>
<line x1="0" y1="19.8" x2="15.2" y2="19.8"/>
<line x1="44.1" y1="14.2" x2="56.7" y2="14.2"/>
<path d="M38.4,14.2c-6.8,14.2-26.3,12.3-26.3,12.3s4-6.6,4-12.3c0-5.7-4-12.3-4-12.3S32.3,0,38.4,14.2z"/>
<line x1="0" y1="8.5" x2="15.2" y2="8.5"/>
<circle cx="41.3" cy="14.2" r="2.8"/>
</svg></g></g><g><rect stroke="none" fill="#ffffff" width="0" height="0"/><path stroke="#000000" fill="none" d=""/><text font-size="18.7" xml:space="preserve" display="none" font-family="OpenSansCondensedLight" fill="black" text-anchor="middle"><tspan dy="0.3em" style="fill-opacity: 0; stroke-opacity: 0;">-</tspan></text></g><text font-size="18.7" xml:space="preserve" font-family="OpenSansCondensedLight" line-height="21" fill="black" text-anchor="middle" text-vertical-anchor="middle" transform="matrix(1,0,0,1,38,19)" display="none"><tspan dy="0.3em" style="fill-opacity: 0; stroke-opacity: 0;">-</tspan></text></g><g data-type="tp.Element" transform="translate(233,240)"><g><g><rect width="37.5" height="45" fill="none"/><svg xmlns="http://www.w3.org/2000/svg" xmlns:xlink="http://www.w3.org/1999/xlink" version="1.1" x="0px" y="0px" viewBox="0 0 28.3 34" xml:space="preserve" width="37.5" height="45" preserveAspectRatio="none">
<style type="text/css">
	.st0{fill:none;stroke:#000000;stroke-miterlimit:10;}
</style>
<line x1="0" y1="17" x2="13.3" y2="17"/>
<line x1="13.3" y1="25.5" x2="13.3" y2="8.5"/>
<polyline points="28.3,0 28.3,8.5 13.3,12.8"/>
<g>
	<g>
		<line x1="24.9" y1="24.5" x2="13.3" y2="21.3"/>
		<g>
			<polygon points="24.9,21.9 28.3,25.5 23.5,26.7"/>
		</g>
	</g>
</g>
<line x1="28.3" y1="34" x2="28.3" y2="25.5"/>
</svg></g></g><g><rect stroke="none" fill="#ffffff" width="0" height="0"/><path stroke="#000000" fill="none" d=""/><text font-size="18.7" xml:space="preserve" display="none" font-family="OpenSansCondensedLight" fill="black" text-anchor="middle"><tspan dy="0.3em" style="fill-opacity: 0; stroke-opacity: 0;">-</tspan></text></g><text font-size="18.7" xml:space="preserve" font-family="OpenSansCondensedLight" line-height="21" fill="black" text-anchor="middle" text-vertical-anchor="middle" transform="matrix(1,0,0,1,18.8,22.5)" display="none"><tspan dy="0.3em" style="fill-opacity: 0; stroke-opacity: 0;">-</tspan></text></g><g data-type="tp.Element" transform="translate(89.4,82.5)"><g><g><rect width="59.3" height="57" fill="none"/><svg xmlns="http://www.w3.org/2000/svg" xmlns:xlink="http://www.w3.org/1999/xlink" version="1.1" x="0px" y="0px" viewBox="0 0 79.4 76.5" xml:space="preserve" width="59.3" height="57" preserveAspectRatio="none">
<style type="text/css">
	.st0{fill:#FFFFFF;stroke:#000000;stroke-miterlimit:10;}
	.st1{fill:none;stroke:#000000;stroke-miterlimit:10;}
</style>
<polygon points="0,0 0,76.5 79.4,38.3"/>
<g>
	<line x1="10.4" y1="18.4" x2="10.4" y2="26.9"/>
	<line x1="6.2" y1="22.7" x2="14.7" y2="22.7"/>
</g>
<line x1="6.2" y1="53.9" x2="14.7" y2="53.9"/>
</svg></g></g><g><rect stroke="none" fill="#ffffff" width="0" height="0"/><path stroke="#000000" fill="none" d=""/><text font-size="18.7" xml:space="preserve" display="none" font-family="OpenSansCondensedLight" fill="black" text-anchor="middle"><tspan dy="0.3em" style="fill-opacity: 0; stroke-opacity: 0;">-</tspan></text></g><text font-size="18.7" xml:space="preserve" font-family="OpenSansCondensedLight" line-height="21" fill="black" text-anchor="middle" text-vertical-anchor="middle" transform="matrix(1,0,0,1,29.6,28.5)" display="none"><tspan dy="0.3em" style="fill-opacity: 0; stroke-opacity: 0;">-</tspan></text></g><g data-type="tp.Element" transform="translate(471.5,92)"><g><g><rect width="76" height="38" fill="none"/><svg xmlns="http://www.w3.org/2000/svg" xmlns:xlink="http://www.w3.org/1999/xlink" version="1.1" x="0px" y="0px" viewBox="0 0 56.7 28.3" xml:space="preserve" width="76" height="38" preserveAspectRatio="none">
<style type="text/css">
	.st0{fill:none;stroke:#000000;stroke-miterlimit:10;}
	.st1{fill:#FFFFFF;stroke:#000000;stroke-miterlimit:10;}
</style>
<line x1="0" y1="19.8" x2="17.2" y2="19.8"/>
<line x1="39.7" y1="14.2" x2="56.7" y2="14.2"/>
<path d="M40.4,14.2c-4.7,14.2-26.3,12.3-26.3,12.3s4-6.6,4-12.3c0-5.7-4-12.3-4-12.3S35.9,0,40.4,14.2z"/>
<line x1="0" y1="8.5" x2="17.2" y2="8.5"/>
</svg></g></g><g><rect stroke="none" fill="#ffffff" width="0" height="0"/><path stroke="#000000" fill="none" d=""/><text font-size="18.7" xml:space="preserve" display="none" font-family="OpenSansCondensedLight" fill="black" text-anchor="middle"><tspan dy="0.3em" style="fill-opacity: 0; stroke-opacity: 0;">-</tspan></text></g><text font-size="18.7" xml:space="preserve" font-family="OpenSansCondensedLight" line-height="21" fill="black" text-anchor="middle" text-vertical-anchor="middle" transform="matrix(1,0,0,1,38,19)" display="none"><tspan dy="0.3em" style="fill-opacity: 0; stroke-opacity: 0;">-</tspan></text></g><g data-type="tp.Element" transform="translate(443,240)"><g><g><rect width="37.5" height="45" fill="none"/><svg xmlns="http://www.w3.org/2000/svg" xmlns:xlink="http://www.w3.org/1999/xlink" version="1.1" x="0px" y="0px" viewBox="0 0 28.3 34" xml:space="preserve" width="37.5" height="45" preserveAspectRatio="none">
<style type="text/css">
	.st0{fill:none;stroke:#000000;stroke-miterlimit:10;}
</style>
<polyline points="0,29.8 10.9,29.8 10.9,4.3"/>
<polyline points="15.2,8.4 28.3,8.4 28.3,0"/>
<polyline points="15.2,17.2 28.3,17.2 28.3,34"/>
<line x1="15.2" y1="25.6" x2="28.3" y2="25.6"/>
<g>
	<g>
		<polygon points="17.3,19.7 21.6,17.2 17.3,14.7"/>
	</g>
</g>
<line x1="14.9" y1="29.8" x2="14.9" y2="4.3"/>
</svg></g></g><g><rect stroke="none" fill="#ffffff" width="0" height="0"/><path stroke="#000000" fill="none" d=""/><text font-size="18.7" xml:space="preserve" display="none" font-family="OpenSansCondensedLight" fill="black" text-anchor="middle"><tspan dy="0.3em" style="fill-opacity: 0; stroke-opacity: 0;">-</tspan></text></g><text font-size="18.7" xml:space="preserve" font-family="OpenSansCondensedLight" line-height="21" fill="black" text-anchor="middle" text-vertical-anchor="middle" transform="matrix(1,0,0,1,18.8,22.5)" display="none"><tspan dy="0.3em" style="fill-opacity: 0; stroke-opacity: 0;">-</tspan></text></g><g data-type="tp.Element" transform="translate(570.5,240)"><g><g><rect width="37.5" height="45" fill="none"/><svg xmlns="http://www.w3.org/2000/svg" xmlns:xlink="http://www.w3.org/1999/xlink" version="1.1" x="0px" y="0px" viewBox="0 0 28.3 34" xml:space="preserve" width="37.5" height="45" preserveAspectRatio="none">
<style type="text/css">
	.st0{fill:none;stroke:#000000;stroke-miterlimit:10;}
</style>
<g>
	<line x1="15.2" y1="12.5" x2="15.2" y2="4.3"/>
	<line x1="15.2" y1="29.8" x2="15.2" y2="21.5"/>
	<line x1="15.2" y1="20.3" x2="15.2" y2="13.7"/>
</g>
<polyline points="0,29.8 10.9,29.8 10.9,4.3"/>
<polyline points="15.2,8.4 28.3,8.4 28.3,0"/>
<polyline points="15.2,17.2 28.3,17.2 28.3,34"/>
<line x1="15.2" y1="25.6" x2="28.3" y2="25.6"/>
<g>
	<g>
		<polygon points="17.3,19.7 21.6,17.2 17.3,14.7"/>
	</g>
</g>
</svg></g></g><g><rect stroke="none" fill="#ffffff" width="0" height="0"/><path stroke="#000000" fill="none" d=""/><text font-size="18.7" xml:space="preserve" display="none" font-family="OpenSansCondensedLight" fill="black" text-anchor="middle"><tspan dy="0.3em" style="fill-opacity: 0; stroke-opacity: 0;">-</tspan></text></g><text font-size="18.7" xml:space="preserve" font-family="OpenSansCondensedLight" line-height="21" fill="black" text-anchor="middle" text-vertical-anchor="middle" transform="matrix(1,0,0,1,18.8,22.5)" display="none"><tspan dy="0.3em" style="fill-opacity: 0; stroke-opacity: 0;">-</tspan></text></g><g data-type="tp.Element" transform="translate(713,243.8)"><g><g><rect width="45" height="37.5" fill="none"/><svg xmlns="http://www.w3.org/2000/svg" xmlns:xlink="http://www.w3.org/1999/xlink" version="1.1" x="0px" y="0px" viewBox="0 0 34 28.3" xml:space="preserve" width="45" height="37.5" preserveAspectRatio="none">
<style type="text/css">
	.st0{fill:#FFFFFF;stroke:#000000;stroke-miterlimit:10;}
	.st1{fill:none;stroke:#000000;stroke-miterlimit:10;}
</style>
<line x1="8.5" y1="25.5" x2="8.5" y2="2.8"/>
<line x1="4.3" y1="14.2" x2="0" y2="14.2"/>
<polyline points="34,28.3 34,25.5 11.3,25.5 11.3,2.8 34,2.8 34,0"/>
<circle cx="6.4" cy="14.4" r="2.1"/>
</svg></g></g><g><rect stroke="none" fill="#ffffff" width="0" height="0"/><path stroke="#000000" fill="none" d=""/><text font-size="18.7" xml:space="preserve" display="none" font-family="OpenSansCondensedLight" fill="black" text-anchor="middle"><tspan dy="0.3em" style="fill-opacity: 0; stroke-opacity: 0;">-</tspan></text></g><text font-size="18.7" xml:space="preserve" font-family="OpenSansCondensedLight" line-height="21" fill="black" text-anchor="middle" text-vertical-anchor="middle" transform="matrix(1,0,0,1,22.5,18.8)" display="none"><tspan dy="0.3em" style="fill-opacity: 0; stroke-opacity: 0;">-</tspan></text></g><g data-type="tp.Element" transform="translate(158,240)"><g><g><rect width="37.5" height="45" fill="none"/><svg xmlns="http://www.w3.org/2000/svg" xmlns:xlink="http://www.w3.org/1999/xlink" version="1.1" x="0px" y="0px" viewBox="0 0 28.3 34" xml:space="preserve" width="37.5" height="45" preserveAspectRatio="none">
<style type="text/css">
	.st0{fill:none;stroke:#000000;stroke-miterlimit:10;}
</style>
<line x1="0" y1="17" x2="13.3" y2="17"/>
<line x1="13.3" y1="25.5" x2="13.3" y2="8.5"/>
<polyline points="28.3,0 28.3,8.5 13.3,12.8"/>
<g>
	<g>
		<polyline points="28.3,34 28.3,25.5 16.8,22.2"/>
		<g>
			<polygon points="18.2,20 13.3,21.3 16.8,24.8"/>
		</g>
	</g>
</g>
</svg></g></g><g><rect stroke="none" fill="#ffffff" width="0" height="0"/><path stroke="#000000" fill="none" d=""/><text font-size="18.7" xml:space="preserve" display="none" font-family="OpenSansCondensedLight" fill="black" text-anchor="middle"><tspan dy="0.3em" style="fill-opacity: 0; stroke-opacity: 0;">-</tspan></text></g><text font-size="18.7" xml:space="preserve" font-family="OpenSansCondensedLight" line-height="21" fill="black" text-anchor="middle" text-vertical-anchor="middle" transform="matrix(1,0,0,1,18.8,22.5)" display="none"><tspan dy="0.3em" style="fill-opacity: 0; stroke-opacity: 0;">-</tspan></text></g><g data-type="tp.Element" transform="translate(315,240)"><g><g><rect width="37.5" height="45" fill="none"/><svg xmlns="http://www.w3.org/2000/svg" xmlns:xlink="http://www.w3.org/1999/xlink" version="1.1" x="0px" y="0px" viewBox="0 0 28.3 34" xml:space="preserve" width="37.5" height="45" preserveAspectRatio="none">
<style type="text/css">
	.st0{fill:none;stroke:#000000;stroke-miterlimit:10;}
</style>
<g>
	<line x1="0" y1="17" x2="13.3" y2="17"/>
	<line x1="13.3" y1="8.5" x2="13.3" y2="25.5"/>
	<polyline points="28.3,34 28.3,25.5 13.3,21.3"/>
	<g>
		<g>
			<polyline points="28.3,0 28.3,8.5 16.8,11.8"/>
			<g>
				<polygon points="16.8,9.2 13.3,12.8 18.2,14"/>
			</g>
		</g>
	</g>
</g>
</svg></g></g><g><rect stroke="none" fill="#ffffff" width="0" height="0"/><path stroke="#000000" fill="none" d=""/><text font-size="18.7" xml:space="preserve" display="none" font-family="OpenSansCondensedLight" fill="black" text-anchor="middle"><tspan dy="0.3em" style="fill-opacity: 0; stroke-opacity: 0;">-</tspan></text></g><text font-size="18.7" xml:space="preserve" font-family="OpenSansCondensedLight" line-height="21" fill="black" text-anchor="middle" text-vertical-anchor="middle" transform="matrix(1,0,0,1,18.8,22.5)" display="none"><tspan dy="0.3em" style="fill-opacity: 0; stroke-opacity: 0;">-</tspan></text></g><g data-type="tp.Element" transform="translate(321.5,370)"><g transform="rotate(270,19,19)"><g><rect width="38" height="38" fill="none"/><svg xmlns="http://www.w3.org/2000/svg" xmlns:xlink="http://www.w3.org/1999/xlink" version="1.1" x="0px" y="0px" viewBox="0 0 56.7 56.7" xml:space="preserve" width="38" height="38" preserveAspectRatio="none">
<line x1="0" y1="22.7" x2="56.7" y2="22.7"/>
<line x1="0" y1="34" x2="56.7" y2="34"/>
<line x1="28.4" y1="22.7" x2="28.4" y2="0"/>
<line x1="28.4" y1="56.7" x2="28.4" y2="34"/>
</svg></g></g><g><rect stroke="none" fill="#ffffff" width="0" height="0"/><path stroke="#000000" fill="none" d=""/><text font-size="18.7" xml:space="preserve" display="none" font-family="OpenSansCondensedLight" fill="black" text-anchor="middle"><tspan dy="0.3em" style="fill-opacity: 0; stroke-opacity: 0;">-</tspan></text></g><text font-size="18.7" xml:space="preserve" font-family="OpenSansCondensedLight" line-height="21" fill="black" text-anchor="middle" text-vertical-anchor="middle" transform="matrix(1,0,0,1,19,19)" display="none"><tspan dy="0.3em" style="fill-opacity: 0; stroke-opacity: 0;">-</tspan></text></g><g data-type="tp.Element" transform="translate(393.5,328)"><g transform="rotate(90,19,61)"><g><rect width="38" height="122" fill="none"/><svg xmlns="http://www.w3.org/2000/svg" xmlns:xlink="http://www.w3.org/1999/xlink" version="1.1" x="0px" y="0px" viewBox="0 0 56.7 56.7" xml:space="preserve" width="38" height="122" preserveAspectRatio="none">
<line x1="0" y1="22.7" x2="56.7" y2="22.7"/>
<path d="M0,37c0,0,13-6,28.4-6c16.1,0,28.4,6,28.4,6"/>
<line x1="28.4" y1="22.7" x2="28.4" y2="0"/>
<line x1="28.4" y1="56.7" x2="28.4" y2="31"/>
</svg></g></g><g><rect stroke="none" fill="#ffffff" width="0" height="0"/><path stroke="#000000" fill="none" d=""/><text font-size="18.7" xml:space="preserve" display="none" font-family="OpenSansCondensedLight" fill="black" text-anchor="middle"><tspan dy="0.3em" style="fill-opacity: 0; stroke-opacity: 0;">-</tspan></text></g><text font-size="18.7" xml:space="preserve" font-family="OpenSansCondensedLight" line-height="21" fill="black" text-anchor="middle" text-vertical-anchor="middle" transform="matrix(1,0,0,1,19,61)" display="none"><tspan dy="0.3em" style="fill-opacity: 0; stroke-opacity: 0;">-</tspan></text></g><g data-type="tp.Element" transform="translate(329,498)"><g><g><rect width="38" height="38" fill="none"/><svg xmlns="http://www.w3.org/2000/svg" data-name="Layer 1" viewBox="0 0 29.4 29.4" width="38" height="38" preserveAspectRatio="none"><title>fig7_acsource_export_presentation</title><circle cx="14.7" cy="14.7" r="14.2" fill="#fff" stroke="#231f20" stroke-width="1" stroke-miterlimit="10"/><path d="M2.8,14.2s3.4-6,5.7-6c4.5,0,6.8,12,11.3,12,2.3,0,5.7-6,5.7-6" transform="translate(0.5 0.5)" fill="none" stroke="#231f20" stroke-width="1" stroke-miterlimit="10"/></svg></g></g><g><rect stroke="none" fill="#ffffff" width="0" height="0"/><path stroke="#000000" fill="none" d=""/><text font-size="18.7" xml:space="preserve" display="none" font-family="OpenSansCondensedLight" fill="black" text-anchor="middle"><tspan dy="0.3em" style="fill-opacity: 0; stroke-opacity: 0;">-</tspan></text></g><text font-size="18.7" xml:space="preserve" font-family="OpenSansCondensedLight" line-height="21" fill="black" text-anchor="middle" text-vertical-anchor="middle" transform="matrix(1,0,0,1,19,19)" display="none"><tspan dy="0.3em" style="fill-opacity: 0; stroke-opacity: 0;">-</tspan></text></g><g data-type="tp.Element" transform="translate(97.7,240)"><g><g><rect width="42.6" height="45" fill="none"/><svg xmlns="http://www.w3.org/2000/svg" data-name="Layer 1" viewBox="0 0 32.1 34" width="42.6" height="45" preserveAspectRatio="none"><title>fig7_npncirc</title><circle cx="18.9" cy="17" r="12.8" fill="#fff" stroke="#231f20" stroke-miterlimit="10"/><line y1="17" x2="13.3" y2="17" fill="none" stroke="#231f20" stroke-miterlimit="10"/><line x1="13.3" y1="25.5" x2="13.3" y2="8.5" fill="none" stroke="#231f20" stroke-miterlimit="10"/><polyline points="28.4 0 28.4 8.5 13.4 12.8" fill="none" stroke="#231f20" stroke-miterlimit="10"/><line x1="24.9" y1="24.5" x2="13.4" y2="21.3" fill="none" stroke="#231f20" stroke-miterlimit="10"/><polygon points="24.9 21.9 28.4 25.5 23.5 26.7 24.9 21.9" fill="#231f20"/><line x1="28.4" y1="34" x2="28.4" y2="25.5" fill="none" stroke="#231f20" stroke-miterlimit="10"/></svg></g></g><g><rect stroke="none" fill="#ffffff" width="0" height="0"/><path stroke="#000000" fill="none" d=""/><text font-size="18.7" xml:space="preserve" display="none" font-family="OpenSansCondensedLight" fill="black" text-anchor="middle"><tspan dy="0.3em" style="fill-opacity: 0; stroke-opacity: 0;">-</tspan></text></g><text font-size="18.7" xml:space="preserve" font-family="OpenSansCondensedLight" line-height="21" fill="black" text-anchor="middle" text-vertical-anchor="middle" transform="matrix(1,0,0,1,21.3,22.5)" display="none"><tspan dy="0.3em" style="fill-opacity: 0; stroke-opacity: 0;">-</tspan></text></g><g data-type="tp.Element" transform="translate(508.8,539.3)"><g><g><rect width="46.4" height="38" fill="none"/><svg xmlns="http://www.w3.org/2000/svg" data-name="Layer 1" viewBox="0 0 34.5 28.4" width="46.4" height="38" preserveAspectRatio="none"><title>fig7_charge trap trans</title><polyline points="11.3 25.5 5.5 25.5 5.5 2.8 11.3 2.8" fill="#fff" stroke="#231f20" stroke-miterlimit="10"/><line x1="5.5" y1="14.2" y2="14.2" fill="none" stroke="#231f20" stroke-miterlimit="10"/><polyline points="34 28.4 34 25.5 11.3 25.5 11.3 2.8 34 2.8 34 0" fill="none" stroke="#231f20" stroke-miterlimit="10"/><circle cx="8.4" cy="5.7" r="0.7" fill="#231f20"/><circle cx="8.4" cy="22.7" r="0.7" fill="#231f20"/><circle cx="8.4" cy="9.1" r="0.7" fill="#231f20"/><circle cx="8.4" cy="12.5" r="0.7" fill="#231f20"/><circle cx="8.4" cy="15.9" r="0.7" fill="#231f20"/><circle cx="8.4" cy="19.3" r="0.7" fill="#231f20"/></svg></g></g><g><rect stroke="none" fill="#ffffff" width="0" height="0"/><path stroke="#000000" fill="none" d=""/><text font-size="18.7" xml:space="preserve" display="none" font-family="OpenSansCondensedLight" fill="black" text-anchor="middle"><tspan dy="0.3em" style="fill-opacity: 0; stroke-opacity: 0;">-</tspan></text></g><text font-size="18.7" xml:space="preserve" font-family="OpenSansCondensedLight" line-height="21" fill="black" text-anchor="middle" text-vertical-anchor="middle" transform="matrix(1,0,0,1,23.2,19)" display="none"><tspan dy="0.3em" style="fill-opacity: 0; stroke-opacity: 0;">-</tspan></text></g></g></svg>