<svg xmlns="http://www.w3.org/2000/svg" xmlns:xlink="http://www.w3.org/1999/xlink" version="1.1" width="646.1" height="763.6" viewBox="14.9 12.9 646.1 763.6"><defs><marker orient="auto" overflow="visible" markerUnits="userSpaceOnUse"><path stroke="#333333" fill="#333333" d="M 0 0 0 0"/></marker><marker orient="auto" overflow="visible" markerUnits="userSpaceOnUse"><path stroke="#333333" fill="#333333" transform="rotate(180)" d="M 8 -4 0 0 8 4 z"/></marker><marker orient="auto" overflow="visible" markerUnits="userSpaceOnUse"><path stroke="#333333" fill="#333333" d="M 8 -4 0 0 8 4 z"/></marker></defs><g><g data-type="tp.Element" transform="translate(15,76.5)"><g><g>
<path d="M631,0H0v687h631V0L631,0z" fill="#FFFFFF" stroke="#000000"/>
<rect x="27.6" y="31.3" width="575.8" height="624.3" fill="none"/>
<circle fill="none" cx="315.5" cy="0" r="0.1"/>
<circle fill="none" cx="471.9" cy="0" r="0.1"/>
<circle fill="none" cx="631" cy="173.2" r="0.1"/>
<circle fill="none" cx="631" cy="343.5" r="0.1"/>
<circle fill="none" cx="631" cy="513.7" r="0.1"/>
<circle fill="none" cx="471.9" cy="687" r="0.1"/>
<circle fill="none" cx="315.5" cy="687" r="0.1"/>
<circle fill="none" cx="159.2" cy="687" r="0.1"/>
<circle fill="none" cx="0" cy="513.7" r="0.1"/>
<circle fill="none" cx="0" cy="343.5" r="0.1"/>
<circle fill="none" cx="0" cy="173.2" r="0.1"/>
<circle fill="none" cx="159.2" cy="0" r="0.1"/>
</g></g><g><rect stroke="none" fill="#ffffff" width="0" height="0"/><path stroke="#000000" fill="none" d=""/><text font-size="18.7" xml:space="preserve" display="none" font-family="OpenSansCondensedLight" fill="black" text-anchor="middle"><tspan dy="0.3em" style="fill-opacity: 0; stroke-opacity: 0;">-</tspan></text></g><text font-size="18.7" xml:space="preserve" font-family="OpenSansCondensedLight" line-height="21" fill="black" text-anchor="middle" text-vertical-anchor="middle" transform="matrix(1,0,0,1,315.5,343.5)"><tspan dy="-0.3em" style="fill-opacity: 0; stroke-opacity: 0;">-</tspan><tspan dy="21" x="0" style="fill-opacity: 0; stroke-opacity: 0;">-</tspan></text></g><g data-type="tp.Element" transform="translate(67,13)"><g><g>
<g stroke="#000000" fill="#FFFFFF">
    <ellipse cx="9.5" cy="5.5" rx="1.2" ry="1.2"/>
    <polygon points="19,43 9.5,47 0,43 9.5,6.7"/>
</g>
<g fill="none" stroke="#000000">
    <line x1="9.5" y1="6.7" x2="9.5" y2="47"/>
    <ellipse cx="9.5" cy="5.5" rx="1.2" ry="1.2"/>
    <line x1="9.5" y1="6.7" x2="0" y2="43"/>
    <line x1="9.5" y1="6.7" x2="19" y2="43"/>
    <polygon points="9.5,13.5 7.9,12.8 9.5,12 11,12.8"/>
    <polygon points="9.5,15.5 7.4,14.6 9.5,13.6 11.5,14.6"/>
    <polygon points="9.5,18.1 6.8,16.9 9.5,15.7 12.2,16.9"/>
    <polygon points="9.5,21.3 6,19.9 9.5,18.3 12.9,20"/>
    <polygon points="9.5,25.7 5,23.8 9.5,21.7 13.9,23.8"/>
    <polygon points="9.5,31.1 3.8,28.7 9.5,26.1 15.2,28.6"/>
    <polygon points="9.5,38.1 2.1,35 9.5,31.6 16.9,34.9"/>
    <polygon points="9.5,47 0,43 9.5,38.8 19,43"/>
    <path d="M12.1,10.4c1.8,-1,3.1,-2.8,3.1,-4.9C15.2,2.5,12.6,0,9.5,0S3.7,2.5,3.7,5.5c0,2.1,1.2,4,3.1,4.9"/>
    <path d="M11.7,8.7c1.1,-0.7,1.8,-1.8,1.8,-3.2c0,-2.1,-1.8,-3.8,-4,-3.8S5.5,3.4,5.5,5.5c0,1.4,0.8,2.5,1.8,3.2"/>
    <path d="M11.3,7.1c0.4,-0.4,0.7,-1,0.7,-1.6c0,-1.3,-1.1,-2.3,-2.4,-2.3S7.1,4.2,7.1,5.5c0,0.6,0.2,1.2,0.7,1.7"/>
</g>
<rect x="1.2" y="17.2" width="17.1" height="16" fill="none"/>
<circle fill="none" cx="9.4" cy="0" r="0.1"/>
<circle fill="none" cx="15.2" cy="5.5" r="0.1"/>
<circle fill="none" cx="11.5" cy="14.6" r="0.1"/>
<circle fill="none" cx="13.9" cy="23.8" r="0.1"/>
<circle fill="none" cx="16.9" cy="34.9" r="0.1"/>
<circle fill="none" cx="19" cy="43" r="0.1"/>
<circle fill="none" cx="9.5" cy="47" r="0.1"/>
<circle fill="none" cx="0" cy="43" r="0.1"/>
<circle fill="none" cx="2.1" cy="35" r="0.1"/>
<circle fill="none" cx="5" cy="23.7" r="0.1"/>
<circle fill="none" cx="7.4" cy="14.6" r="0.1"/>
<circle fill="none" cx="3.7" cy="5.5" r="0.1"/>
</g></g><g><rect stroke="none" fill="#ffffff" width="40" height="20" x="55.5" y="4.4"/><path stroke="#000000" fill="none" d="M11.5,14.4 C30.2,33.4 36.9,-4.6 55.5 14.4"/><text font-size="18.7" xml:space="preserve" font-family="OpenSansCondensedLight" fill="black" text-anchor="middle" x="75.5" y="14.4"><tspan dy="0.3em">802</tspan></text></g><text font-size="18.7" xml:space="preserve" font-family="OpenSansCondensedLight" line-height="21" fill="black" text-anchor="middle" text-vertical-anchor="top" transform="matrix(1,0,0,1,9.5,57.1)"><tspan dy="0.8em" style="fill-opacity: 0; stroke-opacity: 0;">-</tspan><tspan dy="21" x="0" style="fill-opacity: 0; stroke-opacity: 0;">-</tspan></text></g><g data-type="tp.Element" transform="translate(218,150)"><g><g>
<path d="M94,0H0v216h94V0L94,0z" fill="#FFFFFF" stroke="#000000"/>
<rect x="4.1" y="9.8" width="85.8" height="196.3" fill="none"/>
<circle fill="none" cx="47" cy="0" r="0.1"/>
<circle fill="none" cx="70.3" cy="0" r="0.1"/>
<circle fill="none" cx="94" cy="54.5" r="0.1"/>
<circle fill="none" cx="94" cy="108" r="0.1"/>
<circle fill="none" cx="94" cy="161.5" r="0.1"/>
<circle fill="none" cx="70.3" cy="216" r="0.1"/>
<circle fill="none" cx="47" cy="216" r="0.1"/>
<circle fill="none" cx="23.7" cy="216" r="0.1"/>
<circle fill="none" cx="0" cy="161.5" r="0.1"/>
<circle fill="none" cx="0" cy="108" r="0.1"/>
<circle fill="none" cx="0" cy="54.5" r="0.1"/>
<circle fill="none" cx="23.7" cy="0" r="0.1"/>
</g></g><g><rect stroke="none" fill="#ffffff" width="40" height="20" x="77.7" y="-58.2"/><path stroke="#000000" fill="none" d="M70,-0.1 C95.8,-6.8 66.2,-31.5 92 -38.2"/><text font-size="18.7" xml:space="preserve" font-family="OpenSansCondensedLight" fill="black" text-anchor="middle" x="97.7" y="-48.2"><tspan dy="0.3em">804</tspan></text></g><text font-size="18.7" xml:space="preserve" font-family="OpenSansCondensedLight" line-height="21" fill="black" text-anchor="middle" text-vertical-anchor="middle" transform="matrix(1,0,0,1,47,108)"><tspan dy="0.3em">CONTROLLER</tspan></text></g><g data-type="tp.Element" transform="translate(29.3,155)"><g><g>
<path d="M94.5,0H0v94.5h94.5V0L94.5,0z" fill="#FFFFFF" stroke="#000000"/>
<rect x="4.1" y="4.3" width="86.2" height="85.9" fill="none"/>
<circle fill="none" cx="47.2" cy="0" r="0.1"/>
<circle fill="none" cx="70.7" cy="0" r="0.1"/>
<circle fill="none" cx="94.5" cy="23.8" r="0.1"/>
<circle fill="none" cx="94.5" cy="47.2" r="0.1"/>
<circle fill="none" cx="94.5" cy="70.7" r="0.1"/>
<circle fill="none" cx="70.7" cy="94.5" r="0.1"/>
<circle fill="none" cx="47.2" cy="94.5" r="0.1"/>
<circle fill="none" cx="23.8" cy="94.5" r="0.1"/>
<circle fill="none" cx="0" cy="70.7" r="0.1"/>
<circle fill="none" cx="0" cy="47.2" r="0.1"/>
<circle fill="none" cx="0" cy="23.8" r="0.1"/>
<circle fill="none" cx="23.8" cy="0" r="0.1"/>
</g></g><g><rect stroke="none" fill="#ffffff" width="40" height="20" x="130" y="-17.8"/><path stroke="#000000" fill="none" d="M94.6,24.2 C120.3,31.3 107,-5 132.7 2.2"/><text font-size="18.7" xml:space="preserve" font-family="OpenSansCondensedLight" fill="black" text-anchor="middle" x="150" y="-7.8"><tspan dy="0.3em">806</tspan></text></g><text font-size="18.7" xml:space="preserve" font-family="OpenSansCondensedLight" line-height="21" fill="black" text-anchor="middle" text-vertical-anchor="middle" transform="matrix(1,0,0,1,47.2,47.2)"><tspan dy="-0.3em">WIRELESS</tspan><tspan dy="21" x="0">COMM</tspan></text></g><g data-type="tp.Link"><path fill="none" pointer-events="none" joint-selector="line" stroke-width="1" stroke="#333333" stroke-linejoin="round" marker-start="url(#v-27292000855011)" marker-end="url(#v-27291588573873)" d="M 76.5 60.1 L 76.5 155"/><g><g label-idx="0" cursor="default" transform="translate(76.5, 107.6)"><rect joint-selector="rect" fill="#ffffff" rx="3" ry="3" width="8" height="0" transform="matrix(1,0,0,1,-4,0)"/><text joint-selector="text" font-size="18.7" xml:space="preserve" display="none" y="0.8em" fill="#000000" text-anchor="middle" pointer-events="none" font-family="OpenSansCondensedLight"><tspan dy="0" style="fill-opacity: 0; stroke-opacity: 0;">-</tspan></text></g></g></g><g data-type="tp.Link"><path fill="none" pointer-events="none" joint-selector="line" stroke-width="1" stroke="#333333" stroke-linejoin="round" marker-start="url(#v-27292000855011)" marker-end="url(#v-27291588573873)" d="M 76.5 154.9 L 76.5 60"/><g><g label-idx="0" cursor="default" transform="translate(76.5, 107.5)"><rect joint-selector="rect" fill="#ffffff" rx="3" ry="3" width="8" height="0" transform="matrix(1,0,0,1,-4,0)"/><text joint-selector="text" font-size="18.7" xml:space="preserve" display="none" y="0.8em" fill="#000000" text-anchor="middle" pointer-events="none" font-family="OpenSansCondensedLight"><tspan dy="0" style="fill-opacity: 0; stroke-opacity: 0;">-</tspan></text></g></g></g><g data-type="tp.Link"><path fill="none" pointer-events="none" joint-selector="line" stroke-width="1" stroke="#333333" stroke-linejoin="round" marker-start="url(#v-27292000855011)" marker-end="url(#v-27291588573873)" d="M 217.9 201.8 L 123.7 202.2"/><g><g label-idx="0" cursor="default" transform="translate(170.8, 202)"><rect joint-selector="rect" fill="#ffffff" rx="3" ry="3" width="8" height="0" transform="matrix(1,0,0,1,-4,0)"/><text joint-selector="text" font-size="18.7" xml:space="preserve" display="none" y="0.8em" fill="#000000" text-anchor="middle" pointer-events="none" font-family="OpenSansCondensedLight"><tspan dy="0" style="fill-opacity: 0; stroke-opacity: 0;">-</tspan></text></g></g></g><g data-type="tp.Element" transform="translate(403,112)"><g><g>
<path d="M154,0H0v64h154V0L154,0z" fill="#FFFFFF" stroke="#000000"/>
<rect x="6.7" y="2.9" width="140.5" height="58.2" fill="none"/>
<circle fill="none" cx="77" cy="0" r="0.1"/>
<circle fill="none" cx="115.2" cy="0" r="0.1"/>
<circle fill="none" cx="154" cy="16.1" r="0.1"/>
<circle fill="none" cx="154" cy="32" r="0.1"/>
<circle fill="none" cx="154" cy="47.9" r="0.1"/>
<circle fill="none" cx="115.2" cy="64" r="0.1"/>
<circle fill="none" cx="77" cy="64" r="0.1"/>
<circle fill="none" cx="38.9" cy="64" r="0.1"/>
<circle fill="none" cx="0" cy="47.9" r="0.1"/>
<circle fill="none" cx="0" cy="32" r="0.1"/>
<circle fill="none" cx="0" cy="16.1" r="0.1"/>
<circle fill="none" cx="38.9" cy="0" r="0.1"/>
</g></g><g><rect stroke="none" fill="#ffffff" width="40" height="20" x="189.5" y="-25.7"/><path stroke="#000000" fill="none" d="M154.1,16.3 C179.8,23.5 166.5,-12.8 192.2 -5.7"/><text font-size="18.7" xml:space="preserve" font-family="OpenSansCondensedLight" fill="black" text-anchor="middle" x="209.5" y="-15.7"><tspan dy="0.3em">808</tspan></text></g><text font-size="18.7" xml:space="preserve" font-family="OpenSansCondensedLight" line-height="21" fill="black" text-anchor="middle" text-vertical-anchor="middle" transform="matrix(1,0,0,1,77,32)"><tspan dy="0.3em">MEMORY</tspan></text></g><g data-type="tp.Element" transform="translate(402.5,210)"><g><g>
<path d="M155,0H0v65h155V0L155,0z" fill="#FFFFFF" stroke="#000000"/>
<rect x="6.8" y="3" width="141.5" height="59.1" fill="none"/>
<circle fill="none" cx="77.5" cy="0" r="0.1"/>
<circle fill="none" cx="115.9" cy="0" r="0.1"/>
<circle fill="none" cx="155" cy="16.4" r="0.1"/>
<circle fill="none" cx="155" cy="32.5" r="0.1"/>
<circle fill="none" cx="155" cy="48.6" r="0.1"/>
<circle fill="none" cx="115.9" cy="65" r="0.1"/>
<circle fill="none" cx="77.5" cy="65" r="0.1"/>
<circle fill="none" cx="39.1" cy="65" r="0.1"/>
<circle fill="none" cx="0" cy="48.6" r="0.1"/>
<circle fill="none" cx="0" cy="32.5" r="0.1"/>
<circle fill="none" cx="0" cy="16.4" r="0.1"/>
<circle fill="none" cx="39.1" cy="0" r="0.1"/>
</g></g><g><rect stroke="none" fill="#ffffff" width="40" height="20" x="190.5" y="-25.4"/><path stroke="#000000" fill="none" d="M155.1,16.6 C180.8,23.7 167.5,-12.5 193.2 -5.4"/><text font-size="18.7" xml:space="preserve" font-family="OpenSansCondensedLight" fill="black" text-anchor="middle" x="210.5" y="-15.4"><tspan dy="0.3em">810</tspan></text></g><text font-size="18.7" xml:space="preserve" font-family="OpenSansCondensedLight" line-height="21" fill="black" text-anchor="middle" text-vertical-anchor="middle" transform="matrix(1,0,0,1,77.5,32.5)"><tspan dy="-0.3em">POWER</tspan><tspan dy="21" x="0">MANAGER</tspan></text></g><g data-type="tp.Element" transform="translate(507,309)"><g><g>
<path d="M94,0H0v57h94V0L94,0z" fill="#FFFFFF" stroke="#000000"/>
<rect x="4.1" y="2.6" width="85.8" height="51.8" fill="none"/>
<circle fill="none" cx="47" cy="0" r="0.1"/>
<circle fill="none" cx="70.3" cy="0" r="0.1"/>
<circle fill="none" cx="94" cy="14.4" r="0.1"/>
<circle fill="none" cx="94" cy="28.5" r="0.1"/>
<circle fill="none" cx="94" cy="42.6" r="0.1"/>
<circle fill="none" cx="70.3" cy="57" r="0.1"/>
<circle fill="none" cx="47" cy="57" r="0.1"/>
<circle fill="none" cx="23.7" cy="57" r="0.1"/>
<circle fill="none" cx="0" cy="42.6" r="0.1"/>
<circle fill="none" cx="0" cy="28.5" r="0.1"/>
<circle fill="none" cx="0" cy="14.4" r="0.1"/>
<circle fill="none" cx="23.7" cy="0" r="0.1"/>
</g></g><g><rect stroke="none" fill="#ffffff" width="40" height="20" x="-75.5" y="64.4"/><path stroke="#000000" fill="none" d="M-0.1,42.4 C-25.8,35.3 -12.5,71.6 -38.2 64.4"/><text font-size="18.7" xml:space="preserve" font-family="OpenSansCondensedLight" fill="black" text-anchor="middle" x="-55.5" y="74.4"><tspan dy="0.3em">812</tspan></text></g><text font-size="18.7" xml:space="preserve" font-family="OpenSansCondensedLight" line-height="21" fill="black" text-anchor="middle" text-vertical-anchor="middle" transform="matrix(1,0,0,1,47,28.5)"><tspan dy="0.3em">BATTERY</tspan></text></g><g data-type="tp.Link"><path fill="none" pointer-events="none" joint-selector="line" stroke-width="1" stroke="#333333" stroke-linejoin="round" marker-start="url(#v-2729-190246168)" marker-end="url(#v-27291588573873)" d="M 506.9 335.2 L 501 335 L 443 335 L 443 275"/><g><g label-idx="0" cursor="default" transform="translate(445, 335)"><rect joint-selector="rect" fill="#ffffff" rx="3" ry="3" width="8" height="0" transform="matrix(1,0,0,1,-4,0)"/><text joint-selector="text" font-size="18.7" xml:space="preserve" display="none" y="0.8em" fill="#000000" text-anchor="middle" pointer-events="none" font-family="OpenSansCondensedLight"><tspan dy="0" style="fill-opacity: 0; stroke-opacity: 0;">-</tspan></text></g></g></g><g data-type="tp.Link"><path fill="none" pointer-events="none" joint-selector="line" stroke-width="1" stroke="#333333" stroke-linejoin="round" marker-start="url(#v-2729-190246168)" marker-end="url(#v-27291588573873)" d="M 402.9 160.1 L 312 204.5"/><g><g label-idx="0" cursor="default" transform="translate(357.5, 182.3)"><rect joint-selector="rect" fill="#ffffff" rx="3" ry="3" width="8" height="0" transform="matrix(1,0,0,1,-4,0)"/><text joint-selector="text" font-size="18.7" xml:space="preserve" display="none" y="0.8em" fill="#000000" text-anchor="middle" pointer-events="none" font-family="OpenSansCondensedLight"><tspan dy="0" style="fill-opacity: 0; stroke-opacity: 0;">-</tspan></text></g></g></g><g data-type="tp.Element" transform="translate(31,288)"><g><g>
<path d="M94.5,0H0v94.5h94.5V0L94.5,0z" fill="#FFFFFF" stroke="#000000"/>
<rect x="4.1" y="4.3" width="86.2" height="85.9" fill="none"/>
<circle fill="none" cx="47.2" cy="0" r="0.1"/>
<circle fill="none" cx="70.7" cy="0" r="0.1"/>
<circle fill="none" cx="94.5" cy="23.8" r="0.1"/>
<circle fill="none" cx="94.5" cy="47.2" r="0.1"/>
<circle fill="none" cx="94.5" cy="70.7" r="0.1"/>
<circle fill="none" cx="70.7" cy="94.5" r="0.1"/>
<circle fill="none" cx="47.2" cy="94.5" r="0.1"/>
<circle fill="none" cx="23.8" cy="94.5" r="0.1"/>
<circle fill="none" cx="0" cy="70.7" r="0.1"/>
<circle fill="none" cx="0" cy="47.2" r="0.1"/>
<circle fill="none" cx="0" cy="23.8" r="0.1"/>
<circle fill="none" cx="23.8" cy="0" r="0.1"/>
</g></g><g><rect stroke="none" fill="#ffffff" width="40" height="20" x="130" y="92.3"/><path stroke="#000000" fill="none" d="M94.6,70.3 C101.3,96.1 126,66.5 132.7 92.3"/><text font-size="18.7" xml:space="preserve" font-family="OpenSansCondensedLight" fill="black" text-anchor="middle" x="150" y="102.3"><tspan dy="0.3em">814</tspan></text></g><text font-size="18.7" xml:space="preserve" font-family="OpenSansCondensedLight" line-height="21" fill="black" text-anchor="middle" text-vertical-anchor="middle" transform="matrix(1,0,0,1,47.2,47.2)"><tspan dy="-0.3em">USER</tspan><tspan dy="21" x="0">INTERFACE</tspan></text></g><g data-type="tp.Link"><path fill="none" pointer-events="none" joint-selector="line" stroke-width="1" stroke="#333333" stroke-linejoin="round" marker-start="url(#v-2729-190246168)" marker-end="url(#v-27291588573873)" d="M 125.6 311.6 L 218 311.5"/><g><g label-idx="0" cursor="default" transform="translate(171.8, 311.5)"><rect joint-selector="rect" fill="#ffffff" rx="3" ry="3" width="8" height="0" transform="matrix(1,0,0,1,-4,0)"/><text joint-selector="text" font-size="18.7" xml:space="preserve" display="none" y="0.8em" fill="#000000" text-anchor="middle" pointer-events="none" font-family="OpenSansCondensedLight"><tspan dy="0" style="fill-opacity: 0; stroke-opacity: 0;">-</tspan></text></g></g></g><g data-type="tp.Element" transform="translate(217.8,625)"><g><g>
<path d="M94.5,0H0v94.5h94.5V0L94.5,0z" fill="#FFFFFF" stroke="#000000"/>
<rect x="4.1" y="4.3" width="86.2" height="85.9" fill="none"/>
<circle fill="none" cx="47.2" cy="0" r="0.1"/>
<circle fill="none" cx="70.7" cy="0" r="0.1"/>
<circle fill="none" cx="94.5" cy="23.8" r="0.1"/>
<circle fill="none" cx="94.5" cy="47.2" r="0.1"/>
<circle fill="none" cx="94.5" cy="70.7" r="0.1"/>
<circle fill="none" cx="70.7" cy="94.5" r="0.1"/>
<circle fill="none" cx="47.2" cy="94.5" r="0.1"/>
<circle fill="none" cx="23.8" cy="94.5" r="0.1"/>
<circle fill="none" cx="0" cy="70.7" r="0.1"/>
<circle fill="none" cx="0" cy="47.2" r="0.1"/>
<circle fill="none" cx="0" cy="23.8" r="0.1"/>
<circle fill="none" cx="23.8" cy="0" r="0.1"/>
</g></g><g><rect stroke="none" fill="#ffffff" width="40" height="20" x="138.6" y="37.2"/><path stroke="#000000" fill="none" d="M94.6,47.2 C113.3,66.2 119.9,28.2 138.6 47.2"/><text font-size="18.7" xml:space="preserve" font-family="OpenSansCondensedLight" fill="black" text-anchor="middle" x="158.6" y="47.2"><tspan dy="0.3em">816</tspan></text></g><text font-size="18.7" xml:space="preserve" font-family="OpenSansCondensedLight" line-height="21" fill="black" text-anchor="middle" text-vertical-anchor="middle" transform="matrix(1,0,0,1,47.2,47.2)"><tspan dy="0.3em">CAMERA</tspan></text></g><g data-type="tp.Element" transform="translate(217.8,434)"><g><g>
<path d="M94.5,0H0v94.5h94.5V0L94.5,0z" fill="#FFFFFF" stroke="#000000"/>
<rect x="4.1" y="4.3" width="86.2" height="85.9" fill="none"/>
<circle fill="none" cx="47.2" cy="0" r="0.1"/>
<circle fill="none" cx="70.7" cy="0" r="0.1"/>
<circle fill="none" cx="94.5" cy="23.8" r="0.1"/>
<circle fill="none" cx="94.5" cy="47.2" r="0.1"/>
<circle fill="none" cx="94.5" cy="70.7" r="0.1"/>
<circle fill="none" cx="70.7" cy="94.5" r="0.1"/>
<circle fill="none" cx="47.2" cy="94.5" r="0.1"/>
<circle fill="none" cx="23.8" cy="94.5" r="0.1"/>
<circle fill="none" cx="0" cy="70.7" r="0.1"/>
<circle fill="none" cx="0" cy="47.2" r="0.1"/>
<circle fill="none" cx="0" cy="23.8" r="0.1"/>
<circle fill="none" cx="23.8" cy="0" r="0.1"/>
</g></g><g><rect stroke="none" fill="#ffffff" width="40" height="20" x="138.6" y="37.2"/><path stroke="#000000" fill="none" d="M94.6,47.2 C113.3,66.2 119.9,28.2 138.6 47.2"/><text font-size="18.7" xml:space="preserve" font-family="OpenSansCondensedLight" fill="black" text-anchor="middle" x="158.6" y="47.2"><tspan dy="0.3em">818</tspan></text></g><text font-size="18.7" xml:space="preserve" font-family="OpenSansCondensedLight" line-height="21" fill="black" text-anchor="middle" text-vertical-anchor="middle" transform="matrix(1,0,0,1,47.2,47.2)"><tspan dy="-0.3em">IMAGE</tspan><tspan dy="21" x="0">PROCESSING</tspan></text></g><g data-type="tp.Link"><path fill="none" pointer-events="none" joint-selector="line" stroke-width="1" stroke="#333333" stroke-linejoin="round" marker-start="url(#v-2729-190246168)" marker-end="url(#v-27291588573873)" d="M 265 366.1 L 265 434"/><g><g label-idx="0" cursor="default" transform="translate(265, 400.1)"><rect joint-selector="rect" fill="#ffffff" rx="3" ry="3" width="8" height="0" transform="matrix(1,0,0,1,-4,0)"/><text joint-selector="text" font-size="18.7" xml:space="preserve" display="none" y="0.8em" fill="#000000" text-anchor="middle" pointer-events="none" font-family="OpenSansCondensedLight"><tspan dy="0" style="fill-opacity: 0; stroke-opacity: 0;">-</tspan></text></g></g></g><g data-type="tp.Link"><path fill="none" pointer-events="none" joint-selector="line" stroke-width="1" stroke="#333333" stroke-linejoin="round" marker-start="url(#v-2729-190246168)" marker-end="url(#v-27291588573873)" d="M 265 528.6 L 265 625"/><g><g label-idx="0" cursor="default" transform="translate(265, 576.8)"><rect joint-selector="rect" fill="#ffffff" rx="3" ry="3" width="8" height="0" transform="matrix(1,0,0,1,-4,0)"/><text joint-selector="text" font-size="18.7" xml:space="preserve" display="none" y="0.8em" fill="#000000" text-anchor="middle" pointer-events="none" font-family="OpenSansCondensedLight"><tspan dy="0" style="fill-opacity: 0; stroke-opacity: 0;">-</tspan></text></g></g></g></g></svg>