<svg xmlns="http://www.w3.org/2000/svg" xmlns:xlink="http://www.w3.org/1999/xlink" version="1.1" width="653.1" height="797.6" viewBox="17.9 18.9 653.1 797.6"><defs><marker orient="auto" overflow="visible" markerUnits="userSpaceOnUse"><path stroke="#333333" fill="#333333" d="M 8 -4 0 0 8 4 z"/></marker><marker orient="auto" overflow="visible" markerUnits="userSpaceOnUse"><path stroke="#333333" fill="#333333" transform="rotate(180)" d="M 8 -4 0 0 8 4 z"/></marker><marker orient="auto" overflow="visible" markerUnits="userSpaceOnUse"><path stroke="#333333" fill="#333333" d="M 0 0 0 0"/></marker></defs><g><g data-type="tp.Element" transform="translate(18,91.5)"><g><g>
<path d="M635,0H0v706h635V0L635,0z" fill="#FFFFFF" stroke="#000000"/>
<rect x="27.8" y="32.2" width="579.5" height="641.6" fill="none"/>
<circle fill="none" cx="317.5" cy="0" r="0.1"/>
<circle fill="none" cx="474.9" cy="0" r="0.1"/>
<circle fill="none" cx="635" cy="178" r="0.1"/>
<circle fill="none" cx="635" cy="353" r="0.1"/>
<circle fill="none" cx="635" cy="528" r="0.1"/>
<circle fill="none" cx="474.9" cy="706" r="0.1"/>
<circle fill="none" cx="317.5" cy="706" r="0.1"/>
<circle fill="none" cx="160.2" cy="706" r="0.1"/>
<circle fill="none" cx="0" cy="528" r="0.1"/>
<circle fill="none" cx="0" cy="353" r="0.1"/>
<circle fill="none" cx="0" cy="178" r="0.1"/>
<circle fill="none" cx="160.2" cy="0" r="0.1"/>
</g></g><g><rect stroke="none" fill="#ffffff" width="0" height="0"/><path stroke="#000000" fill="none" d=""/><text font-size="18.7" xml:space="preserve" display="none" font-family="OpenSansCondensedLight" fill="black" text-anchor="middle"><tspan dy="0.3em" style="fill-opacity: 0; stroke-opacity: 0;">-</tspan></text></g><text font-size="18.7" xml:space="preserve" font-family="OpenSansCondensedLight" line-height="21" fill="black" text-anchor="middle" text-vertical-anchor="middle" transform="matrix(1,0,0,1,317.5,353)"><tspan dy="-0.3em" style="fill-opacity: 0; stroke-opacity: 0;">-</tspan><tspan dy="21" x="0" style="fill-opacity: 0; stroke-opacity: 0;">-</tspan></text></g><g data-type="tp.Element" transform="translate(79,19)"><g><g>
<g stroke="#000000" fill="#FFFFFF">
    <ellipse cx="9.5" cy="5.5" rx="1.2" ry="1.2"/>
    <polygon points="19,43 9.5,47 0,43 9.5,6.7"/>
</g>
<g fill="none" stroke="#000000">
    <line x1="9.5" y1="6.7" x2="9.5" y2="47"/>
    <ellipse cx="9.5" cy="5.5" rx="1.2" ry="1.2"/>
    <line x1="9.5" y1="6.7" x2="0" y2="43"/>
    <line x1="9.5" y1="6.7" x2="19" y2="43"/>
    <polygon points="9.5,13.5 7.9,12.8 9.5,12 11,12.8"/>
    <polygon points="9.5,15.5 7.4,14.6 9.5,13.6 11.5,14.6"/>
    <polygon points="9.5,18.1 6.8,16.9 9.5,15.7 12.2,16.9"/>
    <polygon points="9.5,21.3 6,19.9 9.5,18.3 12.9,20"/>
    <polygon points="9.5,25.7 5,23.8 9.5,21.7 13.9,23.8"/>
    <polygon points="9.5,31.1 3.8,28.7 9.5,26.1 15.2,28.6"/>
    <polygon points="9.5,38.1 2.1,35 9.5,31.6 16.9,34.9"/>
    <polygon points="9.5,47 0,43 9.5,38.8 19,43"/>
    <path d="M12.1,10.4c1.8,-1,3.1,-2.8,3.1,-4.9C15.2,2.5,12.6,0,9.5,0S3.7,2.5,3.7,5.5c0,2.1,1.2,4,3.1,4.9"/>
    <path d="M11.7,8.7c1.1,-0.7,1.8,-1.8,1.8,-3.2c0,-2.1,-1.8,-3.8,-4,-3.8S5.5,3.4,5.5,5.5c0,1.4,0.8,2.5,1.8,3.2"/>
    <path d="M11.3,7.1c0.4,-0.4,0.7,-1,0.7,-1.6c0,-1.3,-1.1,-2.3,-2.4,-2.3S7.1,4.2,7.1,5.5c0,0.6,0.2,1.2,0.7,1.7"/>
</g>
<rect x="1.2" y="17.2" width="17.1" height="16" fill="none"/>
<circle fill="none" cx="9.4" cy="0" r="0.1"/>
<circle fill="none" cx="15.2" cy="5.5" r="0.1"/>
<circle fill="none" cx="11.5" cy="14.6" r="0.1"/>
<circle fill="none" cx="13.9" cy="23.8" r="0.1"/>
<circle fill="none" cx="16.9" cy="34.9" r="0.1"/>
<circle fill="none" cx="19" cy="43" r="0.1"/>
<circle fill="none" cx="9.5" cy="47" r="0.1"/>
<circle fill="none" cx="0" cy="43" r="0.1"/>
<circle fill="none" cx="2.1" cy="35" r="0.1"/>
<circle fill="none" cx="5" cy="23.7" r="0.1"/>
<circle fill="none" cx="7.4" cy="14.6" r="0.1"/>
<circle fill="none" cx="3.7" cy="5.5" r="0.1"/>
</g></g><g><rect stroke="none" fill="#ffffff" width="40" height="20" x="55.5" y="4.4"/><path stroke="#000000" fill="none" d="M11.5,14.4 C30.2,33.4 36.9,-4.6 55.5 14.4"/><text font-size="18.7" xml:space="preserve" font-family="OpenSansCondensedLight" fill="black" text-anchor="middle" x="75.5" y="14.4"><tspan dy="0.3em">902</tspan></text></g><text font-size="18.7" xml:space="preserve" font-family="OpenSansCondensedLight" line-height="21" fill="black" text-anchor="middle" text-vertical-anchor="top" transform="matrix(1,0,0,1,9.5,57.1)"><tspan dy="0.8em" style="fill-opacity: 0; stroke-opacity: 0;">-</tspan><tspan dy="21" x="0" style="fill-opacity: 0; stroke-opacity: 0;">-</tspan></text></g><g data-type="tp.Element" transform="translate(245,23)"><g><g>
<g stroke="#000000" fill="#FFFFFF">
    <ellipse cx="9" cy="5.1" rx="1.2" ry="1.1"/>
    <polygon points="18,40.3 9,44 0,40.3 9,6.2"/>
</g>
<g fill="none" stroke="#000000">
    <line x1="9" y1="6.2" x2="9" y2="44"/>
    <ellipse cx="9" cy="5.1" rx="1.2" ry="1.1"/>
    <line x1="9" y1="6.2" x2="0" y2="40.3"/>
    <line x1="9" y1="6.2" x2="18" y2="40.3"/>
    <polygon points="9,12.6 7.5,11.9 9,11.3 10.5,12"/>
    <polygon points="9,14.5 7,13.6 9,12.7 10.9,13.7"/>
    <polygon points="9,16.9 6.5,15.8 9,14.7 11.5,15.8"/>
    <polygon points="9,20 5.7,18.6 9,17.2 12.3,18.7"/>
    <polygon points="9,24 4.8,22.2 9,20.3 13.2,22.3"/>
    <polygon points="9,29.1 3.6,26.8 9,24.4 14.4,26.8"/>
    <polygon points="9,35.7 2,32.7 9,29.6 16,32.7"/>
    <polygon points="9,44 0,40.3 9,36.3 18,40.3"/>
    <path d="M11.5,9.7c1.7,-0.9,2.9,-2.6,2.9,-4.5C14.4,2.3,12,0,9,0S3.5,2.3,3.5,5.2c0,2,1.2,3.7,2.9,4.5"/>
    <path d="M11.1,8.1c1,-0.7,1.7,-1.7,1.7,-3c0,-2,-1.7,-3.6,-3.8,-3.6S5.2,3.2,5.2,5.2c0,1.3,0.7,2.3,1.7,3"/>
    <path d="M10.7,6.7c0.4,-0.4,0.6,-0.9,0.6,-1.5c0,-1.2,-1,-2.2,-2.3,-2.2S6.7,4,6.7,5.2c0,0.6,0.2,1.1,0.6,1.6"/>
</g>
<rect x="1.1" y="16.1" width="16.2" height="14.9" fill="none"/>
<circle fill="none" cx="8.9" cy="0" r="0.1"/>
<circle fill="none" cx="14.4" cy="5.2" r="0.1"/>
<circle fill="none" cx="10.9" cy="13.7" r="0.1"/>
<circle fill="none" cx="13.2" cy="22.3" r="0.1"/>
<circle fill="none" cx="16" cy="32.7" r="0.1"/>
<circle fill="none" cx="18" cy="40.3" r="0.1"/>
<circle fill="none" cx="9" cy="44" r="0.1"/>
<circle fill="none" cx="0" cy="40.3" r="0.1"/>
<circle fill="none" cx="2" cy="32.7" r="0.1"/>
<circle fill="none" cx="4.8" cy="22.2" r="0.1"/>
<circle fill="none" cx="7" cy="13.6" r="0.1"/>
<circle fill="none" cx="3.5" cy="5.2" r="0.1"/>
</g></g><g><rect stroke="none" fill="#ffffff" width="40" height="20" x="54.9" y="3.5"/><path stroke="#000000" fill="none" d="M10.9,13.5 C29.6,32.5 36.2,-5.5 54.9 13.5"/><text font-size="18.7" xml:space="preserve" font-family="OpenSansCondensedLight" fill="black" text-anchor="middle" x="74.9" y="13.5"><tspan dy="0.3em">904</tspan></text></g><text font-size="18.7" xml:space="preserve" font-family="OpenSansCondensedLight" line-height="21" fill="black" text-anchor="middle" text-vertical-anchor="top" transform="matrix(1,0,0,1,9,54.1)"><tspan dy="0.8em" style="fill-opacity: 0; stroke-opacity: 0;">-</tspan><tspan dy="21" x="0" style="fill-opacity: 0; stroke-opacity: 0;">-</tspan></text></g><g data-type="tp.Element" transform="translate(230,306)"><g><g>
<path d="M94,0H0v216h94V0L94,0z" fill="#FFFFFF" stroke="#000000"/>
<rect x="4.1" y="9.8" width="85.8" height="196.3" fill="none"/>
<circle fill="none" cx="47" cy="0" r="0.1"/>
<circle fill="none" cx="70.3" cy="0" r="0.1"/>
<circle fill="none" cx="94" cy="54.5" r="0.1"/>
<circle fill="none" cx="94" cy="108" r="0.1"/>
<circle fill="none" cx="94" cy="161.5" r="0.1"/>
<circle fill="none" cx="70.3" cy="216" r="0.1"/>
<circle fill="none" cx="47" cy="216" r="0.1"/>
<circle fill="none" cx="23.7" cy="216" r="0.1"/>
<circle fill="none" cx="0" cy="161.5" r="0.1"/>
<circle fill="none" cx="0" cy="108" r="0.1"/>
<circle fill="none" cx="0" cy="54.5" r="0.1"/>
<circle fill="none" cx="23.7" cy="0" r="0.1"/>
</g></g><g><rect stroke="none" fill="#ffffff" width="40" height="20" x="129.5" y="13.3"/><path stroke="#000000" fill="none" d="M94.1,55.3 C119.8,62.4 106.5,26.2 132.2 33.3"/><text font-size="18.7" xml:space="preserve" font-family="OpenSansCondensedLight" fill="black" text-anchor="middle" x="149.5" y="23.3"><tspan dy="0.3em">906</tspan></text></g><text font-size="18.7" xml:space="preserve" font-family="OpenSansCondensedLight" line-height="21" fill="black" text-anchor="middle" text-vertical-anchor="middle" transform="matrix(1,0,0,1,47,108)"><tspan dy="0.3em">CONTROLLER</tspan></text></g><g data-type="tp.Element" transform="translate(41.3,309)"><g><g>
<path d="M94.5,0H0v94.5h94.5V0L94.5,0z" fill="#FFFFFF" stroke="#000000"/>
<rect x="4.1" y="4.3" width="86.2" height="85.9" fill="none"/>
<circle fill="none" cx="47.2" cy="0" r="0.1"/>
<circle fill="none" cx="70.7" cy="0" r="0.1"/>
<circle fill="none" cx="94.5" cy="23.8" r="0.1"/>
<circle fill="none" cx="94.5" cy="47.2" r="0.1"/>
<circle fill="none" cx="94.5" cy="70.7" r="0.1"/>
<circle fill="none" cx="70.7" cy="94.5" r="0.1"/>
<circle fill="none" cx="47.2" cy="94.5" r="0.1"/>
<circle fill="none" cx="23.8" cy="94.5" r="0.1"/>
<circle fill="none" cx="0" cy="70.7" r="0.1"/>
<circle fill="none" cx="0" cy="47.2" r="0.1"/>
<circle fill="none" cx="0" cy="23.8" r="0.1"/>
<circle fill="none" cx="23.8" cy="0" r="0.1"/>
</g></g><g><rect stroke="none" fill="#ffffff" width="40" height="20" x="130" y="-17.8"/><path stroke="#000000" fill="none" d="M94.6,24.2 C120.3,31.3 107,-5 132.7 2.2"/><text font-size="18.7" xml:space="preserve" font-family="OpenSansCondensedLight" fill="black" text-anchor="middle" x="150" y="-7.8"><tspan dy="0.3em">908</tspan></text></g><text font-size="18.7" xml:space="preserve" font-family="OpenSansCondensedLight" line-height="21" fill="black" text-anchor="middle" text-vertical-anchor="middle" transform="matrix(1,0,0,1,47.2,47.2)"><tspan dy="-0.3em">WIRELESS</tspan><tspan dy="21" x="0">COMM</tspan></text></g><g data-type="tp.Element" transform="translate(396,419)"><g><g>
<path d="M94.5,0H0v94.5h94.5V0L94.5,0z" fill="#FFFFFF" stroke="#000000"/>
<rect x="4.1" y="4.3" width="86.2" height="85.9" fill="none"/>
<circle fill="none" cx="47.2" cy="0" r="0.1"/>
<circle fill="none" cx="70.7" cy="0" r="0.1"/>
<circle fill="none" cx="94.5" cy="23.8" r="0.1"/>
<circle fill="none" cx="94.5" cy="47.2" r="0.1"/>
<circle fill="none" cx="94.5" cy="70.7" r="0.1"/>
<circle fill="none" cx="70.7" cy="94.5" r="0.1"/>
<circle fill="none" cx="47.2" cy="94.5" r="0.1"/>
<circle fill="none" cx="23.8" cy="94.5" r="0.1"/>
<circle fill="none" cx="0" cy="70.7" r="0.1"/>
<circle fill="none" cx="0" cy="47.2" r="0.1"/>
<circle fill="none" cx="0" cy="23.8" r="0.1"/>
<circle fill="none" cx="23.8" cy="0" r="0.1"/>
</g></g><g><rect stroke="none" fill="#ffffff" width="40" height="20" x="138.6" y="37.2"/><path stroke="#000000" fill="none" d="M94.6,47.2 C113.3,66.2 119.9,28.2 138.6 47.2"/><text font-size="18.7" xml:space="preserve" font-family="OpenSansCondensedLight" fill="black" text-anchor="middle" x="158.6" y="47.2"><tspan dy="0.3em">910</tspan></text></g><text font-size="18.7" xml:space="preserve" font-family="OpenSansCondensedLight" line-height="21" fill="black" text-anchor="middle" text-vertical-anchor="middle" transform="matrix(1,0,0,1,47.2,47.2)"><tspan dy="0.3em">SIM</tspan></text></g><g data-type="tp.Element" transform="translate(444.8,684)"><g><g>
<path d="M94.5,0H0v94.5h94.5V0L94.5,0z" fill="#FFFFFF" stroke="#000000"/>
<rect x="4.1" y="4.3" width="86.2" height="85.9" fill="none"/>
<circle fill="none" cx="47.2" cy="0" r="0.1"/>
<circle fill="none" cx="70.7" cy="0" r="0.1"/>
<circle fill="none" cx="94.5" cy="23.8" r="0.1"/>
<circle fill="none" cx="94.5" cy="47.2" r="0.1"/>
<circle fill="none" cx="94.5" cy="70.7" r="0.1"/>
<circle fill="none" cx="70.7" cy="94.5" r="0.1"/>
<circle fill="none" cx="47.2" cy="94.5" r="0.1"/>
<circle fill="none" cx="23.8" cy="94.5" r="0.1"/>
<circle fill="none" cx="0" cy="70.7" r="0.1"/>
<circle fill="none" cx="0" cy="47.2" r="0.1"/>
<circle fill="none" cx="0" cy="23.8" r="0.1"/>
<circle fill="none" cx="23.8" cy="0" r="0.1"/>
</g></g><g><rect stroke="none" fill="#ffffff" width="40" height="20" x="138.6" y="37.2"/><path stroke="#000000" fill="none" d="M94.6,47.2 C113.3,66.2 119.9,28.2 138.6 47.2"/><text font-size="18.7" xml:space="preserve" font-family="OpenSansCondensedLight" fill="black" text-anchor="middle" x="158.6" y="47.2"><tspan dy="0.3em">912</tspan></text></g><text font-size="18.7" xml:space="preserve" font-family="OpenSansCondensedLight" line-height="21" fill="black" text-anchor="middle" text-vertical-anchor="middle" transform="matrix(1,0,0,1,47.2,47.2)"><tspan dy="0.3em">SPEAKER</tspan></text></g><g data-type="tp.Element" transform="translate(98,684)"><g><g>
<path d="M94.5,0H0v94.5h94.5V0L94.5,0z" fill="#FFFFFF" stroke="#000000"/>
<rect x="4.1" y="4.3" width="86.2" height="85.9" fill="none"/>
<circle fill="none" cx="47.2" cy="0" r="0.1"/>
<circle fill="none" cx="70.7" cy="0" r="0.1"/>
<circle fill="none" cx="94.5" cy="23.8" r="0.1"/>
<circle fill="none" cx="94.5" cy="47.2" r="0.1"/>
<circle fill="none" cx="94.5" cy="70.7" r="0.1"/>
<circle fill="none" cx="70.7" cy="94.5" r="0.1"/>
<circle fill="none" cx="47.2" cy="94.5" r="0.1"/>
<circle fill="none" cx="23.8" cy="94.5" r="0.1"/>
<circle fill="none" cx="0" cy="70.7" r="0.1"/>
<circle fill="none" cx="0" cy="47.2" r="0.1"/>
<circle fill="none" cx="0" cy="23.8" r="0.1"/>
<circle fill="none" cx="23.8" cy="0" r="0.1"/>
</g></g><g><rect stroke="none" fill="#ffffff" width="40" height="20" x="-74.1" y="37.2"/><path stroke="#000000" fill="none" d="M-0.1,47.2 C-14.5,28.2 -19.7,66.2 -34.1 47.2"/><text font-size="18.7" xml:space="preserve" font-family="OpenSansCondensedLight" fill="black" text-anchor="middle" x="-54.1" y="47.2"><tspan dy="0.3em">914</tspan></text></g><text font-size="18.7" xml:space="preserve" font-family="OpenSansCondensedLight" line-height="21" fill="black" text-anchor="middle" text-vertical-anchor="middle" transform="matrix(1,0,0,1,47.2,47.2)"><tspan dy="-0.3em">VIBRATION</tspan><tspan dy="21" x="0">GENERATOR</tspan></text></g><g data-type="tp.Link"><path fill="none" pointer-events="none" joint-selector="line" stroke-width="1" stroke="#333333" stroke-linejoin="round" marker-start="url(#v-3279-190246168)" marker-end="url(#v-32791588573873)" d="M 88.5 66.1 L 88.5 309"/><g><g label-idx="0" cursor="default" transform="translate(88.5, 187.6)"><rect joint-selector="rect" fill="#ffffff" rx="3" ry="3" width="8" height="0" transform="matrix(1,0,0,1,-4,0)"/><text joint-selector="text" font-size="18.7" xml:space="preserve" display="none" y="0.8em" fill="#000000" text-anchor="middle" pointer-events="none" font-family="OpenSansCondensedLight"><tspan dy="0" style="fill-opacity: 0; stroke-opacity: 0;">-</tspan></text></g></g></g><g data-type="tp.Link"><path fill="none" pointer-events="none" joint-selector="line" stroke-width="1" stroke="#333333" stroke-linejoin="round" marker-start="url(#v-32792000855011)" marker-end="url(#v-32791588573873)" d="M 229.9 355.6 L 135.7 356.2"/><g><g label-idx="0" cursor="default" transform="translate(182.8, 355.9)"><rect joint-selector="rect" fill="#ffffff" rx="3" ry="3" width="8" height="0" transform="matrix(1,0,0,1,-4,0)"/><text joint-selector="text" font-size="18.7" xml:space="preserve" display="none" y="0.8em" fill="#000000" text-anchor="middle" pointer-events="none" font-family="OpenSansCondensedLight"><tspan dy="0" style="fill-opacity: 0; stroke-opacity: 0;">-</tspan></text></g></g></g><g data-type="tp.Element" transform="translate(415,127)"><g><g>
<path d="M154,0H0v64h154V0L154,0z" fill="#FFFFFF" stroke="#000000"/>
<rect x="6.7" y="2.9" width="140.5" height="58.2" fill="none"/>
<circle fill="none" cx="77" cy="0" r="0.1"/>
<circle fill="none" cx="115.2" cy="0" r="0.1"/>
<circle fill="none" cx="154" cy="16.1" r="0.1"/>
<circle fill="none" cx="154" cy="32" r="0.1"/>
<circle fill="none" cx="154" cy="47.9" r="0.1"/>
<circle fill="none" cx="115.2" cy="64" r="0.1"/>
<circle fill="none" cx="77" cy="64" r="0.1"/>
<circle fill="none" cx="38.9" cy="64" r="0.1"/>
<circle fill="none" cx="0" cy="47.9" r="0.1"/>
<circle fill="none" cx="0" cy="32" r="0.1"/>
<circle fill="none" cx="0" cy="16.1" r="0.1"/>
<circle fill="none" cx="38.9" cy="0" r="0.1"/>
</g></g><g><rect stroke="none" fill="#ffffff" width="40" height="20" x="189.5" y="-25.7"/><path stroke="#000000" fill="none" d="M154.1,16.3 C179.8,23.5 166.5,-12.8 192.2 -5.7"/><text font-size="18.7" xml:space="preserve" font-family="OpenSansCondensedLight" fill="black" text-anchor="middle" x="209.5" y="-15.7"><tspan dy="0.3em">916</tspan></text></g><text font-size="18.7" xml:space="preserve" font-family="OpenSansCondensedLight" line-height="21" fill="black" text-anchor="middle" text-vertical-anchor="middle" transform="matrix(1,0,0,1,77,32)"><tspan dy="0.3em">MEMORY</tspan></text></g><g data-type="tp.Element" transform="translate(414.5,225)"><g><g>
<path d="M155,0H0v65h155V0L155,0z" fill="#FFFFFF" stroke="#000000"/>
<rect x="6.8" y="3" width="141.5" height="59.1" fill="none"/>
<circle fill="none" cx="77.5" cy="0" r="0.1"/>
<circle fill="none" cx="115.9" cy="0" r="0.1"/>
<circle fill="none" cx="155" cy="16.4" r="0.1"/>
<circle fill="none" cx="155" cy="32.5" r="0.1"/>
<circle fill="none" cx="155" cy="48.6" r="0.1"/>
<circle fill="none" cx="115.9" cy="65" r="0.1"/>
<circle fill="none" cx="77.5" cy="65" r="0.1"/>
<circle fill="none" cx="39.1" cy="65" r="0.1"/>
<circle fill="none" cx="0" cy="48.6" r="0.1"/>
<circle fill="none" cx="0" cy="32.5" r="0.1"/>
<circle fill="none" cx="0" cy="16.4" r="0.1"/>
<circle fill="none" cx="39.1" cy="0" r="0.1"/>
</g></g><g><rect stroke="none" fill="#ffffff" width="40" height="20" x="190.5" y="-25.4"/><path stroke="#000000" fill="none" d="M155.1,16.6 C180.8,23.7 167.5,-12.5 193.2 -5.4"/><text font-size="18.7" xml:space="preserve" font-family="OpenSansCondensedLight" fill="black" text-anchor="middle" x="210.5" y="-15.4"><tspan dy="0.3em">918</tspan></text></g><text font-size="18.7" xml:space="preserve" font-family="OpenSansCondensedLight" line-height="21" fill="black" text-anchor="middle" text-vertical-anchor="middle" transform="matrix(1,0,0,1,77.5,32.5)"><tspan dy="-0.3em">POWER</tspan><tspan dy="21" x="0">MANAGER</tspan></text></g><g data-type="tp.Element" transform="translate(519,324)"><g><g>
<path d="M94,0H0v57h94V0L94,0z" fill="#FFFFFF" stroke="#000000"/>
<rect x="4.1" y="2.6" width="85.8" height="51.8" fill="none"/>
<circle fill="none" cx="47" cy="0" r="0.1"/>
<circle fill="none" cx="70.3" cy="0" r="0.1"/>
<circle fill="none" cx="94" cy="14.4" r="0.1"/>
<circle fill="none" cx="94" cy="28.5" r="0.1"/>
<circle fill="none" cx="94" cy="42.6" r="0.1"/>
<circle fill="none" cx="70.3" cy="57" r="0.1"/>
<circle fill="none" cx="47" cy="57" r="0.1"/>
<circle fill="none" cx="23.7" cy="57" r="0.1"/>
<circle fill="none" cx="0" cy="42.6" r="0.1"/>
<circle fill="none" cx="0" cy="28.5" r="0.1"/>
<circle fill="none" cx="0" cy="14.4" r="0.1"/>
<circle fill="none" cx="23.7" cy="0" r="0.1"/>
</g></g><g><rect stroke="none" fill="#ffffff" width="40" height="20" x="-75.5" y="64.4"/><path stroke="#000000" fill="none" d="M-0.1,42.4 C-25.8,35.3 -12.5,71.6 -38.2 64.4"/><text font-size="18.7" xml:space="preserve" font-family="OpenSansCondensedLight" fill="black" text-anchor="middle" x="-55.5" y="74.4"><tspan dy="0.3em">920</tspan></text></g><text font-size="18.7" xml:space="preserve" font-family="OpenSansCondensedLight" line-height="21" fill="black" text-anchor="middle" text-vertical-anchor="middle" transform="matrix(1,0,0,1,47,28.5)"><tspan dy="0.3em">BATTERY</tspan></text></g><g data-type="tp.Link"><path fill="none" pointer-events="none" joint-selector="line" stroke-width="1" stroke="#333333" stroke-linejoin="round" marker-start="url(#v-3279-190246168)" marker-end="url(#v-32791588573873)" d="M 518.9 350.2 L 513 350 L 455 350 L 455 290"/><g><g label-idx="0" cursor="default" transform="translate(457, 350)"><rect joint-selector="rect" fill="#ffffff" rx="3" ry="3" width="8" height="0" transform="matrix(1,0,0,1,-4,0)"/><text joint-selector="text" font-size="18.7" xml:space="preserve" display="none" y="0.8em" fill="#000000" text-anchor="middle" pointer-events="none" font-family="OpenSansCondensedLight"><tspan dy="0" style="fill-opacity: 0; stroke-opacity: 0;">-</tspan></text></g></g></g><g data-type="tp.Link"><path fill="none" pointer-events="none" joint-selector="line" stroke-width="1" stroke="#333333" stroke-linejoin="round" marker-start="url(#v-3279-190246168)" marker-end="url(#v-32791588573873)" d="M 414.9 175.1 L 300.3 306"/><g><g label-idx="0" cursor="default" transform="translate(357.6, 240.5)"><rect joint-selector="rect" fill="#ffffff" rx="3" ry="3" width="8" height="0" transform="matrix(1,0,0,1,-4,0)"/><text joint-selector="text" font-size="18.7" xml:space="preserve" display="none" y="0.8em" fill="#000000" text-anchor="middle" pointer-events="none" font-family="OpenSansCondensedLight"><tspan dy="0" style="fill-opacity: 0; stroke-opacity: 0;">-</tspan></text></g></g></g><g data-type="tp.Element" transform="translate(43,447)"><g><g>
<path d="M94.5,0H0v94.5h94.5V0L94.5,0z" fill="#FFFFFF" stroke="#000000"/>
<rect x="4.1" y="4.3" width="86.2" height="85.9" fill="none"/>
<circle fill="none" cx="47.2" cy="0" r="0.1"/>
<circle fill="none" cx="70.7" cy="0" r="0.1"/>
<circle fill="none" cx="94.5" cy="23.8" r="0.1"/>
<circle fill="none" cx="94.5" cy="47.2" r="0.1"/>
<circle fill="none" cx="94.5" cy="70.7" r="0.1"/>
<circle fill="none" cx="70.7" cy="94.5" r="0.1"/>
<circle fill="none" cx="47.2" cy="94.5" r="0.1"/>
<circle fill="none" cx="23.8" cy="94.5" r="0.1"/>
<circle fill="none" cx="0" cy="70.7" r="0.1"/>
<circle fill="none" cx="0" cy="47.2" r="0.1"/>
<circle fill="none" cx="0" cy="23.8" r="0.1"/>
<circle fill="none" cx="23.8" cy="0" r="0.1"/>
</g></g><g><rect stroke="none" fill="#ffffff" width="40" height="20" x="-23.6" y="132.7"/><path stroke="#000000" fill="none" d="M24.2,94.6 C-1.6,101.3 27.9,126 2.2 132.7"/><text font-size="18.7" xml:space="preserve" font-family="OpenSansCondensedLight" fill="black" text-anchor="middle" x="-3.6" y="142.7"><tspan dy="0.3em">922</tspan></text></g><text font-size="18.7" xml:space="preserve" font-family="OpenSansCondensedLight" line-height="21" fill="black" text-anchor="middle" text-vertical-anchor="middle" transform="matrix(1,0,0,1,47.2,47.2)"><tspan dy="-0.3em">USER</tspan><tspan dy="21" x="0">INTERFACE</tspan></text></g><g data-type="tp.Link"><path fill="none" pointer-events="none" joint-selector="line" stroke-width="1" stroke="#333333" stroke-linejoin="round" marker-start="url(#v-3279-190246168)" marker-end="url(#v-32791588573873)" d="M 137.6 467.7 L 230 467.5"/><g><g label-idx="0" cursor="default" transform="translate(183.8, 467.6)"><rect joint-selector="rect" fill="#ffffff" rx="3" ry="3" width="8" height="0" transform="matrix(1,0,0,1,-4,0)"/><text joint-selector="text" font-size="18.7" xml:space="preserve" display="none" y="0.8em" fill="#000000" text-anchor="middle" pointer-events="none" font-family="OpenSansCondensedLight"><tspan dy="0" style="fill-opacity: 0; stroke-opacity: 0;">-</tspan></text></g></g></g><g data-type="tp.Element" transform="translate(229.8,684)"><g><g>
<path d="M94.5,0H0v94.5h94.5V0L94.5,0z" fill="#FFFFFF" stroke="#000000"/>
<rect x="4.1" y="4.3" width="86.2" height="85.9" fill="none"/>
<circle fill="none" cx="47.2" cy="0" r="0.1"/>
<circle fill="none" cx="70.7" cy="0" r="0.1"/>
<circle fill="none" cx="94.5" cy="23.8" r="0.1"/>
<circle fill="none" cx="94.5" cy="47.2" r="0.1"/>
<circle fill="none" cx="94.5" cy="70.7" r="0.1"/>
<circle fill="none" cx="70.7" cy="94.5" r="0.1"/>
<circle fill="none" cx="47.2" cy="94.5" r="0.1"/>
<circle fill="none" cx="23.8" cy="94.5" r="0.1"/>
<circle fill="none" cx="0" cy="70.7" r="0.1"/>
<circle fill="none" cx="0" cy="47.2" r="0.1"/>
<circle fill="none" cx="0" cy="23.8" r="0.1"/>
<circle fill="none" cx="23.8" cy="0" r="0.1"/>
</g></g><g><rect stroke="none" fill="#ffffff" width="40" height="20" x="138.6" y="37.2"/><path stroke="#000000" fill="none" d="M94.6,47.2 C113.3,66.2 119.9,28.2 138.6 47.2"/><text font-size="18.7" xml:space="preserve" font-family="OpenSansCondensedLight" fill="black" text-anchor="middle" x="158.6" y="47.2"><tspan dy="0.3em">924</tspan></text></g><text font-size="18.7" xml:space="preserve" font-family="OpenSansCondensedLight" line-height="21" fill="black" text-anchor="middle" text-vertical-anchor="middle" transform="matrix(1,0,0,1,47.2,47.2)"><tspan dy="0.3em">CAMERA</tspan></text></g><g data-type="tp.Element" transform="translate(229.8,559)"><g><g>
<path d="M94.5,0H0v94.5h94.5V0L94.5,0z" fill="#FFFFFF" stroke="#000000"/>
<rect x="4.1" y="4.3" width="86.2" height="85.9" fill="none"/>
<circle fill="none" cx="47.2" cy="0" r="0.1"/>
<circle fill="none" cx="70.7" cy="0" r="0.1"/>
<circle fill="none" cx="94.5" cy="23.8" r="0.1"/>
<circle fill="none" cx="94.5" cy="47.2" r="0.1"/>
<circle fill="none" cx="94.5" cy="70.7" r="0.1"/>
<circle fill="none" cx="70.7" cy="94.5" r="0.1"/>
<circle fill="none" cx="47.2" cy="94.5" r="0.1"/>
<circle fill="none" cx="23.8" cy="94.5" r="0.1"/>
<circle fill="none" cx="0" cy="70.7" r="0.1"/>
<circle fill="none" cx="0" cy="47.2" r="0.1"/>
<circle fill="none" cx="0" cy="23.8" r="0.1"/>
<circle fill="none" cx="23.8" cy="0" r="0.1"/>
</g></g><g><rect stroke="none" fill="#ffffff" width="40" height="20" x="138.6" y="37.2"/><path stroke="#000000" fill="none" d="M94.6,47.2 C113.3,66.2 119.9,28.2 138.6 47.2"/><text font-size="18.7" xml:space="preserve" font-family="OpenSansCondensedLight" fill="black" text-anchor="middle" x="158.6" y="47.2"><tspan dy="0.3em">926</tspan></text></g><text font-size="18.7" xml:space="preserve" font-family="OpenSansCondensedLight" line-height="21" fill="black" text-anchor="middle" text-vertical-anchor="middle" transform="matrix(1,0,0,1,47.2,47.2)"><tspan dy="-0.3em">IMAGE</tspan><tspan dy="21" x="0">PROCESSING</tspan></text></g><g data-type="tp.Link"><path fill="none" pointer-events="none" joint-selector="line" stroke-width="1" stroke="#333333" stroke-linejoin="round" marker-start="url(#v-3279-190246168)" marker-end="url(#v-32791588573873)" d="M 277 522.1 L 277 559"/><g><g label-idx="0" cursor="default" transform="translate(277, 540.6)"><rect joint-selector="rect" fill="#ffffff" rx="3" ry="3" width="8" height="0" transform="matrix(1,0,0,1,-4,0)"/><text joint-selector="text" font-size="18.7" xml:space="preserve" display="none" y="0.8em" fill="#000000" text-anchor="middle" pointer-events="none" font-family="OpenSansCondensedLight"><tspan dy="0" style="fill-opacity: 0; stroke-opacity: 0;">-</tspan></text></g></g></g><g data-type="tp.Link"><path fill="none" pointer-events="none" joint-selector="line" stroke-width="1" stroke="#333333" stroke-linejoin="round" marker-start="url(#v-3279-190246168)" marker-end="url(#v-32791588573873)" d="M 277 653.6 L 277 684"/><g><g label-idx="0" cursor="default" transform="translate(277, 668.8)"><rect joint-selector="rect" fill="#ffffff" rx="3" ry="3" width="8" height="0" transform="matrix(1,0,0,1,-4,0)"/><text joint-selector="text" font-size="18.7" xml:space="preserve" display="none" y="0.8em" fill="#000000" text-anchor="middle" pointer-events="none" font-family="OpenSansCondensedLight"><tspan dy="0" style="fill-opacity: 0; stroke-opacity: 0;">-</tspan></text></g></g></g><g data-type="tp.Element" transform="translate(206.8,152)"><g><g>
<path d="M94.5,0H0v94.5h94.5V0L94.5,0z" fill="#FFFFFF" stroke="#000000"/>
<rect x="4.1" y="4.3" width="86.2" height="85.9" fill="none"/>
<circle fill="none" cx="47.2" cy="0" r="0.1"/>
<circle fill="none" cx="70.7" cy="0" r="0.1"/>
<circle fill="none" cx="94.5" cy="23.8" r="0.1"/>
<circle fill="none" cx="94.5" cy="47.2" r="0.1"/>
<circle fill="none" cx="94.5" cy="70.7" r="0.1"/>
<circle fill="none" cx="70.7" cy="94.5" r="0.1"/>
<circle fill="none" cx="47.2" cy="94.5" r="0.1"/>
<circle fill="none" cx="23.8" cy="94.5" r="0.1"/>
<circle fill="none" cx="0" cy="70.7" r="0.1"/>
<circle fill="none" cx="0" cy="47.2" r="0.1"/>
<circle fill="none" cx="0" cy="23.8" r="0.1"/>
<circle fill="none" cx="23.8" cy="0" r="0.1"/>
</g></g><g><rect stroke="none" fill="#ffffff" width="40" height="20" x="138.6" y="37.2"/><path stroke="#000000" fill="none" d="M94.6,47.2 C113.3,66.2 119.9,28.2 138.6 47.2"/><text font-size="18.7" xml:space="preserve" font-family="OpenSansCondensedLight" fill="black" text-anchor="middle" x="158.6" y="47.2"><tspan dy="0.3em">928</tspan></text></g><text font-size="18.7" xml:space="preserve" font-family="OpenSansCondensedLight" line-height="21" fill="black" text-anchor="middle" text-vertical-anchor="middle" transform="matrix(1,0,0,1,47.2,47.2)"><tspan dy="-0.3em">WIRELESS</tspan><tspan dy="21" x="0">COMM</tspan></text></g><g data-type="tp.Link"><path fill="none" pointer-events="none" joint-selector="line" stroke-width="1" stroke="#333333" stroke-linejoin="round" marker-start="url(#v-3279-190246168)" marker-end="url(#v-32791588573873)" d="M 277 305.9 L 277.4 246.5"/><g><g label-idx="0" cursor="default" transform="translate(277.2, 276.2)"><rect joint-selector="rect" fill="#ffffff" rx="3" ry="3" width="8" height="0" transform="matrix(1,0,0,1,-4,0)"/><text joint-selector="text" font-size="18.7" xml:space="preserve" display="none" y="0.8em" fill="#000000" text-anchor="middle" pointer-events="none" font-family="OpenSansCondensedLight"><tspan dy="0" style="fill-opacity: 0; stroke-opacity: 0;">-</tspan></text></g></g></g><g data-type="tp.Link"><path fill="none" pointer-events="none" joint-selector="line" stroke-width="1" stroke="#333333" stroke-linejoin="round" marker-start="url(#v-3279-190246168)" marker-end="url(#v-32791588573873)" d="M 254 151.9 L 254 67"/><g><g label-idx="0" cursor="default" transform="translate(254, 109.5)"><rect joint-selector="rect" fill="#ffffff" rx="3" ry="3" width="8" height="0" transform="matrix(1,0,0,1,-4,0)"/><text joint-selector="text" font-size="18.7" xml:space="preserve" display="none" y="0.8em" fill="#000000" text-anchor="middle" pointer-events="none" font-family="OpenSansCondensedLight"><tspan dy="0" style="fill-opacity: 0; stroke-opacity: 0;">-</tspan></text></g></g></g><g data-type="tp.Link"><path fill="none" pointer-events="none" joint-selector="line" stroke-width="1" stroke="#333333" stroke-linejoin="round" marker-start="url(#v-3279-190246168)" marker-end="url(#v-32791588573873)" d="M 324.1 465.9 L 396 466.2"/><g><g label-idx="0" cursor="default" transform="translate(360.1, 466.1)"><rect joint-selector="rect" fill="#ffffff" rx="3" ry="3" width="8" height="0" transform="matrix(1,0,0,1,-4,0)"/><text joint-selector="text" font-size="18.7" xml:space="preserve" display="none" y="0.8em" fill="#000000" text-anchor="middle" pointer-events="none" font-family="OpenSansCondensedLight"><tspan dy="0" style="fill-opacity: 0; stroke-opacity: 0;">-</tspan></text></g></g></g><g data-type="tp.Element" transform="translate(448,558)"><g><g>
<path d="M94.5,0H0v94.5h94.5V0L94.5,0z" fill="#FFFFFF" stroke="#000000"/>
<rect x="4.1" y="4.3" width="86.2" height="85.9" fill="none"/>
<circle fill="none" cx="47.2" cy="0" r="0.1"/>
<circle fill="none" cx="70.7" cy="0" r="0.1"/>
<circle fill="none" cx="94.5" cy="23.8" r="0.1"/>
<circle fill="none" cx="94.5" cy="47.2" r="0.1"/>
<circle fill="none" cx="94.5" cy="70.7" r="0.1"/>
<circle fill="none" cx="70.7" cy="94.5" r="0.1"/>
<circle fill="none" cx="47.2" cy="94.5" r="0.1"/>
<circle fill="none" cx="23.8" cy="94.5" r="0.1"/>
<circle fill="none" cx="0" cy="70.7" r="0.1"/>
<circle fill="none" cx="0" cy="47.2" r="0.1"/>
<circle fill="none" cx="0" cy="23.8" r="0.1"/>
<circle fill="none" cx="23.8" cy="0" r="0.1"/>
</g></g><g><rect stroke="none" fill="#ffffff" width="40" height="20" x="138.6" y="37.2"/><path stroke="#000000" fill="none" d="M94.6,47.2 C113.3,66.2 119.9,28.2 138.6 47.2"/><text font-size="18.7" xml:space="preserve" font-family="OpenSansCondensedLight" fill="black" text-anchor="middle" x="158.6" y="47.2"><tspan dy="0.3em">930</tspan></text></g><text font-size="18.7" xml:space="preserve" font-family="OpenSansCondensedLight" line-height="21" fill="black" text-anchor="middle" text-vertical-anchor="middle" transform="matrix(1,0,0,1,47.2,47.2)"><tspan dy="-0.3em">AUDIO</tspan><tspan dy="21" x="0">DRIVER</tspan></text></g><g data-type="tp.Link"><path fill="none" pointer-events="none" joint-selector="line" stroke-width="1" stroke="#333333" stroke-linejoin="round" marker-start="url(#v-3279-190246168)" marker-end="url(#v-32791588573873)" d="M 300.6 522.1 L 448 581.8"/><g><g label-idx="0" cursor="default" transform="translate(374.3, 552)"><rect joint-selector="rect" fill="#ffffff" rx="3" ry="3" width="8" height="0" transform="matrix(1,0,0,1,-4,0)"/><text joint-selector="text" font-size="18.7" xml:space="preserve" display="none" y="0.8em" fill="#000000" text-anchor="middle" pointer-events="none" font-family="OpenSansCondensedLight"><tspan dy="0" style="fill-opacity: 0; stroke-opacity: 0;">-</tspan></text></g></g></g><g data-type="tp.Link"><path fill="none" pointer-events="none" joint-selector="line" stroke-width="1" stroke="#333333" stroke-linejoin="round" marker-start="url(#v-3279-190246168)" marker-end="url(#v-32791588573873)" d="M 492.4 652.6 L 492 684"/><g><g label-idx="0" cursor="default" transform="translate(492.2, 668.3)"><rect joint-selector="rect" fill="#ffffff" rx="3" ry="3" width="8" height="0" transform="matrix(1,0,0,1,-4,0)"/><text joint-selector="text" font-size="18.7" xml:space="preserve" display="none" y="0.8em" fill="#000000" text-anchor="middle" pointer-events="none" font-family="OpenSansCondensedLight"><tspan dy="0" style="fill-opacity: 0; stroke-opacity: 0;">-</tspan></text></g></g></g><g data-type="tp.Element" transform="translate(98,559)"><g><g>
<path d="M94.5,0H0v94.5h94.5V0L94.5,0z" fill="#FFFFFF" stroke="#000000"/>
<rect x="4.1" y="4.3" width="86.2" height="85.9" fill="none"/>
<circle fill="none" cx="47.2" cy="0" r="0.1"/>
<circle fill="none" cx="70.7" cy="0" r="0.1"/>
<circle fill="none" cx="94.5" cy="23.8" r="0.1"/>
<circle fill="none" cx="94.5" cy="47.2" r="0.1"/>
<circle fill="none" cx="94.5" cy="70.7" r="0.1"/>
<circle fill="none" cx="70.7" cy="94.5" r="0.1"/>
<circle fill="none" cx="47.2" cy="94.5" r="0.1"/>
<circle fill="none" cx="23.8" cy="94.5" r="0.1"/>
<circle fill="none" cx="0" cy="70.7" r="0.1"/>
<circle fill="none" cx="0" cy="47.2" r="0.1"/>
<circle fill="none" cx="0" cy="23.8" r="0.1"/>
<circle fill="none" cx="23.8" cy="0" r="0.1"/>
</g></g><g><rect stroke="none" fill="#ffffff" width="40" height="20" x="-75.5" y="92.3"/><path stroke="#000000" fill="none" d="M-0.1,70.3 C-25.8,63.2 -12.5,99.5 -38.2 92.3"/><text font-size="18.7" xml:space="preserve" font-family="OpenSansCondensedLight" fill="black" text-anchor="middle" x="-55.5" y="102.3"><tspan dy="0.3em">932</tspan></text></g><text font-size="18.7" xml:space="preserve" font-family="OpenSansCondensedLight" line-height="21" fill="black" text-anchor="middle" text-vertical-anchor="middle" transform="matrix(1,0,0,1,47.2,47.2)"><tspan dy="-0.3em">HAPTIC</tspan><tspan dy="21" x="0">DRIVER</tspan></text></g><g data-type="tp.Link"><path fill="none" pointer-events="none" joint-selector="line" stroke-width="1" stroke="#333333" stroke-linejoin="round" marker-start="url(#v-3279-190246168)" marker-end="url(#v-32791588573873)" d="M 253.5 522.1 L 192.5 582.8"/><g><g label-idx="0" cursor="default" transform="translate(223, 552.5)"><rect joint-selector="rect" fill="#ffffff" rx="3" ry="3" width="8" height="0" transform="matrix(1,0,0,1,-4,0)"/><text joint-selector="text" font-size="18.7" xml:space="preserve" display="none" y="0.8em" fill="#000000" text-anchor="middle" pointer-events="none" font-family="OpenSansCondensedLight"><tspan dy="0" style="fill-opacity: 0; stroke-opacity: 0;">-</tspan></text></g></g></g><g data-type="tp.Link"><path fill="none" pointer-events="none" joint-selector="line" stroke-width="1" stroke="#333333" stroke-linejoin="round" marker-start="url(#v-32792000855011)" marker-end="url(#v-32791588573873)" d="M 145.2 653.6 L 145.2 684"/><g><g label-idx="0" cursor="default" transform="translate(145.2, 668.8)"><rect joint-selector="rect" fill="#ffffff" rx="3" ry="3" width="8" height="0" transform="matrix(1,0,0,1,-4,0)"/><text joint-selector="text" font-size="18.7" xml:space="preserve" display="none" y="0.8em" fill="#000000" text-anchor="middle" pointer-events="none" font-family="OpenSansCondensedLight"><tspan dy="0" style="fill-opacity: 0; stroke-opacity: 0;">-</tspan></text></g></g></g></g></svg>